<?xml version="1.0" standalone="no"?><svg xmlns="http://www.w3.org/2000/svg" width="256" height="256" class="icon" viewBox="0 0 1024 1024"><path fill="#D3D3D3" d="m554.7 110 284.1 164a85.3 85.3 0 0 1 42.7 73.9v328.2a85.3 85.3 0 0 1-42.7 73.9L554.7 914a85.4 85.4 0 0 1-85.4 0L185.2 750a85.3 85.3 0 0 1-42.7-73.9V347.9a85.3 85.3 0 0 1 42.7-73.9l284.1-164a85.4 85.4 0 0 1 85.4 0z"/><path fill="#B8B8B8" d="M533.3 146.9a42.6 42.6 0 0 0-42.6 0L206.5 311a42.7 42.7 0 0 0-21.3 37V676c0 15.2 8.1 29.3 21.3 37l284.2 164a42.6 42.6 0 0 0 42.6 0l284.2-164a42.7 42.7 0 0 0 21.3-37V347.9c0-15.2-8.1-29.3-21.3-36.9L533.3 146.9zm21.4-37L838.8 274a85.3 85.3 0 0 1 42.7 73.9v328.2a85.3 85.3 0 0 1-42.7 73.9L554.7 914a85.4 85.4 0 0 1-85.4 0L185.2 750a85.3 85.3 0 0 1-42.7-73.9V347.9a85.3 85.3 0 0 1 42.7-73.9l284.1-164a85.4 85.4 0 0 1 85.4 0z"/><path fill="#E9E9E9" d="M255.7 577.2c13.4-19.5 6.5-39.2-20.8-58.8-8.9 34-2 53.5 20.8 58.8zm20.7 52c-6.2-25-24.2-34.3-54.1-28 9 28 27.2 37.3 54.1 28zm0 0c-6.5-29.1 3.2-47.3 29.4-54.4 8.4 26.5-1.3 44.6-29.4 54.3zm38.9 38.1S297 636.3 258 657c25.8 41.8 57.3 10.3 57.3 10.3z"/><path fill="#E9E9E9" d="M315.2 667.3c-11.3-22.3-5.6-42 17.3-59 10.4 32 4.6 51.6-17.3 59zm40 37.9s-21.8-30.3-59 5c39.1 31 59-5 59-5z"/><path fill="#E9E9E9" d="M355.3 705.2c-18.1-17.6-17.7-38.5 1.2-62.7 18.2 26.2 17.8 47-1.2 62.7zm53 26.2c-20.8-9.5-25.9-28.7-15.3-57.4 26.5 15.6 31.6 34.7 15.2 57.4z"/><path fill="#E9E9E9" d="M408.1 731.4c-22-9.6-40.7-2-56.2 22.9 30 11.9 48.8 4.3 56.2-23zm360.2-154.2c-13.4-19.5-6.5-39.2 20.8-58.8 8.9 34 2 53.5-20.8 58.8zm-20.7 52c6.2-25 24.2-34.3 54.1-28-9 28-27.2 37.3-54.1 28zm0 0c6.5-29.1-3.2-47.3-29.4-54.4-8.4 26.5 1.3 44.6 29.4 54.3zm-38.9 38.1s18.3-31 57.3-10.3c-25.8 41.8-57.3 10.3-57.3 10.3zm0 0c11.4-22.3 5.6-42-17.2-59-10.4 32-4.6 51.6 17.3 59zm-40 37.9s21.9-30.3 59 5c-39 31-59-5-59-5z"/><path fill="#E9E9E9" d="M668.7 705.2c18.1-17.6 17.7-38.5-1.2-62.7-18.2 26.2-17.8 47 1.2 62.7zm-53 26.2c20.8-9.5 25.9-28.7 15.3-57.4-26.5 15.6-31.6 34.7-15.2 57.4z"/><path fill="#E9E9E9" d="M615.9 731.4c22-9.6 40.7-2 56.2 22.9-30 11.9-48.8 4.3-56.2-23zm-103.9 58-25 13.1 4.7-27.9-20.3-19.8 28-4 12.6-25.5 12.5 25.4 28 4.1-20.2 19.8 4.8 28z"/><path fill="#F0F0F0" d="m360 301.1 60 76.3a8.5 8.5 0 0 0 13.4 0l71.9-91.5a8.5 8.5 0 0 1 13.4 0l71.8 91.5a8.5 8.5 0 0 0 13.5 0l60-76.3a8.5 8.5 0 0 1 12-1.5 8.5 8.5 0 0 1 3.3 7.7l-25 214.4H369.8l-25-214.3A8.5 8.5 0 0 1 360 301z"/><path fill="#EAEAEA" d="M383.4 548.9h257.2c7.5 0 13.6 6 13.6 13.5V578a13.6 13.6 0 0 1-13.6 13.5H383.4a13.6 13.6 0 0 1-13.6-13.5v-15.6c0-7.5 6-13.5 13.6-13.5z"/></svg>