<!--version="1.0" standalone="no"--><!DOCTYPE html PUBLIC "-//W3C//DTD SVG 1.1//EN" "http://www.w3.org/Graphics/SVG/1.1/DTD/svg11.dtd"><svg t="1741808021002" class="icon" viewBox="0 0 1024 1024" version="1.1" xmlns="http://www.w3.org/2000/svg" p-id="1241" width="256" height="256" preserveAspectRatio="xMidYMid meet" zoomAndPan="magnify" contentScriptType="application/ecmascript" contentStyleType="text/css"><path d="m554.667 109.952 284.16 164.053a85.333 85.333 0 0 1 42.666 73.9v328.148c0 30.507-16.256 58.667-42.666 73.9l-284.16 164.095a85.376 85.376 0 0 1-85.334 0l-284.16-164.053a85.333 85.333 0 0 1-42.666-73.9V347.948c0-30.507 16.256-58.667 42.666-73.9l284.16-164.095a85.376 85.376 0 0 1 85.334 0z" fill="#D3D3D3" p-id="1242"/><path d="M533.333 146.901a42.581 42.581 0 0 0-42.666.001l-284.16 164.097c-13.184 7.638-21.334 21.718-21.334 36.95v328.15c0 15.23 8.15 29.31 21.334 36.948L490.667 877.1a42.581 42.581 0 0 0 42.666-.001l284.16-164.055c13.184-7.637 21.334-21.717 21.334-36.95V347.948c0-15.232-8.15-29.312-21.334-36.95l-284.16-164.096zm21.334-36.948 284.16 164.053a85.333 85.333 0 0 1 42.666 73.9v328.148c0 30.507-16.256 58.667-42.666 73.9l-284.16 164.095a85.376 85.376 0 0 1-85.334 0l-284.16-164.053a85.333 85.333 0 0 1-42.666-73.9V347.948c0-30.507 16.256-58.667 42.666-73.9l284.16-164.095a85.376 85.376 0 0 1 85.334 0z" fill="#B8B8B8" p-id="1243"/><path d="M255.659 577.237c13.481-19.584 6.57-39.21-20.737-58.794-8.918 33.877-2.006 53.504 20.736 58.794zm20.777 51.883c-6.23-24.96-24.277-34.261-54.186-27.861 9.131 27.903 27.222 37.204 54.187 27.86zm0 0c-6.57-29.056 3.2-47.19 29.355-54.315 8.448 26.54-1.323 44.63-29.355 54.315zm38.827 38.23s-18.261-30.977-57.301-10.369c25.856 41.857 57.3 10.37 57.3 10.37z" fill="#E9E9E9" p-id="1244"/><path d="M315.179 667.264c-11.308-22.23-5.548-41.899 17.321-59.05 10.37 32.042 4.61 51.711-17.321 59.05zm40.105 37.93s-21.845-30.335-59.05 5.035c39.082 30.933 59.05-5.035 59.05-5.035z" fill="#E9E9E9" p-id="1245"/><path d="M355.285 705.152c-18.09-17.536-17.706-38.443 1.238-62.677 18.176 26.197 17.792 47.104-1.238 62.677zm52.95 26.283c-20.736-9.558-25.814-28.715-15.232-57.43 26.538 15.574 31.616 34.688 15.232 57.43z" fill="#E9E9E9" p-id="1246"/><path d="M408.15 731.392c-22.017-9.557-40.79-1.963-56.278 22.87 30.08 11.903 48.853 4.309 56.277-22.87zM768.34 577.237c-13.481-19.584-6.57-39.21 20.737-58.794 8.918 33.877 2.006 53.504-20.736 58.794zm-20.777 51.883c6.23-24.96 24.277-34.261 54.186-27.861-9.131 27.903-27.222 37.204-54.187 27.86zm0 0c6.57-29.056-3.2-47.19-29.355-54.315-8.448 26.54 1.323 44.63 29.355 54.315zm-38.827 38.23s18.261-30.977 57.301-10.369c-25.856 41.857-57.3 10.37-57.3 10.37zm.043-.086c11.305-22.23 5.545-41.899-17.324-59.05-10.325 32.042-4.565 51.711 17.323 59.05zm-40.065 37.93s21.845-30.335 59.05 5.035c-39.082 30.933-59.05-5.035-59.05-5.035z" fill="#E9E9E9" p-id="1247"/><path d="M668.715 705.152c18.09-17.536 17.706-38.443-1.238-62.677-18.176 26.197-17.792 47.104 1.238 62.677zm-52.95 26.283c20.736-9.558 25.814-28.715 15.232-57.43-26.538 15.574-31.616 34.688-15.232 57.43z" fill="#E9E9E9" p-id="1248"/><path d="M615.85 731.392c22.017-9.557 40.79-1.963 56.278 22.87-30.08 11.903-48.853 4.309-56.277-22.87zM512 789.333l-25.088 13.184 4.779-27.904-20.266-19.797 28.032-4.096L512 725.333l12.544 25.387 28.032 4.096-20.267 19.797 4.778 27.904z" fill="#E9E9E9" p-id="1249"/><path d="m360.021 301.099 59.948 76.287a8.533 8.533 0 0 0 13.44 0l71.893-91.52a8.533 8.533 0 0 1 13.441 0l71.81 91.52a8.533 8.533 0 0 0 13.44 0l60.074-76.33a8.533 8.533 0 0 1 11.99-1.41 8.49 8.49 0 0 1 3.2 7.68l-24.96 214.358H369.791l-24.96-214.314a8.533 8.533 0 0 1 15.19-6.271z" fill="#F0F0F0" p-id="1250"/><path d="M383.36 548.864h257.28c7.51 0 13.568 6.059 13.568 13.568v15.53a13.568 13.568 0 0 1-13.568 13.569H383.36a13.568 13.568 0 0 1-13.568-13.567v-15.53c0-7.51 6.059-13.57 13.568-13.57z" fill="#EAEAEA" p-id="1251"/></svg>