<?xml version="1.0" standalone="no"?><svg xmlns="http://www.w3.org/2000/svg" width="1200" height="1200" viewBox="0 0 1200 1200"><defs><clipPath id="a"><path d="M0 0h1200v1200H0Z"/></clipPath><clipPath id="b"><path d="m769.4 915.8 262.6-64.3 2.9-.9 2.6-1.3 2.4-1.7 2.1-2 1.8-2.3 1.4-2.5 1.1-2.7.7-2.9.2-3 1.9-460.6-.1-1.9-1.1-3.4-1.5-2.3-2-1.9-3.1-1.8-1.9-.5-543.7-105.7-4.1-.6-4.1-.1-4.1.2-4 .7-4 1.1-3.8 1.5-323.2 141.6-2.1 1.2-1.7 1.5-1.4 1.8-1.1 2-.7 2.2-.2 2.4 1.9 439.8.3 3.3.8 3.1 1.2 2.9 1.7 2.6 2 2.3 2.4 2.1 2.7 1.6 2.9 1.1 3.3.8 209.2 28.9 361.7 26 38.1-8.3Z"/></clipPath><clipPath id="c"><path d="M228.9 549.3v117.1l.2 3 .7 2.9 1.1 2.8 1.5 2.6 1.9 2.3 2.2 2.1 50.1 39.5 3 2 3.1 1.4 3.4.7 3.4.3 3.4-.4 3.5-1 92.7-36.6V431.9l-112.4 44.4-3 1.5-2.7 1.9-2.3 2.4-45.2 54.4-2 2.8-1.4 3.2-.9 3.3-.3 3.5Z"/></clipPath><clipPath id="d"><path d="m739.2 1160.9 4.5 49H273.2l.1-24.5.4-12.2 2.2-31.5 2-18.5 3.6-26 2.4-14.1 6-28.4 3.7-14.8 4.1-14.6 4.7-14.8 5.2-14.8 8.9-21.8 10.4-21.4 5.7-10.4 6.1-10.1 6.6-9.9 6.9-9.6 7.3-9.3 7.8-8.9 8.3-8.5 8.8-8.1 7.2-6.1 7.6-5.8 8-5.5 8.3-5.2 8.7-4.8 8.8-4.4 9.2-4 9.7-3.6 10.1-3.2 10.5-2.8L483 830l10.9-1.8 11.5-1.3 12.1-.8 12.7-.3 14.2.2 13.8.7 13.2 1.1 12.8 1.5 12.3 1.8 11.8 2.3 14.5 3.3 13.9 3.7 13.2 4.3 12.7 4.6 12.1 5.1 12.1 5.7 11.5 6.1 11 6.4 10.5 6.8 9.9 7.1 9.8 7.7 9.3 7.8 8.8 8.2 8.4 8.4 7.9 8.7 7.8 9.2 7.3 9.3 7 9.5 6.5 9.7 8.2 13.2 7.5 13.1 6.8 13.1 6.4 13.4 5.7 13 9.9 25.6 7.8 23.8 4.9 17.2 3.7 15 5.3 25.5 3.5 23h-133Z"/></clipPath></defs><path fill="#d2f0fa" d="M0 0h1200v1200H0Z"/><g><g><g clip-path="url(#a)"><path fill="#fff" d="M150.5 384.4 260 262.3l3-2.3 3.4-1 3.7.3 97.8 26.6-217.4 98.5Z"/><path fill="#2e8ae6" d="m150.5 389.9-2.6-.7-1.1-.7-1.6-2.5-.1-2.8 1.3-2.5 109.5-122.1 2.2-2 2.4-1.5 2.6-1 2.8-.6h2.8l2.9.5 97.7 26.6 2.5 1.4 1.4 2.5v2.8l-1.5 2.5-2.4 1.4h-2.9l-97.7-26.6-1.3-.2-2.3.7L154.6 388l-1.3 1.1-1.3.6-1.5.2Z"/><path fill="#fff" d="m1038.3 346.9-146.7-86.3-4.8-2.7-5-2.3-5.2-1.7-5.4-1.3-484.6-93.3h-1l-1.3 1.1v1.7l.7.7 87.2 71.1 566.1 113Z"/><path fill="#2e8ae6" d="m1038.3 352.4-2.7-.8-146.9-86.4-4.4-2.4-4.5-2.1-4.7-1.6-4.9-1.1-471-90.7 76.5 62.4 1 1.1 1 2.6-.4 2.7-.8 1.3-2.4 1.7-2.8.3-1.3-.4-1.3-.8-88.4-72.3-.8-1.3-.8-3.2.6-3.2 2.1-2.7 2.9-1.5 1.6-.2 1.7.1 484.7 93.3 5.8 1.4 5.7 1.9 5.4 2.4 5.3 3 146.7 86.2 2 2.1.7 2.7-.2 1.4-.6 1.4-.9 1.1-1.2.9-2.7.7Z"/><g clip-path="url(#b)"><path fill="#fff" d="m759.4 919.8 271.2-67.6 3.2-1.1 2.9-1.4 2.6-1.9 2.3-2.2 2-2.5 1.5-2.8 1.2-2.9.7-3.2.3-3.3 1.8-461.1-.3-2.6-.8-2.3-1.4-2.1-1.8-1.8-2.1-1.2-2.5-.8-544.5-105.9-4.1-.6-4.1-.1-4.1.2-4 .7-4 1.1-3.8 1.5-323.2 141.7-2.1 1.1-1.7 1.5-1.5 1.8-1 2-.7 2.2-.2 2.4.9 438.3.4 4 .9 3.7 1.5 3.4 2 3.2 2.4 2.8 2.9 2.4 3.3 2 3.5 1.4 3.9.8 208.7 28.5 387.8 20.7Z"/><path fill="#2e8ae6" d="M759.4 931.8 370 911l-208.7-28.5-4.4-.9-4.1-1.3-3.9-1.8-3.6-2.3-3.3-2.7-2.9-3-2.6-3.3-2.2-3.6-1.8-3.9-1.3-4.1-.8-4.2-.3-4.5-.9-438.3.2-3.2.6-3 2.3-5.7 3.6-4.8 2.3-2.1 2.5-1.8 2.9-1.4 323.1-141.7 5-1.9 5.1-1.4 5.2-.9 5.3-.3 5.3.2 5.3.7 544.6 105.9 3.5 1 3.3 1.4 2.9 2 2.6 2.3 2.1 2.7 1.8 3 1.3 3.2.8 3.4.3 3.7-1.8 461.1-.2 3.9-.7 3.7-1 3.5-1.4 3.5-1.8 3.2-2.1 3-5.2 5.3-3 2.2-3.2 1.8-3.4 1.5-3.8 1.2-271.2 67.6-2.9.4Zm-386.7-44.7 385.6 20.6 269.4-67.2 2.2-.8 1.8-1.2 1.5-1.5 1.1-1.9.7-2 .3-2.2 1.8-460.3-546.6-106.1-2.9-.1-5.6.6-5.6 1.9-323.2 141.6.9 438.4.2 1.9 1.2 3.6 1 1.6 2.7 2.6 3.4 1.7 1.9.4 208.2 28.4Z"/></g><g clip-path="url(#b)"><path fill="#5693b3" fill-opacity=".3" d="M382.3 901.5 158.7 870l-2.6-1-1-.9-1-1.6-.5-1.8.1-1.9.7-1.8 1.7-1.9 1.4-.6 309.8-112.7 5.1-1.6 5.1-1.1 5.2-.7 5.3-.2 5.2.2 5.3.8 530.2 97.5 2.6 1.1.9.9 1 1.7.4 1.9-.2 1.8-.8 1.8-1.9 1.8-1.4.6-29.1 8.6-264.6 65-353.3-24.4Z"/></g><g clip-path="url(#b)"><path fill="#c0d9f0" d="m484.4 698.9-1.2-.2-2-1.2-1.1-1.9-.2-1.2V285.3l.6-2.3 1.6-1.6 1.1-.5 1.2-.1 2.3.6 1.6 1.6.6 2.3v409.1l-.2 1.2-1.1 1.9-2 1.2-1.2.2Z"/></g><g clip-path="url(#b)"><g clip-path="url(#c)"><path fill="#2e8ae6" d="m299 736-3.3-.2-6.5-1.5-6-2.8-2.8-2-50.1-39.6-4.9-4.8-1.9-2.7-2.9-6-1.5-6.6-.2-3.4V549.3l.2-3.5 1.6-6.7 3.1-6.2 2-2.8 45.2-54.4 2.5-2.7 2.9-2.4 3.2-2 3.4-1.6 126.1-49.8v277.6L310 733.9l-3.6 1.1-3.7.7-3.7.3Zm90.1-289.4-98.7 39-2.2 1.2-1.9 1.7-45.1 54.4-1.7 3-.6 3.4v117.1l.3 2.2.7 2.1 1.2 1.9 1.6 1.6 50.1 39.6 3.1 1.7 3.4.5 3.4-.7 86.4-34.1V446.6Z"/></g><g clip-path="url(#c)"><path fill="#bfe0f0" d="M343.6 503.6v133.8l67.8 53.7 105-41.5V389.7l-118.9 46.9Z"/></g><g clip-path="url(#c)"><path fill="#2e8ae6" d="m346 523-1.4-.2-1.3-.6-1.1-.9-.8-1.3-.4-2.6 1-2.4.8-.9 41.5-18 1.3-.1 2.4 1 1.6 2 .4 2.6-1 2.4-.8.9-40.2 17.7-2 .4Z"/></g><g clip-path="url(#c)"><path fill="#2e8ae6" d="m346 564.1-2.7-.8-1-.9-.8-1.2-.5-2.6.9-2.4.9-.9 41.4-18.9h1.3l2.4.9 1.7 2 .4 2.6-.9 2.4-.9.9-40.1 18.5-2.1.4Z"/></g><g clip-path="url(#c)"><path fill="#2e8ae6" d="m346 605.2-2.7-.7-1-.9-.8-1.3-.5-2.5.9-2.4.8-1 41.5-19.3 1.3-.1 2.3.9 1.7 2 .5 2.6-.9 2.3-.8 1-40.2 19-2.1.4Z"/></g><g clip-path="url(#c)"><path fill="#2e8ae6" d="m366 637.3-2.7-.7-1-.9-.8-1.3-.5-2.5.9-2.4.8-1 21.8-10.1 1.3-.1 2.3.9 1.7 2 .5 2.6-.9 2.4-.8.9-20.5 9.8-2.1.4Z"/></g><g clip-path="url(#c)"><path fill="#2e8ae6" d="m412.3 699.1-64.2-50.7-2.9-2.6-2.3-2.9-1.9-3.3-1.3-3.4-.9-3.6-.3-3.9v-117l.2-2.9 1.3-5.4 2.4-5.1 1.7-2.3 52.6-65.4 7.8 6.3-52.6 65.4-1.5 2.1-1 2.3-.6 2.4-.3 2.6v117.1l.2 2.2 1.3 4.3 2.5 3.7 1.7 1.5 64.3 50.7-6.2 7.9Z"/></g></g><g fill="#5693b3" fill-opacity=".3" fill-rule="evenodd" clip-path="url(#b)"><path d="M280.5 382.6v39.1l.2 1 .7.7.9.3 1-.1 29.3-11.6 1.1-1.1.2-.8v-40l-.3-1-.7-.7-.9-.3-1 .1-29.3 12.5-.6.5-.6 1.4Z"/><path d="m231.3 444.2 29.3-11.6.9-.8.4-1.1v-38.5l-.3-1-.6-.7-.9-.3-1 .2-29.4 12.5-1 1-.2 38.4.2 1 .7.6.8.4 1.1-.1Z"/><path d="m180.2 464.3 29.4-11.6.9-.7.4-1.2v-36.9l-.3-1-.7-.7-.8-.3-1 .2-29.4 12.5-1.1 1-.1 36.8.2 1 .7.7.8.3 1-.1Z"/></g><g clip-path="url(#b)"><path fill="#e84a2c" d="m830.7 689.3-2.6-.5-1.2-.8-35.3-28.1-2-1.2-4.2-1.2-4.5.1-2.2.7-42.1 14.4-3.1.2-2.8-1.3-1-1.2-.7-1.4-.3-1.6.6-3 .8-1.3 1.1-1 1.5-.7 41.8-14.4 6.3-1.5 3.1-.1 6.2.8 5.8 2.3 3.1 1.9 35.4 28.2 1.1 1.2.8 1.4.3 3-.4 1.4-1.8 2.5-1.2.7-2.5.5Z"/><path fill="#f54431" d="m830.7 692.3-2.1-.2-1.8-.7-1.7-1-35.2-28.1-2.4-1.2-2.6-.6h-2.6l-2.6.6-42.1 14.4-2.4.5-2.3-.2-2.2-.7-1.9-1.3-1.6-1.7-1.1-2.1-.4-2.4.1-2.3.8-2.2 1.2-1.9 1.8-1.6 2.1-1.1 41.9-14.3 6.1-1.6 3.1-.2 6.2.5 5.9 1.8 2.9 1.4 3 1.9 35.5 28.3 1.7 1.8 1.1 2 .5 2.2v2.3l-.6 2.3-1.3 2.1-1.4 1.4-1.7 1-1.9.7-2 .2Z"/></g><g clip-path="url(#b)"><path fill="#1c78d6" d="m992.9 494.2-193.8 17-4.9.2-4.8-.5-4.8-1-4.6-1.6L544.9 409l-1.8-.5-3.5.1-2.9 1.6-1.2 1.2-1.5 3.1-.2 1.9v98.8l.3 4.9.8 4.8 1.5 4.5 1.9 4.4 2.5 4 2.9 3.8 3.4 3.4 3.8 3 4.2 2.6 89.7 47.3 4.5 2.1 4.8 1.4 4.8.9 5 .2 112.1-.9 4.4.1 8.5 1.1 8.4 2.4 4 1.7 79.2 35.9 7.5 2.5 7.7 1 7.9-.5 81.3-13.5 3.1-.8 2.9-1.3 2.6-1.6 2.3-2 2-2.3 1.6-2.7 1.2-2.8.7-3 .3-3.3V502.2l-.3-2.3-.9-1.9-1.4-1.7-1.8-1.2-2-.7-2.3-.2Z"/></g><g clip-path="url(#b)"><path fill="#fff" d="m717.4 561.1-4.4-.6-2.2-.8-90.4-41-2.5-1.4-2.2-1.8-1.7-2.1-1.4-2.4-1-2.5-.5-2.7-.1-2.7.5-2.8 1-2.8 1.4-2.5 1.8-2.1 2.1-1.8 2.3-1.4 2.6-.9 2.7-.6h2.7l2.8.4 2.7 1 90.4 41 2.5 1.4 2.2 1.8 1.7 2.1 1.4 2.4 1 2.5.5 2.7.1 2.7-.5 2.8-.9 2.7-1.7 2.8-2 2.3-2.4 1.8-2.7 1.4-2.8.8-3 .3Z"/></g><g clip-path="url(#b)"><path fill="#fff" d="m854.7 586.1-4.7-.8-4.2-2.2-3.3-3.3-2.1-4.3-.5-2.4-.2-2.8.4-2.6.8-2.4 1.2-2.3 1.5-2 1.9-1.8 2.1-1.4 2.4-1 2.7-.6 74-10.1 2.8-.1 2.6.3 2.4.8 2.3 1.2 2 1.5 1.8 1.9 1.4 2.1 1 2.4.6 2.7.1 2.8-.3 2.5-.8 2.5-1.2 2.3-1.5 2-1.9 1.8-2.1 1.4-2.4 1-2.7.6-76.1 10.3Z"/></g><path fill="#5693b3" fill-opacity=".3" d="m1040 517.1 29.9 40.2 1.7 2.7 1.2 3 .8 3.1.3 3.2v121.2l-.3 3-.6 2.9-1.1 2.7-1.5 2.7-31.4 45.7"/><path fill="#2e8ae6" d="m1046.1 746.1-8.3-5.7 28.4-41.5 1.5-2.6.9-2.8.3-3V569.3l-.8-4.8-2.2-4.2-27.6-37.2 8-5.9 27.6 37.1 2.1 3.4 1.6 3.7.9 3.9.4 4v121.1l-.3 3.8-.9 3.6-1.3 3.5-1.9 3.3-28.4 41.5Z"/><path fill="#5693b3" fill-opacity=".3" d="m578.3 190.3 109.9 91.5 1.5 1.6 1.1 1.8.7 2 .3 2.2 2 147.9.2 1.5.8 1.1 1.1.9 1.3.4h1.4l1.4-.6 39.3-26 1.3-.6h1.4l1.3.4 1.2.9 37.2 41.7 1.2.9 1.4.4 1.4-.1 1.4-.7 35.5-26.8 1.2-.7 1.3-.1 1.3.2 1.2.8 48.5 42.6 1.5.9 1.5.1 1.4-.4 1.2-.8.8-1.3.3-1.6-5.4-146.1-.4-2.1-.7-2-1.2-1.8-1.6-1.5-125.1-92.5-2.5-1.6-2.7-1.2-2.9-.8-162-30.5Z"/><path fill="#fccd11" d="M727.7 402.2 522.9 114.4l-1.1-2.7.3-2.9 1.7-2.4 2.6-1.4 2.9.1 2.5 1.4 217.5 204.1 1.6 4.5-14.2 85-9 2.1Z"/><path fill="#fccd11" d="m1010.4 195.3-1.2-.9-2.6-.9-2.7.5-1.3.7L825.9 326l6 8 2.8-2.1 9.8 75.9-3.1 4.1 8 6 161.5-214.8.8-1.3.4-2.7-.8-2.6-.9-1.2Z"/><path fill="#f54431" d="m740.1 303.8-16.4 89.3-.3 3.5.2 3.4.9 3.3 1.4 3.1 1.9 2.9 2.5 2.5 54.4 47.3 1.9 1.2 1.9.8 2.1.4 2.2-.1 2-.6 2-1 49.1-32.7 2.7-2.7 1.5-3.4.1-3.7-14.9-98.6-.7-2.5-1.1-2.1-1.5-2-1.9-1.5-2.2-1.2-2.4-.7-73.9-13h-3.5l-3.2 1.2-2.6 2.2-1 1.3-1.2 3.4Z"/><path fill="#f54431" d="m157.4 214.5.8 3.9.8 1.4 1.6 1.7 2 1.4 3.1.8 49.3-4 2.5-.5 2.3-.9 2.1-1.4 1.8-1.8 1.5-2.1.9-2.3.5-2.4.1-2.6-4.3-46.9-1.4-2.9-1.6-1.7-1.9-1.3-1.5-.5-3.3-.3-2.4.5-2.1 1.2-1.7 1.5-1.3 2-.7 2.3-.1 2.5 3.2 37-.4 1.4-1.4.7-40 3.6-2.4.5-2.1 1.1-1.7 1.5-1.3 1.9-.7 2.2-.2 2.5Z"/><path fill="#f54431" d="m281.1 160.1-3.3-.4-1.6.2-2.2.8-2 1.3-2 2.5-15.9 47.3-.6 2.5-.1 2.4.5 2.5.9 2.4 1.3 2.1 1.7 1.9 2 1.4 2.3 1 44.3 14.8 3.2-.1 2.3-.8 2-1.4 2-2.5 1-2.5.5-3.3-.2-1.5-.8-2.3-1.4-2-2.5-2-36.6-12.4-1.1-1-.1-1.5 12.9-39.2-.2-3.2-.8-2.3-1.3-2-1.2-1.1-3-1.6Z"/><path fill="#f54431" d="m228.9 264.3 23 35 2.6 1.9 2.2.8 2.4.2 3.2-.7 1.5-.8 1.9-1.6 1.3-2 .8-2.2.2-2.4-.3-2.4-1.1-2.2-25.8-41-1.5-2-1.8-1.7-2.2-1.3-2.4-.9-2.5-.3-2.5.1-2.5.6-2.2 1.1-39.7 25.5-1.9 2.6-.8 2.3-.2 2.4.7 3.1.9 1.8 1.6 1.9 2 1.3 2.2.8 2.4.3 2.3-.4 2.3-1 31.2-19.4 1.5-.2 1.2.8Z"/></g></g><g clip-path="url(#a)"><path fill="#fff" d="m738.2 1159.9 5 50h85l-6-52Z"/><path fill="#2e8ae6" d="M833.8 1214.9h-95.2l-5.9-59.9 93.9-2.2 7.2 62.1Zm-86.1-10h74.8l-4.8-41.9-74 1.7 4 40.2Z"/><g clip-path="url(#d)"><path fill="#1c78d6" d="m872.2 1160.9-1.7-12.7-3.9-21.6-3.2-14.2-3.7-15-4.9-17.2-7.8-23.8-4.8-12.8-5.1-12.7-5.7-13.1-6.4-13.3-6.8-13.2-7.5-13.1-8.2-13.2-6.5-9.6-7-9.5-7.3-9.4-7.8-9.2-7.9-8.7-8.4-8.4-8.8-8.2-9.3-7.8-9.8-7.7-9.9-7.1-10.5-6.8-11-6.4-11.5-6.1-12.1-5.7-12.1-5.1-12.7-4.6-13.2-4.3-13.9-3.7-14.5-3.3-11.8-2.3-12.3-1.8-12.8-1.5-13.2-1.1-13.8-.6-14.2-.3-11.3.2-10.7.7-10.3 1-9.9 1.4-9.5 1.8-9.6 2.3-9.2 2.5-8.8 2.9-8.5 3.2-8.1 3.5-10.1 5-9.6 5.3-9.1 5.8-8.6 6.2-8.4 6.6-8 7-7.6 7.3-7.2 7.6-6.9 8-6.5 8.2-6.2 8.5-5.8 8.8-7.3 12-6.8 12.3-6.3 12.5-5.7 12.9-5.2 12.9-4.8 13-4.2 13.6-4.4 15.2-5 19.3-5 22.1-2.8 14.3-2.1 12.4-2.9 20.8-3.1 33.3-1.3 25.1-.2 28.6h470.5"/></g><g clip-path="url(#d)"><path fill="#fccd11" d="m343.2 1042.5 1.8-.4 1.5-.9 1.2-1.3 7.1-19.2 5.4-13.3 13-29.2 14.4-28.6 8.5-15.6 6.7-11.1.6-.7.8-.2 1.6.5.5.7.1 1-2.9 46.1-1.1 35.4v12.2l.5 16.4.4 1.5.9 1.2 1.3.8 1.6.3 35.1-.6 20.8.3 31.1 1.2 24.9 1.6 16.8 1.5.9.3.9 1.3-.4 1.6-.7.6-30.6 13.6-22.1 9.1-24.8 9.6-29.4 10.6-30.7 10.6-1.2.5-1.9 1.9-3.6 9.7-4.6 15.6-6.4 23.9-7.9 33.6-5 23.7-3.5 18.5-4.4 28.8-1.2 10.5-.8 11.4-20.5 139.1-2.2-41.8-2.5-59.6-1.8-68.7-.3-33.4.6-43.9 1.2-32.6 1.5-22.3 1.2-13-.3-2.8-1.4-2.2-2.3-1.4-20.7-7.9-17.9-7.8-25.8-12.2-14.1-7.5-.6-.6-.4-1.4.8-1.3.8-.4 28.1-5.5 19.5-3.2 14.6-2 27.3-2.6Z"/></g><path fill="#fff" d="m877.4 1156.8-.3-1.3-1.5-2.1-2.3-1h-1.4l-37.6 3.2-36.1 2.2-32.7 1-15.3-.1-14.1-.4-10.5-.7-9.5-1-6.7-1.1-9.5-2.5-4.5-2.3-1.1-1-2-3.2-2.7-7.6-4-17.6-4.1-24.1-4-28.6-3.8-31.5-3.6-32.4-6-62.1-.6-1.1-1.9-1.7-2.6-.5-1.3.3-2.1 1.5-1.1 2.3-.1 1.3 6.5 68 5.9 51-5-6.4-8.8-13.2-3.9-6.8-6.6-13.1-4.3-9.8-6.2-17.2-2.1-7-4-16.1-.7-1-2.1-1.5-2.6-.2-2.3 1.1-1.5 2.1-.3 1.2.1 1.4 2.5 11 4.7 16.1 6.3 16.7 6.8 14.8 8.4 14.9 5 7.6 5.3 7.4 5.9 7.2 6.5 6.9 1.1.9 2.3 15.7 3.9 23.7 1.7 8.6 3.2 13.1 1.5 4.8 2.5 5.8 2.4 3.6 4.1 3.5 5.7 2.8 3.3 1.1 9.6 2.2 8.6 1.3 11.5 1 12.7.6 28.8.2 40.6-1.6 23.7-1.5 37.8-3.3 1.4-.3 2-1.5 1-2.3.1-1.4Z"/></g></g></svg>