<!--version="1.0" standalone="no"--><!DOCTYPE html PUBLIC "-//W3C//DTD SVG 1.1//EN" "http://www.w3.org/Graphics/SVG/1.1/DTD/svg11.dtd"><svg height="1200" node-id="1" sillyvg="true" template-height="1200" template-width="1200" version="1.1" viewBox="0 0 1200 1200" width="1200" xmlns="http://www.w3.org/2000/svg" preserveAspectRatio="xMidYMid meet" zoomAndPan="magnify" contentScriptType="application/ecmascript" contentStyleType="text/css"><defs node-id="117"><clipPath id="SVGID_2_" node-id="8"><path d="M0 0h1200v1200H0z" fill="#000000" fill-rule="nonzero" node-id="120" stroke="none" target-height="1200" target-width="1200" target-x="0" target-y="0"/></clipPath><clipPath id="SVGID_4_" node-id="18"><path d="m768 915.8 262.5-64.3 2.9-.9 2.7-1.3 2.3-1.7 2.2-2 1.7-2.3 1.5-2.5 1.1-2.7.6-2.9.3-3 1.9-460.6-.2-1.9-1.1-3.4-1.4-2.3-2-1.9-3.2-1.8-1.8-.5-543.8-105.7-4.1-.6-4.1-.1-4 .2-4.1.7-3.9 1.1-3.9 1.5-323.2 141.6-2 1.2-1.8 1.5-1.4 1.8-1.1 2-.6 2.2-.2 2.4 1.9 439.8.2 3.3.8 3.1 1.3 2.9 1.6 2.6 2.1 2.3 2.4 2.1 2.6 1.6 3 1.1 3.2.8 209.2 28.9 361.7 26 38.2-8.3z" fill="#000000" fill-rule="nonzero" node-id="124" stroke="none" target-height="670.69995" target-width="907.89996" target-x="139.8" target-y="253.4"/></clipPath><clipPath id="SVGID_6_" node-id="63"><path d="m737.7 1160.9 4.5 49H271.7l.1-24.5.5-12.2 2.1-31.5 2-18.5 3.7-26 2.4-14.1 5.9-28.4 3.7-14.8 4.1-14.6 4.7-14.8 5.3-14.8 8.9-21.8 10.3-21.4 5.8-10.4 6.1-10.1 6.5-9.9 6.9-9.6 7.4-9.3 7.8-8.9 8.3-8.5 8.7-8.1 7.3-6.1 7.6-5.8 7.9-5.5 8.4-5.2 8.6-4.8 8.8-4.4 9.3-4 9.6-3.6 10.1-3.2 10.6-2.8 10.4-2.3 11-1.8 11.5-1.3 12.1-.8 12.6-.3 14.3.2 13.7.7 13.3 1.1 12.7 1.5 12.3 1.8 11.9 2.3 14.5 3.3 13.8 3.7 13.3 4.3 12.7 4.6 12.1 5.1 12 5.7 11.5 6.1 11 6.4 10.5 6.8 10 7.1 9.8 7.7 9.3 7.8 8.8 8.2 8.3 8.4 7.9 8.7 7.8 9.2 7.4 9.3 6.9 9.5 6.5 9.7 8.2 13.2 7.5 13.1 6.9 13.1 6.3 13.4 5.8 13 9.9 25.6 7.8 23.8 4.8 17.2 3.8 15 5.3 25.5 3.4 23h-133z" fill="#000000" fill-rule="nonzero" node-id="128" stroke="none" target-height="384.10004" target-width="599" target-x="271.7" target-y="825.8"/></clipPath></defs><path d="M0 0h1200v1200H0z" fill="#c9f5d7" fill-rule="nonzero" node-id="132" target-height="1200" target-width="1200" target-x="0" target-y="0"/><g node-id="377"><g node-id="378"><g clip-path="url(#SVGID_2_)" group-id="1,2" id="head_4_" node-id="10"><path d="m400.5 243.5-.3-9-.9-8.7-1.5-8.6-2.1-8.3-2.6-8.2-3.1-7.9-3.6-7.7-4.1-7.4-4.6-7.1-4.9-6.8-5.4-6.4-5.8-6.1-6.2-5.8-6.5-5.3-6.8-4.8-7.2-4.5-7.5-4-7.7-3.5-7.9-3-8.3-2.5-8.3-2-8.6-1.4-8.7-.8-9-.2-8.9.4-8.7 1-8.4 1.5-8.2 2.1-8.1 2.6-7.8 3.1-7.5 3.5-7.3 4.1-7 4.5-6.6 4.8-6.4 5.3-6 5.7-5.6 6.1-5.2 6.4-4.8 6.7-4.4 7-3.9 7.3-3.5 7.6-3 7.9-2.5 8.1-2 8.2-1.4 8.5-.9 8.7-.3 8.9.3 8.2.7 7.9 1.2 7.8 1.4 6.3 3.9 11 3.2 7 3.7 6.8 4.1 6.6 4.6 6.4.7 1.5.2 1.5-.4 1.5-1 1.2-1.2.7-1.3.3-2.3-.7-.9-.9-5.1-7.1-4.6-7.3-4-7.6-3.5-7.9-3-8.1-1.1-1.2h-1.7l-6.9 3.6-6.7 4-6.4 4.3-6.1 4.6-5.9 5-5.6 5.3-5.3 5.5-5 5.9-4.7 6.1-4.4 6.4-3.9 6.7-3.7 6.8-3.2 7.1-2.9 7.3-2.4 7.5-2.1 7.6-1.6 7.8-1.1 8-.7 8.1-.3 8.4.3 8.5.7 8.2 1.2 8.1 1.6 7.9 2.1 7.7 2.6 7.7 2.9 7.4 3.4 7.1 3.7 6.9 4.1 6.7 4.5 6.5 4.8 6.2 5.1 5.9 5.4 5.6 5.8 5.3-9.8-6.1-.9 5.3-.5 5.6.1 5.7 1.2 9.9 2.7 9.3 2.5 6 3.1 5.5 3.6 5.3 4.1 4.8 4.5 4.5 4.9 4 5.3 3.5 5.6 2.9 6 2.5 4.6 1.4 9.6 1.8 5.1.4 5.2-.1 10-1.2 4.8-1.2 9.2-3.4 8.4-4.7 5.2-3.8 4.8-4.2 4.4-4.7 3.8-5.1 3.4-5.5 2.8-5.8 7.4-1.4 14.3-3.8 6.8-2.5 7.8-3.3 7.5-3.7 7.2-4.1 7-4.5 6.7-5 6.3-5.3 6-5.6 5.7-6.1 5.3-6.3 5-6.7 4.5-6.9 4.2-7.3 3.7-7.4 3.2-7.7 2.9-8 2.3-8.2 1.9-8.3 1.3-8.6.8-8.7.3-8.9-.8-15.1-2.3-14.5-3.8-14 6.3-3.4 7.2-4.4 6.9-4.9 6.5-5.2 6.2-5.8 5.8-6 5.4-6.5 4.9-6.8 4.6-7.1 4.1-7.4 3.6-7.7 3.1-7.9 2.6-8.3 2-8.4 1.5-8.6.9-8.8.3-9.1z" fill="#22a853" fill-rule="nonzero" group-id="1,2" node-id="137" stroke="none" target-height="467.90002" target-width="345" target-x="55.5" target-y="113.5"/><path d="m148.3 392.9-1 .1-1.4-.8-.4-1.6.5-.9 112.6-125.4 2.9-2.3 3.5-1 3.7.3 102.6 27.9 1.3 1 .1 1.6-.4.6-224 100.5z" fill="#ffffff" fill-opacity="0.8" fill-rule="nonzero" group-id="1,2,4" node-id="141" stroke="none" target-height="132" target-width="227.20001" target-x="145.5" target-y="261"/><path d="m1152.5 408.9-.2-6.2-1.6-11.9-3.1-11.3-4.5-10.7-5.8-10-7-9.1-8.1-8.1-9-7-4.8-3.1-1.5-.5h-1.4l-1.3.5-11.7 13.8-5.8 5.9-6.3 5.6-1.4.8-2.5.1-1.8-.8-1.4-1.9-.2-2.2.8-2.2 7.2-6.6 5.9-6 5.4-6.3 5-6.7 4.6-7.1 4.1-7.4 3.3-6.8 2.8-6.9 2.4-7 1.9-7.1 1.5-7.3 1.1-7.3.7-7.5.2-7.6-.3-9.2-1-9-1.6-8.7-2.1-8.4-2.8-8.4-3.3-8-3.8-7.7-4.3-7.4-4.9-7.2-5.2-6.7-5.7-6.3-6.1-6-5.9-4.9-6.1-4.5-6.5-4.2-6.7-3.8-6.9-3.4-7.1-3-7.3-2.6-7.6-2.1-7.6-1.7-7.9-1.3-8-.7-8.2-.3-14.6.8-7.1 1-13.8 3.1-6.7 2-12.9 5.2-12.2 6.5-11.3 7.7-.9.3h-.8l-.8-.4-.6-.8-3.9-8.7-4.2-8.5-4.7-8.1-5-8-5.3-7.7-5.8-7.4-6-7.2-6.4-6.9-6.7-6.5-7.1-6.3-7.3-6-7.5-5.6-7.9-5.2-8.1-5-8.4-4.5-8.6-4.2-8.8-3.8-9-3.3-9.2-3-9.5-2.6-9.6-2.1-9.7-1.6-9.8-1.2-10.1-.7-10.3-.3-11 .3-10.7.8-10.3 1.3-10 1.8-9.7 2.3-9.7 2.8-9.4 3.3-9.1 3.7-8.9 4.1-8.6 4.6-8.4 5.1-8.1 5.4-7.9 5.9-7.7 6.2-7.4 6.8-1 1.3-.3 1.5.3 1.5.9 1.4 6 6.3 5.5 6.7 5.1 6.9 4.6 7.3 4.1 7.5 3.7 7.8 3.1 8.1 2.7 8.2 2.1 8.5 1.6 8.6 1 8.7.5 9-.3 1.2-.7 1-1 .6h-3.2l-1.4-.6-.4-.5-.9-9.6-1.3-8.6-1.8-8.5-2.3-8.2-2.9-8.1-3.3-7.8-3.8-7.6-4.2-7.3-4.7-7.1-5.1-6.8-5.5-6.4-5.9-6.1-6.7-6.3-7.2-5.8-7.6-5.3-8-4.9-8.2-4.4-8.6-3.9-8.8-3.3-9.3-2.8-7.4-1.8-7.6-1.4-7.8-1-8-.7-8.1-.2-9.8.3-9.6.9-9.3 1.5-9 2.1-9 2.6-8.7 3.2-8.3 3.6-8.1 4.1-7.8 4.7-7.4 5-7.1 5.5-6.7 5.9-6.4 6.3-5.8 6.6-5.5 7-5 7.4-4.6 7.6-4 7.9-3.5 8.3-3.1 8.5-2.7 9.8-9.9-1.8-8.7-.5-6.1.3-6 .6-5.7 1.2-5.6 1.5-5.4 2-5.2 2.4-4.9 2.7-4.7 3.1-4.5 3.4-4.2 3.8-3.8 4-3.5 4.3-3.2 4.5-2.8 4.8-2.5 5-2 5.3-1.7 5.4-1.1 5.5-.7 5.8-.3 5.9.3 5.9.7 5.8 1.1 5.5 1.7 5.4 2 5.3 2.5 5 2.8 4.8 3.2 4.5 3.5 4.3 3.8 4 4.2 3.8 4.5 3.4 4.7 3.1 4.9 2.7 5.2 2.4 5.4 2 5.6 1.5 5.7 1.2 6 .6 6.1.3 6.1-.2 5.8-.7 5.7-1.1 5.5-1.6 5.4-1.9 5.2-2.3 4.9-2.7 4.7-3 .3-2.4-.5-10.7 5.2 6.3 5.5 6.1 5.8 5.7 6.2 5.4 6.5 5.1 6.7 4.7 7.1 4.3 7.4 3.9 7.5 3.5 7.9 3.1 8 2.7 8.3 2.2 8.4 1.8 8.6 1.3 8.8.7 9 .3 8.6-.2 8.3-.7 8.2-1.2 8-1.6 8-2 7.7-2.4 7.4-2.8 8.8-4 5.3 10 5.7 9.5 6.3 9.2 6.7 8.9 7.3 8.5 7.7 8 8.1 7.6 8.6 7.2 8.9 6.7 9.3 6.3 9.7 5.7 10.1 5.2 8.2 3.8 8.5 3.4 8.6 3 8.8 2.7 9.1 2.3 9.1 1.9 9.2 1.5 9.4 1.1 9.6.7 9.8.2 10.6-.3 10.4-.8 10.2-1.2 10-1.8 9.8-2.2 9.7-2.7 9.5-3.2 9.3-3.5 9-4 8.7-4.5 8.6-4.8 8.3-5.2 8-5.6 7.7-5.9 7.4-6.3 7.1-6.6 6.7-7 6.4-7.2 6.1-7.6 5.7-7.8 4.8 5.6 5.2 5.3 5.4 5 5.7 4.7 6 4.4 6.2 4.1 6.4 3.7 6.7 3.3 6.9 3 7.2 2.6 7.2 2.1 7.4 1.8 7.6 1.3 7.7.8 16.4.8 3.2.5 1.8.7.9.8.3.7-.3.8-1 1-1.9 1-3 1.2-9.3 1.9-5.9.5-10.1.2-.7 10.8.3 7.8 1 7.5 1.5 7.2 2.2 7.1 2.7 6.8 3.2 6.5 3.7 6.2 4.1 5.9 4.7 5.5 5 5.1 5.4 4.7 5.9 4.3-4.5 6.7-4.7 10-2.3 6.5-1.8 6.6-1.3 6.5-.8 6.4-.3 5.8.2 4.8 1.5 9.2 1.3 4.3 2.3 5.6 2.8 5.3 3.4 4.9 3.8 4.6 4.3 4.1 4.7 3.6 7.7 4.5 8.5 3.3 4.4 1.1 9.3 1.1h4.9l5.4-.5 5.2-1 5-1.4 4.9-1.9 4.6-2.4 4.4-2.7 4-3.1 3.8-3.5 3.5-3.8 3.1-4.1 2.7-4.3 2.4-4.7 1.9-4.8 1.5-5 .9-5.2.6-5.5-.1-5.8-.6-5.6-1.1-5.4-1.7-5.3-2.1-4.9-2.6-4.8-1.5-1.2h-2l-7.4 2.1-7.5 1.6-7.6.9-7.8.3-12.1-.8-5.9-.9-11.7-3.1-11.1-4.4-5.3-2.8-1.4-1.1-.8-1.4-.2-1.7.3-1.6 1.6-1.9 2.3-.8 1.2.1 7.8 3.8 6.7 2.7 6.9 2.1 7.1 1.6 7.3.9 7.3.3 7-.3 6.8-.8 6.7-1.4 9.1-2.9 6-2.8 5.8-3.1 5.4-3.6 5.2-3.9 4.9-4.4 4.5-4.6 4.2-4.9 3.9-5.3 3.5-5.5 3-5.8 2.7-6 2.2-6.3 1.8-6.4 1.2-6.6.8-6.9.3-7z" fill="#25b83b" fill-rule="nonzero" group-id="1,2" node-id="144" stroke="none" target-height="559.9" target-width="912.9" target-x="239.6" target-y="28.5"/><path d="m1036.5 354.4 1-.1.8-.4.5-.7-.1-1.8-.8-.7-147.7-90.1-4.8-2.7-5-2.3-5.2-1.7-5.4-1.3-484.7-93.3h-1l-1.2 1.1v1.7l.6.7 87.3 71.1 3 2.1 6.9 3.3 4.4 1.5 10.6 2.6 540.8 111z" fill="#ffffff" fill-rule="nonzero" group-id="1,2" node-id="146" stroke="none" target-height="195.09999" target-width="655.9" target-x="382.9" target-y="159.3"/><g clip-path="url(#SVGID_4_)" group-id="1,2,5,10" node-id="150"><path d="m768 915.8 262.5-64.3 2.9-.9 2.7-1.3 2.3-1.7 2.2-2 1.7-2.3 1.5-2.5 1.1-2.7.6-2.9.3-3 1.9-460.6-.2-1.9-1.1-3.4-1.4-2.3-2-1.9-3.2-1.8-1.8-.5-543.8-105.7-4.1-.6-4.1-.1-4 .2-4.1.7-3.9 1.1-3.9 1.5-323.2 141.6-2 1.2-1.8 1.5-1.4 1.8-1.1 2-.6 2.2-.2 2.4 1.9 439.8.2 3.3.8 3.1 1.3 2.9 1.6 2.6 2.1 2.3 2.4 2.1 2.6 1.6 3 1.1 3.2.8 209.2 28.9 361.7 26 38.2-8.3z" fill="#ffffff" fill-rule="nonzero" group-id="1,2,5,10" node-id="152" stroke="none" target-height="670.69995" target-width="907.89996" target-x="139.8" target-y="253.4"/><path d="M729.8 936.1 366.5 910l-209.2-28.9-3.9-.8-3.6-1.2-3.4-1.7-3.2-2-3-2.3-2.6-2.7-2.3-3-1.9-3.1-1.6-3.5-1.2-3.6-.7-3.8-.2-3.9-1.9-439.8.2-3.2.6-3.1 2.3-5.6 3.6-4.9 2.3-2.1 2.5-1.8 2.8-1.4L465.3 246l5-2 5.1-1.4 5.2-.9 5.3-.3 5.3.2 5.3.7L1040.3 348l3.7 1.1 3.3 1.5 3 2 2.8 2.4 2.2 2.8 1.9 3.1 1.4 3.4.8 3.6.3 3.8-1.9 460.5-.8 7.2-1 3.4-3.1 6.3-4.2 5.4-5.4 4.4-6.3 3.2-3.6 1.1-262.5 64.2-38.5 8.4-2.6.3zm-360.4-50L729 912l36.3-7.9 262.4-64.2 3.2-1.6 2.1-2.7.6-1.7.2-1.8 1.9-460.5L489 265.5l-2.8-.1-5.7.6-5.6 1.9-323.1 141.6 1.9 439.9.2 2 .7 1.7 1 1.5 1.4 1.3 1.7.9 1.9.5 208.8 28.8z" fill="#22a864" fill-rule="nonzero" group-id="1,2,5,10" node-id="154" stroke="none" target-height="694.69995" target-width="931.89996" target-x="127.8" target-y="241.4"/></g><g clip-path="url(#SVGID_4_)" group-id="1,2,5,11" node-id="157"><path d="m381.9 901.8-224.6-31.7-2.7-1-.9-.8-1.1-1.6-.4-1.9.1-1.9.6-1.8 1.8-1.8 1.4-.7 311.3-113.2 5-1.6 5.2-1.2 5.2-.6 5.3-.2 5.3.2 5.2.8 532.7 97.9 2.6 1.2.9.9 1 1.6.4 1.9-.2 1.9-.8 1.8-1.9 1.8-1.4.6-29.2 8.6-265.9 65.3-354.9-24.5z" fill="#3e9452" fill-opacity="0.3" fill-rule="nonzero" group-id="1,2,5,11" node-id="159" stroke="none" target-height="184.5" target-width="883.99994" target-x="152.2" target-y="741.8"/></g><g clip-path="url(#SVGID_4_)" group-id="1,2,5,12" node-id="162"><path d="m783.4 711.8-7.2-.6-5.6-1.3-5.1-1.6-4.7-2-4.4-2.3-4.1-2.7-3.8-3.1-3.5-3.5-3.1-3.7-2.8-4.1-2.4-4.4-2-4.6-1.6-4.9-1.3-5.2-.8-5.6-.5-5.9.2-2.1.6-2 .9-1.8 1.4-1.6 1.6-1.3 1.9-.9 1.9-.5 2.1-.1 7.8 1.1 65.4 11.7 6.2 1.5 1.7.8 2.7 2.5 1.5 3.4.1 2-.3 4.2-.7 4.2-1.1 4-3.3 7.7-4.8 7-2.9 3.2-3.2 2.9-4.1 2.9-4.2 2.4-4.4 1.9-4.6 1.3-4.7.8-4.8.3zM747.3 663l1 4.5 1.6 4.9 1.4 3.2 4 6.4 2.6 3 3.1 2.7 3.7 2.6 2.9 1.5 7.1 2.6 4.3 1 3.8.4 3.6-.1 3.6-.7 3.5-1.2 3.3-1.7 3.2-2.3 4.4-4.5 3.4-5.3 2-5.8-62.5-11.2zm63.2 5.6z" fill="#f43b2e" fill-rule="nonzero" group-id="1,2,5,12" node-id="164" stroke="none" target-height="65.79999" target-width="96" target-x="730.5" target-y="646"/></g><g clip-path="url(#SVGID_4_)" group-id="1,2,5,13" node-id="167"><path d="m840 582-.3 5.5-.8 5.2-1.4 5.1-1.8 4.8-2.4 4.7-2.7 4.3-3.1 4.1-3.6 3.8-3.9 3.4-4.2 3-4.5 2.7-4.9 2.2-5 1.8-5.2 1.3-5.5.8-5.7.3-5.7-.3-5.5-.8-5.2-1.3-5-1.8-4.9-2.2-4.5-2.7-4.2-3-3.9-3.4-3.6-3.8-3.1-4.1-2.7-4.3-2.4-4.7-1.8-4.8-1.4-5.1-.8-5.2-.3-5.5.3-5.5.8-5.2 1.4-5.1 1.8-4.8 2.4-4.7 2.7-4.3 3.1-4.1 3.6-3.8 3.9-3.4 4.2-3 4.5-2.7 4.9-2.2 5-1.8 5.2-1.3 5.5-.8 5.7-.3 5.7.3 5.5.8 5.2 1.3 5 1.8 4.9 2.2 4.5 2.7 4.2 3 3.9 3.4 3.6 3.8 3.1 4.1 2.7 4.3 2.4 4.7 1.8 4.8 1.4 5.1.8 5.2.3 5.5z" fill="#f43b2e" fill-rule="nonzero" group-id="1,2,5,13" node-id="169" stroke="none" target-height="106" target-width="110" target-x="730" target-y="529"/></g><g clip-path="url(#SVGID_4_)" group-id="1,2,5,14" node-id="172"><path d="m820.6 571-.2 3.5-.8 3.3-1.4 3-1.9 2.8-2.3 2.4-2.7 2-3.1 1.5-3.3 1-3.6.5-2.7-.2-1.7-.5-1.1-.7-.8-1-.4-1.3-.1-1.7 1-9.8.1-3.9-.4-4-1.7-9.6v-1.7l.4-1.4.7-1.1 1-.7 1.7-.6 2.6-.4 3.7.2 3.4.8 3.1 1.3 2.9 1.8 2.5 2.2 2 2.7 1.6 2.9 1 3.2.5 3.5z" fill="#ffffff" fill-rule="nonzero" group-id="1,2,5,14" node-id="174" stroke="none" target-height="38.599976" target-width="27.099976" target-x="793.5" target-y="552.4"/></g><g clip-path="url(#SVGID_4_)" group-id="1,2,5,15" node-id="177"><path d="m630 461-4.7.3-4.4.6-4.3 1.1-4.1 1.5-4 2-3.7 2.2-3.4 2.6-3.2 2.9-2.9 3.2-2.6 3.4-2.2 3.7-2 4-1.5 4.1-1.1 4.3-.6 4.4-.3 4.7.2 1.8 1.2 3.2 2.2 2.6 1.4 1 3.2 1.2 1.8.2 1.8-.2 3.2-1.1V529l.3 4.1.8 3.9 1.3 3.7 1.7 3.5 2.1 3.1 2.6 2.9 2.9 2.6 3.1 2.1 3.5 1.7 3.7 1.3 3.9.8 4.1.3 4.1-.3 3.9-.8 3.7-1.3 3.5-1.7 3.1-2.1 2.9-2.6 2.6-2.9 2.1-3.1 1.7-3.5 1.3-3.7.8-3.9.3-4.1v-14.3l3.2 1.1 1.8.2 1.8-.2 3.2-1.2 1.4-1 2.2-2.6 1.2-3.2.2-1.8-.3-4.7-.6-4.4-1.1-4.3-1.5-4.1-2-4-2.2-3.7-2.6-3.4-2.9-3.2-3.2-2.9-3.4-2.6-3.7-2.2-4-2-4.1-1.5-4.3-1.1-4.4-.6-4.7-.3z" fill="#2e2725" fill-rule="nonzero" group-id="1,2,5,15" node-id="179" stroke="none" target-height="98" target-width="90" target-x="585" target-y="461"/><path d="m930 518-4.7.3-4.4.6-4.3 1.1-4.1 1.5-4 2-3.7 2.2-3.4 2.6-3.2 2.9-2.9 3.2-2.6 3.4-2.2 3.7-2 4-1.5 4.1-1.1 4.3-.6 4.4-.3 4.7.2 1.8 1.2 3.2 2.2 2.6 1.4 1 3.2 1.2 1.8.2 2.2-.3 2-.6 1.8-1.1v15l.3 4 .7 3.7 1.3 3.6 1.7 3.4 2 3 2.5 2.8 2.8 2.5 3 2 3.4 1.7 3.6 1.3 3.7.7 4 .3 4-.3 3.7-.7 3.6-1.3 3.4-1.7 3-2 2.8-2.5 2.5-2.8 2-3 1.7-3.4 1.3-3.6.7-3.7.3-4v-15l1.8 1.1 2 .6 2.2.3 1.8-.2 3.2-1.2 1.4-1 2.2-2.6 1.2-3.2.2-1.8-.3-4.7-.6-4.4-1.1-4.3-1.5-4.1-2-4-2.2-3.7-2.6-3.4-2.9-3.2-3.2-2.9-3.4-2.6-3.7-2.2-4-2-4.1-1.5-4.3-1.1-4.4-.6-4.7-.3z" fill="#2e2725" fill-rule="nonzero" group-id="1,2,5,15" node-id="181" stroke="none" target-height="97" target-width="90" target-x="885" target-y="518"/><path d="m630 528-2.1-.3-1.9-.8-1.7-1.2-1.2-1.7-.8-1.9-.3-2.1v-16l.3-2.1.8-1.9 1.2-1.7 1.7-1.2 1.9-.8 2.1-.3 2.1.3 1.9.8 1.7 1.2 1.2 1.7.8 1.9.3 2.1v16l-.3 2.1-.8 1.9-1.2 1.7-1.7 1.2-1.9.8-2.1.3z" fill="#ffffff" fill-rule="nonzero" group-id="1,2,5,15,20" node-id="185" stroke="none" target-height="32" target-width="16" target-x="622" target-y="496"/><path d="m930 585-2.1-.3-1.9-.8-1.7-1.2-1.2-1.7-.8-1.9-.3-2.1v-16l.3-2.1.8-1.9 1.2-1.7 1.7-1.2 1.9-.8 2.1-.3 2.1.3 1.9.8 1.7 1.2 1.2 1.7.8 1.9.3 2.1v16l-.3 2.1-.8 1.9-1.2 1.7-1.7 1.2-1.9.8-2.1.3z" fill="#ffffff" fill-rule="nonzero" group-id="1,2,5,15,20" node-id="187" stroke="none" target-height="32" target-width="16" target-x="922" target-y="553"/><path d="m630 447 7.2 1.1 6.8 1.6 8 2.4 1.4-.3 1.1-.7.9-1.1.4-1.4-.1-1.6-22.4-61-1.3-1.9-.9-.5-1.6-.3-1.6.3-.9.5-1.3 1.9-23.4 57.5-.2 1.5.4 1.3.7 1.2 1.1.8 1.3.4 12.5-1.9 5.8-.2 6.1.4z" fill="#0ca1a6" fill-rule="evenodd" group-id="1,2,5,15,21" node-id="192" stroke="none" target-height="68.80002" target-width="53.700012" target-x="602.1" target-y="383.3"/><path d="m629 586-11.2-2-11.9-3.6-1.4.3-1.3.7-.8 1.1-.5 1.3.1 1.6 22.7 82.6 1.3 1.9.9.5 1.6.3 1.6-.3.9-.5 1.3-1.9 23.4-78.1.1-1.5-.3-1.3-.8-1.1-1-.8-1.3-.4-11.9 1.5-5.6.1-5.9-.4z" fill="#0ca1a6" fill-rule="evenodd" group-id="1,2,5,15,21" node-id="194" stroke="none" target-height="90.29999" target-width="53.899963" target-x="601.9" target-y="580.4"/><path d="m930.6 504 7.2 1.1 6.8 1.6 8 2.4 1.4-.3 1.1-.7.9-1.1.4-1.4-.1-1.6-22.4-61-1.3-1.9-.9-.5-1.6-.3-1.6.3-.9.5-1.3 1.9-23.4 57.5-.2 1.5.4 1.3.7 1.2 1.1.8 1.3.4 12.5-1.9 5.8-.2 6.1.4z" fill="#0ca1a6" fill-rule="evenodd" group-id="1,2,5,15,21" node-id="196" stroke="none" target-height="68.80002" target-width="53.700012" target-x="902.7" target-y="440.3"/><path d="m929 643-7.4-1.4-14.8-4.3-1.4.3-1.2.7-.9 1.1-.4 1.4.1 1.5 22.7 82.7 1.3 1.9 2.5.8 1.6-.3.9-.5 1.3-1.9 23.5-78.5.1-1.5-.3-1.3-.8-1.1-1-.8-1.3-.4-6.9 1.2-5.6.7-5.9.1-6.1-.4z" fill="#0ca1a6" fill-rule="evenodd" group-id="1,2,5,15,21" node-id="198" stroke="none" target-height="90.400024" target-width="54" target-x="902.9" target-y="637.3"/></g><g clip-path="url(#SVGID_4_)" group-id="1,2,5,16" node-id="202"><path d="M279 382.6v39.1l.3 1 .6.7.9.3 1-.1 29.3-11.6 1.1-1.1.2-.8v-40l-.2-1-.7-.7-.9-.3-1 .1-29.3 12.5-.7.5-.6 1.4z" fill="#fcc419" fill-rule="evenodd" group-id="1,2,5,16" node-id="204" stroke="none" target-height="55.600006" target-width="33.399994" target-x="279" target-y="368.1"/><path d="m229.8 444.2 29.3-11.6 1-.8.3-1.1v-38.5l-.2-1-.7-.7-.9-.3-1 .2-29.3 12.5-1.1 1-.2 38.4.3 1 .6.6.9.4 1-.1z" fill="#fcc419" fill-rule="evenodd" group-id="1,2,5,16" node-id="206" stroke="none" target-height="54.099976" target-width="33.399994" target-x="227" target-y="390.2"/><path d="m178.8 464.3 29.3-11.6 1-.7.3-1.2v-36.9l-.2-1-.7-.7-.9-.3-1 .2-29.3 12.5-1.1 1-.2 36.8.3 1 .6.7.9.3 1-.1z" fill="#fcc419" fill-rule="evenodd" group-id="1,2,5,16" node-id="208" stroke="none" target-height="52.5" target-width="33.399994" target-x="176" target-y="411.9"/></g><g clip-path="url(#SVGID_4_)" group-id="1,2,5,17" node-id="211"><path d="m483 698.9-1.2-.2-2-1.2-1.1-1.9-.2-1.2V285.3l.6-2.3 1.6-1.6 1.1-.5 1.2-.1 2.3.6 1.6 1.6.6 2.3v409.1l-.2 1.2-1.1 1.9-2 1.2-1.2.2z" fill="#8fc7aa" fill-opacity="0.9" fill-rule="nonzero" group-id="1,2,5,17" node-id="213" stroke="none" target-height="418.10004" target-width="9" target-x="478.5" target-y="280.8"/></g><path d="m306.7 556.4-9.8-.7-4.3-.7-6.3-1.7-5.3-1.9-8.8-4.2-3.4-2.1-4.5-3.4-1.3-1.9-.1-2.3 1-2.1 1-.8 2.1-.7 2.2.4 5.2 3.7 7.1 3.8 4.9 2 5.2 1.6 6.2 1.3 4.2.5h9.6l2.3.4 1.7 1.5.8 2.3-.1 1.2-1 2-1.8 1.3-1.2.3-5.6.2z" fill="#bdd4bd" fill-rule="nonzero" group-id="1,2,6" node-id="219" stroke="none" target-height="22.5" target-width="53.5" target-x="262.9" target-y="533.9"/><path d="m317.2 530.4-6.6-.2-6-.8-5.6-1.2-5.5-1.6-9.6-3.9-8.4-4.9-8.4-6.4-3.8-3.5-3.3-3.4-4.3-5.2-.7-2.3.4-2.2 1.5-1.8 2.2-.8 2.3.4.9.6 5.2 6.1 3.3 3.4 3.9 3.4 5 3.7 7.6 4.4 4.5 2.1 4.6 1.8 5.1 1.4 5.6 1.2 5.6.6 6.1.1 7.9-.4 2.1.9 1.4 1.8.3 1.2-.4 2.3-1.4 1.8-2.2.9-9.3.5z" fill="#bdd4bd" fill-rule="nonzero" group-id="1,2,6" node-id="221" stroke="none" target-height="38.200012" target-width="75.5" target-x="255" target-y="492.2"/><path d="m452.5 335.5-.3-6.2-.7-6-1.2-5.9-1.6-5.6-2.1-5.5-2.5-5.3-2.8-5-3.3-4.8-3.6-4.5-3.9-4.2-4.2-3.9-4.5-3.6-4.8-3.3-5-2.8-5.3-2.5-5.5-2.1-5.6-1.6-5.9-1.2-6-.7-6.2-.3-10.6.7-10 2.2-6.5 2.1-6.1 2.7-5.9 3.3-4.6-4-4.9-3.5-5.2-3.2-5.5-2.8-5.7-2.2-6-1.9-6.1-1.3-6.4-.8-6.5-.3-6.2.3-6 .7-5.9 1.2-5.6 1.6-5.5 2.1-5.3 2.5-5 2.8-4.8 3.3-4.5 3.6-4.2 3.9-3.9 4.2-3.6 4.5-3.3 4.8-2.8 5-2.5 5.3-2.1 5.5-1.6 5.6-1.2 5.9-.7 6-.3 6.2.2 6 .7 5.8 1.1 5.6 1.6 5.5 1.9 5.4 2.3 5.1 2.7 4.9 3 4.7 3.4 4.4 3.7 4.2 3.9 3.8 4.3 3.6 4.5 3.3 4.7 2.9 5 2.6 5.2 2.3-2.8 8.8-1.8 9.4-.6 9.7.3 6.3.7 6.1 1.2 5.9 1.6 5.7 2 5.6 2.5 5.4 2.8 5 3.2 4.9 3.5 4.6 3.9 4.2 4.1 4 4.5 3.6 4.7 3.3 5 2.9 5.2 2.5 5.4 2.1 5.6 1.7 5.7 1.2 6 .7 6.1.3 6.1-.3 6-.7 5.7-1.2 5.6-1.7 5.4-2.1 5.2-2.5 5-2.9 4.7-3.3 4.5-3.6 4.1-4 3.9-4.2 3.5-4.6 3.2-4.9 2.8-5 2.5-5.4 2-5.6 1.6-5.7 1.2-5.9.7-6.1.3-6.3-.2-6.2-.7-5.9-1.2-5.8 5.5-2.1 5.3-2.5 5-2.8 4.7-3.3 4.5-3.6 4.2-3.9 3.9-4.2 3.6-4.5 3.2-4.8 2.9-5 2.4-5.2 2.1-5.5 1.6-5.7 1.2-5.8.7-6 .3-6.2z" fill="#41c73f" fill-rule="nonzero" group-id="1,2" node-id="224" stroke="none" target-height="249" target-width="240" target-x="212.5" target-y="251.5"/><path d="m578.9 196.3 107.9 89.5 1.5 1.6 1.1 1.8.7 2 .2 2.2 2 147.9.3 1.5.7 1.1 1.1.9 1.3.4h1.4l1.4-.6 39.3-26 1.4-.6h1.4l1.3.4 1.1.9 37.3 41.7 1.2.9 1.4.4 1.4-.1 1.4-.7 35.4-26.8 1.3-.7 1.3-.1 1.3.2 1.2.8 48.5 42.6 1.4.9 1.5.1 1.5-.4 1.2-.8.8-1.3.2-1.6-5.4-146.1-.3-2.1-.8-2-1.1-1.8-1.6-1.5-117.6-89.4-2.6-1.6-2.8-1.3-3-.8-167.2-31.5z" fill="#3e9452" fill-opacity="0.3" fill-rule="nonzero" group-id="1,2,7" node-id="228" stroke="none" target-height="282.2" target-width="302.39996" target-x="578.9" target-y="196.3"/><path d="m839.7 181.6-2.2-.5-1.9-1.6-.9-2.4v-1.3l2.1-8.4 4.3-12.6 5.9-13.2 6.5-11.7 4.4-6.5 9.2-11.5 9.2-9.1 5-4.3 5.6-4.2 6.1-4.1 6.3-3.7 6.9-3.4 7.5-3.1 7.7-2.6 8.4-2.3 9.1-1.7 2.6.2 2 1.5.7 1.1.4 2.7-.3 1.2-1.5 2.1-2.3 1-8.5 1.7-8.1 2.1-7.6 2.7-7.3 3.1-7 3.5-6.6 4.1-6.3 4.5-6 5-5.7 5.5-5.4 6.1-5.2 6.6-4.8 7.2-3.3 5.5-5.2 10.2-3.1 7.4-4 11.7-2.4 9.1-1.1 1.3-1.5.8-1.7.3z" fill="#aad654" fill-rule="nonzero" group-id="1,2,8" node-id="233" stroke="none" target-height="108.200005" target-width="109.89996" target-x="834.7" target-y="73.4"/><path d="m922 109.2-1.7-1.8-1.1-2-.6-2.2-.1-2.3.5-2.3 1-2.1 5.3-9.1 2.6-2.2 2.2-1 2.5-.4 3.3.4 3.3 1.6 1.3 1.2 1.9 3 .7 3.4-.1 1.7-1.1 3.5-4.9 8.3-2.7 2.9-1.6.9-3.6.9-3.7-.4-3.4-2z" fill="#fc8319" fill-rule="nonzero" group-id="1,2,8" node-id="235" stroke="none" target-height="27.799995" target-width="24.599976" target-x="918.5" target-y="83.8"/><path d="m954.5 108.6-8.3-14.8-.7-3.2.1-2.5.8-2.3 1.9-2.7 1.3-1.1 1.7-1 3.4-.9 1.8.1 3.4.9 2.9 2.2 1.1 1.5 4.2 7 4.3 7.9 1 3.7-.4 3.7-1.7 3.2-1.2 1.4-3.3 1.9-2.5.6-2.3-.1-2.3-.6-2.1-1.2-1.8-1.6-1.3-2.1z" fill="#fc8319" fill-rule="nonzero" group-id="1,2,8" node-id="237" stroke="none" target-height="34.1" target-width="27.900024" target-x="945.5" target-y="80.1"/><path d="m992.5 89.9-1.5 2-1.9 1.5-2.2 1.1-2.4.4-2.4-.1-14.4-5.2-12.3-2.1-2.1-1-1.8-1.5-1.4-1.9-.9-2.1-.5-2.4.6-3.9.8-1.7 2.3-2.8 3.3-1.7 1.8-.4h2.1l9.8 1.4 3.5.8 7.9 2.6 7.2 2.9 1.7 1 2.5 2.6 1.4 3.3.2 1.8-.5 3.6-.8 1.8z" fill="#fc8319" fill-rule="nonzero" group-id="1,2,8" node-id="239" stroke="none" target-height="26.800003" target-width="45.099976" target-x="948.7" target-y="68.1"/><path d="m948.9 69.1-1-3.7v-1.9L949 60l2.3-2.9 3.4-1.9 6.3-1.8 6.9-1.3 8.3-.8h7.7l3.7.8 1.6.8 2.6 2.5 1.5 3.3.3 1.8v2l-.6 2.4-1.2 2.2-1.6 1.7-2 1.4-2.2.8-15.3.9-12.2 2.8-2.3-.1-2.3-.7-2-1.1-1.7-1.6-1.3-2.1z" fill="#fc8319" fill-rule="nonzero" group-id="1,2,8" node-id="241" stroke="none" target-height="23.399998" target-width="45.69995" target-x="947.9" target-y="51.3"/><path d="M956.6 65.3 937.3 60l1.3-4.4 2.5-7 3.6-8.3 4.7-8.4 1.5-1.8 1.7-1.3 1.9-.9 2.1-.4h2.1l2.1.4 1.9.9 1.7 1.3 1.6 1.8.9 1.7.5 1.8.1 3.8-.6 1.9-2.6 4.7-3.5 7.4-4.2 12.1z" fill="#fc8319" fill-rule="nonzero" group-id="1,2,8" node-id="243" stroke="none" target-height="37.800003" target-width="30.200012" target-x="937.3" target-y="27.5"/><path d="m924 58.3-7.2-9.3-.8-2.1-.3-2.3.3-2.3.7-2.3 1.3-2 1.5-1.4 1.6-1.1 3.5-1 3.7.3 1.8.6 3.1 2.4 3.9 4.6 4.2 6.2.7 1.9.2 2.1-.6 3.9-2 3.6-1.5 1.4-1.9 1.2 1.7-.9-2.5.9-2.6.3-2.5-.3-2.4-.9-2.1-1.5-1.8-2z" fill="#fc8319" fill-rule="nonzero" group-id="1,2,8" node-id="245" stroke="none" target-height="28.5" target-width="26.5" target-x="915.7" target-y="34.5"/><path d="m903.1 71.2-.3-4 1.2-3.7 2.5-2.9 3.4-1.8 2-.3 5.2-.2 11.6.7 1.1.4 1.4 1.5.6 15.1-.6 1.8-1.4 1.2-.9.2-8.5-.8-9.4-.1-2.1-.6-2-1.1-1.6-1.5-1.3-1.8-.9-2.1z" fill="#fc8319" fill-rule="nonzero" group-id="1,2,8" node-id="247" stroke="none" target-height="20.899998" target-width="29" target-x="902.8" target-y="58.3"/><path d="m960.8 73.8-.2 3.1-.8 2.8-1.2 2.5-1.7 2.4-2 2-2.3 1.6-2.6 1.3-2.8.7-3 .3-3.1-.3-2.7-.7-2.6-1.3-2.4-1.6-1.9-2-1.7-2.4-1.2-2.5-.8-2.8-.3-3.1.3-3 .8-2.8 1.2-2.6 1.7-2.3 1.9-2 2.4-1.6 2.6-1.3 2.7-.7 3.1-.3 3 .3 2.8.7 2.6 1.3 2.3 1.6 2 2 1.7 2.3 1.2 2.6.8 2.8.2 3z" fill="#fccd11" fill-rule="nonzero" group-id="1,2,8" node-id="249" stroke="none" target-height="33.3" target-width="33.299988" target-x="927.5" target-y="57.2"/></g></g><g clip-path="url(#SVGID_2_)" group-id="1,3" id="body_4_" node-id="58"><path d="m736.7 1159.9 5 50h85l-6-52z" fill="#feda84" fill-rule="nonzero" group-id="1,3" node-id="254" stroke="none" target-height="52" target-width="90" target-x="736.7" target-y="1157.9"/><g clip-path="url(#SVGID_6_)" group-id="1,3,9,18" node-id="258"><path d="m737.7 1160.9 4.5 49H271.7l.1-24.5.5-12.2 2.1-31.5 2-18.5 3.7-26 2.4-14.1 5.9-28.4 3.7-14.8 4.1-14.6 4.7-14.8 5.3-14.8 8.9-21.8 10.3-21.4 5.8-10.4 6.1-10.1 6.5-9.9 6.9-9.6 7.4-9.3 7.8-8.9 8.3-8.5 8.7-8.1 7.3-6.1 7.6-5.8 7.9-5.5 8.4-5.2 8.6-4.8 8.8-4.4 9.3-4 9.6-3.6 10.1-3.2 10.6-2.8 10.4-2.3 11-1.8 11.5-1.3 12.1-.8 12.6-.3 14.3.2 13.7.7 13.3 1.1 12.7 1.5 12.3 1.8 11.9 2.3 14.5 3.3 13.8 3.7 13.3 4.3 12.7 4.6 12.1 5.1 12 5.7 11.5 6.1 11 6.4 10.5 6.8 10 7.1 9.8 7.7 9.3 7.8 8.8 8.2 8.3 8.4 7.9 8.7 7.8 9.2 7.4 9.3 6.9 9.5 6.5 9.7 8.2 13.2 7.5 13.1 6.9 13.1 6.3 13.4 5.8 13 9.9 25.6 7.8 23.8 4.8 17.2 3.8 15 5.3 25.5 3.4 23h-133z" fill="#f43b2e" fill-rule="nonzero" group-id="1,3,9,18" node-id="260" stroke="none" target-height="384.10004" target-width="599" target-x="271.7" target-y="825.8"/></g><g clip-path="url(#SVGID_6_)" group-id="1,3,9,19" node-id="263"><path d="m442.6 849.4-.3 3.6-.7 3.4-1.1 3.3-1.5 3.2-2 2.9-2.4 2.7-2.6 2.3-3 2-3.1 1.5-3.3 1.2-3.5.7-3.6.2-3.5-.2-3.5-.7-3.3-1.2-3.1-1.5-3-2-2.6-2.3-2.4-2.7-2-2.9-1.5-3.2-1.1-3.3-.7-3.4-.3-3.6.3-3.6.7-3.4 1.1-3.4 1.5-3.1 2-2.9 2.4-2.7 2.6-2.4 3-1.9 3.1-1.6 3.3-1.1 3.5-.7 3.5-.2 3.6.2 3.5.7 3.3 1.1 3.1 1.6 3 1.9 2.6 2.4 2.4 2.7 2 2.9 1.5 3.1 1.1 3.4.7 3.4.3 3.6z" fill="#faf2e1" fill-opacity="0.5" fill-rule="nonzero" group-id="1,3,9,19,22" node-id="267" stroke="none" target-height="54" target-width="54.100006" target-x="388.5" target-y="822.4"/><path d="m530.2 849.4-.2 3.7-.7 3.5-1.2 3.3-1.6 3.1-1.9 2.9-2.3 2.6-2.6 2.3-2.8 1.9-3.2 1.6-3.3 1.1-3.5.7-3.7.3-3.5-.2-3.5-.7-3.3-1.2-3.2-1.5-2.9-2-2.7-2.3-2.3-2.7-2-2.9-1.5-3.2-1.2-3.3-.6-3.4-.3-3.6.3-3.6.6-3.4 1.2-3.4 1.5-3.1 2-2.9 2.3-2.7 2.7-2.4 2.9-1.9 3.2-1.6 3.3-1.1 3.5-.7 3.5-.2 3.7.2 3.5.7 3.3 1.2 3.2 1.6 2.8 1.9 2.6 2.3 2.3 2.6 1.9 2.8 1.6 3.2 1.2 3.3.7 3.5.2 3.7z" fill="#faf2e1" fill-opacity="0.5" fill-rule="nonzero" group-id="1,3,9,19,22" node-id="269" stroke="none" target-height="54" target-width="54" target-x="476.2" target-y="822.4"/><path d="m397.5 921.6-.2 3.5-.7 3.5-1.2 3.3-1.5 3.2-2 2.9-2.3 2.7-2.7 2.3-2.9 2-3.2 1.5-3.3 1.1-3.4.7-3.6.3-3.6-.3-3.4-.7-3.4-1.1-3.1-1.5-2.9-2-2.7-2.3-2.4-2.7-1.9-2.9-1.6-3.2-1.1-3.3-.7-3.5-.2-3.5.2-3.6.7-3.4 1.1-3.4 1.6-3.1 1.9-2.9 2.4-2.7 2.7-2.4 2.9-1.9 3.1-1.6 3.4-1.1 3.4-.7 3.6-.2 3.6.2 3.4.7 3.3 1.1 3.2 1.6 2.9 1.9 2.7 2.4 2.3 2.7 2 2.9 1.5 3.1 1.2 3.4.7 3.4.2 3.6z" fill="#faf2e1" fill-opacity="0.5" fill-rule="nonzero" group-id="1,3,9,19,23" node-id="274" stroke="none" target-height="54" target-width="54" target-x="343.5" target-y="894.6"/><path d="m485.2 921.6-.3 3.5-.7 3.5-1.1 3.3-1.5 3.2-2 2.9-2.3 2.7-2.7 2.3-2.9 2-3.2 1.5-3.3 1.1-3.5.7-3.5.3-3.6-.3-3.4-.7-3.4-1.1-3.1-1.5-2.9-2-2.7-2.3-2.4-2.7-1.9-2.9-1.6-3.2-1.1-3.3-.7-3.5-.2-3.5.2-3.6.7-3.4 1.1-3.4 1.6-3.1 1.9-2.9 2.4-2.7 2.7-2.4 2.9-1.9 3.1-1.6 3.4-1.1 3.4-.7 3.6-.2 3.5.2 3.5.7 3.3 1.1 3.2 1.6 2.9 1.9 2.7 2.4 2.3 2.7 2 2.9 1.5 3.1 1.1 3.4.7 3.4.3 3.6z" fill="#faf2e1" fill-opacity="0.5" fill-rule="nonzero" group-id="1,3,9,19,23" node-id="276" stroke="none" target-height="54" target-width="54" target-x="431.2" target-y="894.6"/><path d="m572.8 921.6-.2 3.5-.7 3.5-1.1 3.3-1.6 3.2-1.9 2.9-2.4 2.7-2.7 2.3-2.9 2-3.1 1.5-3.4 1.1-3.4.7-3.6.3-3.5-.3-3.5-.7-3.3-1.1-3.2-1.5-2.9-2-2.7-2.3-2.3-2.7-2-2.9-1.5-3.2-1.2-3.3-.6-3.5-.3-3.5.3-3.6.6-3.4 1.2-3.4 1.5-3.1 2-2.9 2.3-2.7 2.7-2.4 2.9-1.9 3.2-1.6 3.3-1.1 3.5-.7 3.5-.2 3.6.2 3.4.7 3.4 1.1 3.1 1.6 2.9 1.9 2.7 2.4 2.4 2.7 1.9 2.9 1.6 3.1 1.1 3.4.7 3.4.2 3.6z" fill="#faf2e1" fill-opacity="0.5" fill-rule="nonzero" group-id="1,3,9,19,23" node-id="278" stroke="none" target-height="54" target-width="54" target-x="518.8" target-y="894.6"/><path d="m353.6 991.6-.2 3.6-.7 3.4-1.1 3.3-1.6 3.2-1.9 2.9-2.4 2.7-2.7 2.3-2.9 2-3.2 1.5-3.3 1.2-3.4.7-3.6.2-3.6-.2-3.4-.7-3.3-1.2-3.2-1.5-2.9-2-2.7-2.3-2.4-2.7-1.9-2.9-1.6-3.2-1.1-3.3-.7-3.4-.2-3.6.2-3.6.7-3.4 1.1-3.4 1.6-3.1 1.9-2.9 2.4-2.7 2.7-2.4 2.9-1.9 3.2-1.6 3.3-1.1 3.4-.7 3.6-.2 3.6.2 3.4.7 3.3 1.1 3.2 1.6 2.9 1.9 2.7 2.4 2.4 2.7 1.9 2.9 1.6 3.1 1.1 3.4.7 3.4.2 3.6z" fill="#faf2e1" fill-opacity="0.5" fill-rule="nonzero" group-id="1,3,9,19,24" node-id="283" stroke="none" target-height="54" target-width="54" target-x="299.6" target-y="964.6"/><path d="m441.3 991.6-.2 3.6-.7 3.4-1.2 3.3-1.5 3.2-2 2.9-2.3 2.7-2.7 2.3-2.9 2-3.2 1.5-3.3 1.2-3.4.7-3.6.2-3.6-.2-3.4-.7-3.4-1.2-3.1-1.5-2.9-2-2.7-2.3-2.4-2.7-1.9-2.9-1.6-3.2-1.1-3.3-.7-3.4-.2-3.6.2-3.6.7-3.4 1.1-3.4 1.6-3.1 1.9-2.9 2.4-2.7 2.7-2.4 2.9-1.9 3.1-1.6 3.4-1.1 3.4-.7 3.6-.2 3.6.2 3.4.7 3.3 1.1 3.2 1.6 2.9 1.9 2.7 2.4 2.3 2.7 2 2.9 1.5 3.1 1.2 3.4.7 3.4.2 3.6z" fill="#faf2e1" fill-opacity="0.5" fill-rule="nonzero" group-id="1,3,9,19,24" node-id="285" stroke="none" target-height="54" target-width="54" target-x="387.3" target-y="964.6"/><path d="m529 991.6-.3 3.7-.7 3.5-1.2 3.3-1.5 3.1-2 2.9-2.2 2.6-2.6 2.3-2.9 1.9-3.1 1.6-3.3 1.1-3.5.7-3.7.3-3.6-.2-3.4-.7-3.4-1.2-3.1-1.5-2.9-2-2.7-2.3-2.4-2.7-1.9-2.9-1.6-3.2-1.1-3.3-.7-3.4-.2-3.6.2-3.6.7-3.4 1.1-3.4 1.6-3.1 1.9-2.9 2.4-2.7 2.7-2.4 2.9-1.9 3.1-1.6 3.4-1.1 3.4-.7 3.6-.2 3.7.2 3.5.7 3.3 1.2 3.1 1.6 2.9 1.9 2.6 2.3 2.2 2.6 2 2.8 1.5 3.2 1.2 3.3.7 3.5.3 3.7z" fill="#faf2e1" fill-opacity="0.5" fill-rule="nonzero" group-id="1,3,9,19,24" node-id="287" stroke="none" target-height="54" target-width="54" target-x="475" target-y="964.6"/><path d="m616.6 991.6-.2 3.6-.7 3.4-1.1 3.3-1.6 3.2-1.9 2.9-2.4 2.7-2.7 2.3-2.9 2-3.1 1.5-3.4 1.2-3.4.7-3.6.2-3.5-.2-3.5-.7-3.3-1.2-3.2-1.5-2.9-2-2.7-2.3-2.3-2.7-2-2.9-1.5-3.2-1.2-3.3-.6-3.4-.3-3.6.3-3.6.6-3.4 1.2-3.4 1.5-3.1 2-2.9 2.3-2.7 2.7-2.4 2.9-1.9 3.2-1.6 3.3-1.1 3.5-.7 3.5-.2 3.6.2 3.4.7 3.4 1.1 3.1 1.6 2.9 1.9 2.7 2.4 2.4 2.7 1.9 2.9 1.6 3.1 1.1 3.4.7 3.4.2 3.6z" fill="#faf2e1" fill-opacity="0.5" fill-rule="nonzero" group-id="1,3,9,19,24" node-id="289" stroke="none" target-height="54" target-width="54" target-x="562.6" target-y="964.6"/><path d="m617.4 849.4-.2 3.6-.7 3.4-1.2 3.3-1.5 3.2-2 2.9-2.3 2.7-2.7 2.3-2.9 2-3.2 1.5-3.3 1.2-3.4.7-3.6.2-3.6-.2-3.4-.7-3.4-1.2-3.1-1.5-2.9-2-2.7-2.3-2.4-2.7-1.9-2.9-1.6-3.2-1.1-3.3-.7-3.4-.2-3.6.2-3.6.7-3.4 1.1-3.4 1.6-3.1 1.9-2.9 2.4-2.7 2.7-2.4 2.9-1.9 3.1-1.6 3.4-1.1 3.4-.7 3.6-.2 3.6.2 3.4.7 3.3 1.1 3.2 1.6 2.9 1.9 2.7 2.4 2.3 2.7 2 2.9 1.5 3.1 1.2 3.4.7 3.4.2 3.6z" fill="#faf2e1" fill-opacity="0.5" fill-rule="nonzero" group-id="1,3,9,19,25" node-id="294" stroke="none" target-height="54" target-width="54" target-x="563.4" target-y="822.4"/><path d="m705.1 849.4-.3 3.6-.7 3.4-1.1 3.3-1.5 3.2-2 2.9-2.4 2.7-2.6 2.3-3 2-3.1 1.5-3.3 1.2-3.5.7-3.5.2-3.6-.2-3.5-.7-3.3-1.2-3.1-1.5-3-2-2.6-2.3-2.4-2.7-2-2.9-1.5-3.2-1.1-3.3-.7-3.4-.3-3.6.3-3.6.7-3.4 1.1-3.4 1.5-3.1 2-2.9 2.4-2.7 2.6-2.4 3-1.9 3.1-1.6 3.3-1.1 3.5-.7 3.6-.2 3.5.2 3.5.7 3.3 1.1 3.1 1.6 3 1.9 2.6 2.4 2.4 2.7 2 2.9 1.5 3.1 1.1 3.4.7 3.4.3 3.6z" fill="#faf2e1" fill-opacity="0.5" fill-rule="nonzero" group-id="1,3,9,19,25" node-id="296" stroke="none" target-height="54" target-width="54.099976" target-x="651" target-y="822.4"/><path d="m660 921.6-.2 3.5-.7 3.5-1.2 3.3-1.5 3.2-2 2.9-2.3 2.7-2.7 2.3-2.9 2-3.2 1.5-3.3 1.1-3.4.7-3.6.3-3.6-.3-3.4-.7-3.4-1.1-3.1-1.5-2.9-2-2.7-2.3-2.4-2.7-1.9-2.9-1.6-3.2-1.1-3.3-.7-3.5-.2-3.5.2-3.6.7-3.4 1.1-3.4 1.6-3.1 1.9-2.9 2.4-2.7 2.7-2.4 2.9-1.9 3.1-1.6 3.4-1.1 3.4-.7 3.6-.2 3.6.2 3.4.7 3.3 1.1 3.2 1.6 2.9 1.9 2.7 2.4 2.3 2.7 2 2.9 1.5 3.1 1.2 3.4.7 3.4.2 3.6z" fill="#faf2e1" fill-opacity="0.5" fill-rule="nonzero" group-id="1,3,9,19,26" node-id="301" stroke="none" target-height="54" target-width="54" target-x="606" target-y="894.6"/><path d="m747.7 921.6-.3 3.5-.7 3.5-1.1 3.3-1.5 3.2-2 2.9-2.3 2.7-2.7 2.3-2.9 2-3.2 1.5-3.3 1.1-3.5.7-3.5.3-3.6-.3-3.4-.7-3.4-1.1-3.1-1.5-2.9-2-2.7-2.3-2.4-2.7-1.9-2.9-1.6-3.2-1.1-3.3-.7-3.5-.3-3.5.3-3.6.7-3.4 1.1-3.4 1.6-3.1 1.9-2.9 2.4-2.7 2.7-2.4 2.9-1.9 3.1-1.6 3.4-1.1 3.4-.7 3.6-.2 3.5.2 3.5.7 3.3 1.1 3.1 1.6 3 1.9 2.7 2.4 2.3 2.7 2 2.9 1.5 3.1 1.1 3.4.7 3.4.3 3.6z" fill="#faf2e1" fill-opacity="0.5" fill-rule="nonzero" group-id="1,3,9,19,26" node-id="303" stroke="none" target-height="54" target-width="54.100037" target-x="693.6" target-y="894.6"/><path d="m703.8 991.6-.2 3.6-.7 3.4-1.2 3.3-1.5 3.2-2 2.9-2.3 2.7-2.7 2.3-2.9 2-3.2 1.5-3.3 1.2-3.4.7-3.6.2-3.6-.2-3.4-.7-3.4-1.2-3.1-1.5-2.9-2-2.7-2.3-2.4-2.7-1.9-2.9-1.6-3.2-1.1-3.3-.7-3.4-.2-3.6.2-3.6.7-3.4 1.1-3.4 1.6-3.1 1.9-2.9 2.4-2.7 2.7-2.4 2.9-1.9 3.1-1.6 3.4-1.1 3.4-.7 3.6-.2 3.6.2 3.4.7 3.3 1.1 3.2 1.6 2.9 1.9 2.7 2.4 2.3 2.7 2 2.9 1.5 3.1 1.2 3.4.7 3.4.2 3.6z" fill="#faf2e1" fill-opacity="0.5" fill-rule="nonzero" group-id="1,3,9,19,27" node-id="308" stroke="none" target-height="54" target-width="54" target-x="649.8" target-y="964.6"/><path d="m791.5 991.6-.3 3.6-.7 3.4-1.1 3.3-1.5 3.2-2 2.9-2.3 2.7-2.7 2.3-2.9 2-3.2 1.5-3.3 1.2-3.5.7-3.5.2-3.6-.2-3.4-.7-3.4-1.2-3.1-1.5-2.9-2-2.7-2.3-2.4-2.7-1.9-2.9-1.6-3.2-1.1-3.3-.7-3.4-.2-3.6.2-3.6.7-3.4 1.1-3.4 1.6-3.1 1.9-2.9 2.4-2.7 2.7-2.4 2.9-1.9 3.1-1.6 3.4-1.1 3.4-.7 3.6-.2 3.5.2 3.5.7 3.3 1.1 3.2 1.6 2.9 1.9 2.7 2.4 2.3 2.7 2 2.9 1.5 3.1 1.1 3.4.7 3.4.3 3.6z" fill="#faf2e1" fill-opacity="0.5" fill-rule="nonzero" group-id="1,3,9,19,27" node-id="310" stroke="none" target-height="54" target-width="54" target-x="737.5" target-y="964.6"/><path d="m309.3 1063.3-.3 3.5-.6 3.5-1.2 3.3-1.5 3.1-2 3-2.3 2.6-2.7 2.4-2.9 2-3.2 1.5-3.3 1.1-3.5.7-3.5.3-3.7-.3-3.5-.7-3.3-1.2-3.2-1.5-2.8-2-2.6-2.3-2.3-2.5-1.9-2.9-1.6-3.1-1.2-3.3-.7-3.5-.2-3.7.2-3.8.7-3.5 1.2-3.3 1.6-3.1 1.9-2.9 2.3-2.5 2.6-2.3 2.8-2 3.2-1.5 3.3-1.2 3.5-.7 3.7-.3 3.5.3 3.5.7 3.3 1.1 3.2 1.5 2.9 2 2.7 2.4 2.3 2.6 2 3 1.5 3.1 1.2 3.3.6 3.5.3 3.6z" fill="#faf2e1" fill-opacity="0.5" fill-rule="nonzero" group-id="1,3,9,19,28" node-id="315" stroke="none" target-height="54.100098" target-width="53.999985" target-x="255.3" target-y="1036.2"/><path d="m397 1063.3-.3 3.5-.7 3.5-1.1 3.3-1.5 3.1-2 3-2.4 2.6-2.6 2.4-3 2-3.1 1.5-3.3 1.1-3.5.7-3.5.3-3.6-.3-3.5-.7-3.3-1.1-3.1-1.5-3-2-2.6-2.4-2.4-2.6-2-3-1.5-3.1-1.1-3.3-.7-3.5-.3-3.5.3-3.6.7-3.5 1.1-3.3 1.5-3.1 2-3 2.4-2.6 2.6-2.4 3-2 3.1-1.5 3.3-1.1 3.5-.7 3.6-.3 3.5.3 3.5.7 3.3 1.1 3.1 1.5 3 2 2.6 2.4 2.4 2.6 2 3 1.5 3.1 1.1 3.3.7 3.5.3 3.6z" fill="#faf2e1" fill-opacity="0.5" fill-rule="nonzero" group-id="1,3,9,19,28" node-id="317" stroke="none" target-height="54.100098" target-width="54.100006" target-x="342.9" target-y="1036.2"/><path d="m484.6 1063.3-.2 3.5-.7 3.5-1.1 3.3-1.6 3.1-1.9 3-2.4 2.6-2.7 2.4-2.9 2-3.1 1.5-3.4 1.1-3.4.7-3.6.3-3.5-.3-3.5-.7-3.3-1.1-3.2-1.5-2.9-2-2.7-2.4-2.3-2.6-2-3-1.5-3.1-1.2-3.3-.6-3.5-.3-3.5.3-3.6.6-3.5 1.2-3.3 1.5-3.1 2-3 2.3-2.6 2.7-2.4 2.9-2 3.2-1.5 3.3-1.1 3.5-.7 3.5-.3 3.6.3 3.4.7 3.4 1.1 3.1 1.5 2.9 2 2.7 2.4 2.4 2.6 1.9 3 1.6 3.1 1.1 3.3.7 3.5.2 3.6z" fill="#faf2e1" fill-opacity="0.5" fill-rule="nonzero" group-id="1,3,9,19,28" node-id="319" stroke="none" target-height="54.100098" target-width="54" target-x="430.6" target-y="1036.2"/><path d="m351.9 1135.4-.2 3.6-.7 3.4-1.2 3.4-1.5 3.1-2 2.9-2.3 2.7-2.7 2.4-2.9 1.9-3.2 1.6-3.3 1.1-3.4.7-3.6.2-3.6-.2-3.4-.7-3.4-1.1-3.1-1.6-2.9-1.9-2.7-2.4-2.4-2.7-1.9-2.9-1.6-3.1-1.1-3.4-.7-3.4-.2-3.6.2-3.6.7-3.4 1.1-3.3 1.6-3.2 1.9-2.9 2.4-2.7 2.7-2.3 2.9-2 3.1-1.5 3.4-1.2 3.4-.7 3.6-.2 3.6.2 3.4.7 3.3 1.2 3.2 1.5 2.9 2 2.7 2.3 2.3 2.7 2 2.9 1.5 3.2 1.2 3.3.7 3.4.2 3.6z" fill="#faf2e1" fill-opacity="0.5" fill-rule="nonzero" group-id="1,3,9,19,29" node-id="324" stroke="none" target-height="54" target-width="54" target-x="297.9" target-y="1108.4"/><path d="m439.6 1135.4-.3 3.6-.7 3.4-1.1 3.4-1.5 3.1-2 2.9-2.3 2.7-2.7 2.4-2.9 1.9-3.2 1.6-3.3 1.1-3.5.7-3.5.2-3.6-.2-3.4-.7-3.4-1.1-3.1-1.6-2.9-1.9-2.7-2.4-2.4-2.7-1.9-2.9-1.6-3.1-1.1-3.4-.7-3.4-.3-3.6.3-3.6.7-3.4 1.1-3.3 1.6-3.2 1.9-2.9 2.4-2.7 2.7-2.3 2.9-2 3.1-1.5 3.4-1.2 3.4-.7 3.6-.2 3.5.2 3.5.7 3.3 1.2 3.2 1.5 2.9 2 2.7 2.3 2.3 2.7 2 2.9 1.5 3.2 1.1 3.3.7 3.4.3 3.6z" fill="#faf2e1" fill-opacity="0.5" fill-rule="nonzero" group-id="1,3,9,19,29" node-id="326" stroke="none" target-height="54" target-width="54.100006" target-x="385.5" target-y="1108.4"/><path d="m527.2 1135.4-.2 3.7-.7 3.5-1.2 3.3-1.6 3.2-1.9 2.8-2.3 2.6-2.6 2.3-2.8 1.9-3.2 1.6-3.3 1.2-3.5.7-3.7.2-3.5-.2-3.5-.7-3.3-1.1-3.2-1.6-2.9-1.9-2.7-2.4-2.3-2.7-2-2.9-1.5-3.1-1.2-3.4-.6-3.4-.3-3.6.3-3.6.6-3.4 1.2-3.3 1.5-3.2 2-2.9 2.3-2.7 2.7-2.3 2.9-2 3.2-1.5 3.3-1.2 3.5-.7 3.5-.2 3.7.3 3.5.7 3.3 1.1 3.2 1.6 2.8 1.9 2.6 2.3 2.3 2.6 1.9 2.9 1.6 3.1 1.2 3.3.7 3.5.2 3.7z" fill="#faf2e1" fill-opacity="0.5" fill-rule="nonzero" group-id="1,3,9,19,29" node-id="328" stroke="none" target-height="54" target-width="54" target-x="473.2" target-y="1108.4"/><path d="m308 1205.5-.2 3.5-.7 3.5-1.1 3.3-1.6 3.1-1.9 3-2.4 2.6-2.7 2.4-2.9 2-3.2 1.5-3.3 1.1-3.4.7-3.6.3-3.7-.3-3.5-.7-3.3-1.2-3.1-1.5-2.9-2-2.6-2.3-2.3-2.5-1.9-2.9-1.6-3.1-1.1-3.3-.8-3.5-.2-3.7.2-3.8.8-3.5 1.1-3.3 1.6-3.1 1.9-2.9 2.3-2.5 2.6-2.3 2.9-2 3.1-1.5 3.3-1.2 3.5-.7 3.7-.3 3.6.3 3.4.7 3.3 1.1 3.2 1.5 2.9 2 2.7 2.4 2.4 2.6 1.9 3 1.6 3.1 1.1 3.3.7 3.5.2 3.6z" fill="#faf2e1" fill-opacity="0.5" fill-rule="nonzero" group-id="1,3,9,19,30" node-id="333" stroke="none" target-height="54.099976" target-width="54" target-x="254" target-y="1178.4"/><path d="m395.7 1205.5-.2 3.5-.7 3.5-1.2 3.3-1.5 3.1-2 3-2.3 2.6-2.7 2.4-2.9 2-3.2 1.5-3.3 1.1-3.4.7-3.6.3-3.6-.3-3.4-.7-3.4-1.1-3.1-1.5-2.9-2-2.7-2.4-2.4-2.6-1.9-3-1.6-3.1-1.1-3.3-.7-3.5-.2-3.5.2-3.6.7-3.5 1.1-3.3 1.6-3.1 1.9-3 2.4-2.6 2.7-2.4 2.9-2 3.1-1.5 3.4-1.1 3.4-.7 3.6-.3 3.6.3 3.4.7 3.3 1.1 3.2 1.5 2.9 2 2.7 2.4 2.3 2.6 2 3 1.5 3.1 1.2 3.3.7 3.5.2 3.6z" fill="#faf2e1" fill-opacity="0.5" fill-rule="nonzero" group-id="1,3,9,19,30" node-id="335" stroke="none" target-height="54.099976" target-width="54" target-x="341.7" target-y="1178.4"/><path d="m483.4 1205.5-.3 3.5-.7 3.5-1.1 3.3-1.5 3.1-2 3-2.3 2.6-2.7 2.4-2.9 2-3.2 1.5-3.3 1.1-3.5.7-3.5.3-3.6-.3-3.4-.7-3.4-1.1-3.1-1.5-2.9-2-2.7-2.4-2.4-2.6-1.9-3-1.6-3.1-1.1-3.3-.7-3.5-.2-3.5.2-3.6.7-3.5 1.1-3.3 1.6-3.1 1.9-3 2.4-2.6 2.7-2.4 2.9-2 3.1-1.5 3.4-1.1 3.4-.7 3.6-.3 3.5.3 3.5.7 3.3 1.1 3.2 1.5 2.9 2 2.7 2.4 2.3 2.6 2 3 1.5 3.1 1.1 3.3.7 3.5.3 3.6z" fill="#faf2e1" fill-opacity="0.5" fill-rule="nonzero" group-id="1,3,9,19,30" node-id="337" stroke="none" target-height="54.099976" target-width="54" target-x="429.4" target-y="1178.4"/><path d="m571 1205.5-.2 3.5-.7 3.5-1.1 3.3-1.6 3.1-1.9 3-2.4 2.6-2.7 2.4-2.9 2-3.1 1.5-3.4 1.1-3.4.7-3.6.3-3.5-.3-3.5-.7-3.3-1.1-3.2-1.5-2.9-2-2.7-2.4-2.3-2.6-2-3-1.5-3.1-1.2-3.3-.6-3.5-.3-3.5.3-3.6.6-3.5 1.2-3.3 1.5-3.1 2-3 2.3-2.6 2.7-2.4 2.9-2 3.2-1.5 3.3-1.1 3.5-.7 3.5-.3 3.6.3 3.4.7 3.4 1.1 3.1 1.5 2.9 2 2.7 2.4 2.4 2.6 1.9 3 1.6 3.1 1.1 3.3.7 3.5.2 3.6z" fill="#faf2e1" fill-opacity="0.5" fill-rule="nonzero" group-id="1,3,9,19,30" node-id="339" stroke="none" target-height="54.099976" target-width="54" target-x="517" target-y="1178.4"/><path d="m571.8 1063.3-.2 3.5-.7 3.5-1.2 3.3-1.5 3.1-2 3-2.3 2.6-2.7 2.4-2.9 2-3.2 1.5-3.3 1.1-3.4.7-3.6.3-3.6-.3-3.4-.7-3.4-1.1-3.1-1.5-2.9-2-2.7-2.4-2.4-2.6-1.9-3-1.6-3.1-1.1-3.3-.7-3.5-.2-3.5.2-3.6.7-3.5 1.1-3.3 1.6-3.1 1.9-3 2.4-2.6 2.7-2.4 2.9-2 3.1-1.5 3.4-1.1 3.4-.7 3.6-.3 3.6.3 3.4.7 3.3 1.1 3.2 1.5 2.9 2 2.7 2.4 2.3 2.6 2 3 1.5 3.1 1.2 3.3.7 3.5.2 3.6z" fill="#faf2e1" fill-opacity="0.5" fill-rule="nonzero" group-id="1,3,9,19,31" node-id="344" stroke="none" target-height="54.100098" target-width="54" target-x="517.8" target-y="1036.2"/><path d="m659.5 1063.3-.3 3.5-.7 3.5-1.1 3.3-1.5 3.1-2 3-2.4 2.6-2.6 2.4-3 2-3.1 1.5-3.3 1.1-3.5.7-3.5.3-3.6-.3-3.5-.7-3.3-1.1-3.1-1.5-3-2-2.6-2.4-2.4-2.6-2-3-1.5-3.1-1.1-3.3-.7-3.5-.3-3.5.3-3.6.7-3.5 1.1-3.3 1.5-3.1 2-3 2.4-2.6 2.6-2.4 3-2 3.1-1.5 3.3-1.1 3.5-.7 3.6-.3 3.5.3 3.5.7 3.3 1.1 3.1 1.5 3 2 2.6 2.4 2.4 2.6 2 3 1.5 3.1 1.1 3.3.7 3.5.3 3.6z" fill="#faf2e1" fill-opacity="0.5" fill-rule="nonzero" group-id="1,3,9,19,31" node-id="346" stroke="none" target-height="54.100098" target-width="54.099976" target-x="605.4" target-y="1036.2"/><path d="m747.1 1063.3-.2 3.5-.7 3.5-1.1 3.3-1.6 3.1-1.9 3-2.4 2.6-2.7 2.4-2.9 2-3.1 1.5-3.4 1.1-3.4.7-3.6.3-3.5-.3-3.5-.7-3.3-1.1-3.2-1.5-2.9-2-2.7-2.4-2.3-2.6-2-3-1.5-3.1-1.2-3.3-.6-3.5-.3-3.5.3-3.6.6-3.5 1.2-3.3 1.5-3.1 2-3 2.3-2.6 2.7-2.4 2.9-2 3.2-1.5 3.3-1.1 3.5-.7 3.5-.3 3.6.3 3.4.7 3.4 1.1 3.1 1.5 2.9 2 2.7 2.4 2.4 2.6 1.9 3 1.6 3.1 1.1 3.3.7 3.5.2 3.6z" fill="#faf2e1" fill-opacity="0.5" fill-rule="nonzero" group-id="1,3,9,19,31" node-id="348" stroke="none" target-height="54.100098" target-width="54" target-x="693.1" target-y="1036.2"/><path d="m834.8 1063.3-.2 3.5-.7 3.5-1.1 3.3-1.6 3.1-1.9 3-2.4 2.6-2.7 2.4-2.9 2-3.2 1.5-3.3 1.1-3.4.7-3.6.3-3.6-.3-3.4-.7-3.3-1.1-3.2-1.5-2.9-2-2.7-2.4-2.3-2.6-2-3-1.5-3.1-1.2-3.3-.7-3.5-.2-3.5.2-3.6.7-3.5 1.2-3.3 1.5-3.1 2-3 2.3-2.6 2.7-2.4 2.9-2 3.2-1.5 3.3-1.1 3.4-.7 3.6-.3 3.6.3 3.4.7 3.3 1.1 3.2 1.5 2.9 2 2.7 2.4 2.4 2.6 1.9 3 1.6 3.1 1.1 3.3.7 3.5.2 3.6z" fill="#faf2e1" fill-opacity="0.5" fill-rule="nonzero" group-id="1,3,9,19,31" node-id="350" stroke="none" target-height="54.100098" target-width="54" target-x="780.8" target-y="1036.2"/><path d="m614.4 1135.4-.2 3.6-.7 3.4-1.2 3.4-1.5 3.1-2 2.9-2.3 2.7-2.7 2.4-2.9 1.9-3.2 1.6-3.3 1.1-3.4.7-3.6.2-3.6-.2-3.4-.7-3.3-1.1-3.2-1.6-2.9-1.9-2.7-2.4-2.4-2.7-1.9-2.9-1.6-3.1-1.1-3.4-.7-3.4-.2-3.6.2-3.6.7-3.4 1.1-3.3 1.6-3.2 1.9-2.9 2.4-2.7 2.7-2.3 2.9-2 3.2-1.5 3.3-1.2 3.4-.7 3.6-.2 3.6.2 3.4.7 3.3 1.2 3.2 1.5 2.9 2 2.7 2.3 2.3 2.7 2 2.9 1.5 3.2 1.2 3.3.7 3.4.2 3.6z" fill="#faf2e1" fill-opacity="0.5" fill-rule="nonzero" group-id="1,3,9,19,32" node-id="355" stroke="none" target-height="54" target-width="54" target-x="560.4" target-y="1108.4"/><path d="m702.1 1135.4-.3 3.6-.7 3.4-1.1 3.4-1.5 3.1-2 2.9-2.3 2.7-2.7 2.4-2.9 1.9-3.2 1.6-3.3 1.1-3.5.7-3.5.2-3.6-.2-3.4-.7-3.4-1.1-3.1-1.6-2.9-1.9-2.7-2.4-2.4-2.7-1.9-2.9-1.6-3.1-1.1-3.4-.7-3.4-.2-3.6.2-3.6.7-3.4 1.1-3.3 1.6-3.2 1.9-2.9 2.4-2.7 2.7-2.3 2.9-2 3.1-1.5 3.4-1.2 3.4-.7 3.6-.2 3.5.2 3.5.7 3.3 1.2 3.2 1.5 2.9 2 2.7 2.3 2.3 2.7 2 2.9 1.5 3.2 1.1 3.3.7 3.4.3 3.6z" fill="#faf2e1" fill-opacity="0.5" fill-rule="nonzero" group-id="1,3,9,19,32" node-id="357" stroke="none" target-height="54" target-width="54" target-x="648.1" target-y="1108.4"/><path d="m789.8 1135.4-.3 3.6-.7 3.4-1.1 3.4-1.6 3.1-1.9 2.9-2.4 2.7-2.7 2.4-2.9 1.9-3.1 1.6-3.4 1.1-3.4.7-3.6.2-3.5-.2-3.5-.7-3.3-1.1-3.2-1.6-2.9-1.9-2.7-2.4-2.3-2.7-2-2.9-1.5-3.1-1.1-3.4-.7-3.4-.3-3.6.3-3.6.7-3.4 1.1-3.3 1.5-3.2 2-2.9 2.3-2.7 2.7-2.3 2.9-2 3.2-1.5 3.3-1.2 3.5-.7 3.5-.2 3.6.2 3.4.7 3.4 1.2 3.1 1.5 2.9 2 2.7 2.3 2.4 2.7 1.9 2.9 1.6 3.2 1.1 3.3.7 3.4.3 3.6z" fill="#faf2e1" fill-opacity="0.5" fill-rule="nonzero" group-id="1,3,9,19,32" node-id="359" stroke="none" target-height="54" target-width="54.099976" target-x="735.7" target-y="1108.4"/><path d="m877.4 1135.4-.2 3.6-.7 3.4-1.1 3.4-1.6 3.1-1.9 2.9-2.4 2.7-2.7 2.4-2.9 1.9-3.1 1.6-3.4 1.1-3.4.7-3.6.2-3.6-.2-3.4-.7-3.3-1.1-3.2-1.6-2.9-1.9-2.7-2.4-2.3-2.7-2-2.9-1.5-3.1-1.2-3.4-.7-3.4-.2-3.6.2-3.6.7-3.4 1.2-3.3 1.5-3.2 2-2.9 2.3-2.7 2.7-2.3 2.9-2 3.2-1.5 3.3-1.2 3.4-.7 3.6-.2 3.6.2 3.4.7 3.4 1.2 3.1 1.5 2.9 2 2.7 2.3 2.4 2.7 1.9 2.9 1.6 3.2 1.1 3.3.7 3.4.2 3.6z" fill="#faf2e1" fill-opacity="0.5" fill-rule="nonzero" group-id="1,3,9,19,32" node-id="361" stroke="none" target-height="54" target-width="54" target-x="823.4" target-y="1108.4"/><path d="m658.2 1205.5-.2 3.5-.7 3.5-1.2 3.3-1.5 3.1-2 3-2.3 2.6-2.7 2.4-2.9 2-3.2 1.5-3.3 1.1-3.4.7-3.6.3-3.6-.3-3.4-.7-3.4-1.1-3.1-1.5-2.9-2-2.7-2.4-2.4-2.6-1.9-3-1.6-3.1-1.1-3.3-.7-3.5-.2-3.5.2-3.6.7-3.5 1.1-3.3 1.6-3.1 1.9-3 2.4-2.6 2.7-2.4 2.9-2 3.1-1.5 3.4-1.1 3.4-.7 3.6-.3 3.6.3 3.4.7 3.3 1.1 3.2 1.5 2.9 2 2.7 2.4 2.3 2.6 2 3 1.5 3.1 1.2 3.3.7 3.5.2 3.6z" fill="#faf2e1" fill-opacity="0.5" fill-rule="nonzero" group-id="1,3,9,19,33" node-id="366" stroke="none" target-height="54.099976" target-width="54" target-x="604.2" target-y="1178.4"/><path d="m745.9 1205.5-.3 3.5-.7 3.5-1.1 3.3-1.5 3.1-2 3-2.3 2.6-2.7 2.4-2.9 2-3.2 1.5-3.3 1.1-3.5.7-3.5.3-3.6-.3-3.4-.7-3.4-1.1-3.1-1.5-2.9-2-2.7-2.4-2.4-2.6-1.9-3-1.6-3.1-1.1-3.3-.7-3.5-.2-3.5.2-3.6.7-3.5 1.1-3.3 1.6-3.1 1.9-3 2.4-2.6 2.7-2.4 2.9-2 3.1-1.5 3.4-1.1 3.4-.7 3.6-.3 3.5.3 3.5.7 3.3 1.1 3.2 1.5 2.9 2 2.7 2.4 2.3 2.6 2 3 1.5 3.1 1.1 3.3.7 3.5.3 3.6z" fill="#faf2e1" fill-opacity="0.5" fill-rule="nonzero" group-id="1,3,9,19,33" node-id="368" stroke="none" target-height="54.099976" target-width="54" target-x="691.9" target-y="1178.4"/><path d="m833.6 1205.5-.3 3.5-.7 3.5-1.1 3.3-1.6 3.1-1.9 3-2.4 2.6-2.7 2.4-2.9 2-3.1 1.5-3.4 1.1-3.4.7-3.6.3-3.5-.3-3.5-.7-3.3-1.1-3.2-1.5-2.9-2-2.7-2.4-2.3-2.6-2-3-1.5-3.1-1.1-3.3-.7-3.5-.3-3.5.3-3.6.7-3.5 1.1-3.3 1.5-3.1 2-3 2.3-2.6 2.7-2.4 2.9-2 3.2-1.5 3.3-1.1 3.5-.7 3.5-.3 3.6.3 3.4.7 3.4 1.1 3.1 1.5 2.9 2 2.7 2.4 2.4 2.6 1.9 3 1.6 3.1 1.1 3.3.7 3.5.3 3.6z" fill="#faf2e1" fill-opacity="0.5" fill-rule="nonzero" group-id="1,3,9,19,33" node-id="370" stroke="none" target-height="54.099976" target-width="54.099976" target-x="779.5" target-y="1178.4"/></g><path d="m877 1156.8-.4-1.3-1.5-2.1-2.3-1h-1.3l-37.8 3.2-36.4 2.2-32.8.9H749l-14.1-.4-10.6-.7-9.5-1-6.8-1.1-9.5-2.5-4.6-2.3-1.1-1-1.9-3.2-2.8-7.6-3.9-17.6-4.1-24.1-4-28.6-3.9-31.5-3.5-32.5-6.1-62-.5-1.2-2-1.6-2.5-.5-1.4.3-2.1 1.5-1 2.3-.1 1.3 6.5 68 5.8 51-5-6.4-8.8-13.2-3.9-6.8-6.6-13.1-4.2-9.8-6.2-17.3-2.1-6.9-4-16.1-.7-1-2.1-1.5-2.6-.2-2.4 1.1-1.4 2.1-.3 1.2v1.4l2.5 11 4.8 16.1 6.3 16.7 6.8 14.8 8.4 14.9 4.9 7.6 5.4 7.4 5.9 7.1 6.4 7 1.2.9 2.2 15.7 4 23.7 1.7 8.6 3.2 13.1 1.5 4.8 2.5 5.8 2.4 3.6 2.3 2.3 1.8 1.2 5.7 2.8 3.3 1.1 9.7 2.2 8.6 1.3 11.6 1 12.8.6 28.9.2 40.8-1.6 23.8-1.6 38.1-3.2 1.3-.3 2.1-1.5 1-2.3.1-1.4z" fill="#ffffff" fill-rule="nonzero" group-id="1,3" node-id="375" stroke="none" target-height="229.39996" target-width="262" target-x="615" target-y="939.3"/></g></g></svg>