<!--version="1.0" standalone="no"--><!DOCTYPE html PUBLIC "-//W3C//DTD SVG 1.1//EN" "http://www.w3.org/Graphics/SVG/1.1/DTD/svg11.dtd"><svg height="1200" node-id="1" sillyvg="true" template-height="1200" template-width="1200" version="1.1" viewBox="0 0 1200 1200" width="1200" xmlns="http://www.w3.org/2000/svg" preserveAspectRatio="xMidYMid meet" zoomAndPan="magnify" contentScriptType="application/ecmascript" contentStyleType="text/css"><defs node-id="46"><clipPath id="SVGID_2_" node-id="8"><path d="M0 0h1200v1200H0z" fill="#000000" fill-rule="nonzero" node-id="49" stroke="none" target-height="1200" target-width="1200" target-x="0" target-y="0"/></clipPath><clipPath id="SVGID_4_" node-id="15"><path d="m769 917.8 262.5-64.3 2.9-.9 2.7-1.3 2.3-1.7 2.2-2 1.7-2.3 1.5-2.5 1.1-2.7.6-2.9.3-3 1.9-460.6-.2-1.9-1.1-3.4-1.4-2.3-2-1.9-3.2-1.8-1.8-.5-543.8-105.7-4.1-.6-4.1-.1-4 .2-4.1.7-3.9 1.1-3.9 1.5-323.2 141.6-2 1.2-1.8 1.5-1.4 1.8-1.1 2-.6 2.2-.2 2.4 1.9 439.8.2 3.3.8 3.1 1.3 2.9 1.6 2.6 2.1 2.3 2.4 2.1 2.6 1.6 3 1.1 3.2.8 209.2 28.9 361.7 26 38.2-8.3z" fill="#000000" fill-rule="nonzero" node-id="53" stroke="none" target-height="670.69995" target-width="907.89996" target-x="140.8" target-y="255.4"/></clipPath></defs><path d="M0 0h1200v1200H0z" fill="#faefbe" fill-rule="nonzero" node-id="57" target-height="1200" target-width="1200" target-x="0" target-y="0"/><g node-id="137"><g clip-path="url(#SVGID_2_)" group-id="1" id="sillyvg_g_0" node-id="60"><g clip-path="url(#SVGID_4_)" group-id="1,2,3,5,10" node-id="66"><path d="m759 926.8 285.8-66.8.7-.5.8-1.6 1.3-4.2 1.1-5.9V362.7L495.2 255.1l-4.1-.6-4.1-.1-4 .2-4.1.7-3.9 1.1-3.9 1.5-330.4 144.8v475.1l230.5 28.3L759 926.8z" fill="#343330" fill-rule="nonzero" group-id="1,2,3,5,10" node-id="68" stroke="none" target-height="672.4" target-width="907.99994" target-x="140.7" target-y="254.4"/></g><g clip-path="url(#SVGID_4_)" group-id="1,2,3,5,11" node-id="71"><path d="m382.9 903.8-224.6-31.7-2.7-1-.9-.8-1.1-1.6-.4-1.9.1-1.9.6-1.8 1.8-1.8 1.4-.7 311.3-113.2 5-1.6 5.2-1.2 5.2-.6 5.3-.2 5.3.2 5.2.8 532.7 97.9 2.6 1.2.9.9 1 1.6.4 1.9-.2 1.9-.8 1.8-1.9 1.8-1.4.6-29.2 8.6-265.9 63.3-354.9-22.5z" fill="#1f1e1b" fill-rule="nonzero" group-id="1,2,3,5,11" node-id="73" stroke="none" target-height="182.5" target-width="883.99994" target-x="153.2" target-y="743.8"/></g><path d="m1037.5 356.4 1-.1 1.3-1.1-.1-1.8-.8-.7-147.7-90.1-4.8-2.7-5-2.3-5.2-1.7-5.4-1.3-484.7-93.3h-1l-1.2 1.1v1.7l.6.7 87.3 71.1 3 2.1 6.9 3.3 4.4 1.5 10.6 2.6 540.8 111z" fill="#343330" fill-rule="nonzero" group-id="1,2,3" node-id="77" stroke="none" target-height="195.09999" target-width="655.9" target-x="383.9" target-y="161.3"/><path d="M280 384.6v39.1l.3 1 .6.7.9.3 1-.1 29.3-11.6 1.1-1.1.2-.8v-40l-.2-1-.7-.7-.9-.3-1 .1-29.3 12.5-1.1 1.1-.2.8z" fill="#ffffff" fill-opacity="0.2" fill-rule="evenodd" group-id="1,2,3,6" node-id="81" stroke="none" target-height="55.600006" target-width="33.399994" target-x="280" target-y="370.1"/><path d="m230.8 446.2 29.3-11.6 1-.8.3-1.1v-38.5l-.2-1-.7-.7-.9-.3-1 .2-29.3 12.5-1.1 1-.2 38.4.3 1 .6.6.9.4 1-.1z" fill="#ffffff" fill-opacity="0.2" fill-rule="evenodd" group-id="1,2,3,6" node-id="83" stroke="none" target-height="54.099976" target-width="33.399994" target-x="228" target-y="392.2"/><path d="m179.8 466.3 29.3-11.6 1-.7.3-1.2v-36.9l-.2-1-.7-.7-.9-.3-1 .2-29.3 12.5-1.1 1-.2 36.8.3 1 .6.7.9.3 1-.1z" fill="#ffffff" fill-opacity="0.2" fill-rule="evenodd" group-id="1,2,3,6" node-id="85" stroke="none" target-height="52.5" target-width="33.399994" target-x="177" target-y="413.9"/><path d="m273.3 698.5-6.1-.8-5.2-1.1-4.7-1.4-8.7-3.6-8.7-5.2-7.4-5.9-4.3-4.6-.7-1-.3-2.3.8-2.1.9-.9 2.1-.9 2.3.2 1 .6 4.5 4.5 6.3 5 4.4 2.8 4.9 2.5 5.9 2.3 4 1.3 9.4 1.6 2.2.8 1.5 1.8.3 1.1.1 1.2-.5 1.7-1 1.2-1.3.9-1.7.3z" fill="#ffffff" fill-rule="nonzero" group-id="1,2,3,7" node-id="90" stroke="none" target-height="29.799988" target-width="50.59999" target-x="227.2" target-y="668.7"/><path d="m298 673-6.6-.5-6.1-.9-5.6-1.4-5.6-1.8-5-2.1-4.7-2.4-8.7-5.5-8.9-7.5-4.2-4.3-6.5-7.8-3.6-5.3-.9-2.4.2-1.7.4-1.1 1.7-1.6 1.9-.5 2.2.4 1 .7 5 7 3.3 4.1 7.9 8 8.2 6.4 4.7 2.8 5.1 2.6 5.7 2.3 4.3 1.4 9.6 1.7 5.3.4 2.3.6 1.6 1.7.4 1.1-.1 2.4-.4 1-1.6 1.6-2.3.6z" fill="#ffffff" fill-rule="nonzero" group-id="1,2,3,7" node-id="92" stroke="none" target-height="46.799988" target-width="70.79999" target-x="231.6" target-y="626.2"/><path d="m286.4 273.4-.1-.9-.6-.5-20.4-4.5-3.5-.1-3.3 1-1.5 1-110 122.3-.5.9v.8l1 1.4.8.2 1-.1 128.8-57.8.6-1.6-.6-8.6-.2-8.2.3-8 .7-7.8 1.2-7.7 1.7-7.5 2-7.3 2.6-7z" fill="#292927" fill-rule="nonzero" group-id="1,2,3,7,12" node-id="96" stroke="none" target-height="127.600006" target-width="139.9" target-x="146.5" target-y="267.4"/><path d="M372.3 291.2 294.7 274l-2.5 6.7-2.1 6.9-1.7 7.2-1.3 7.4-.8 7.4-.3 7.7v7.9l.6 8.3 86-38.5.7-.6.5-1.4-.7-1.4-.8-.4z" fill="#343330" fill-rule="nonzero" group-id="1,2,3,7,12" node-id="98" stroke="none" target-height="59.5" target-width="87.79999" target-x="286" target-y="274"/><path d="m396.1 261.9-4.8-2.1-3.4-.8-3.4-.4h-4.1l-4.9.6-5.8 1.9-4 2-5.1 3.1-6.6 5.4-3.5 3.6-3.1 3.8-2.9 4.4-2.7 5.2-2 4.8-1.6 5.2-1.1 5.5-.8 5.8-.3 6.2.2 6.6.7 7.5 1.3 8.1 2 8.5 2.6 9.2 3.4 9.7 3.7 9.1 4.3 9.6 5 10.1 5.8 10.7 14.3 24.3L386 442l5.9 11.9 5 11.3 3.8 9.5 3.1 9.1 2.5 8.7 1.9 8.2 1.4 8 .9 8 .4 7.6-.1 7.4-.5 7-1 6.8-1.5 6.8-1.9 6.5-2.3 6.2-2.9 6.1-3.2 5.8-4.2 6.1-4.6 5.5-4.9 5.1-5.3 4.6-5.5 4.1-5.9 3.7-6 3.2-6.2 2.9-6.3 2.4-6.4 2-12.7 2.8-12.5 1.4-9.1.1-10.6-1.1-7.2-1.3-6.9-1.8-6.6-2.3-6.3-2.7-6.1-3.2-5.8-3.6-5.5-4.1-5.3-4.6-5-5.1-4.8-5.7-4.5-6.3-4.1-6.7-3.2-6.3-2.7-6.2-1.9-5.2-2.4-8.4-1.7-8.8-.4-7.1.8-6.7 1.7-5.3 1.4-2.4 1.7-2.2 2.2-2 2.5-1.6 3.1-1.2 3.9-.8 4-.2 3.4.3 3.2.9 2.9 1.2 2.7 1.6 2.3 1.9 3.2 3.3 2.5 3.5 2.2 3.7 2.8 6.7 2.2 7.4 3 7.5 2.3 4.5 3.2 5.1 3.2 4.1 3.4 3.5 3.5 3 3.8 2.5 4 2.1 4.3 1.5 4.6 1.2 8.2.7 8.9-.8 5.2-1.1 5.1-1.5 5.3-2.1 6.6-3.7 6.1-4.9 2.6-2.9 2.3-3.3 1.9-3.5 1.5-3.8 1.1-4.1.8-4.5.4-4.9v-5.4l-.6-6.1-1-6.5-1.6-7.2-2.3-7.7-3-8.4-4-9.8-5-10.6-6.1-11.4-13.8-23.7-6-11-10.2-20.9-4.2-10-4-10.5-3.4-10-2.7-9.7-2.2-9.4-1.7-9-1.1-8.4-.6-8.2-.3-7.9.2-7.6.7-7.4 1-7.5 1.5-7.2 1.9-7 2.4-6.8 2.7-6.6 3-5.9 6.5-10.7 3.5-4.7 5.1-5.9 5.1-5.4 5.3-4.7 11-8 10.8-6.1 9.8-4.2 6.9-2.2 5.4-1.2 7.5-.9 7.2-.3 6.8.2 6.8.7 6.3 1.2 6 1.5 5.9 2 10.5 4.6 4.9 2.8 8.2 5.6 3.7 3.1 5.8 5.7 2.4 2.8 3.9 5.7 3.4 6.8v1.5l-1 1.1-43.8 20.5-.8.2-1.4-.6-2.7-5-3.9-5.1-2.5-2.4-3-1.9z" fill="#1f1e1b" fill-rule="nonzero" group-id="1,2,3,7" node-id="101" stroke="none" target-height="409.9" target-width="238.30002" target-x="216.9" target-y="210.9"/><path d="M787.8 613.3v6.2l-.5 4.2-.9 3.4-1.2 2.8-1.5 2.2-1.7 1.8-2.1 1.4-2.5 1-3.1.7-3.7.2-13-1.4-9.3-1.7-19.3-4.4-3.7-1.3-5.3-2.6-2.9-2.2-4.7-5.2-2.1-.7-2.3.5-1.1.7-.7.9-.7 2.1.5 2.3 1.3 2 3.4 3.8 2.6 2.1 3.7 2.4 5.9 2.6 3.8 1.3 19.9 4.6 18.5 2.8 5.7.4 4.2-.3 3.8-.6 3.3-1.1 3-1.5 3.4-2.5.8-.3.7.6 3 4.4 2 2.2 2.2 1.8 2.7 1.6 3.2 1.3 9.6 2.5 9 1.8 8.9 1.4 7.7.8 2.6-.6 1.6-1.7.5-1.1.1-1.4-.4-1.6-1-1.3-1.4-.9-17.1-2.4-8.5-1.8-9-2.3-3.8-2-3.3-3.8-1.3-2.5-.9-2.4-1-4.1.9-3.9.5-4.5v-6.1l-9-.6z" fill="#ffffff" fill-rule="nonzero" group-id="1,2,3,8" node-id="106" stroke="none" target-height="45" target-width="137.59998" target-x="705.5" target-y="613.3"/><path d="m838.6 659.8-8.2-.7-8.9-1.5-9.1-1.9-9.7-2.4-3.4-1.4-3-1.8-2.7-2.2-2.4-2.8-2.2-3.4-3.2 2.3-3.3 1.6-3.6 1.2-4.1.7-4.7.2-5.2-.4-8.9-1.1-9.7-1.7-9.8-2.1-10.3-2.6-3.9-1.3-6.1-2.8-3.8-2.4-5-4.5-2.8-3.9-.6-3 .9-3 1-1.1 1.4-.9 1.5-.6 1.5-.1 2.9 1 1.2 1 2.2 2.9 4.4 3.5 4.9 2.4 3.5 1.2 19.1 4.5 9.3 1.6 12.7 1.4 3.5-.2 2.8-.6 2.4-.9 1.9-1.3 1.5-1.5 1.3-2.1 1.1-2.5.8-3.2.5-3.9v-6.2l.5-1.1 1.1-.4 9.6.7.8 1.4v6.2l-.5 4.4-.9 4 1.8 5.9 1.2 2.2 1.6 2.2 2.9 2.2 1.8.8 8.8 2.2 8.4 1.8 8.2 1.3 7.2.7 2.8.9 2.1 2 .6 1.3.3 1.5-.2 1.6-.5 1.5-1.9 2.2-2.2.9-1.2.1z" fill="#ffffff" fill-rule="nonzero" group-id="1,2,3,8" node-id="108" stroke="none" target-height="48" target-width="140.59998" target-x="704" target-y="611.8"/><path d="m796.8 618.9 24.3-34.1 1.1-2.6v-1.3l-.4-1.9-1.1-1.6-.9-.9-2.6-1.1-47.3-7.6-3.1.3-1.3.6-1.9 2.2-.7 2.8.8 3 23.7 41 9.4 1.2z" fill="#ffffff" fill-rule="nonzero" group-id="1,2,3" node-id="111" stroke="none" target-height="51.100037" target-width="59.299988" target-x="762.9" target-y="567.8"/><path d="m939.7 499.7-5.7.3-5.5.8-5.4 1.3-5.2 1.8-5 2.3-4.9 2.7-4.6 3.1-4.4 3.6-4.2 4-3.8 4.3-3.6 4.7-3.4 5.1-2.9 5.3-2.6 5.6-2.3 5.9-2 6.3-1.5 6.3-1.1 6.6-.6 6.9-.3 7.2.3 7.1.6 7 1.1 6.7 1.5 6.6 2 6.5 2.3 6.1 2.6 5.9 2.9 5.6 3.4 5.4 3.6 5 3.9 4.6 4.1 4.2 4.4 3.9 4.7 3.4 4.8 2.9 5 2.5 5.2 2 5.4 1.4 5.5.8 5.7.4 5.7-.3 5.6-.8 5.3-1.3 5.2-1.8 5.1-2.3 4.8-2.7 4.6-3.1 4.5-3.6 4.1-4 3.9-4.3 3.6-4.7 3.3-5.1 3-5.3 2.6-5.6 2.3-5.9 1.9-6.3 1.5-6.3 1.1-6.6.7-6.9.2-7.2-.2-7.1-.7-7-1.1-6.7-1.5-6.6-1.9-6.5-2.3-6.1-2.6-5.9-3-5.6-3.3-5.4-3.6-5-3.9-4.6-4.1-4.2-4.5-3.9-4.6-3.4-4.8-2.9-5.1-2.5-5.2-2-5.4-1.4-5.5-.9-5.7-.3zm0 161.1-1.6-.3-1.6-.7-1.7-1.2-1.7-1.8-1.9-2.8-1.9-3.6-1.9-4.7-3.1-10.4-3.1-16.2-1.3-11.2-.8-11.5-.3-12.4.2-10.4 1.5-18.5 1.2-8.9 1.5-7.7 1.7-6.7 2.2-6.5 2.2-5.1 2.3-3.8 2.1-2.7 2-1.7 2-.9 2-.4 1.6.3 1.6.7 1.7 1.2 1.7 1.8 1.9 2.8 1.9 3.6 3.6 9.5 2.9 12 1.7 9.8 1.3 11.2.8 11.5.2 12.4-.2 10.4-1.4 18.5-1.3 8.9-1.5 7.7-1.7 6.7-2.2 6.5-2.2 5.1-2.2 3.8-2.2 2.7-2 1.7-2 .9-2 .4z" fill="#ffffff" fill-rule="nonzero" group-id="1,2,3" node-id="113" stroke="none" target-height="172.09998" target-width="138" target-x="870.7" target-y="499.7"/><path d="m625.7 439.7-5.8.3-5.6.8-5.4 1.3-5.3 1.8-5.1 2.3-4.9 2.7-4.7 3.1-4.5 3.6-4.2 4-3.9 4.3-3.7 4.7-3.4 5.1-3 5.2-2.6 5.7-2.3 5.9-2 6.3-1.5 6.3-1.1 6.6-.7 6.9-.3 7.2.3 7.1.6 7 1.2 6.7 1.5 6.6 2 6.4 2.3 6.2 2.6 5.9 3 5.6 3.4 5.4 3.7 4.9 3.9 4.6 4.2 4.3 4.5 3.9 4.7 3.4 4.9 2.9 5.1 2.5 5.3 1.9 5.4 1.5 5.6.8 5.8.4 5.8-.3 5.6-.8 5.5-1.3 5.2-1.8 5.2-2.3 4.9-2.7 4.7-3.1 4.5-3.6 4.1-4 4-4.3 3.6-4.7 3.4-5.1 3-5.3 2.7-5.6 2.3-5.9 2-6.3 1.5-6.4 1.1-6.6.7-6.8.2-7.2-.2-7.1-.7-7-1.1-6.7-1.5-6.6-2-6.5-2.3-6.1-2.7-5.9-3-5.6-3.4-5.4-3.6-5-4-4.6-4.1-4.2-4.6-3.9-4.7-3.4-4.9-2.9-5.1-2.5-5.3-2-5.4-1.4-5.6-.9-5.8-.3zm0 161.1-1.6-.3-1.7-.7-1.6-1.2-1.8-1.9-1.9-2.7-1.9-3.6-2-4.7-3.2-10.4-1.4-6.4-1.7-9.8-1.3-11.2-.8-11.5-.3-12.4.2-10.4 1.5-18.5 1.3-8.9 1.5-7.7 1.7-6.7 3.4-9.3 3.4-6.2 2.1-2.6 2.1-1.7 2-.9 2-.4 1.7.3 1.6.7 1.7 1.2 1.7 1.8 1.9 2.8 2 3.6 1.9 4.7 3.2 10.4 1.4 6.3 1.7 9.9 1.3 11.2.8 11.5.3 12.4-.2 10.4-1.4 18.5-1.3 8.9-1.6 7.7-1.7 6.6-3.3 9.3-3.4 6.2-2.2 2.7-2 1.7-2.1.9-2 .4z" fill="#ffffff" fill-rule="nonzero" group-id="1,2,3" node-id="115" stroke="none" target-height="172.09998" target-width="140" target-x="555.7" target-y="439.7"/><path d="m579.9 198.3 107.9 89.5 1.5 1.6 1.1 1.8.7 2 .2 2.2 2 122.9.3 1.5.7 1.1 1.1.9 1.3.4h1.4l1.4-.6 39.3-26 1.4-.6h1.4l1.3.4 1.1.9 37.3 41.7 1.2.9 1.4.4 1.4-.1 1.4-.7 35.4-26.8 1.3-.7 1.3-.1 1.3.2 1.2.8 48.5 42.6 1.4.9 1.5.1 1.5-.4 1.2-.8.8-1.3.2-1.6-5.4-121.1-.3-2.1-.8-2-1.1-1.8-1.6-1.5-117.6-89.4-2.6-1.6-2.8-1.3-3-.8-167.2-31.5z" fill="#f43b2e" fill-rule="nonzero" group-id="1,2,3" node-id="117" stroke="none" target-height="257.2" target-width="302.39996" target-x="579.9" target-y="198.3"/><path d="m484 700.9-1.2-.2-2-1.2-1.1-1.9-.2-1.2V285.3l.6-2.3 1.6-1.6 1.1-.5 1.2-.1 2.3.6 1.6 1.6.6 2.3v411.1l-.2 1.2-1.1 1.9-2 1.2-1.2.2z" fill="#ffffff" fill-opacity="0.8" fill-rule="nonzero" group-id="1,2,3,9" node-id="121" stroke="none" target-height="420.10004" target-width="9" target-x="479.5" target-y="280.8"/><path d="m1079.1 564.6-1-.2-1-.7-.6-1.2-.4-2-.4-10-1.1-10.3-1.1-6.8-1.6-6.7-2-6.5-1.9-4.8-4.8-9.1-2.9-4.3-3.3-3.9-3.8-3.8-4.2-3.5-4.9-3.3-5-2.7-5.7-2.5-6.4-2.1-10.1-2.7-1-1.2-.1-1 .3-1 1.3-.9 17.4-.5 5.5-.7 5.4-1.1 5.3-1.5 3.4-1.4 5.9-3.5 2.2-2.1 2.1-2.4 1.8-2.9 2.4-4.7 2.1-5.2 3-10.8 3.2-19.2.9-1.8.7-.6 1.1-.2 1.1.3.8.6.8 1.9 1.4 18.2 1.1 6.8 2.6 11.1 3.7 9 4.3 7.4 2.4 3 3.5 3.6 3.7 3 3.7 2.4 4 1.9 7.9 2.7 5.9 1.1 7 .8 1.5.7.6 1.7-.2 1-1.2 1-9.9 1.1-6.2.9-5.3 1.3-4.7 1.6-3.7 1.7-3.4 2-3 2.3-2.7 2.6-2.5 2.9-2.5 3.9-2.3 4.5-1.9 5.3-1.6 6.2-2 12.9-.8 19-.7 2.2-.8.8-1.3.4z" fill="#fccd11" fill-rule="nonzero" group-id="1,2,3" node-id="124" stroke="none" target-height="149.79999" target-width="120.00006" target-x="1015.8" target-y="414.8"/><path d="m1073.1 988.8 1.4 6.4.7 6.1.3 5.7-.3 5.4-.7 5.1-1.1 5-1.7 4.7-2.2 4.6-2.8 4.4-3.3 4.2-3.9 4.1-4.7 3.9-4.6 3.2-5.3 3.2-6 3-6.9 2.8-7.7 2.7-8.7 2.5-9.7 2.2-10.9 2-12.2 1.7-13.7 1.3-15.3.9-29.9.5-35.9-1.1-20.4-1.2-3.7-1-3-2.3-1.1-1.5-5.3-13.7-6.9-16.5-12-24.9v-1.4l.5-1.2.9-1 1.1-.7 1.4-.2 21.8-.5 21.3-1.6 20.1-2.9 9.8-2 9.2-2.3 8.5-2.7 6.3-2.4 5.9-2.6 10.4-5.7 4.8-3.4 4.2-3.6 3.7-3.8 3.3-4 2.8-4.4 2.2-4.7 1.7-4.9 1.2-5.4.4-4.3.1-4.5-.4-4.8-2.4-13.1.2-4.5 1.7-4 2.7-3.4 3.7-2.3 4.3-1.1h2.4l5.1.7 5.2 1.3 3.4 1.3 3.3 1.7 3.4 2.2 3 2.6 2.9 3.3 2.8 3.9 2.2 4.3 2.1 5.1 1.8 6.3 1.2 6.3.8 7.5.4 8.9 5.9-.6 9 .1 8.8 1.7 7 2.8 3.3 2 3.1 2.6 2.9 3.1 3.5 5.5 1.4 3.4 1.2 4z" fill="#343330" fill-rule="nonzero" group-id="1,2,4" node-id="129" stroke="none" target-height="165.60004" target-width="239.90002" target-x="835.6" target-y="908.8"/><path d="m737.7 1161.9 5 50h85l-6-52z" fill="#343330" fill-rule="nonzero" group-id="1,2,4" node-id="131" stroke="none" target-height="52" target-width="90" target-x="737.7" target-y="1159.9"/><path d="m738.7 1162.9 4.5 49H272.7l.1-24.5.5-12.2 2.1-31.5 2-18.5 3.7-26 2.4-14.1 5.9-28.4 3.7-14.8 4.1-14.6 4.7-14.8 5.3-14.8 8.9-21.8 10.3-21.4 5.8-10.4 6.1-10.1 6.5-9.9 6.9-9.6 7.4-9.3 7.8-8.9 8.3-8.5 8.7-8.1 7.3-6.1 7.6-5.8 7.9-5.5 8.4-5.2 8.6-4.8 8.8-4.4 9.3-4 9.6-3.6 10.1-3.2 10.6-2.8 10.4-2.3 11-1.8 11.5-1.3 12.1-.8 12.6-.3 14.3.2 13.7.7 13.3 1.1 12.7 1.5 12.3 1.8 11.9 2.3 14.5 3.3 13.8 3.7 13.3 4.3 12.7 4.6 12.1 5.1 12 5.7 11.5 6.1 11 6.4 10.5 6.8 10 7.1 9.8 7.7 9.3 7.8 8.8 8.2 8.3 8.4 7.9 8.7 7.8 9.2 7.4 9.3 6.9 9.5 6.5 9.7 8.2 13.2 7.5 13.1 6.9 13.1 6.3 13.4 5.8 13 9.9 25.6 7.8 23.8 4.8 17.2 3.8 15 5.3 25.5 3.4 23h-133z" fill="#f43b2e" fill-rule="nonzero" group-id="1,2,4" node-id="133" stroke="none" target-height="384.10004" target-width="599" target-x="272.7" target-y="827.8"/><path d="m876 1158.8-.4-1.3-1.5-2.1-2.3-1h-1.3l-37.4 3.2-36 2.2-32.4.9h-15.3l-13.9-.4-10.5-.7-9.5-1-6.6-1.1-5.8-1.3-3.6-1.2-4.6-2.3-1.1-1-1.9-3.2-2.8-7.6-3.9-17.6-4.1-24.1-4-28.6-3.9-31.5-3.5-32.4-6-62.1-.6-1.1-2-1.7-2.5-.5-1.4.3-2 1.5-1.1 2.3-.1 1.3 6.5 68 5.9 51-5.1-6.4-8.8-13.2-3.9-6.8-6.6-13.1-4.2-9.8-6.2-17.2-2.1-7-4-16.1-.7-1-2.1-1.5-2.6-.2-2.4 1.1-1.4 2.1-.3 1.2.1 1.4 2.4 11 4.8 16.1 6.3 16.7 6.8 14.8 8.4 14.9 5 7.6 5.3 7.4 5.9 7.1 6.4 7 1.2.9 2.2 15.7 4 23.7 1.7 8.6 3.2 13.1 1.5 4.8 2.5 5.8 2.4 3.6 2.3 2.3 1.8 1.2 5.6 2.8 3.3 1.1 9.6 2.2 8.5 1.3 11.5 1 12.6.6 28.7.2 40.3-1.6 23.6-1.5 37.6-3.3 1.3-.3 2.1-1.5 1-2.3.1-1.4z" fill="#ffffff" fill-rule="nonzero" group-id="1,2,4" node-id="135" stroke="none" target-height="229.39996" target-width="260" target-x="616" target-y="941.3"/></g></g></svg>