<!--version="1.0" standalone="no"--><!DOCTYPE html PUBLIC "-//W3C//DTD SVG 1.1//EN" "http://www.w3.org/Graphics/SVG/1.1/DTD/svg11.dtd"><svg height="1200" node-id="1" sillyvg="true" template-height="1200" template-width="1200" version="1.1" viewBox="0 0 1200 1200" width="1200" xmlns="http://www.w3.org/2000/svg" preserveAspectRatio="xMidYMid meet" zoomAndPan="magnify" contentScriptType="application/ecmascript" contentStyleType="text/css"><defs node-id="65"><clipPath id="SVGID_2_" node-id="8"><path d="M0 0h1200v1200H0z" fill="#000000" fill-rule="nonzero" node-id="68" stroke="none" target-height="1200" target-width="1200" target-x="0" target-y="0"/></clipPath><clipPath id="SVGID_4_" node-id="22"><path d="m768.4 915.8 262.6-64.3 2.9-.9 2.6-1.3 2.4-1.7 2.1-2 1.8-2.3 1.4-2.5 1.1-2.7.7-2.9.2-3 1.9-460.6-.1-1.9-1.1-3.4-1.5-2.3-2-1.9-3.2-1.8-1.8-.5-543.8-105.7-4.1-.6-4-.1-4.1.2-4 .7-4 1.1-3.8 1.5-323.2 141.6-2.1 1.2-1.7 1.5-1.5 1.8-1 2-.7 2.2-.2 2.4 1.9 439.8.3 3.3.7 3.1 1.3 2.9 1.7 2.6 2 2.3 2.4 2.1 2.7 1.6 2.9 1.1 3.2.8 209.3 28.9 361.6 26 38.2-8.3z" fill="#000000" fill-rule="nonzero" node-id="72" stroke="none" target-height="670.69995" target-width="907.89996" target-x="140.2" target-y="253.4"/></clipPath><clipPath id="SVGID_6_" node-id="55"><path d="m734.9 1160.9 4.5 49H272.9v-24.5l.5-12.2 2.2-31.5 2-18.5 3.6-26 2.4-14.1 6-28.4 3.7-14.8 4.1-14.6 4.7-14.8 5.2-14.8 8.9-21.8 10.4-21.4 5.7-10.4 6.1-10.1 6.5-9.9 7-9.6 7.3-9.3 7.8-8.9 8.3-8.5 8.7-8.1 7.3-6.1 7.6-5.8 8-5.5 8.3-5.2 8.7-4.8 8.8-4.4 9.2-4 9.6-3.6 10.1-3.2 10.6-2.8 10.5-2.3 10.9-1.8 11.5-1.3 12.1-.8 12.7-.3 14.2.2 13.8.7 13.2 1.1 12.8 1.5 12.3 1.8 11.8 2.3 14.5 3.3 13.9 3.7 13.2 4.3 12.7 4.6 12.1 5.1 12.1 5.7 11.5 6.1 11 6.4 10.4 6.8 10 7.1 9.8 7.7 9.3 7.8 8.8 8.2 8.4 8.4 7.9 8.7 7.8 9.2 7.3 9.3 6.9 9.5 6.5 9.7 8.3 13.2 7.5 13.1 6.8 13.1 6.4 13.4 5.7 13 5.1 12.8 9 25 3.6 11.6 4.9 17.2 3.7 15 5.3 25.5 3.5 23h-137z" fill="#000000" fill-rule="nonzero" node-id="76" stroke="none" target-height="384.10004" target-width="599" target-x="272.9" target-y="825.8"/></clipPath></defs><path d="M0 0h1200v1200H0z" fill="#f7ebd2" fill-rule="nonzero" node-id="80" target-height="1200" target-width="1200" target-x="0" target-y="0"/><g node-id="217"><g node-id="218"><g clip-path="url(#SVGID_2_)" group-id="1,2" id="head_12_" node-id="10"><path d="M149.4 384.4 259 262.3l3-2.3 3.4-1 3.7.3 97.8 26.6-217.5 98.5z" fill="#ffffff" fill-rule="nonzero" group-id="1,2,4" node-id="87" stroke="none" target-height="125.399994" target-width="217.5" target-x="149.4" target-y="259"/><path d="m149.4 389.9-2.5-.7-1.1-.7-1.6-2.5-.1-2.8 1.3-2.5 109.5-122.1 2.2-2 2.4-1.5 2.6-1 2.7-.6h2.9l2.9.5 97.7 26.6 2.5 1.4 1.4 2.5v2.8l-1.5 2.5-2.4 1.4h-2.9l-97.7-26.6-1.3-.2-2.3.7L153.5 388l-1.2 1.1-1.4.6-1.5.2z" fill="#b3976b" fill-rule="nonzero" group-id="1,2,4" node-id="89" stroke="none" target-height="136.4" target-width="228.1" target-x="144.1" target-y="253.5"/><path d="m1014.2 385.5 5.7 2.3 4.5 1.3 5 1.2 5.9.9 8.5.4 9.3-1 4.7-1.1 4.8-1.7 4.6-2.1 4.6-2.9 4.6-3.6 3.2-3 6.1-7.6 3-4.8 6.1-12 2.7-6.5 3.7-9.9 3.1-10.2 2.8-10.2 4.2-19.6 3.8-24.2.3-1 1.3-1.3 1.3-.4 2.1.6 1.1 1.6 2.4 8.5 5.6 22.6 5.3 27.1 2.2 14.7 2 20 .5 10.1.2 10.2-.3 9.9-.7 9.6-2.1 14.2-3.3 13.1-2.3 6.3-2.6 5.9-3 5.5-3.4 5.1-3.1 3.9-3.3 3.5-3.7 3.3-4 3-4.4 2.8-4.4 2.2-4.9 2-5.3 1.6-5.8 1.3-6.3.9-6.1.4h-6.6l-7.2-.4-7.9-.9-8.6-1.5-14.7-3.1-12.4-3.2-10.2-3-7.7-2.7-6.6-2.6-10.1-4.9-4.6-2.9-3.7-2.8-2.9-2.6-2.2-2.5-2-2.9-1.3-2.7-.9-2.7-.3-2.6.4-5.4.8-2.6 3.2-6.1 2.5-3.4 3-3.3 5-4.7 5.5-4.4 5.8-4.1 11.6-7 15.9-7.9z" fill="#b3976b" fill-rule="nonzero" group-id="1,2" node-id="92" stroke="none" target-height="209.9" target-width="178.90002" target-x="960.5" target-y="268.5"/><path d="m431.9 264.1.7-.6.4-1.6-.8-1.3-.9-.3-17.4-2.6-9.3-1.8-18.9-4.6-10-3-9.7-3.5-10-3.9-10.2-4.6-9.9-5.1-10-5.7-10-6.5-9.1-6.4-8.3-6.5-7.6-6.6-7-6.6-6.9-7.1-12-13.8-5.2-6.9-6.6-9.5-5.7-9.2-5-8.9-4.5-9.1-7.1-16.5-4.1-11.9-3-10-3.7-16.4-.5-1.4-1-.8-1.2-.4-1.3.2-1.1.6-.8 1.2-6 15.9-3.4 10-3.6 11.7-3.3 12.4-3 13.7-3.2 18.9-1.1 10.1-.8 10-.2 10.2.2 10.3.7 10.4 1.4 10.2 2 10.2 2 7.6 2.4 7.4 2.9 7.4 3.4 7.2 3.7 7 4.4 6.9 4.9 6.6 5.5 6.6 4.7 4.9 5.1 4.7 5.5 4.6 6.1 4.5 6.5 4.4 6.6 3.9 7.1 3.7 7.8 3.6 8.3 3.4 9.1 3.2 1.8.4 3.6-.2 136.6-60.7z" fill="#b3976b" fill-rule="nonzero" group-id="1,2" node-id="94" stroke="none" target-height="254" target-width="243.4" target-x="189.6" target-y="71"/><path d="m1037.3 346.9-146.7-86.3-4.8-2.7-5-2.3-5.2-1.7-5.4-1.3-484.7-93.3h-.9l-1.3 1.1v1.7l.7.7 87.2 71.1 566.1 113z" fill="#ffffff" fill-rule="nonzero" group-id="1,2,5" node-id="98" stroke="none" target-height="187.59999" target-width="654.00006" target-x="383.3" target-y="159.3"/><path d="m1037.3 352.4-2.7-.8-146.9-86.4-4.4-2.4-4.5-2.1-4.7-1.6-4.9-1.1-471-90.7 76.5 62.4 1 1.1 1 2.6-.5 2.7-.7 1.3-2.4 1.7-2.8.3-1.3-.4-1.3-.8-88.4-72.3-.9-1.3-.7-3.2.6-3.2 2-2.7 2.9-1.5 1.7-.3 1.7.2 484.7 93.3 5.8 1.4 5.7 1.9 5.4 2.4 5.3 3 146.6 86.2 2.1 2.1.7 2.7-.2 1.4-.6 1.4-.9 1.1-1.2.9-2.7.7z" fill="#b3976b" fill-rule="nonzero" group-id="1,2,5" node-id="100" stroke="none" target-height="198.7" target-width="665.2" target-x="377.7" target-y="153.7"/><g clip-path="url(#SVGID_4_)" group-id="1,2,6,10" node-id="105"><path d="m758.4 919.8 271.2-67.6 3.2-1.1 2.9-1.4 2.6-1.9 2.3-2.2 1.9-2.5 1.6-2.8 1.2-2.9.7-3.2.3-3.3 1.8-461.1-.3-2.6-.8-2.3-1.4-2.1-1.8-1.8-2.1-1.2-2.5-.8-544.6-105.9-4.1-.6-4-.1-4.1.2-4 .7-4 1.1-3.8 1.5-323.2 141.7-2.1 1.1-1.7 1.5-1.5 1.8-1 2-.7 2.2-.2 2.4.9 438.3.4 4 .9 3.7 1.5 3.4 2 3.2 2.4 2.8 2.9 2.4 3.3 2 3.5 1.4 3.9.8 208.7 28.5 387.8 20.7z" fill="#ffffff" fill-rule="nonzero" group-id="1,2,6,10" node-id="107" stroke="none" target-height="667.4" target-width="907.89996" target-x="140.2" target-y="252.4"/><path d="M758.4 931.8 369 911l-208.7-28.5-4.4-.9-4.1-1.3-3.9-1.8-3.6-2.3-3.3-2.7-2.9-3-2.6-3.3-2.2-3.6-1.8-3.9-1.3-4.1-.8-4.2-.3-4.5-.9-438.3.2-3.2.6-3 2.3-5.7 3.6-4.8 2.3-2.1 2.5-1.8 2.8-1.4 323.2-141.7 5-1.9 5.1-1.4 5.2-.9 5.3-.3 5.3.2 5.3.7 544.6 105.9 3.5 1 3.2 1.4 3 2 2.6 2.3 2.1 2.7 1.8 3 1.3 3.2.8 3.4.3 3.7-1.8 461.1-.2 3.9-.7 3.7-1 3.5-1.4 3.5-1.8 3.2-2.1 3-5.2 5.3-3 2.2-3.2 1.8-3.4 1.5-3.8 1.2-271.2 67.6-2.9.4zm-386.7-44.7 385.6 20.6 269.4-67.2 2.2-.8 1.8-1.2 1.5-1.5 1.1-1.9.7-2 .3-2.3 1.8-460.2-546.6-106.1-2.9-.1-5.6.6-5.6 1.9-323.2 141.6.9 438.4.2 1.9 1.2 3.6 1 1.6 2.7 2.6 3.4 1.7 1.9.4 208.2 28.4z" fill="#b3976b" fill-rule="nonzero" group-id="1,2,6,10" node-id="109" stroke="none" target-height="691.4" target-width="931.89996" target-x="128.2" target-y="240.4"/></g><g clip-path="url(#SVGID_4_)" group-id="1,2,6,11" node-id="112"><path d="m139.9 475.8 5.8 1.6 9.1 3.7 5.6 2.9 7.6 4.9 8.1 6.5 3.8 3.9 3.9 4.4 3.5 4.8 3.3 5.3 3.1 6 2 4.7 3.4 10.5 1.4 5.9.9 6.1.7 11-.3 5.1-.8 6.8-1.2 6.4-1.8 6-4.5 11.4-7.1 12.9-17.6 26.3-3.2 5.8-1.8 3.9-1.2 3.8-.7 3.7-.5 5.2v11L163 683l3.4 23.8.8 11.6-.7 7.6-.9 4.6-3.1 10.5-2.2 5.4-2.7 5.1-3.1 4.7-2.5 2.9-2.7 2.6-2.9 2.2-3.2 1.8-3.6 1.3-3.9.8-3 .2-6.8-.6-3.9-1-1.7-.8-1.5-1.4-1.5-2.2-1.4-3.2-1.3-4.3-1.1-5.6-.8-7.1-.7-11-.1-13.5.3-14.2 2-32.4 3.3-35 6.4-53.3 8.9-62.5 7.1-44.2z" fill="#7a570c" fill-opacity="0.3" fill-rule="nonzero" group-id="1,2,6,11" node-id="114" stroke="none" target-height="292.3" target-width="90.200005" target-x="111.9" target-y="475.8"/></g><g clip-path="url(#SVGID_4_)" group-id="1,2,6,12" node-id="117"><path d="m354.7 291.3-.8 5.4-.2 8.8.4 5.5 1.4 7.6 2.7 8.2 2 4 2.5 4.1 2.8 3.8 3.5 3.8 4.2 3.6 7 4.8 4.3 2.2 25.6 10.6 8.1 3.8 11.1 6.3 8 5.9 3.4 3.4 2.8 3.4 2.2 3.4 1.6 3.6 1.1 3.7.7 4 .1 4.4-.4 4.7-1 6.5-4.7 23.4-1.5 8.5-1.6 15.4v12.8l.6 6.6 1 6.6 1.5 6.8 2 6.7 2.6 6.8 3.4 7 3.7 6.5 4.1 6 4.4 5.7 4.7 5.3 5 5 5.3 4.6 5.7 4.3 5.8 4 6.2 3.7 6.4 3.4 8.2 3.7 8.6 3.3 8.8 2.8 9.2 2.4 9.2 1.9 9.4 1.4 9.6 1 9.7.5 9.8.2 9.7-.3 9.8-.7 9.7-1.1 9.8-1.6 9.5-1.8 18.6-4.9 9.2-3.1 8.8-3.3 8.4-3.7 8.2-4 10.1-5.6 9.4-5.7 8.7-5.8 8-5.9 7.4-6.1 7.3-6.6 6.7-6.6 6.2-6.7 5.7-6.8 5.1-6.9 6.1-9 5.4-9.1 4.7-9.1 4.2-9.2 3.6-9.5 3.2-9.4 2.6-9.4 2.1-9.4 1.7-9.6 2.3-18.7.6-9.1.3-12.3-.1-11.8-1.7-22.8-2.6-20.6-2.5-14.5-7-32.5-2.4-13.3-1-1.5-2.1-1.7-3.3-2-4.6-2-6.1-2.3-8-2.4-12.5-3.1-15.5-3.3-35.2-6-19.2-2.8-41.4-5-42.7-3.9-20.8-1.5-39.8-2.1-18.7-.4h-16.4l-15.5.5-12.5.9-8 1-6.1 1.2-4.4 1.3-6.8 2.6-6.8 3-6.7 3.5-12.9 7.7-15.3 10.9-16.2 13.5-13.3 12.5-15.2 16.1z" fill="#7a570c" fill-opacity="0.3" fill-rule="nonzero" group-id="1,2,6,12" node-id="119" stroke="none" target-height="366.49997" target-width="444.3" target-x="353.7" target-y="216.6"/></g><g clip-path="url(#SVGID_4_)" group-id="1,2,6,13" node-id="122"><path d="M381.3 901.5 157.7 870l-2.7-1-.9-.9-1-1.6-.5-1.8.1-1.9.7-1.8 1.7-1.9 1.4-.6 309.8-112.7 5.1-1.6 5.1-1.1 5.2-.7 5.3-.2 5.2.2 5.3.8 530.2 97.5 2.6 1.1.9.9 1 1.7.4 1.9-.2 1.8-.8 1.8-1.9 1.8-1.4.6-29.1 8.6-264.6 64.9-353.3-24.3z" fill="#7a570c" fill-opacity="0.3" fill-rule="nonzero" group-id="1,2,6,13" node-id="124" stroke="none" target-height="183.59998" target-width="880" target-x="152.6" target-y="742.2"/></g><g clip-path="url(#SVGID_4_)" group-id="1,2,6,14" node-id="127"><path d="m483.4 698.9-1.2-.2-2-1.2-1.1-1.9-.2-1.2V285.3l.6-2.3 1.6-1.6 1.1-.5 1.2-.1 2.3.6 1.6 1.6.6 2.3v409.1l-.2 1.2-1.1 1.9-2 1.2-1.2.2z" fill="#664f1e" fill-opacity="0.3" fill-rule="nonzero" group-id="1,2,6,14" node-id="129" stroke="none" target-height="418.10004" target-width="9" target-x="478.9" target-y="280.8"/></g><g clip-path="url(#SVGID_4_)" group-id="1,2,6,15" node-id="132"><path d="M279.5 382.6v39.1l.2 1 .7.7.8.3 1.1-.1 29.3-11.6 1.1-1.1.1-.8v-40l-.2-1-.7-.7-.9-.3-1 .1-29.3 12.5-.7.5-.5 1.4z" fill="#ffd219" fill-rule="evenodd" group-id="1,2,6,15" node-id="134" stroke="none" target-height="55.600006" target-width="33.299988" target-x="279.5" target-y="368.1"/><path d="m230.2 444.2 29.4-11.6.9-.8.4-1.1v-38.5l-.3-1-.7-.7-.8-.3-1.1.2-29.3 12.5-1.1 1-.1 38.4.2 1 .7.6.8.4 1-.1z" fill="#ffd219" fill-rule="evenodd" group-id="1,2,6,15" node-id="136" stroke="none" target-height="54.099976" target-width="33.399994" target-x="227.5" target-y="390.2"/><path d="m179.2 464.3 29.4-11.6.9-.7.3-1.2v-36.9l-.2-1-.7-.7-.8-.3-1.1.2-29.3 12.5-1.1 1-.1 36.8.2 1 .6.7.9.3 1-.1z" fill="#ffd219" fill-rule="evenodd" group-id="1,2,6,15" node-id="138" stroke="none" target-height="52.5" target-width="33.300003" target-x="176.5" target-y="411.9"/></g><g clip-path="url(#SVGID_4_)" group-id="1,2,6,16" node-id="141"><path d="m744.8 635 4.5 4.1 3.2 3.6 3.3 4.2 6 9.5 4.4 9.7 1.8 5.2 1.5 5.9 1.2 6.6-6.3-1.3-4.6-1.2-5-1.8-5.8-2.4-7.7-4.3-7.7-5.8-3.5-3.6-3.3-4-.7-1.6-.3-2.7V652l.9-7.7 1.9-7.8 1.2-3.3 1.3-3 1.2-1.9 1-.9.8-.2.8.2 2.6 1.7 7.3 5.9z" fill="#25b83b" fill-rule="nonzero" group-id="1,2,6,16" node-id="143" stroke="none" target-height="56.599976" target-width="44.900024" target-x="725.8" target-y="627.2"/></g><g clip-path="url(#SVGID_4_)" group-id="1,2,6,17" node-id="146"><path d="m712 679.2-3.4-.8-1.5-.9-1.5-1.5-1-1.8-.5-2v-2l.5-2 5-7.5 3.2-5.8 2.6-5.7 2.1-6 1.5-5.9 1.1-5.9 1-11.6-.5-13.8-.9-7.3-1.3-6.9-2.8-10.8-2.8-8.7v-2l.5-2 1-1.8 1.5-1.5 1.8-1.1 2.1-.5h2.1l2 .5 1.7 1 1.5 1.5 1.1 1.8 3.2 9.3 3.5 14.2 1.4 9 1 12.9v7.1l23.9 5.9 23.3 4.4 22.5 2.8 21.6 1.6 1.8.8 1.7 1.3 1.2 1.8.7 1.8.2 2.2-.3 2-.9 1.9-1.2 1.5-1.6 1.2-1.9.8-2.4.3-14.3-.8-13.4-1.2-13.1-1.7-11.9-2-21.2-4.3-16.3-4.2-1.7 7.4-2.1 6.9-2.6 6.7-3.1 6.4-3.6 6-4.1 5.9-1.3 1.3-1.5 1-1.7.6-1.9.2z" fill="#b3976b" fill-rule="nonzero" group-id="1,2,6,17" node-id="148" stroke="none" target-height="115.79999" target-width="130" target-x="704.1" target-y="563.4"/></g><g clip-path="url(#SVGID_4_)" group-id="1,2,6,18" node-id="151"><path d="m920.4 588-4-.3-3.7-.7-3.6-1.3-3.3-1.7-3.1-2-2.8-2.5-2.4-2.8-2.1-3-1.7-3.4-1.2-3.6-.8-3.7-.3-4v-22l.3-4 .8-3.7 1.2-3.6 1.7-3.4 2.1-3 2.4-2.8 2.8-2.5 3.1-2 3.3-1.7 3.6-1.3 3.7-.7 4-.3 4 .3 3.8.7 3.5 1.3 3.4 1.7 3 2 2.8 2.5 2.5 2.8 2.1 3 1.7 3.4 1.2 3.6.8 3.7.2 4v22l-.2 4-.8 3.7-1.2 3.6-1.7 3.4-2.1 3-2.5 2.8-2.7 2.5-3.1 2-3.4 1.7-3.5 1.3-3.8.7-4 .3z" fill="#2e2725" fill-rule="nonzero" group-id="1,2,6,18" node-id="153" stroke="none" target-height="80" target-width="58" target-x="891.4" target-y="508"/></g><g clip-path="url(#SVGID_4_)" group-id="1,2,6,19" node-id="156"><path d="m644.4 535-4.1-.3-3.9-.8-3.6-1.3-3.5-1.8-3.2-2.1-2.9-2.5-2.5-2.9-2.2-3.2-1.7-3.5-1.3-3.6-.8-3.9-.3-4.1v-23.1l.3-4.1.8-3.9 1.3-3.7 1.7-3.5 2.2-3.1 2.5-2.9 2.9-2.6 3.2-2.1 3.5-1.7 3.6-1.3 3.9-.8 4.1-.3 4.2.3 3.8.8 3.7 1.3 3.5 1.7 3.2 2.1 2.8 2.6 2.6 2.9 2.1 3.1 1.8 3.5 1.3 3.7.7 3.9.3 4.1V505l-.3 4.1-.7 3.9-1.3 3.6-1.8 3.5-2.1 3.2-2.6 2.9-2.8 2.5-3.2 2.1-3.5 1.8-3.7 1.3-3.8.8-4.2.3z" fill="#2e2725" fill-rule="nonzero" group-id="1,2,6,19" node-id="158" stroke="none" target-height="83.100006" target-width="60" target-x="614.4" target-y="451.9"/></g><path d="m577.3 190.3 109.9 91.5 1.5 1.6 1.1 1.8.7 2 .2 2.2 2 147.9.3 1.5.8 1.1 1 .9 1.4.4h1.3l1.5-.6 39.3-26 1.3-.6h1.4l1.3.4 1.2.9 37.2 41.7 1.2.9 1.4.4 1.4-.1 1.4-.7 35.5-26.8 1.2-.7 1.3-.1 1.3.2 1.2.8 48.5 42.6 1.5.9 1.5.1 1.4-.4 1.2-.8.8-1.3.3-1.6-5.4-146.1-.4-2.1-.7-2-1.2-1.8-1.6-1.5-125.1-92.5-2.5-1.6-2.7-1.2-3-.8-161.9-30.5z" fill="#fc9799" fill-rule="nonzero" group-id="1,2" node-id="162" stroke="none" target-height="284.2" target-width="304.5" target-x="577.3" target-y="190.3"/><path d="m881.7 493.5.9 3.9 1.4 3.8 2 3.5 2.5 3.3 3 3 3.5 2.8 3.8 2.4 4.2 2 4.6 1.7 4.8 1.2 5 .7 5.4.3 6-.4 5.6-.9 5.2-1.5 5-2 4.5-2.5 4-2.9 2.7-2.5 2.4-2.7 3.5-5.7-80-7.5z" fill="#ffffff" fill-rule="nonzero" group-id="1,2" node-id="164" stroke="none" target-height="28.599976" target-width="80" target-x="881.7" target-y="493.5"/><path d="m922.8 528-6-.3-5.6-.9-5.3-1.3-5.2-1.9-4.7-2.4-4.3-2.7-3.9-3.2-3.4-3.5-2.8-3.8-1.7-3.1-2.5-6.6-.6-3.5v-1.7l.4-1.6.9-1.4 1.1-1.2 1.5-.8 1.7-.5 1.7.1 1.6.4 1.4.8 1.2 1.2.8 1.4 1.1 4.7 1.1 2.9 1.7 2.7 2 2.5 2.5 2.3 2.8 2.2 6.5 3.4 7.6 2.2 4.1.5 4.3.2 4.8-.2 4.5-.7 4.3-1.2 4.1-1.6 3.6-1.9 3.3-2.3 2.9-2.6 2.4-2.9 2.7-4.7 1.2-1.1 1.5-.7 1.6-.4 1.6.1 1.7.5 1.5.9 1.1 1.2.7 1.5.4 1.6-.1 1.6-.5 1.7-1.8 3.5-2.3 3.2-2.7 3.1-3.1 2.8-6.9 4.8-8.2 3.7-8.8 2.2-9.5.8z" fill="#2e2725" fill-rule="nonzero" group-id="1,2" node-id="166" stroke="none" target-height="40.399994" target-width="89.900024" target-x="876.8" target-y="487.6"/><path d="m689 451.1-2.9-.7-2.4-1.8-.8-1.3-1.7-4.8-1.5-3.1-2.1-3.1-2.5-2.7-2.8-2.6-3.3-2.3-7.3-3.8-8.3-2.6-4.5-.7-4.6-.4-5.2.1-4.9.7-4.7 1.2-4.5 1.7-4.1 2.2-3.7 2.6-3.3 3-2.8 3.4-3.3 5.3-1.3 1.2-1.6.8-1.7.3-1.8-.1-1.7-.6-1.6-1.1-1.1-1.3-.8-1.6-.3-1.7.1-1.8.6-1.7 2.3-4.1 2.7-3.7 3-3.4 3.5-3.2 3.8-2.8 4-2.4 4.3-2.1 4.6-1.8 4.7-1.3 4.9-.9 5.1-.5 5.2-.1 6.3.5 5.9 1.1 5.7 1.5 5.5 2 5 2.5 4.7 2.8 4.3 3.4 3.8 3.6 3.3 4 2.1 3.2 3.2 6.8 1.1 3.7.2 1.8-.2 1.7-.7 1.7-1.1 1.3-1.4 1.1-1.8.7-1.6.2z" fill="#2e2725" fill-rule="nonzero" group-id="1,2" node-id="168" stroke="none" target-height="43.600006" target-width="99.89996" target-x="595.9" target-y="407.5"/><path d="m181.6 679.7 22.2-8.9 2.3-.2 1.9 1 1.2 1.9 12.3 45 .7-.2 13.9-59.3 1.2-1.4.8-.5 20.7-8.2 1.3-.3 2.4.7.9.9.7 1.1.2 1.3v88.6l-.7 2.2-1.8 1.5-9.6 3.8-1.3.3-2.4-.7-.9-.9-.6-1.1-.3-1.3v-70.6l-.7.3-15.2 62.4-.8 1.6-1.6 1.1-12.9 5-2.1-.4-1.6-1.4-14.7-48.8-.7.3-.2 74.9-1.3 1.9-1 .7-9.3 3.7-1.4.3-2.3-.7-1.6-2-.2-1.3v-88.6l.7-2.3 1.8-1.4z" fill="#fc9799" fill-rule="nonzero" group-id="1,2,7" node-id="172" stroke="none" target-height="127.400024" target-width="85.19998" target-x="179.1" target-y="648.6"/><path d="m290 647.5-4.6 1.5-1.8.1-1.2-.4-.8-.9-.6-1.7-.4-5.6.4-5.8.5-2.1.9-1.7 1.3-1.4 1.7-1.1 4.6-2.2 4.8-1.6 1.7-.1 1.1.4.9.9.6 1.7.4 5.4-.4 5.9-.6 2.2-.9 1.6-1.2 1.4-1.6 1.3-4.8 2.2zm-4.7 12.4 9-3.4 1.2.2 2.1 1.4.6 1.1.3 1.4v66.9l-.7 2.3-1.9 1.4-8.9 3.6-1.3.3-1.3-.2-2.1-1.4-.6-1.1-.2-1.4v-65.5l.3-1.8.7-1.6 1.2-1.3 1.6-.9z" fill="#fc9799" fill-rule="nonzero" group-id="1,2,7" node-id="174" stroke="none" target-height="110.599976" target-width="18.899994" target-x="280.6" target-y="624.5"/><path d="m333.6 717.1-6.5 2-4.6.2-1.9-.4-1.5-.8-1.3-1.2-1-1.6-.7-2.1-.7-3.6-.2-4.8v-83.6l.3-1.8.7-1.6 1.2-1.2 1.6-1 9-3.3 1.3.1 2 1.4.6 1.1.3 1.4.1 80.2.5 1.9.5 1 .9.5 1.3.1 4.1-1.4 1 .6.2.7v11.2l-.5 2-1.5 1.5-5.2 2.5z" fill="#fc9799" fill-rule="nonzero" group-id="1,2,7" node-id="176" stroke="none" target-height="107" target-width="25.599976" target-x="315.2" target-y="612.3"/><path d="m404.9 687.8-13.9 5.3-1.3.1-2.6-.8-1.9-1.8-13.5-20-1.1-.8h-1.4l-1 .8-.4 1.2v28l-.6 2.3-1.9 1.5-8.9 3.5-1.4.3-1.2-.1-2.1-1.4-.6-1.1-.2-1.4V607l.2-1.8.8-1.6 1.2-1.3 1.6-.9 9-3.4 1.2.2 1.2.5.9.9.6 1.1.2 1.4v49.6l.3 1 .7.8.9.3 1-.1 1.1-1.1 14.8-30.9 1.8-2.4 2.5-1.5 11.8-4.8 1.6.1 1 1.1-.1 1.6-19.5 38.4-.2 1.1.4 1 20.3 26.9.6 1.3-.1 1.3-.6 1.1-1.2.9z" fill="#fc9799" fill-rule="nonzero" group-id="1,2,7" node-id="178" stroke="none" target-height="109.400024" target-width="55.899994" target-x="350.9" target-y="598"/></g></g><g clip-path="url(#SVGID_2_)" group-id="1,3" id="body_11_" node-id="48"><path d="m738.9 1159.9 5 50h84l-6-52z" fill="#ffffff" fill-rule="nonzero" group-id="1,3,8" node-id="185" stroke="none" target-height="52" target-width="89" target-x="738.9" target-y="1157.9"/><path d="M827.9 1214.9h-84l-2.4-.6-1.8-1.6-.8-2.3-5-50 .4-2.7.8-1.1 1.1-1 2.5-.7 83-2 1.4.1 2.6 1.1 1.8 2 .3 1.2 6 52-.7 2.1-1.5 1.8-2.3 1.5-1.4.2zm-79.5-10h73.9l-4.9-41.9-73 1.7 4 40.2z" fill="#b3976b" fill-rule="nonzero" group-id="1,3,8" node-id="187" stroke="none" target-height="62" target-width="99.89996" target-x="733.9" target-y="1152.9"/><g clip-path="url(#SVGID_6_)" group-id="1,3,9,20" node-id="192"><path d="m863.1 1161.2 2.3-.5 1.9-.9 1.6-1.5 1.2-1.8.6-2.1v-2.4l-1.1-7.4-4.3-22.4-3.3-14.3-3.8-15-5-16.9-7.9-23.4-9.8-24.9-5.7-12.7-6.3-13-6.7-12.7-7.4-12.7-8-12.8-13.1-18.5-7.2-9.1-7.5-8.9-7.9-8.7-8.4-8.4-8.8-8.2-9.3-7.8-9.8-7.7-10-7.1-10.4-6.8-11-6.4-11.5-6.1-12.1-5.7-12.1-5.1-12.7-4.6-13.2-4.3-13.9-3.7-14.5-3.3-11.8-2.3-12.3-1.8-12.8-1.5-13.2-1.1-13.8-.6-14.2-.3-11.3.2-10.7.7-10.4 1-9.8 1.4-9.5 1.8-9.6 2.3-9.2 2.5-8.8 2.9-8.5 3.2-8.2 3.5-10 5-9.6 5.3-9.1 5.8-8.7 6.2-8.3 6.6-8 7-7.6 7.3-7.2 7.6-6.9 8-6.5 8.2-6.2 8.5-5.8 8.8-7.4 12-6.7 12.3-6.3 12.5-5.7 12.9-5.3 12.9-6.4 18-4.3 14.2-6 22.3-3.3 13.5-3.5 16-4 20.8-2.5 15.3-1.7 13.6-3.3 43.3-.8 21.6.1 19.1h468.5l71.9-47 49.8-1.7z" fill="#ffffff" fill-rule="nonzero" group-id="1,3,9,20" node-id="194" stroke="none" target-height="384.10004" target-width="597.9" target-x="272.8" target-y="825.8"/><path d="M741.4 1219.9H263.2l-.4-15.3.3-23.9 1.3-25.1 1.9-24.5 2.7-22.2 2.5-15 3.8-19.8 3.5-16 3.3-13.5 6-22.5 6.3-20.2 5.1-13.7 5.3-13 5.5-12.4 5.8-11.8 6-11.2 6.3-10.7 6.9-10.7 7.2-10 7.4-9.5 7.6-8.9 7.8-8.4 8.2-7.8 8-7.1 8.2-6.5 8.5-6.1 8.7-5.7 8.9-5.1 9.2-4.8 9.4-4.3 9.7-3.8 9.7-3.4 10-2.9 10.3-2.5 10.5-2.1 10.8-1.6 11.2-1.2 11.4-.7 11.9-.2 16.5.3 15.7.9 14.9 1.4 14.2 1.8 14.3 2.5 13.6 2.8 12.8 3.3 12.2 3.5 12.2 4.2 11.5 4.3 10.9 4.6 10.3 4.9 10.3 5.3 18.7 10.9 8.5 5.7 11.1 8 10.2 8.1 9.2 8 8.9 8.4 8 8.1 7.2 7.9 8.8 10.4 8.2 10.6 7.6 10.7 7.3 11.1 6.8 11 6.2 11 5.9 11.1 10.3 21.6 6.8 16.1 5.8 15.1 5.1 14.7 4.2 13.2 4.9 17.3 3.8 15.2 3.2 14.3 4 21.9 1.8 13.9-19.9 1.9 10-.9-10 .9-1.7-12.7-3.9-21.2-3.1-13.9-3.7-14.7-4.7-16.6-8.9-26.7-5.5-14.3-6.4-15.3-4.7-10.2-10.7-20.9-5.9-10.5-6.4-10.4-6.9-10.5-7.3-10.2-7.7-10-8.3-9.8-8.3-9.1-8.6-8.5-8.9-8.1-9.2-7.7-9.5-7.3-9.8-6.8-10.2-6.5-10.4-6-10.7-5.5-11-5.1-11.3-4.7-11.7-4.3-12-3.9-12.3-3.4-12.2-3-12.5-2.4-12.9-2.1-13.1-1.6-13.5-1.2-13.9-.7-14.2-.2-12.4.3-11.9.8-11.6 1.4-11.1 1.9-10.9 2.4-10.4 3-10.2 3.4-10.1 4.1-9.8 4.5-9.5 5.1-9.1 5.6-8.9 6.2-8.6 6.7-8.4 7.3-7.5 7.2-7.3 7.8-7.1 8.3-6.8 8.9-6.7 9.4-6.5 10-5.8 10-5.7 10.5-5.4 11.1-5.2 11.6-5 12.3-6.4 18-4.3 14-5.9 21.9-6.5 28.7-3.9 20-2.4 14.9-1.7 13.2-3.1 39.7-.9 19.5-.2 14.4h458.7v20z" fill="#b3976b" fill-rule="nonzero" group-id="1,3,9,20" node-id="196" stroke="none" target-height="404.10004" target-width="619" target-x="262.8" target-y="815.8"/></g><g clip-path="url(#SVGID_6_)" group-id="1,3,9,21" node-id="199"><path d="m347 917.3 5.8 5 5 5.9 2.4 3.7 2.1 4.3 2 6.3.7 7-.4 3.8-.7 4.1-6 22.3-1.5 7.6-.6 5.1-.2 5.1.3 5.2.7 5 1.4 5.2 2.1 5.2 2 3.7 2.4 3.7 3.1 3.9 3.6 4 5.9 4.7 6.8 3.4 4.8 1.6 5.2 1.3 5.4 1 8.3.9 26.2 1.5 8.6.9 8.1 1.4 5.2 1.4 4.9 1.8 4.6 2.3 3.2 2 3 2.4 2.8 2.9 2.6 3.2 4.3 6.7 3.6 6.5 2.7 6.3 1.8 4.9 2.3 10 .6 5.2.3 6.9-.3 7.3-.9 7.8-1.4 7.8-2 8.4-2.6 9.2-4.6 14-7.7 21.3-1.3 5.2-.8 5.2-.4 5.3.1 7 .7 6.9 1.3 7 1.8 6.8 2.2 6.7 2.6 6.5 6 12.6 8.5 14.2 5 7.4 9.6 12.3 9.7 10.9-272.2-33.7-6.8-18.6-2.9-9.2-6.7-24.2-5.2-24.2-3.4-21.4-1.2-11.1-1.5-23.1-.1-11.8.4-11.9 1-12 1.1-9 3.3-17.8 2.3-8.9 2.6-8.7 3.1-8.6 3.6-8.5 4.1-8.4 7.6-14.1 7.4-12.5 7.2-11 7.6-10.8 7.2-9.4 6.9-8.2 7.2-8 6.7-6.8 12.7-11.3 11-8.3 7.7-5 11.6-6 6.8-2.6z" fill="#7a570c" fill-opacity="0.3" fill-rule="nonzero" group-id="1,3,9,21" node-id="201" stroke="none" target-height="385.10004" target-width="300.00003" target-x="217.9" target-y="917.3"/></g><g clip-path="url(#SVGID_6_)" group-id="1,3,9,22" node-id="204"><path d="m473.8 941.8 1.4-6.8 1.6-6 2-5.2 2.2-4.6 2.6-4.5 2.9-3.8 3-3.3 3.2-2.8 3.5-2.5 3.7-2 3.8-1.5 3.9-1.1 8-1.1 8.4.5 5.5 1.1 5.5 1.7 5.5 2.3 5.2 2.9 5 3.4 4.8 3.9 4.4 4.4 4 4.7 5.7 8.2 2.5 2.6 3 2.3 6.8 3.5 4 1.5 18.9 5.4 10.4 3.3 7.3 3.4 4.3 2.9 3.8 3.2 3.4 3.4 2.9 3.8 2.6 4 2.2 4.3 1.9 4.4 1.4 4.7 1.4 6.4.7 6.5.1 6.8-.5 6.8-1 6.6-1.7 6.7-2.2 6.4-2.6 6.2-3.2 5.9-5.7 8.1-6.6 6.9-3.8 3.1-3.9 2.6-4.1 2.2-4.4 1.8-4.5 1.4-4.7.9-4.9.3-5.2-.1-5.1-.7-5.4-1.4-5.6-2-6.1-2.7-5.5-3.2-5.9-3.9-6.3-4.9-6.6-5.9-7.1-5-28.9-17.6-5.3-4.2-4.8-4.6-4.3-4.8-3.8-5.3-3.3-5.4-2.8-5.6-2.4-5.8-2-5.8-1.5-5.8-2-11.4-.5-10.8.8-9.3z" fill="#7a570c" fill-opacity="0.3" fill-rule="nonzero" group-id="1,3,9,22" node-id="206" stroke="none" target-height="171.40002" target-width="174.20001" target-x="473" target-y="896.6"/></g><g clip-path="url(#SVGID_6_)" group-id="1,3,9,23" node-id="209"><path d="m806 965.7-10.2 3.1-10.3 4.5-5.6 3.1-6 4-3.8 3-7.4 7.3-3.4 4.1-3.1 4.5-2.8 5.1-2.4 5.4-1.9 5.9-1.5 6.5-.6 5-.3 11.1.4 6.2.9 6.2 2.6 10.6 3.8 9 4.7 7.6 2.6 3.2 3.9 4 4 3.4 4.3 2.8 8.9 4.6 4.6 1.7 6.9 2.1 6.6 1.3 6.4 1 14.8 1.4 3.3.4 1.5.6 1.6 1.4 1.3 1.9 3.7 7.2 1.7 2.7 2 2.5 2.8 2.4 2.1 1.4 5.8 2.4 3.1.6h2.8l2.4-.5 2.3-1 3.9-3 2.4-2.8 3.3-5.8 1.7-4.4-21.4-84.7-42.4-59z" fill="#7a570c" fill-opacity="0.3" fill-rule="nonzero" group-id="1,3,9,23" node-id="211" stroke="none" target-height="161.20001" target-width="123.099976" target-x="746.7" target-y="965.7"/></g><path d="m873.1 1156.8-.3-1.3-1.5-2.1-2.3-1h-1.4l-36.7 3.2-35.3 2.2-31.9.9h-15l-13.7-.4-10.4-.7-9.2-1-6.6-1.1-9.3-2.5-4.4-2.3-1.1-1-2-3.2-2.7-7.6-4-17.6-4.1-24.1-4-28.6-3.8-31.5-3.6-32.4-6-62.1-.6-1.1-1.9-1.7-2.6-.5-1.3.3-2.1 1.5-1.1 2.3-.1 1.3 6.5 68 5.9 51-5-6.4-8.8-13.2-3.9-6.8-6.6-13.1-4.2-9.8-6.3-17.2-2.1-7-4-16.1-.7-1-2.1-1.5-2.6-.2-2.3 1.1-1.5 2.1-.3 1.2.1 1.4 2.5 11 4.7 16.1 6.3 16.7 6.9 14.8 8.3 14.9 5 7.6 5.3 7.4 5.9 7.2 6.5 6.9 1.1.9 2.3 15.7 3.9 23.7 1.7 8.6 3.2 13.1 1.5 4.8 2.5 5.8 2.4 3.6 4 3.6 5.6 2.7 3.3 1.1 9.4 2.2 8.4 1.3 11.4 1 12.4.7 28.2.1 39.6-1.6 23.2-1.5 37-3.3 1.3-.3 2-1.5 1-2.3.1-1.4z" fill="#b3976b" fill-rule="nonzero" group-id="1,3" node-id="215" stroke="none" target-height="229.39996" target-width="257" target-x="616.1" target-y="939.3"/></g></g></svg>