<!--version="1.0" standalone="no"--><!DOCTYPE html PUBLIC "-//W3C//DTD SVG 1.1//EN" "http://www.w3.org/Graphics/SVG/1.1/DTD/svg11.dtd"><svg height="1200" node-id="1" sillyvg="true" template-height="1200" template-width="1200" version="1.1" viewBox="0 0 1200 1200" width="1200" xmlns="http://www.w3.org/2000/svg" preserveAspectRatio="xMidYMid meet" zoomAndPan="magnify" contentScriptType="application/ecmascript" contentStyleType="text/css"><defs node-id="60"><clipPath id="SVGID_2_" node-id="8"><path d="M0 0h1200v1200H0z" fill="#000000" fill-rule="nonzero" node-id="63" stroke="none" target-height="1200" target-width="1200" target-x="0" target-y="0"/></clipPath><clipPath id="SVGID_4_" node-id="26"><path d="m768 915.8 262.5-64.3 2.9-.9 2.7-1.3 2.3-1.7 2.2-2 1.7-2.3 1.5-2.5 1.1-2.7.6-2.9.3-3 1.9-460.6-.2-1.9-1.1-3.4-1.4-2.3-2-1.9-3.2-1.8-1.8-.5-543.8-105.7-4.1-.6-4.1-.1-4 .2-4.1.7-3.9 1.1-3.9 1.5-323.2 141.6-2 1.2-1.8 1.5-1.4 1.8-1.1 2-.6 2.2-.2 2.4 1.9 439.8.2 3.3.8 3.1 1.3 2.9 1.6 2.6 2.1 2.3 2.4 2.1 2.6 1.6 3 1.1 3.2.8 209.2 28.9 361.7 26 38.2-8.3z" fill="#000000" fill-rule="nonzero" node-id="67" stroke="none" target-height="670.69995" target-width="907.89996" target-x="139.8" target-y="253.4"/></clipPath></defs><path d="M0 0h1200v1200H0z" fill="#cbf5d9" fill-rule="nonzero" node-id="71" target-height="1200" target-width="1200" target-x="0" target-y="0"/><g node-id="212"><g node-id="213"><g clip-path="url(#SVGID_2_)" group-id="1,2" id="head_5_" node-id="10"><path d="m148.3 392.9-1 .1-1.4-.8-.4-1.6.5-.9 112.6-125.4 2.9-2.3 3.5-1 3.7.3 102.6 27.9 1.3 1 .1 1.6-.4.6-224 100.5z" fill="#31a369" fill-rule="nonzero" group-id="1,2" node-id="76" stroke="none" target-height="132" target-width="227.20001" target-x="145.5" target-y="261"/><path d="m953.5 336.8 2.7-4.7 2.9-7.1 2.3-7.4 1.9-7.6 1.3-7.7.7-7.9.1-8.2-.3-6.9-.8-6.8-1.2-6.6-1.5-6.5-2-6.3-3-7.8-3.5-7.4-4.1-7-4.6-6.8-5.1-6.4-5.4-5.9-5.9-5.6-6.4-5.1-6.7-4.6-7-4.1-7.4-3.6-7.7-3.1-6.3-2-6.5-1.6-6.6-1.3-6.8-.8-6.9-.4H853l-12.8 1.2-6.1 1.2-8.2 2-7.8 2.7-7.6 3.2-7.3 3.8-6.9 4.3-6.6 4.8-4.9-11.1-4.6-8.7-5-8.4-5.6-8-6-7.7-6.4-7.4-6.9-6.9-7.3-6.6-7.6-6.2-8-5.6-8.3-5.3-8.7-4.8-9-4.3-9.2-3.7-9.5-3.3-9.9-2.7-9.9-2.1-10.2-1.6-10.4-.9-10.7-.3-9.1.2-8.8.6-8.5 1-8.2 1.4-7.9 1.8-7.9 2.3-7.7 2.6-7.5 2.9-7.2 3.4-7 3.7-8.5 5.1-8.3 5.7-8 6.2-7.7 6.8-.9 1.4-.4 1.5.3 1.5.9 1.4 5 5.4 4.7 5.6 4.2 5.9 3.9 6.2 3.4 6.5 3 6.6 2.6 6.9 2.1 7.1 1.7 7.1 1.2 7.4.8 7.4.1 9.8-6.9-.5-.6-8.5-1-7.4-1.5-7.1-1.9-7-2.4-6.8-2.7-6.6-3.2-6.4-3.6-6.2-3.9-6-4.3-5.7-4.6-5.4-4.9-5.2-5.7-5.2-6-4.8-6.3-4.4-6.6-4.1-6.9-3.7-7.1-3.2-7.4-2.8-7.7-2.3-7.7-1.8-8-1.4-8.2-.8-8.5-.2-8.1.2-8 .8-7.7 1.2-7.6 1.7-7.5 2.2-7.2 2.7-6.9 3-6.7 3.4-6.5 3.9-6.2 4.2-5.9 4.5-5.6 4.9-5.3 5.3-4.9 5.5-4.5 5.8-4.2 6.2-3.8 6.3-3.4 6.6-2.9 6.9-2.5 7-2.3 8.2-4-.9-7.8-.9-8.8.1-9.7 1.5-9.2 3-8.4 4.2-3.9 2.6-4.9 3.9-4.4 4.2-4 4.8-2.7 3.8-4.3 8.1-1.8 4.4-2.3 9.1-.8 9.7.8 9.7 2.3 9.1 3.8 8.6 5 7.8 4 4.7 4.4 4.3 4.9 3.9 8 4.8 8.9 3.6 4.6 1.3 9.7 1.5 5.1.3 4.5-.3 8.9-1.4 6.4-1.8 6.1-2.1 11.1-4.7 149-67.5 5.6-2 5-.7 5.9.7 459.9 93.8z" fill="#fab2b8" fill-rule="nonzero" group-id="1,2" node-id="78" stroke="none" target-height="239.59999" target-width="735.80005" target-x="229.6" target-y="97.2"/><path d="m276.3 255.3-2.3-.6-1.6-1.6-.4-1v-6.5l.7-5.1 1-5 1.4-4.8 1.9-4.6 4.6-8.8 2.9-4 3.1-3.9 7.1-6.9 8.2-5.8 9-4.5 4.8-1.8 4.9-1.4 5.1-1 5.3-.6 6.7-.1 1.9 1.2 1.2 1.9.1 1.3-.6 2.2-1.6 1.7-1 .4-7.5.5-5.9.9-5.8 1.6-5.5 2.1-5.1 2.5-4.9 3.1-4.5 3.6-4.1 3.9-3.7 4.4-3.2 4.7-2.6 5-2.2 5.3-1.3 4.1-.9 4.2-.9 10.1-.4 1.1-1.6 1.6-2.3.6z" fill="#e38d91" fill-rule="nonzero" group-id="1,2,4" node-id="82" stroke="none" target-height="68" target-width="69.899994" target-x="272" target-y="187.3"/><path d="m760.4 189.7-6.4.3-6.2.9-6.1 1.4-5.8 2-5-5.4-4.7-5.6-4.2-5.9-3.8-6.2-4.2-7.5-.8-.8-2.2-.7-2.3.4-1 .7-1.3 1.9-.2 2.3 3.8 7.6 3.8 6.2 4.1 5.9 4.6 5.7 4.8 5.4-4.8 3-4.5 3.4-4.1 3.6-3.9 4.1-3.5 4.3-3.1 4.7-2.6 4.8-2.3 5.2-1.8 5.3-1.3 5.5-.8 5.7-.3 5.9.2 1.4 1.3 2.2 2.1 1.2 1.4.2 2.5-.6 1.8-1.8.7-2.6.3-5.3.8-5.1 1.2-5 1.7-4.7 2.2-4.6 2.6-4.3 2.9-4.1 3.4-3.8 3.7-3.4 3.9-3.2 4.3-2.7 4.6-2.5 1.5-.1 1.1-.5 1.1-.9 4.9-1.7 5.1-1.2 5.3-.8 5.6-.2 2.5-.7 1.8-1.8.5-1.2v-2.7l-.5-1.2-1.8-1.8-2.6-.6z" fill="#e38d91" fill-rule="nonzero" group-id="1,2,4" node-id="84" stroke="none" target-height="96.59999" target-width="71" target-x="694.3" target-y="162.2"/><path d="m459.4 202.8-5.1-1.2-4.8-1.6-4.5-2.2-4.2-2.6-3.8-3-3.5-3.4-3.1-3.7-2.6-4-2.2-4.3-1.7-4.6-1.2-4.7-.8-5.8-.1-5.6-.6-5.5-1.1-2.4-2.1-1.5-2.6-.2-1.3.4-1.1.7-1.5 2.1-.2 2.6.5 4.3.1 4.2-.3 4.2-.7 4.2-1.2 4.1-1.6 3.9-2 3.8-2.4 3.7-2.8 3.5-3 3.1-3.3 2.8-3.6 2.5-3.9 2.1-4 1.7-4.2 1.4-4.4 1-2.3 1.1-1.5 2.1-.3 1.2.1 1.4.6 1.7 1.1 1.3 1.5.8 2.6.3 5.3-1.3 5.1-1.6 4.9-2.2 4.7-2.6 4.3-3 4.1-3.4 3.7-3.8 3.4-4.2 2.8-4.3 2.3-4.4 2.8 5.1 3.2 4.8 3.8 4.4 4.2 3.9 4.6 3.6 5 3 8.2 3.6 4.4 1.4 4.5 1 2.6-.3 1.5-.8 1.1-1.3.6-1.7.1-1.4-.3-1.2-1.5-2.1-2.3-1.1z" fill="#e38d91" fill-rule="nonzero" group-id="1,2,4" node-id="86" stroke="none" target-height="66.2" target-width="93.100006" target-x="370.4" target-y="146.5"/><path d="m387.4 260-1.2-2.4-2-1.4-1.3-.3-6 .6h-4.5l-4.4-.5-4.4-1-4.2-1.4-3.9-1.8-3.8-2.3-3.4-2.6-3.1-3.1-2.8-3.4-2.3-3.7-3.8-8.5-2.1-4.1-.8-1.1-2.2-1.2h-2.5l-2.4 1.3-.7 1-.7 2.5.2 1.2 3.6 8.4 1.6 7.3.2 4.9-.4 4.9-1.1 4.9-1.7 4.7-2.2 4.4-2.9 4.3-5.3 5.5-7.6 5.6-.8 1-.6 2.4.7 2.6.8 1 2.2 1.3h2.5l1.3-.5 4.6-3 4.1-3.4 3.7-3.7 3.3-4 2.8-4.3 2.3-4.6 1.8-4.7 1.3-4.9.9-4.9 3.5 3 3.8 2.7 4.1 2.3 4.3 2 4.4 1.5 4.6 1.1 4.7.7 4.9.2 8.8-.7 1.3-.5 1.9-1.6.9-2.3V260z" fill="#e38d91" fill-rule="nonzero" group-id="1,2,4" node-id="88" stroke="none" target-height="69.2" target-width="79.5" target-x="307.9" target-y="221.8"/><path d="m897.6 225.3-3.6-1.5-3.3-2-3-2.2-2.7-2.6-2.4-2.8-2-3.1-1.7-3.3-1.2-3.4-.8-3.6-.4-3.6.1-3.7.9-9.5-.6-2.5-1.8-1.8-2.6-.7-1.3.2-1.2.5-1.8 1.8-.5 1.1-.5 5.6-.8 3.9-1.4 3.7-1.8 3.6-2.3 3.2-2.6 2.9-3.1 2.6-3.3 2.2-3.7 1.8-3.9 1.3-4.1.8-5.7.4-1.1.5-1.8 1.8-.5 1.2-.2 1.4.7 2.5 1.8 1.8 2.5.7 4.4-.3 4.2-.6 4.1-1.1 3.9-1.4 3.8-1.8 3.4-2.2 3.3-2.4 5.7-5.8 3.4 7.4 4.8 6.6 2.8 3 3.2 2.7 3.5 2.4 3.7 2 4.1 1.7 1.7.3 1.5-.2 1.3-.7 1.1-1 .8-1.4.2-2.6-1.1-2.3-2.1-1.5z" fill="#e38d91" fill-rule="nonzero" group-id="1,2,4" node-id="90" stroke="none" target-height="56" target-width="69.89996" target-x="830.9" target-y="179"/><path d="m622.6 125.4-2.6.4-1.9 1.7-.6 1.1-.3 2.7.4 1.2 1.7 1.9 1.1.6 9.8 1.8 4.1 1.1 3.9 1.5 7.3 3.8-2.1 7.1-2.6 7-3 6.7-3.6 6.5-4.8 7.6-.2 2.5 1.1 2.3 1 .9 1.4.7 1.5.2 2.2-.5 1.9-1.6 4-6.2 3.6-6.4 3.2-6.6 2.7-6.8 2.3-6.9 3.9 3.9 3.4 4.2 3 4.6 2.5 4.9 2.1 5.1 1.5 5.4 1 5.5.4 5.7-.1 7.3.3 1.2 1.7 1.9 2.4.9 2.9-.5 1.7-1.7.6-1 .5-6.7-.2-5.2-.6-5.1-1-5-3.1-9.7-2.1-4.5-5.2-8.6-6.4-7.6-3.6-3.5-8-6-4.4-2.5-4.6-2.2-4.7-1.9-4.9-1.4-5.2-1.1-5.3-.7z" fill="#e38d91" fill-rule="nonzero" group-id="1,2,4" node-id="92" stroke="none" target-height="74.9" target-width="64.70001" target-x="617.2" target-y="125.4"/><path d="m410.3 226-1.5-.2-1.3-.7-1.1-1-.8-1.4-.2-2.6 1.1-2.3.9-.8 1.2-.7 7.5-2.4 7.6-1.7 7.7-1.2 8-.5 7.9.1 8.1.6 8.3 1.4 8.5 1.9 2.3 1.3 1.3 2.2.1 1.3-.7 2.6-1.8 1.8-2.4.6-9.1-1.9-7.6-1.2-7.3-.6-7.2-.1-7.2.4-7 1.1-6.9 1.6-8.4 2.4z" fill="#e38d91" fill-rule="nonzero" group-id="1,2,4" node-id="94" stroke="none" target-height="15.5" target-width="70.5" target-x="405.4" target-y="210.5"/><path d="m1036.5 354.4 1-.1.8-.4.5-.7-.1-1.8-.8-.7-147.7-90.1-4.8-2.7-5-2.3-5.2-1.7-5.4-1.3-484.7-93.3h-1l-1.2 1.1v1.7l.6.7 87.3 71.1 3 2.1 6.9 3.3 4.4 1.5 10.6 2.6 540.8 111z" fill="#35b374" fill-rule="nonzero" group-id="1,2" node-id="97" stroke="none" target-height="195.09999" target-width="655.9" target-x="382.9" target-y="159.3"/><path d="m1099.3 514.6 6.3.4 5.7.9 5.1 1.3 4.7 1.6 4.5 2.2 4.1 2.5 3.8 2.7 3.4 3.1 3.1 3.5 5.4 7.6 2.3 4.2 2.7 5.8 2.2 6.2 1.9 6.5 2.7 13.4 1 6.9 1 10.4.5 10.2.3 19.5-.2 6.4-1.5 12.8-1.3 6.4-1.8 6.2-2.3 6.1-2.7 5.9-3.2 5.7-3.6 5.5-4.2 5.2-4.7 4.9-5.4 4.7-4.5 3.3-4.9 3.1-5.4 2.9-5.9 2.6-6.4 2.4-6.3 2-6.9 1.6-7.4 1.3-8.1 1-8.8.6-24.2.5-32.4-.6-36.2-1.9-18.8-1.4-38.3-3.8-18.7-2.4-18.5-2.8-17.4-3.2-11.5-2.3-20.5-5.1-9.9-2.9-8.7-3-7.7-3.1-10.7-5.3-7.8-5.3-2-2.5-1.2-2.4-.6-2.5-.1-2.4.4-2.4.9-2.3 1.4-2 1.7-1.9 2.2-1.6 2.5-1.2 2.7-.8 3.2-.4 74.3-2.9 30.7-2 15.4-1.3 14.8-1.6 14.5-2 13.2-2.3 16.4-3.8 6.8-2.1 6.7-2.5 5.5-2.6 4.5-2.7 12.3-9.4 9.5-9.1 7.6-9.1 6.1-9.5 6-12.2 9.9-24.9 2.3-5 2.7-4.8 3.1-4.3 3.6-4.1 4-3.6 4.3-3.3 4.5-2.8 4.9-2.3 5.1-1.9 5.2-1.3 5.5-.8 5.6-.3m.2-12-10.2.7-4.9.9-9.5 2.9-8.9 4.3-4.3 2.7-7.8 6.3-6.8 7.2-5.5 8.2-4.3 9-8.1 20.8-2.9 6.6-3.2 6.3-3.6 6-4.1 5.9-6.6 7.6-8.2 7.6-10.4 7.9-3 1.9-4.9 2.2-5.7 2.2-8.1 2.4-9.1 2.1-12.2 2.3-13.3 2-17 2-25.6 2.2-25.7 1.5-71.9 2.8-3.7.4-3.5.8-3.3 1.2-3.1 1.6-2.9 1.9-2.6 2.3-2.2 2.5-1.9 2.8-1.5 3.1-1.1 3.4-.5 3.4-.1 3.3.5 3.4.9 3.3 1.4 3.2 1.9 3 3.6 4.1 4.5 3.3 5.4 3.4 6.6 3.3 7.7 3.5 9.1 3.4 10.5 3.4 11.5 3.2 13.1 3.2 14.8 3 16.7 3 18.7 2.9 35.6 4.2 37.4 3.3L986 725l36.9 1.4 17.5.2 24.6-.5 9.3-.6 8.8-1.1 8.2-1.4 7.7-1.9 7.3-2.2 6.9-2.6 6.9-3.1 6.4-3.5 6-3.9 5.6-4.3 5.2-4.7 4.9-5.1 4.4-5.5 4-5.8 3.6-6.1 3.1-6.4 2.6-6.9 2.2-6.9 1.7-7.2 1.2-7.4.8-7.9.1-20.1-.9-21-2-16.8-1.6-8.3-2-8.1-2.5-7.9-2.9-6.9-3.1-6.3-3.5-5.6-3.8-5.1-4.1-4.5-4.4-4-4.9-3.6-5.1-3.1-5.5-2.6-5.8-2-6.3-1.6-6.7-1-7.3-.5z" fill="#37b374" fill-opacity="0.5" fill-rule="nonzero" group-id="1,2,5" node-id="101" stroke="none" target-height="223.99997" target-width="404.60004" target-x="767.3" target-y="502.6"/><g clip-path="url(#SVGID_4_)" group-id="1,2,6,10" node-id="106"><path d="m768 915.8 262.5-64.3 2.9-.9 2.7-1.3 2.3-1.7 2.2-2 1.7-2.3 1.5-2.5 1.1-2.7.6-2.9.3-3 1.9-460.6-.2-1.9-1.1-3.4-1.4-2.3-2-1.9-3.2-1.8-1.8-.5-543.8-105.7-4.1-.6-4.1-.1-4 .2-4.1.7-3.9 1.1-3.9 1.5-323.2 141.6-2 1.2-1.8 1.5-1.4 1.8-1.1 2-.6 2.2-.2 2.4 1.9 439.8.2 3.3.8 3.1 1.3 2.9 1.6 2.6 2.1 2.3 2.4 2.1 2.6 1.6 3 1.1 3.2.8 209.2 28.9 361.7 26 38.2-8.3z" fill="#37b374" fill-rule="nonzero" group-id="1,2,6,10" node-id="108" stroke="none" target-height="670.69995" target-width="907.89996" target-x="139.8" target-y="253.4"/></g><g clip-path="url(#SVGID_4_)" group-id="1,2,6,11" node-id="111"><path d="m381.9 901.8-224.6-31.7-2.7-1-.9-.8-1.1-1.6-.4-1.9.1-1.9.6-1.8 1.8-1.8 1.4-.7 311.3-113.2 5-1.6 5.2-1.2 5.2-.6 5.3-.2 5.3.2 5.2.8 532.7 97.9 2.6 1.2.9.9 1 1.6.4 1.9-.2 1.9-.8 1.8-1.9 1.8-1.4.6-29.2 8.6-265.9 65.3-354.9-24.5z" fill="#1f4d31" fill-opacity="0.3" fill-rule="nonzero" group-id="1,2,6,11" node-id="113" stroke="none" target-height="184.5" target-width="883.99994" target-x="152.2" target-y="741.8"/></g><g clip-path="url(#SVGID_4_)" group-id="1,2,6,12" node-id="116"><path d="m593 696-2.1-.3-1.9-.8-1.7-1.2-1.2-1.7-.8-1.9-.3-2.1v-75.1l-.2-4.9-.7-4.8-1.2-4.8-1.5-4.5-2-4.4-2.4-4.3-2.7-3.9-3.2-3.8-3.5-3.4-25.9-23.1-1.4-1.7-.9-1.8-.4-2 .2-2.1.6-1.9 1.2-1.8 1.7-1.4 1.8-.9 2-.4 2.1.2 1.9.6 1.8 1.2 25.9 23.1 4.7 4.6 4.1 4.8 3.6 5.2 3.1 5.5 2.6 5.8 2 6 1.5 6.2.9 6.2.3 6.5V688l-.3 2.1-.8 1.9-1.2 1.7-1.7 1.2-1.9.8-2.1.3z" fill="#374f3a" fill-opacity="0.36" fill-rule="nonzero" group-id="1,2,6,12" node-id="118" stroke="none" target-height="159" target-width="62" target-x="539" target-y="537"/></g><g clip-path="url(#SVGID_4_)" group-id="1,2,6,13" node-id="121"><path d="m957 778-2.1-.3-1.9-.8-1.7-1.2-1.2-1.7-.8-1.9-.3-2.1v-75.1l.3-6.4.9-6.3 1.5-6.2 2-6 2.6-5.8 3.1-5.5 3.6-5.2 4.1-4.8 4.7-4.6 25.9-23.1 1.8-1.2 1.9-.6 2.1-.2 2 .4 1.8.9 1.7 1.4 1.2 1.8.6 1.9.2 2.1-.4 2-.9 1.8-1.4 1.7-25.9 23.1-3.5 3.4-3.2 3.8-2.7 3.9-2.4 4.3-2 4.4-1.6 4.6-1.1 4.7-.7 4.8-.2 4.9V770l-.3 2.1-.8 1.9-1.2 1.7-1.7 1.2-1.9.8-2.1.3z" fill="#374f3a" fill-opacity="0.36" fill-rule="nonzero" group-id="1,2,6,13" node-id="123" stroke="none" target-height="159" target-width="62" target-x="949" target-y="619"/></g><g clip-path="url(#SVGID_4_)" group-id="1,2,6,14" node-id="126"><path d="m805 604-3.5-.6-2.9-1.8-2.2-2.6-.8-1.5-.6-3.5v-14l.6-3.5.8-1.5 2.2-2.6 2.9-1.8 1.7-.4h3.6l1.7.4 2.9 1.8 2.2 2.6.8 1.5.6 3.5v14l-.6 3.5-1.8 2.9-2.6 2.2-3.2 1.2-1.8.2z" fill="#332f2e" fill-opacity="0.36" fill-rule="nonzero" group-id="1,2,6,14" node-id="128" stroke="none" target-height="33.799988" target-width="20" target-x="795" target-y="570.2"/></g><g clip-path="url(#SVGID_4_)" group-id="1,2,6,15" node-id="131"><path d="m765 598-3.5-.6-1.5-.8-2.6-2.2-1.8-2.9-.6-3.5v-12l.6-3.5.8-1.5 2.2-2.6 2.9-1.8 1.7-.4h3.6l1.7.4 2.9 1.8 2.2 2.6.8 1.5.6 3.5v12l-.6 3.5-1.8 2.9-2.6 2.2-3.2 1.2-1.8.2z" fill="#332f2e" fill-opacity="0.36" fill-rule="nonzero" group-id="1,2,6,15" node-id="133" stroke="none" target-height="31.799988" target-width="20" target-x="755" target-y="566.2"/></g><g clip-path="url(#SVGID_4_)" group-id="1,2,6,16" node-id="136"><path d="m1059.6 483-16.8-15.8-14.5-15.6 10.9-9.3.7-1.2.2-2.8-1.2-2.6-2.3-1.7-2.8-.2-1.3.4-11.2 9-12.4-16.1 11.5-7.6.8-1.2.6-2.7-.9-2.7-2.1-2-2.8-.6-1.3.3-12.1 7.5-10.4-16.3 12.9-6.4 1-1.1.9-2.6-.5-2.8-.9-1.3-2.3-1.5-2.7-.3-13.9 6.5-7.7-14.8 13.4-5.2 1.1-.9 1.1-2.6-.2-2.8-.7-1.4-2.2-1.7-2.7-.5-14.5 5.1-6.5-15.3-5.4-15.5-.9-1.1-2.4-1.3h-2.9l-2.5 1.4-1.4 2.4.1 2.9 4.9 14.6 6.6 15.8-11.1 4.3-1 1-1.2 2.5.3 2.9.8 1.5 1.2 1.1 1.5.7 1.6.3 1.9-.4 10.6-3.9 8.2 15.7-12 6-1 1-.9 2.7.5 2.8.9 1.3 1.2 1 1.4.6 2.7.1 12.7-6 11.1 17.4-11.9 7.9-.8 1.1-.6 2.7.9 2.8.9 1.1 2.4 1.2h2.8l1.5-.7 11.1-7.1 13.1 17.2-10.8 9.2-.7 1.3-.2 2.7 1.2 2.7.9.8 2.1 1h2.4l1.2-.4 11-8.9 15.3 16.4 8.3 8.1 10.1 9 1.2.4h2.4l2.1-.9.9-.8.9-1.3.5-2.7-.9-2.6-1-1.2z" fill="#374f3a" fill-opacity="0.4" fill-rule="nonzero" group-id="1,2,6,16" node-id="138" stroke="none" target-height="158.20001" target-width="110.900024" target-x="950.6" target-y="334.3"/></g><g clip-path="url(#SVGID_4_)" group-id="1,2,6,17" node-id="141"><path d="m276.1 831.4-4.8-11.6-5-11-5.4-10.6 13.7-7.7.8-1 .8-2.7-.6-2.8-2-2.1-2.7-.8-1.3.1-14 7.4-12.6-20.5 14-8.8.8-1.1.7-2.7-.8-2.7-2.1-2-2.7-.7-1.4.2-14.7 8.7-8-10.9-7.8-10 14.8-12.3.6-1.3.3-2.7-1.2-2.7-2.3-1.6-2.8-.3-1.3.4-15.1 12-15.5-17.3 12.1-12.2.5-1.3V696l-1.4-2.5-2.5-1.5h-2.8l-1.3.5-12.2 11.9-14.8-14.2 9.6-11.5.5-1.3-.2-2.8-1.6-2.4-1.3-.8-2.7-.5-2.7.9-9.8 11-12.2-10.2-8.2-6.3-4.7-3.1-2.8-.3-2.5 1.2-1 1.1-.7 1.4-.2 2.7 1.2 2.5 1.1 1.1 10.9 8.4 11.8 9.9-8.8 10.6-.5 1.3.2 2.8 1.7 2.4 1.1.7 2.5.6 2.2-.5 1-.6 8.8-9.9 14.2 13.6-11 11.2-.6 1.3v2.8l1.5 2.5 2.5 1.4h2.8l1.2-.5 11.2-10.8 14.8 16.5-13.9 11.6-.6 1.2-.3 2.8 1.2 2.6.9.9 2.1 1 3-.1 1.7-1 12.9-10.5 14.9 19.7-15.8 9.8-.8 1.1-.7 2.8.8 2.7.9 1.2 2.4 1.3h2.9l16.6-9.9 12.3 20-16.5 9.1-.8 1.1-.8 2.7.6 2.8.9 1.2 2.5 1.5h2.8l16.6-8.8 5.2 10.3 10.3 23.1 1.2 1.1 1.5.7 1.6.3 2-.4 1.3-.8 1-.9 1.1-2.6-.3-2.8z" fill="#374f3a" fill-opacity="0.4" fill-rule="nonzero" group-id="1,2,6,17" node-id="143" stroke="none" target-height="176" target-width="140.79999" target-x="135.6" target-y="662.9"/></g><g clip-path="url(#SVGID_4_)" group-id="1,2,6,18" node-id="146"><path d="m654.8 505.2-.5-1.3.6-1.3 18.7-18.7 1.8-2.2 1.4-2.4.9-2.6.5-2.7v-2.7l-.5-2.8-.9-2.5-1.4-2.5-1.8-2.2-2.3-1.9-2.4-1.4-2.6-.9-2.7-.4h-2.7l-2.7.4-2.6.9-2.4 1.4-2.3 1.9-15.7 15.7-1.5.6-1.5-.7-17.4-21.9-2.1-2.2-2.4-1.6-2.5-1.2-2.7-.8-2.8-.2-2.8.2-2.8.7-2.5 1.3-2.5 1.8-2 2-1.5 2.3-1 2.5-.7 2.6-.1 2.7.2 2.7.7 2.6 1.1 2.5 1.6 2.4 19.7 24.7.4 1.4-.5 1.3-18.7 18.6-1.8 2.2-1.4 2.5-.9 2.5-.5 2.8v2.7l.5 2.7.9 2.6 1.4 2.4 1.8 2.2 2.6 2.1 2.7 1.4 3 .9 3 .3 3.1-.3 3-.9 3.6-2 1.7-1.5 15.7-15.7 1.5-.6 1.5.7 17.4 21.9 3.6 3.4 4.3 2 4.6.7 2.7-.3 2.6-.6 2.5-1.1 2.3-1.6 2.1-2.1 1.6-2.3 1.2-2.5.7-2.6.2-2.7-.2-2.8-.7-2.7-1.1-2.6-1.6-2.5-19.7-24.7z" fill="#222e24" fill-rule="nonzero" group-id="1,2,6,18" node-id="148" stroke="none" target-height="107.29999" target-width="91.900024" target-x="586.3" target-y="449"/></g><g clip-path="url(#SVGID_4_)" group-id="1,2,6,19" node-id="151"><path d="m953.8 560.2-.5-1.3.6-1.3 17.7-17.7 1.8-2.2 1.4-2.4.9-2.6.5-2.7v-2.7l-.5-2.8-.9-2.5-1.4-2.5-1.8-2.2-2.3-1.9-2.4-1.4-2.6-.9-2.7-.4h-2.7l-2.7.4-2.6.9-2.4 1.4-2.3 1.9-14.7 14.7-1.5.6-1.5-.7-16.4-20.7-2.1-2.1-2.4-1.7-2.5-1.2-2.7-.7-2.8-.3-2.8.2-2.8.8-2.5 1.2-2.5 1.8-2 2.1-1.5 2.2-1 2.5-.7 2.6-.1 2.7.2 2.7.7 2.6 1.1 2.5 1.6 2.4 18.7 23.5.4 1.4-.5 1.3-17.7 17.6-1.8 2.2-1.4 2.4-.9 2.6-.5 2.7v2.7l.5 2.8.9 2.5 1.4 2.5 1.8 2.2 2.6 2.1 2.7 1.4 3 .9 3 .3 3.1-.3 3-.9 3.6-2 1.7-1.5 14.7-14.7 1.5-.6 1.5.7 16.4 20.7 3.6 3.3 4.3 2 4.6.7 2.7-.2 2.6-.7 2.5-1.1 2.3-1.6 2.1-2.1 1.6-2.2 1.2-2.5.7-2.7.2-2.7-.2-2.8-.7-2.7-1.1-2.6-1.6-2.4-18.7-23.5z" fill="#222e24" fill-rule="nonzero" group-id="1,2,6,19" node-id="153" stroke="none" target-height="104.79999" target-width="89.900024" target-x="886.3" target-y="505.2"/></g><g clip-path="url(#SVGID_4_)" group-id="1,2,6,20" node-id="156"><path d="m538 416-1.4-.2-2.1-1.3-1.3-2.1-.2-1.4V289l.2-1.4 1.3-2.1 2.1-1.3 1.4-.2 1.4.2 2.1 1.3 1.3 2.1.2 1.4v122l-.2 1.4-1.3 2.1-2.1 1.3-1.4.2z" fill="#374f3a" fill-opacity="0.36" fill-rule="nonzero" group-id="1,2,6,20" node-id="158" stroke="none" target-height="132" target-width="10" target-x="533" target-y="284"/></g><g clip-path="url(#SVGID_4_)" group-id="1,2,6,21" node-id="161"><path d="m563 389-1.4-.2-2.1-1.3-1.3-2.1-.2-1.4v-90l.7-2.5 1.8-1.8 1.1-.5 1.4-.2 2.5.7 1.8 1.8.7 2.5v90l-.2 1.4-1.3 2.1-2.1 1.3-1.4.2z" fill="#374f3a" fill-opacity="0.36" fill-rule="nonzero" group-id="1,2,6,21" node-id="163" stroke="none" target-height="100" target-width="10" target-x="558" target-y="289"/></g><g clip-path="url(#SVGID_4_)" group-id="1,2,6,22" node-id="166"><path d="m588 357-1.4-.2-2.1-1.3-1.3-2.1-.2-1.4v-54l.2-1.4 1.3-2.1 2.1-1.3 1.4-.2 1.4.2 2.1 1.3 1.3 2.1.2 1.4v54l-.2 1.4-1.3 2.1-2.1 1.3-1.4.2z" fill="#374f3a" fill-opacity="0.36" fill-rule="nonzero" group-id="1,2,6,22" node-id="168" stroke="none" target-height="64" target-width="10" target-x="583" target-y="293"/></g><path d="M279 382.6v39.1l.3 1 .6.7.9.3 1-.1 29.3-11.6 1.1-1.1.2-.8v-40l-.2-1-.7-.7-.9-.3-1 .1-29.3 12.5-.7.5-.6 1.4z" fill="#ffffff" fill-opacity="0.8" fill-rule="evenodd" group-id="1,2,7" node-id="174" stroke="none" target-height="55.600006" target-width="33.399994" target-x="279" target-y="368.1"/><path d="m229.8 444.2 29.3-11.6 1-.8.3-1.1v-38.5l-.2-1-.7-.7-.9-.3-1 .2-29.3 12.5-1.1 1-.2 38.4.3 1 .6.6.9.4 1-.1z" fill="#ffffff" fill-opacity="0.8" fill-rule="evenodd" group-id="1,2,7" node-id="176" stroke="none" target-height="54.099976" target-width="33.399994" target-x="227" target-y="390.2"/><path d="m178.8 464.3 29.3-11.6 1-.7.3-1.2v-36.9l-.2-1-.7-.7-.9-.3-1 .2-29.3 12.5-1.1 1-.2 36.8.3 1 .6.7.9.3 1-.1z" fill="#ffffff" fill-opacity="0.8" fill-rule="evenodd" group-id="1,2,7" node-id="178" stroke="none" target-height="52.5" target-width="33.399994" target-x="176" target-y="411.9"/><path d="m578.9 196.3 107.9 89.5 1.5 1.6 1.1 1.8.7 2 .2 2.2 2 147.9.3 1.5.7 1.1 1.1.9 1.3.4h1.4l1.4-.6 39.3-26 1.4-.6h1.4l1.3.4 1.1.9 37.3 41.7 1.2.9 1.4.4 1.4-.1 1.4-.7 35.4-26.8 1.3-.7 1.3-.1 1.3.2 1.2.8 48.5 42.6 1.4.9 1.5.1 1.5-.4 1.2-.8.8-1.3.2-1.6-5.4-146.1-.3-2.1-.8-2-1.1-1.8-1.6-1.5-117.6-89.4-2.6-1.6-2.8-1.3-3-.8-167.2-31.5z" fill="#c7a168" fill-rule="nonzero" group-id="1,2" node-id="181" stroke="none" target-height="282.2" target-width="302.39996" target-x="578.9" target-y="196.3"/><path d="m483 698.9-1.2-.2-2-1.2-1.1-1.9-.2-1.2V284.3l.6-2.3 1.6-1.6 1.1-.5 1.2-.1 2.3.6 1.6 1.6.6 2.3v410.1l-.2 1.2-1.1 1.9-2 1.2-1.2.2z" fill="#ffffff" fill-opacity="0.9" fill-rule="nonzero" group-id="1,2,8" node-id="185" stroke="none" target-height="419.10004" target-width="9" target-x="478.5" target-y="279.8"/><path d="m389.5 545.5-2.3.6-2.1.1-2.1-.4-2-.8-1.7-1.1-1.4-1.5-1.2-1.8-.7-2.1-.2-2.3v-58.7l.2-2 1.4-3.5 2.6-2.7 1.7-1 2.2-.7 2.2-.2 2.2.4 2 .7 1.7 1.2 1.6 1.5 1.1 1.8.8 2.1.3 2.4v58.7l-.3 2-1.5 3.6-2.7 2.7-1.8 1z" fill="#fab2b8" fill-rule="nonzero" group-id="1,2" node-id="188" stroke="none" target-height="78.80002" target-width="20" target-x="375.8" target-y="467.4"/><path d="m406 277-7.8 3.8-3.4 2.1-3.8 2.7-3.7 3.2-3.5 3.8-2.1 2.7-3.5 6.4-1.2 3.4-.7 3.8-.3 4.1v91.8l-.2 2.2-.6 2-1 1.9-2.8 3.1-1.9 1.1-3.9 1.1h-1.9l-3.7-.9-3.1-1.9-1.3-1.4-1.9-3.3-.5-1.9-.2-23.3-.3-2.4-.7-2.1-1.2-1.8-1.5-1.5-1.8-1.2-2-.7-2.1-.4-2.2.2-2.3.7-3.1 2.2-2.1 3.2-.5 1.8-.4 198.4-1.4 5.1-1.2 2.4-3.3 4.2-4.4 3.1-12 4.9-1.3 2-.2 62.8-.3 3.2-.9 2.9-1.4 2.8-2 2.4-2.3 2.1-2.8 1.6-2.8 1-2.7.4h-2.7l-2.7-.4-2.5-.9-2.3-1.3-2.2-1.6-1.8-1.9-1.5-2.2-1.1-2.5-.7-2.7-.3-2.9V480.6l-.2-1.2-.6-1.1-2-1.3-1.1-.1-4.7 1.4-3.3.5-3.2-.1-3.2-.6-3-1.1-2.8-1.5-2.5-2-2.1-2.3-1.8-2.7-1.4-2.9-.8-3.3-.3-3.5v-94.6l.3-3.7 1-3.4 1.5-3.1 2.1-2.9 2.5-2.4 3-2.1L315 313l91-36z" fill="#fab2b8" fill-rule="nonzero" group-id="1,2" node-id="190" stroke="none" target-height="403.8" target-width="163" target-x="243" target-y="277"/><path d="m783.2 671.5-2-2.5-1.2-2.4-.6-2.4-.1-2.5.4-2.4.9-2.3 1.4-2 1.7-1.9 2.2-1.6 2.5-1.2 2.7-.8 3.2-.4 74.3-2.9 30.7-2 15.4-1.3 14.8-1.6 14.5-2 13.2-2.3 16.4-3.8 6.8-2.1 6.7-2.5 5.5-2.6 4.5-2.6 6.6-4.9 10.6-9 8.7-9.3 6.7-9.2 5.4-9.5 6.8-15.4 6.6-16.9 2.3-5.1 2.7-4.8 3.1-4.3 3.6-4.1 4-3.6 4.3-3.3 4.5-2.8 4.9-2.3 5.1-1.9 5.2-1.3 5.5-.8 5.6-.3 6.3.4 5.7.9 5.1 1.3 4.7 1.6 4.5 2.2 4.1 2.5 3.8 2.7 3.4 3.1 5.9 7.1 2.6 4 2.3 4.2 2.7 5.8 2.2 6.2 1.9 6.5 2.7 13.4 2 17.3.5 10.2.3 19.5-.7 12.9-2.3 12.7-1.8 6.2-2.3 6.1-2.7 5.9-3.2 5.7-3.6 5.5-4.2 5.2-4.7 4.9-5.4 4.7-4.5 3.3-4.9 3.1-5.4 2.9-5.9 2.6-6.4 2.4-6.3 2-6.9 1.6-7.4 1.3-8.1 1-8.8.6-12.5.4-30.2-.1-34.5-1.3-37.1-2.6-18.9-1.8-37.3-4.5-18.2-2.8-17.1-3.1-21.8-4.8-19.3-5.5-8.6-3-7.6-3-10.5-5.3-7.7-5.2z" fill="#ffffff" fill-rule="evenodd" group-id="1,2" node-id="192" stroke="none" target-height="199.90002" target-width="380.7" target-x="779.3" target-y="514.6"/></g></g><g clip-path="url(#SVGID_2_)" group-id="1,3" id="body_5_" node-id="50"><path d="m736.7 1159.9 5 50h85l-6-52z" fill="#37b374" fill-rule="nonzero" group-id="1,3" node-id="196" stroke="none" target-height="52" target-width="90" target-x="736.7" target-y="1157.9"/><path d="m737.7 1160.9 4.5 49H271.7l.1-24.5.5-12.2 2.1-31.5 2-18.5 3.7-26 2.4-14.1 5.9-28.4 3.7-14.8 4.1-14.6 4.7-14.8 5.3-14.8 8.9-21.8 10.3-21.4 5.8-10.4 6.1-10.1 6.5-9.9 6.9-9.6 7.4-9.3 7.8-8.9 8.3-8.5 8.7-8.1 7.3-6.1 7.6-5.8 7.9-5.5 8.4-5.2 8.6-4.8 8.8-4.4 9.3-4 9.6-3.6 10.1-3.2 10.6-2.8 10.4-2.3 11-1.8 11.5-1.3 12.1-.8 12.6-.3 14.3.2 13.7.7 13.3 1.1 12.7 1.5 12.3 1.8 11.9 2.3 14.5 3.3 13.8 3.7 13.3 4.3 12.7 4.6 12.1 5.1 12 5.7 11.5 6.1 11 6.4 10.5 6.8 10 7.1 9.8 7.7 9.3 7.8 8.8 8.2 8.3 8.4 7.9 8.7 7.8 9.2 7.4 9.3 6.9 9.5 6.5 9.7 8.2 13.2 7.5 13.1 6.9 13.1 6.3 13.4 5.8 13 9.9 25.6 7.8 23.8 4.8 17.2 3.8 15 5.3 25.5 3.4 23h-133z" fill="#755e4a" fill-rule="nonzero" group-id="1,3" node-id="198" stroke="none" target-height="384.10004" target-width="599" target-x="271.7" target-y="825.8"/><path d="m877 1156.8-.4-1.3-1.5-2.1-2.3-1h-1.3l-37.8 3.2-36.4 2.2-32.8.9H749l-14.1-.4-10.6-.7-9.6-1-6.7-1.1-9.5-2.5-4.6-2.3-1.1-1-1.9-3.2-2.8-7.6-3.9-17.6-4.1-24.1-4-28.6-3.9-31.5-3.5-32.5-6.1-62-.5-1.2-2-1.6-2.5-.5-1.4.3-2.1 1.5-1 2.3-.1 1.3 6.5 68 5.8 51-5-6.4-8.8-13.2-3.9-6.8-6.6-13.1-4.2-9.8-6.2-17.3-2.1-6.9-4-16.1-.7-1-2.1-1.5-2.6-.2-2.4 1.1-1.4 2.1-.3 1.2v1.4l2.5 11 4.8 16.1 6.3 16.7 6.8 14.8 8.4 14.9 4.9 7.6 5.4 7.4 5.9 7.1 6.4 7 1.2.9 2.2 15.7 4 23.7 1.7 8.6 3.2 13.1 1.5 4.8 2.5 5.8 2.4 3.6 2.3 2.3 1.8 1.2 5.7 2.8 3.3 1.1 9.7 2.2 8.6 1.3 11.6 1 12.8.6 28.9.2 40.8-1.6 23.8-1.6 38.1-3.2 1.3-.3 2.1-1.5 1-2.3.1-1.4z" fill="#ffffff" fill-rule="nonzero" group-id="1,3" node-id="200" stroke="none" target-height="229.39996" target-width="262" target-x="615" target-y="939.3"/><path d="m343.9 1237.8-.8-14.9.2-24.8.7-15.6 1.5-19.4-.2-1.5-.8-1.1-1.1-.7-1.3-.2-1.3.3-1.1 1-41.8 57.2-.8 2.5.6 2.4 2 1.6 39.7 16.5 1.1.2 2.1-.6 1.2-1.7.1-1.2z" fill="#35b371" fill-rule="nonzero" group-id="1,3,9" node-id="204" stroke="none" target-height="81.70007" target-width="48.399994" target-x="297.1" target-y="1159.6"/><path d="m350.6 1123.2 5.8-31.9 7-34.6-.1-1.5-.5-1.1-1-.9-1.2-.4-1.3.1-1.2.7-42 37.4-1.3 2v2.3l1.2 2 29.2 27.7 1 .6 1.1.3 1.1-.2 1.8-1.4.4-1.1z" fill="#35b371" fill-rule="nonzero" group-id="1,3,9" node-id="206" stroke="none" target-height="73.099976" target-width="48.600006" target-x="314.8" target-y="1052.8"/><path d="m375.1 1022.1 14.1-49.2 7.1-21.5.1-1.5-.4-1.2-.9-1-1.2-.5h-1.3l-1.3.6-42.4 32.7-1 1.2-.6 1.4v1.5l.5 1.5 21.4 36.8.9 1 1.1.5 1.2.1 1.2-.4.9-.8.6-1.2z" fill="#35b371" fill-rule="nonzero" group-id="1,3,9" node-id="208" stroke="none" target-height="77.29999" target-width="49.100006" target-x="347.3" target-y="947.2"/><path d="m412.3 916.8 12.7-24.7 9.4-15.9.3-1-.1-.8-1.2-1.3-.9-.2-1 .3-29.7 17.3-1.2 1-.8 1.3-.2 1.4.3 1.6 8.4 20.9.5.7 1.5.6 1.4-.5.6-.7z" fill="#35b371" fill-rule="nonzero" group-id="1,3,9" node-id="210" stroke="none" target-height="45.099976" target-width="35.100006" target-x="399.6" target-y="872.9"/></g></g></svg>