<!--version="1.0" standalone="no"--><!DOCTYPE html PUBLIC "-//W3C//DTD SVG 1.1//EN" "http://www.w3.org/Graphics/SVG/1.1/DTD/svg11.dtd"><svg height="1200" node-id="1" sillyvg="true" template-height="1200" template-width="1200" version="1.1" viewBox="0 0 1200 1200" width="1200" xmlns="http://www.w3.org/2000/svg" preserveAspectRatio="xMidYMid meet" zoomAndPan="magnify" contentScriptType="application/ecmascript" contentStyleType="text/css"><defs node-id="76"><clipPath id="SVGID_2_" node-id="8"><path d="M0 0h1200v1200H0z" fill="#000000" fill-rule="nonzero" node-id="79" stroke="none" target-height="1200" target-width="1200" target-x="0" target-y="0"/></clipPath><clipPath id="SVGID_4_" node-id="17"><path d="m769 915.8 262.5-64.3 2.9-.9 2.7-1.3 2.3-1.7 2.2-2 1.7-2.3 1.5-2.5 1.1-2.7.6-2.9.3-3 1.9-460.6-.2-1.9-1.1-3.4-1.4-2.3-2-1.9-3.2-1.8-1.8-.5-543.8-105.7-4.1-.6-4.1-.1-4 .2-4.1.7-3.9 1.1-3.9 1.5-323.2 141.6-2 1.2-1.8 1.5-1.4 1.8-1.1 2-.6 2.2-.2 2.4 1.9 439.8.2 3.3.8 3.1 1.3 2.9 1.6 2.6 2.1 2.3 2.4 2.1 2.6 1.6 3 1.1 3.2.8 209.2 28.9 361.7 26 38.2-8.3z" fill="#000000" fill-rule="nonzero" node-id="83" stroke="none" target-height="670.69995" target-width="907.89996" target-x="140.8" target-y="253.4"/></clipPath><clipPath id="SVGID_6_" node-id="59"><path d="m738.7 1160.9 4.5 49H272.7l.1-24.5.5-12.2 2.1-31.5 2-18.5 3.7-26 2.4-14.1 5.9-28.4 3.7-14.8 4.1-14.6 4.7-14.8 5.3-14.8 8.9-21.8 10.3-21.4 5.8-10.4 6.1-10.1 6.5-9.9 6.9-9.6 7.4-9.3 7.8-8.9 8.3-8.5 8.7-8.1 7.3-6.1 7.6-5.8 7.9-5.5 8.4-5.2 8.6-4.8 8.8-4.4 9.3-4 9.6-3.6 10.1-3.2 10.6-2.8 10.4-2.3 11-1.8 11.5-1.3 12.1-.8 12.6-.3 14.3.2 13.7.7 13.3 1.1 12.7 1.5 12.3 1.8 11.9 2.3 14.5 3.3 13.8 3.7 13.3 4.3 12.7 4.6 12.1 5.1 12 5.7 11.5 6.1 11 6.4 10.5 6.8 10 7.1 9.8 7.7 9.3 7.8 8.8 8.2 8.3 8.4 7.9 8.7 7.8 9.2 7.4 9.3 6.9 9.5 6.5 9.7 8.2 13.2 7.5 13.1 6.9 13.1 6.3 13.4 5.8 13 9.9 25.6 7.8 23.8 4.8 17.2 3.8 15 5.3 25.5 3.4 23h-133z" fill="#000000" fill-rule="nonzero" node-id="87" stroke="none" target-height="384.10004" target-width="599" target-x="272.7" target-y="825.8"/></clipPath></defs><path d="M0 0h1200v1200H0z" fill="#e9edf0" fill-rule="nonzero" node-id="91" target-height="1200" target-width="1200" target-x="0" target-y="0"/><g node-id="241"><g node-id="242"><g clip-path="url(#SVGID_2_)" group-id="1,2" id="head_6_" node-id="10"><path d="m623.4 80.1-78.5 132-1.2 1.5-1.6.9-2.1.6-3.5-.5-2.4-1.3-37.9-31.6-1.7-1-1.9-.5h-1.9l-1.8.6-31.6 16-1.8.7-2 .1-2.1-.5-2.2-1.3-1.5-1.5-.9-1.8-.3-2.6 10.7-29.7.8-1.8 2.5-2.8 107-54.9.5-.9-.3-.8-1-.2-112.8 43.8-1.6-.4-.7-.4-34.7-28.9-1.5-1.5-.8-1.5-.3-1.7.3-1.9.7-1.7 1.1-1.2 1.5-.9 2-.4 195.8-31.8h1.8l1.8.4 2 1 1.5 1.5 1 1.8.5 1.7-.2 1.6-.7 1.8z" fill="#7f47f0" fill-rule="nonzero" group-id="1,2" node-id="96" stroke="none" target-height="144.8" target-width="210" target-x="414.3" target-y="70.3"/><path d="m1094.8 292.4-16.6-58.2-.7-1.8-2.2-2.9-3.2-1.9-1.9-.5-63.6-10.6v-.6l.4-.2 60-1.6 2.3-.7 1.4-1.9.1-2.4-9.4-34.5-.7-1.4-1.1-1-1.4-.5h-1.5l-142.2 30.6-1.5.7-1 1.1-.6 1.3v1.5l.6 1.4 1.1 1.2 109.4 72.4 1.5.7 3 .2 2.8-1.3 1.2-1.2 6.5-9.3 53.1 24.9 1.2.3 2-.7.7-.9.4-1-.1-1.2z" fill="#ff8119" fill-rule="nonzero" group-id="1,2" node-id="98" stroke="none" target-height="124.500015" target-width="183.5" target-x="911.4" target-y="171.7"/><path d="m794.9 138.7-91.7 130-.6.7-1.7.5-1.3-.3-.9-.9-30.7-46.1-2-1.8-2.6-.9-1.8.1-1.7.5-1.5 1.2-18.8 17.7-1.9.8-1-.2-1.3-1-.4-1.5v-50.4l-.3-1.8-.7-1.6-1.2-1.4-26.5-22.5-.7-.9-.2-.9.2-1.1.8-1.3 1.5-.6 184.4-20.6 1.5.2 1.2 1.1.3 1-.4 2z" fill="#40ccf5" fill-rule="nonzero" group-id="1,2" node-id="100" stroke="none" target-height="135.5" target-width="189.89996" target-x="605.4" target-y="134.4"/><g clip-path="url(#SVGID_4_)" group-id="1,2,4,8" node-id="104"><path d="m759 924.8 285.8-66.8.7-.5.8-1.6 1.3-4.2 1.1-5.9V360.7L495.2 253.1l-4.1-.6-4.1-.1-4 .2-4.1.7-3.9 1.1-3.9 1.5-330.4 144.8v475.1l230.5 28.3L759 924.8z" fill="#072d4d" fill-rule="nonzero" group-id="1,2,4,8" node-id="106" stroke="none" target-height="672.4" target-width="907.99994" target-x="140.7" target-y="252.4"/></g><g clip-path="url(#SVGID_4_)" group-id="1,2,4,9" node-id="109"><path d="m382.9 901.8-224.6-31.7-2.7-1-.9-.8-1.1-1.6-.4-1.9.1-1.9.6-1.8 1.8-1.8 1.4-.7 311.3-113.2 5-1.6 5.2-1.2 5.2-.6 5.3-.2 5.3.2 5.2.8 532.7 97.9 2.6 1.2.9.9 1 1.6.4 1.9-.2 1.9-.8 1.8-1.9 1.8-1.4.6-29.2 8.6-265.9 65.3-354.9-24.5z" fill="#071b33" fill-opacity="0.9" fill-rule="nonzero" group-id="1,2,4,9" node-id="111" stroke="none" target-height="184.5" target-width="883.99994" target-x="153.2" target-y="741.8"/></g><g clip-path="url(#SVGID_4_)" group-id="1,2,4,10" node-id="114"><path d="M280 382.6v39.1l.3 1 .6.7.9.3 1-.1 29.3-11.6 1.1-1.1.2-.8v-40l-.2-1-.7-.7-.9-.3-1 .1-29.3 12.5-.7.5-.6 1.4z" fill="#ffffff" fill-opacity="0.6" fill-rule="evenodd" group-id="1,2,4,10" node-id="116" stroke="none" target-height="55.600006" target-width="33.399994" target-x="280" target-y="368.1"/><path d="m230.8 444.2 29.3-11.6 1-.8.3-1.1v-38.5l-.2-1-.7-.7-.9-.3-1 .2-29.3 12.5-1.1 1-.2 38.4.3 1 .6.6.9.4 1-.1z" fill="#ffffff" fill-opacity="0.6" fill-rule="evenodd" group-id="1,2,4,10" node-id="118" stroke="none" target-height="54.099976" target-width="33.399994" target-x="228" target-y="390.2"/><path d="m179.8 464.3 29.3-11.6 1-.7.3-1.2v-36.9l-.2-1-.7-.7-.9-.3-1 .2-29.3 12.5-1.1 1-.2 36.8.3 1 .6.7.9.3 1-.1z" fill="#ffffff" fill-opacity="0.6" fill-rule="evenodd" group-id="1,2,4,10" node-id="120" stroke="none" target-height="52.5" target-width="33.399994" target-x="177" target-y="411.9"/></g><g clip-path="url(#SVGID_4_)" group-id="1,2,4,11" node-id="123"><path d="m813 644-9.3-.4-9.1-.9-8.9-1.5-16.1-3.8-6.5-1.9-14.4-4.9-1.4-.9-1.1-1-1.1-2.8-.1-1.6.4-1.6.9-1.4 1-1.1 2.8-1.1 3.2.3 12.9 4.5 6.2 1.8 15.1 3.6 8.4 1.4 8.5 1 10.2.5 1.4.6 2.2 2.2.6 1.4.2 1.6-.2 1.6-1.6 2.6-2.6 1.6-1.6.2z" fill="#ffffff" fill-rule="nonzero" group-id="1,2,4,11" node-id="125" stroke="none" target-height="24.900024" target-width="74" target-x="745" target-y="619.1"/><path d="m813 647-12.5-.6-15.3-2.3-16.4-3.8-6.6-1.9-14.6-5.1-1.6-.8-2.4-2.4-1.4-3.3v-3.5l.5-1.7 1.2-2.1 1.6-1.6 2-1.2 2.2-.6h2.3l2.4.6 12.8 4.4 6 1.7 14.9 3.5 8.2 1.4 8.3 1 8.4.3 2.4.3 2.1.9 1.9 1.4 1.4 1.9.9 2.1.3 2.4-.3 2.4-.9 2.1-1.4 1.9-1.9 1.4-2.1.9-2.4.3z" fill="#ffffff" fill-rule="nonzero" group-id="1,2,4,11" node-id="127" stroke="none" target-height="30.900024" target-width="79.79999" target-x="742.2" target-y="616.1"/></g><g clip-path="url(#SVGID_4_)" group-id="1,2,4,12" node-id="130"><path d="m921 608-4-.3-3.7-.7-3.6-1.3-3.4-1.7-3-2-2.8-2.5-2.5-2.8-2-3-1.7-3.4-1.3-3.6-.7-3.7-.3-4v-22l.3-4 .7-3.7 1.3-3.6 1.7-3.4 2-3 2.5-2.8 2.8-2.5 3-2 3.4-1.7 3.6-1.3 3.7-.7 4-.3 4 .3 3.7.7 3.6 1.3 3.4 1.7 3 2 2.8 2.5 2.5 2.8 2 3 1.7 3.4 1.3 3.6.7 3.7.3 4v22l-.3 4-.7 3.7-1.3 3.6-1.7 3.4-2 3-2.5 2.8-2.8 2.5-3 2-3.4 1.7-3.6 1.3-3.7.7-4 .3z" fill="#ffffff" fill-rule="nonzero" group-id="1,2,4,12" node-id="132" stroke="none" target-height="80" target-width="58" target-x="892" target-y="528"/><path d="m923 538 34.6 6.2-32.3 23.8z" fill="#ffffff" fill-rule="nonzero" group-id="1,2,4,12,21" node-id="136" stroke="none" target-height="30" target-width="34.599976" target-x="923" target-y="538"/><path d="m925.3 578-2.1-.2-2-.7-1.6-.9-2.5-2.5-1.5-3.1-2.6-31.8.1-2.3.6-2.2 1.1-2 1.5-1.7 1.9-1.4 2-.8 2.3-.4 2.3.2 36.5 6.6 1.7.9 2.8 2.6 1.6 3.6.2 2-.1 1.9-1.3 3.5-2.6 2.9-32.3 23.9-1.9 1-2 .7-2.1.2z" fill="#ffffff" fill-rule="nonzero" group-id="1,2,4,12,21" node-id="138" stroke="none" target-height="50" target-width="54.599976" target-x="913" target-y="528"/></g><g clip-path="url(#SVGID_4_)" group-id="1,2,4,13" node-id="142"><path d="m646 557-4.1-.3-3.9-.8-3.7-1.3-3.5-1.8-3.1-2.1-2.9-2.5-2.6-2.9-2.1-3.2-1.7-3.5-1.3-3.6-.8-3.9-.3-4.1v-23.1l.3-4.1.8-3.9 1.3-3.7 1.7-3.5 2.1-3.1 2.6-2.9 2.9-2.6 3.1-2.1 3.5-1.7 3.7-1.3 3.9-.8 4.1-.3 4.1.3 3.9.8 3.7 1.3 3.5 1.7 3.1 2.1 2.9 2.6 2.6 2.9 2.1 3.1 1.7 3.5 1.3 3.7.8 3.9.3 4.1V527l-.3 4.1-.8 3.9-1.3 3.6-1.7 3.5-2.1 3.2-2.6 2.9-2.9 2.5-3.1 2.1-3.5 1.8-3.7 1.3-3.9.8-4.1.3z" fill="#ffffff" fill-rule="nonzero" group-id="1,2,4,13" node-id="144" stroke="none" target-height="83.100006" target-width="60" target-x="616" target-y="473.9"/><path d="m648.1 484 34.6 6.2-32.3 23.8z" fill="#ffffff" fill-rule="nonzero" group-id="1,2,4,13,22" node-id="148" stroke="none" target-height="30" target-width="34.600037" target-x="648.1" target-y="484"/><path d="m650.4 524-2.1-.2-3.6-1.6-2.5-2.5-1.5-3.1-2.6-31.8.1-2.3.6-2.2 1.1-2 1.5-1.7 1.8-1.4 2.1-.8 2.3-.4 2.2.2 36.6 6.6 1.7.9 2.8 2.6 1.6 3.6.2 2-.1 1.9-1.3 3.5-2.6 2.9-32.4 23.9-1.8 1-2 .7-2.1.2z" fill="#ffffff" fill-rule="nonzero" group-id="1,2,4,13,22" node-id="150" stroke="none" target-height="50" target-width="54.600037" target-x="638.1" target-y="474"/></g><g clip-path="url(#SVGID_4_)" group-id="1,2,4,14" node-id="154"><path d="m207.9 526.8.7-2.2 1.8-1.4 51.7-20.6 9.3-3.5 8-2.4 6.8-1.5 5.7-.8 5-.2 4.3.3 3.8.8 3.3 1.2 2.8 1.7 2.6 2.1 2.4 2.6 2 3.1 1.8 3.7 1.5 4.3 1.3 5.4 1 6.4.6 7.5.2 8.9-.2 9.5-.7 8.5-1.1 7.7-1.4 7-2 6.9-2.5 6.5-3 6-3.5 5.6-4 5.2-4.5 4.9-5.1 4.7-5.8 4.3-6 3.8-6.7 3.7-7.5 3.7-25.4 10.4-1.7 1.4-.7 2.1-.2 54.5-1.2 1.8-1 .6-27.1 10.8-1.3.3-1.2-.2-1.9-1.3-.6-1-.2-1.3V526.8zm49.7 75.5 10.8-5 4-2.4 3.8-2.8 3.2-3.1 2.7-3.4 2.3-3.6 1.8-4.1 1.3-4.4.8-4.5.6-5.4.2-6.4-.2-6.1-.6-4.8-.8-3.8-1-2.8-1.3-2.2-1.4-1.7-1.7-1.3-1.9-.9-2.2-.6-2.6-.2-3.1.2-4 .7-4.9 1.4-5.8 2.1-12.5 5-1.7 1.4-.7 2.1v56.9l.2 1.3 1.5 1.8 2.3.7 10.9-4.1z" fill="#2697fa" fill-rule="nonzero" group-id="1,2,4,14,23" node-id="158" stroke="none" target-height="217.89996" target-width="116.600006" target-x="207.9" target-y="494.2"/><path d="m370.7 651.2-12.7 4.4-5.8 1.6-10.6 2.2-2.2-.3-1.6-1.4-.4-1-.2-27.5.2-1.4.7-1.2 1.1-.8 1.4-.4 11.4-1.9 8.6-2.4 8.3-2.9 8.3-3.9 2.8-1.9 1.9-1.9 1.4-2.1.8-2.3.5-5.6-.1-2.1-1-2.6-1.8-1.4-2-.6-3.1-.4h-3.5l-11.7 1-5.1.1-4.1-.4-3.1-.6-2.5-.9-2.2-1.3-1.9-1.5-2.9-3.9-1.9-5.4-1.2-9.1v-12.5l.7-5.7 1-5.2 1.3-4.8 1.8-4.7 2.1-4.4 2.5-4.1 2.7-3.8 6.6-7 7.9-6 5.7-3.5 6.3-3.2 6.8-2.9 7.4-2.8 10.7-3 7.9-1.1 1.6.2 1.3.8.9 1.2.4 1.6v24.3l-.3 1.4-.7 1.2-1.1.8-10.7 2.2-12.3 3.3-7.7 3.1-3.2 1.8-4.2 3.3-1.5 1.9-1 2.1-.7 2.2-.2 2.5.6 3.8 1.3 1.4 3.1.9h3.2l16.1-1 5.6.2 4.4.7 3.2.9 2.6 1.2 2.2 1.5 1.8 1.7 1.4 2 1.3 2.4 1.6 6.1.8 6.9.3 9.1-.3 6.9-.8 6.5-1.3 6.1-1.4 4.4-1.7 4.3-2.2 4.1-2.5 4-2.8 3.7-3.4 3.7-3.9 3.5-8.9 6.6-5.3 3.1-6 3-6.8 2.9z" fill="#2697fa" fill-rule="nonzero" group-id="1,2,4,14,24" node-id="163" stroke="none" target-height="162.70001" target-width="81.5" target-x="336.5" target-y="496.7"/></g><g clip-path="url(#SVGID_4_)" group-id="1,2,4,15" node-id="167"><path d="m913.2 609.2-.9-1.3-.3-1.2.2-1.1.7-1 1.1-.8 1.5-.4 8.9-1.1 10.8-.7 11.3.3 5.4.7 4.9 1.3 3 1.1 2.6 1.5 2.2 1.7 1.8 2.1 1.3 2.4.8 2.9.1 2.4-.3 2.2-.7 2-1.2 1.8-3.3 2.8-4.9 1.9-3.6.6h-4.2l-4.8-.7-4.8-1.3-5.2-2-5.6-2.8-4-2.5-8.4-6.6-4.4-4.2z" fill="#40ccf5" fill-rule="nonzero" group-id="1,2,4,15" node-id="169" stroke="none" target-height="27.700012" target-width="56.599976" target-x="912" target-y="601.6"/></g><g clip-path="url(#SVGID_4_)" group-id="1,2,4,16" node-id="172"><path d="m653 557.9 1.3-1.1.7-1.2.1-1.2-.3-1.3-.9-1-1.4-.9-9.1-3.6-11.3-3.9-12.2-2.9-7.9-.9-7.1.4-3 .8-2.7 1.2-1.8 1.2-1.6 1.5-2.3 4.1-.8 2.9-.2 2.7.2 2.5.7 2.2 1.2 2.2 1.5 1.9 2 1.7 2.6 1.6 5.7 2.1 3.5.6 7.9.3 8.9-1.2 9.9-2.9 5.1-2 11.3-5.8z" fill="#40ccf5" fill-rule="nonzero" group-id="1,2,4,16" node-id="174" stroke="none" target-height="29.899963" target-width="62.599976" target-x="592.5" target-y="539.9"/></g><g clip-path="url(#SVGID_4_)" group-id="1,2,4,17" node-id="177"><path d="m484 698.9-1.2-.2-2-1.2-1.1-1.9-.2-1.2V284.3l.6-2.3 1.6-1.6 1.1-.5 1.2-.1 2.3.6 1.6 1.6.6 2.3v410.1l-.2 1.2-1.1 1.9-2 1.2-1.2.2z" fill="#ffffff" fill-opacity="0.8" fill-rule="nonzero" group-id="1,2,4,17" node-id="179" stroke="none" target-height="419.10004" target-width="9" target-x="479.5" target-y="279.8"/></g><path d="m1037.5 354.4 1-.1.8-.4.5-.7-.1-1.8-.8-.7-147.7-90.1-4.8-2.7-5-2.3-5.2-1.7-5.4-1.3-484.7-93.3h-1l-1.2 1.1v1.7l.6.7 87.3 71.1 3 2.1 6.9 3.3 4.4 1.5 10.6 2.6 540.8 111z" fill="#072d4d" fill-rule="nonzero" group-id="1,2" node-id="183" stroke="none" target-height="195.09999" target-width="655.9" target-x="383.9" target-y="159.3"/><path d="m149.3 392.9-1 .1-1.4-.8-.4-1.6.5-.9 112.6-125.4 2.9-2.3 3.5-1 3.7.3 102.6 27.9 1.3 1 .1 1.6-.4.6-224 100.5z" fill="#072d4d" fill-rule="nonzero" group-id="1,2" node-id="185" stroke="none" target-height="132" target-width="227.20001" target-x="146.5" target-y="261"/><path d="m579.9 196.3 107.9 89.5 1.5 1.6 1.1 1.8.7 2 .2 2.2 2 147.9.3 1.5.7 1.1 1.1.9 1.3.4h1.4l1.4-.6 39.3-26 1.4-.6h1.4l1.3.4 1.1.9 37.3 41.7 1.2.9 1.4.4 1.4-.1 1.4-.7 35.4-26.8 1.3-.7 1.3-.1 1.3.2 1.2.8 48.5 42.6 1.4.9 1.5.1 1.5-.4 1.2-.8.8-1.3.2-1.6-5.4-146.1-.3-2.1-.8-2-1.1-1.8-1.6-1.5-117.6-89.4-2.6-1.6-2.8-1.3-3-.8-167.2-31.5z" fill="#2697fa" fill-rule="nonzero" group-id="1,2" node-id="187" stroke="none" target-height="282.2" target-width="302.39996" target-x="579.9" target-y="196.3"/><path d="m127.2 230.8 84.3 134.1 25-10.8 20.4-27.3 2.2-1.9 2.8-.8 1.9.2 1.8.7 1.5 1.3 9.3 9.7 16.7-7.5.7-37.5.4-2 .8-1.6 1.4-1.4 29.2-22.4.8-.9.3-.9-.1-1.2-.8-1.4-1.5-.7-194.1-32-1.7.1-1.2 1.1-.5 1.1.4 2z" fill="#f54431" fill-rule="nonzero" group-id="1,2" node-id="189" stroke="none" target-height="138.4" target-width="199.90001" target-x="126.8" target-y="226.5"/><path d="m432.4 221.4-176.8-71.1-1.5-.4-1.5.1-1.5.4-1.3.9-1.1 1.1-.6 1.4-.3 1.5.2 1.6 42.2 172.9 86.1-38.1.9-.6 1.2-1.9.2-7.5-.2-1.5-1.4-2.5-62.8-62.8-.6-1v-.9l.5-.8.7-.6.9-.1 1.1.4 70.6 52.1 1.7.9 1.8.2 1.8-.3 1.7-1 39.4-32.8 1.6-2.4.4-2.8-1.2-2.6-2.2-1.8z" fill="#2e72fa" fill-rule="nonzero" group-id="1,2" node-id="191" stroke="none" target-height="179.9" target-width="187.99998" target-x="247.8" target-y="149.9"/></g></g><g clip-path="url(#SVGID_2_)" group-id="1,3" id="body_6_" node-id="51"><path d="m737.7 1159.9 5 50h85l-6-52z" fill="#f7ca31" fill-rule="nonzero" group-id="1,3" node-id="195" stroke="none" target-height="52" target-width="90" target-x="737.7" target-y="1157.9"/><path d="m760.5 1127.7 14.9-.2 29.6.6 29.3 1.9 35 3.7 19.4 2.6 35.3 5.7 28.4 5.5 19.5 4.2 3.4.2 1.6-.3 2.2-1 2-1.5 1.9-2.7.6-1.6 3-11.9 2.7-15 1.1-8.2.6-8.7.1-8.7-.5-8.6-.7-5.7-1.1-5.5-1.5-5.3-2-5.1-2.4-4.8-2.9-4.4-2.5-3.1-2.8-2.8-3.2-2.6-3.5-2.4-6.1 1-10.2 1.1-11.4.9-30.6 1.2-18.4.3-40.6.1-21.8-.4-46.5-1.4-24.1-1 2.2 83.9z" fill="#ffffff" fill-rule="nonzero" group-id="1,3,5" node-id="199" stroke="none" target-height="109.900024" target-width="232.79999" target-x="758.3" target-y="1042"/><path d="m974.1 1156-3.2-.4-18.7-4.1-27.9-5.4-35.2-5.7-19.4-2.6-21-2.4-28.6-2.4-29.7-1.4-29.8.1-1.5-.3-1.4-.8-.9-1.3-.3-1.5-2.2-83.9.5-2.1.7-.9.9-.7 2.1-.4 34.6 1.4 36.1 1 35.8.4 33.6-.2 29.5-.8 13-.6 19.9-1.8 6.1-1.1 1.5-.1 1.4.5 3.8 2.5 3.4 2.8 3 2.9 2.7 3.2 3.1 4.7 2.6 4.9 2.1 5.3 1.6 5.5 1.3 5.7 1.3 11.8.2 12-.6 9-1 8.5-2.9 15.8-3.1 12.7-1.7 3.8-1.2 1.6-2.1 2-2.6 1.5-1.8.7-4 .6zm-198.2-32.5 14.2.1 28.2 1.3 20.8 1.5 20 2.1 19.6 2.4 35.4 5.3 29.6 5.4 29.1 6.3 3-.1 2.5-1.5.8-1.2.7-1.4 3.6-15.4 2.3-13.5 1.3-14.8.1-7.6-.4-6.9-.7-6.3-1.1-5.6-1.4-5.1-1.7-4.5-2.3-4.6-2.5-4-2.9-3.5-3.3-3-3.6-2.7-6.7 1-10.3 1.1-11.5.7-30 1.2-17.9.3-39.1.1-21.1-.3-44.9-1.3-23.3-1 2 75.6 11.5-.1z" fill="#9fb7c7" fill-rule="nonzero" group-id="1,3,5" node-id="201" stroke="none" target-height="118" target-width="240.79999" target-x="754.3" target-y="1038"/><g clip-path="url(#SVGID_6_)" group-id="1,3,6,18" node-id="206"><path d="m738.7 1160.9 4.5 49H272.7l.1-24.5.5-12.2 2.1-31.5 2-18.5 3.7-26 2.4-14.1 5.9-28.4 3.7-14.8 4.1-14.6 4.7-14.8 5.3-14.8 8.9-21.8 10.3-21.4 5.8-10.4 6.1-10.1 6.5-9.9 6.9-9.6 7.4-9.3 7.8-8.9 8.3-8.5 8.7-8.1 7.3-6.1 7.6-5.8 7.9-5.5 8.4-5.2 8.6-4.8 8.8-4.4 9.3-4 9.6-3.6 10.1-3.2 10.6-2.8 10.4-2.3 11-1.8 11.5-1.3 12.1-.8 12.6-.3 14.3.2 13.7.7 13.3 1.1 12.7 1.5 12.3 1.8 11.9 2.3 14.5 3.3 13.8 3.7 13.3 4.3 12.7 4.6 12.1 5.1 12 5.7 11.5 6.1 11 6.4 10.5 6.8 10 7.1 9.8 7.7 9.3 7.8 8.8 8.2 8.3 8.4 7.9 8.7 7.8 9.2 7.4 9.3 6.9 9.5 6.5 9.7 8.2 13.2 7.5 13.1 6.9 13.1 6.3 13.4 5.8 13 9.9 25.6 7.8 23.8 4.8 17.2 3.8 15 5.3 25.5 3.4 23h-133z" fill="#a3bac9" fill-rule="nonzero" group-id="1,3,6,18" node-id="208" stroke="none" target-height="384.10004" target-width="599" target-x="272.7" target-y="825.8"/></g><g clip-path="url(#SVGID_6_)" group-id="1,3,6,19" node-id="211"><path d="m381.6 982.9 41.3-4.9 2.3-.6 2.1-.9 1.7-1.4 1.4-1.8 1-2.1.5-2.3 5.1-45-.1-1.3-1.1-2-2.1-1-1.2-.1-15 2.2-27.5 4.8-2 .7-1.8 1-1.5 1.3-1.3 1.7-.8 1.8-.5 2.2-5.1 43.4.1 1.2 1.1 2 2.1 1 1.3.1z" fill="#a63700" fill-rule="nonzero" group-id="1,3,6,19" node-id="213" stroke="none" target-height="63.400024" target-width="60" target-x="377" target-y="919.5"/><path d="m353.5 935-16.9 4.5-27.7 8.4-10.4 3.5L278 959l-15.6 17.8-8.4 10.6-7.6 10.7-3.2 5.2-3.6 7.5-.6 2.5.1 3.3.5 1 .9.8 1.3.6 1.9.3 3-.2 4.3-1.1 4.3-1.4 19.3-8.6 15.3-5.9 12.3-3.8 13.6-3.6 14-3.2 15-2.9 2.1-.6 1.8-1 1.6-1.4 1.3-1.7.9-1.9.5-2.1 5.5-40.5-.1-1.4-1.2-2.1-2.3-1-1.4.1z" fill="#093c66" fill-rule="nonzero" group-id="1,3,6,19" node-id="215" stroke="none" target-height="84.39996" target-width="119.5" target-x="239" target-y="934.9"/><path d="m464.8 924.3-3.6 30.6-1.5 15.5.5 2.2 1.5 1.6 2.3.5 44.3-2.4 2.5-.4 2.1-.9 1.9-1.4 1.5-1.8 1.1-2.1.5-2.4 4.7-44.9-.4-2.2-1.5-1.6-2.1-.6h-11.5l-11.1.2-21.9 1.2-2.4.4-2.1 1-1.8 1.3-1.4 1.8-1 2.1-.6 2.3z" fill="#7f47f0" fill-rule="nonzero" group-id="1,3,6,19" node-id="217" stroke="none" target-height="60.700012" target-width="62.899963" target-x="459.7" target-y="914"/></g><g clip-path="url(#SVGID_6_)" group-id="1,3,6,20" node-id="220"><path d="m369.4 1070.6 21.9-2.2 21.4-1.6 2.3-.5 2.1-.9 1.9-1.4 1.4-1.8 1-2.1.5-2.4 4.5-44.8-.5-2.3-1.6-1.6-1-.4-16.3 1.7-27.6 4.1-2.1.6-1.8 1-1.6 1.3-1.3 1.6-.9 1.9-.5 2-6.2 43.3v1.3l1.1 2 2 1.1 1.3.1z" fill="#2ea8fa" fill-rule="nonzero" group-id="1,3,6,20" node-id="222" stroke="none" target-height="62" target-width="61.399994" target-x="365" target-y="1008.6"/><path d="m340.7 1019.9-17 3.9-27.7 7.1-30.5 9-16 17.9-8.7 10.6-7.9 10.8-3.4 5.3-3.7 7.6-.7 2.5v3.5l.5 1.1.8.9 1.3.7 2 .4 2.9-.1 4.4-.9 4.2-1.3 5.7-2.1 13.9-6 15.4-5.4 12.4-3.5 13.7-3.2 14.1-2.8 15-2.6 2.2-.6 1.8-.9 1.7-1.4 1.3-1.7.9-1.9.5-2.2 5.7-40.3v-1.3l-1.2-2.1-2.3-1.1-1.3.1z" fill="#ff8119" fill-rule="nonzero" group-id="1,3,6,20" node-id="224" stroke="none" target-height="81.39996" target-width="120.399994" target-x="225.1" target-y="1019.8"/><path d="m454.3 1015.5-4.5 45.7.4 2.2 1.5 1.6 2.2.6 45.9-1.2 2.5-.4 2.3-.9 2-1.5 1.5-1.9 1.1-2.2.5-2.5 2.7-45.5-.3-1.6-.8-1.3-1.3-1-1.6-.3-11.5-.1-33 1.3-2.5.3-2.1 1-1.9 1.4-1.5 1.8-1.1 2.1-.5 2.4z" fill="#1a1715" fill-rule="nonzero" group-id="1,3,6,20" node-id="226" stroke="none" target-height="60.399963" target-width="62.600037" target-x="449.8" target-y="1005.2"/></g><path d="m671 1081.3-2.5-.6-1.1-.9-6.4-6.9-5.9-7.2-5.3-7.4-9.4-15.1-7.6-15-5.9-13.9-3.6-10-2.6-8.4-3.5-13-1.1-5.7.2-2.6 1.4-2.1 2.4-1.1 2.6.2 2.1 1.5.7 1.1 4.7 18.3 5.9 17.6 4 9.9 5.1 10.8 3.7 7.1 8.9 14.5 5.1 7 5.5 6.8 6.9 7.7.7 2.5-.7 2.4-1.9 1.9-2.4.6z" fill="#ffffff" fill-rule="nonzero" group-id="1,3" node-id="230" stroke="none" target-height="109.900024" target-width="59.900024" target-x="616.1" target-y="971.4"/><path d="m499.4 1086.2-1.7-1.2-2.5-.7-2.1.5-1.5 1.8-.8 2.1-.5 3.6-.1 3.3.3 3.2 1.5 6.1 2.5 5.2 1.6 2.2 3.4 3.1 2 1 1.9.3 2.1-.2 1.4-.6 1.4-1.2 1.4-1.8 1.9-4.6 1.3-7.8.1-5.5-.4-5.7-1.1-5.8-2.4-7.7-2.7-5.8-1.7-2.1-2.2-1.9-4.5-2.4-4-.7-2 .2-2.1.5-2.1 1.1-1.8 1.4-1.9 2-1.8 2.9-1.5 3-1.4 4-1.3 5.2-.9 6.1-.3 5.7.3 5.4.7 5.3 1.2 4.9 1.5 4.5 2 4.4 2.1 3.8 2.4 3.3 2.7 3.1 2.7 2.5 2.7 1.9 2.9 1.5 2.7.9 2.6.3 5.3-.8 3-1.1 2.7-1.6 2.8-2.1 2.8-3 3.5-5.2 3.1-7.5 1.1-4 1.6-10 .4-6.2-.1-6.3-.5-5.8-.9-5.3-1.3-4.8-1.7-4.8-4.2-8.1-2.4-3.3-5.6-6-2.8-2.4-6.1-3.5-6-1.9-5.2-.4-6 1-3.1 1.1-3.1 1.6-3.4 2.2-3 2.5-2.9 3.2-2.9 3.9-3.5 6.7-1.6 4.2-2.3 9.3-.7 5.3-.5 12.6 1.1 11.5 2.3 9.4 2.3 6 2.6 5.2 2.9 4.5 6.6 8 3.3 3.1 5.3 4.1 4.6 3 4.4 2.4 6.1 2.5 43.1-6.3 62.8-8 36.7-4.1 38-3.5-5.3-30-2.7-17.4-4.2-32.7-1.4-14.8-87.1-5.9-88.5-7.3 15.2 21.2" fill="#ffffff" fill-rule="nonzero" group-id="1,3,7" node-id="234" stroke="none" target-height="130" target-width="222.1" target-x="459.9" target-y="1026"/><path d="m501.4 1160-4.6-1.5-3.3-1.5-7.9-4.5-7.2-5.5-3.7-3.5-3.9-4.4-4.8-6.8-4.4-8.3-3.3-10-1.2-5.3-.8-5.8-.4-6.5.1-6.7 1.1-11.2 1-5.2 2.6-8.4 1.7-3.8 3.4-6.1 2.9-3.8 2.7-2.9 3.7-3 3.9-2.5 4-2 4.3-1.3 4.2-.7h5.6l-8.1-11.5-.1-2.2.5-1.1.7-.9 1.9-1 90.2 7.3 86.5 5.8 1.7.5 1.1 1 .7 1.3 1.8 17.9 3.9 30.2 2.6 16.5 5.5 31.2-.2 1.6-.8 1.3-1.1.9-1.6.5-37.5 3.5-36.4 4-62.7 8-44.3 6.4zm-7.4-113.3-5 .6-3.1 1-2.9 1.4-3 1.9-5 4.6-4.3 6.2-1.8 3.6-1.7 4.5-1.5 5.5-1 5.5-.6 6.7-.2 8 .5 6.8.9 6 1.3 5.4 1.9 5.2 2 4.7 2.4 4.1 2.6 3.9 5.5 6.3 4.5 4 4.1 3 4.1 2.6 8.1 3.7 60.7-8.7 35.1-4.4 38.9-4.4 40.8-3.9-7.3-43.2-3.2-24.5-2.2-19.8-82.7-5.6-80.8-6.6 9.4 13 6.3 5 2.9 3.1 2.9 3.6 2.5 3.8 2.2 4.1 2 4.6 1.7 5 1.3 5 .9 5.4.4 5.8.1 6.2-1.1 12-2.2 9.2-3.3 8.1-3.9 5.9-3.1 3.4-3.2 2.5-3.3 1.9-3.5 1.3-3.3.8-3.4.3-3.1-.4-3.2-.9-3.3-1.6-3.1-2.1-3.1-2.6-3-3.3-3.1-4.3-2.7-4.6-2.1-4.9-1.7-5.2-1.2-5.5-.7-5.6-.2-5.7.4-5.8.9-5.9 2.1-7.9 1.6-3.8 1.9-3.5 3.4-4 4.1-2.9 2.5-.9 2.8-.5 2.7.1 2.6.4 5 2.1 2.2 1.4 3.7 3.6 2.3 3.9 3.1 7.6 1.1 4 1.1 6 .5 5.8v5.6l-1.1 8.4-1.8 5.3-2.6 4.1-3.3 2.6-3.6.9-3.7-.4-3.6-1.6-3.7-3.2-1.7-2.2-1.6-2.6-2.4-5.8-1.4-6.4-.2-3.3.1-3.2.5-3.8.9-2.8 1.2-2.1 1.5-1.5 1.7-1 3.2-.5 3.4.8 3.3 2.1 1 1.3.4 1.4-.2 1.5-.8 1.4-1.3 1-1.5.4-1.5-.2-2.9-1.7-1 4.3.1 4 .5 3.8 1.1 3.5 1.3 3 1.7 2.6 1.7 1.8 1.5 1 1.2.4h1.2l.9-.8 1.4-2.1 1-3.1.8-4 .4-4.3v-4.8l-.5-4.9-1-5.1-1.6-5-2.2-5.2-.8-1.4-1.4-1.6-3.8-2.6-2.2-.7-2.3-.2-1.8.4-1.6.9-1.7 1.4-1.6 2-1.6 3.1-1.5 4-1.4 5.2-.7 5.2-.4 5 .2 4.9.5 4.9 1 4.7 1.4 4.4 1.9 4.3 2.2 3.9 2.7 3.6 2.1 2.4 4.3 3.5 2.2 1.2 2.1.6 1.9.3 2.4-.2 2.5-.7 2.6-1.1 2.4-1.5 2.3-2.1 2.3-2.8 1.9-3.1 1.8-3.8 1.6-4.7 1.2-4.9.8-5.8.5-6.9v-5.8l-.5-5.2-1.8-9-3.1-8.2-3.9-6.5-3.1-3.8-3.2-3.1-5.1-3.7-3.6-1.7-3.3-1.1-4.1-.4z" fill="#9fb7c7" fill-rule="nonzero" group-id="1,3,7" node-id="236" stroke="none" target-height="137.90002" target-width="230.1" target-x="455.9" target-y="1022.1"/><path d="m758.3 1168.8-16.4-.2-12.8-.7-11.6-1-14-2.4-7.6-2.2-5.7-2.7-1.8-1.3-2.3-2.2-2.4-3.7-1.3-2.7-2.7-8-1.5-5.5-3.5-16.3-2-11.5-4.2-28.4-4.8-38.4-5.9-55.1-3.8-41.7.1-1.4 1.1-2.3 2-1.4 1.4-.3h1.3l2.3 1.1 1.5 2.1.3 1.3 5.7 60.8 3.5 32.4 3.9 31.5 4 28.7 4.1 24 2.1 10.1 3.3 12.2 1.3 2.9 1.9 3.2 2.7 2 3 1.3 9.6 2.5 6.7 1.1 9.5 1 10.6.7 14.2.4 15.4.1 32.8-1 36.4-2.2 37.8-3.2 2.6.4 1.9 1.6.6 1.1.4 1.3-.4 2.6-1.6 2-2.5.9-38 3.3-23.9 1.5-26.1 1.2-27.2.5z" fill="#ffffff" fill-rule="nonzero" group-id="1,3" node-id="239" stroke="none" target-height="229.40002" target-width="224" target-x="654" target-y="939.4"/></g></g></svg>