<?xml version="1.0" standalone="no"?><svg xmlns="http://www.w3.org/2000/svg" width="1200" height="1200" viewBox="0 0 1200 1200"><defs><clipPath id="a"><path d="M0 0h1200v1200H0Z"/></clipPath><clipPath id="b"><path d="m769 915.8 262.5-64.3 2.9-.9 2.7-1.3 2.3-1.7 2.2-2 1.7-2.3 1.5-2.5 1.1-2.7.6-2.9.3-3 1.9-460.6-.2-1.9-1.1-3.4-1.4-2.3-2-1.9-3.2-1.8-1.8-.5-543.8-105.7-4.1-.6-4.1-.1-4 .2-4.1.7-3.9 1.1-3.9 1.5-323.2 141.6-2 1.2-1.8 1.5-1.4 1.8-1.1 2-.6 2.2-.2 2.4 1.9 439.8.2 3.3.8 3.1 1.3 2.9 1.6 2.6 2.1 2.3 2.4 2.1 2.6 1.6 3 1.1 3.2.8 209.2 28.9 361.7 26 38.2-8.3Z"/></clipPath><clipPath id="c"><path d="m738.7 1160.9 4.5 49H272.7l.1-24.5.5-12.2 2.1-31.5 2-18.5 3.7-26 2.4-14.1 5.9-28.4 3.7-14.8 4.1-14.6 4.7-14.8 5.3-14.8 8.9-21.8 10.3-21.4 5.8-10.4 6.1-10.1 6.5-9.9 6.9-9.6 7.4-9.3 7.8-8.9 8.3-8.5 8.7-8.1 7.3-6.1 7.6-5.8 7.9-5.5 8.4-5.2 8.6-4.8 8.8-4.4 9.3-4 9.6-3.6 10.1-3.2 10.6-2.8 10.4-2.3 11-1.8 11.5-1.3 12.1-.8 12.6-.3 14.3.2 13.7.7 13.3 1.1 12.7 1.5 12.3 1.8 11.9 2.3 14.5 3.3 13.8 3.7 13.3 4.3 12.7 4.6 12.1 5.1 12 5.7 11.5 6.1 11 6.4 10.5 6.8 10 7.1 9.8 7.7 9.3 7.8 8.8 8.2 8.3 8.4 7.9 8.7 7.8 9.2 7.4 9.3 6.9 9.5 6.5 9.7 8.2 13.2 7.5 13.1 6.9 13.1 6.3 13.4 5.8 13 9.9 25.6 7.8 23.8 4.8 17.2 3.8 15 5.3 25.5 3.4 23h-133Z"/></clipPath></defs><path fill="#fce3d7" d="M0 0h1200v1200H0Z"/><g><g><g clip-path="url(#a)"><path fill="#f28d00" d="m582.5 188.9 3.5-86.8-56-2.2-3.1 78.3Z"/><path fill="#f2b60c" d="m447.2 153 .3 10 56.4 10.8-1-26.6-1.3-8.3-5.7-27.4-3.7-15.6-4.2-16.4-2-2.9-2.9-1.9-3.3-.9-3.6.3-36.3 10.5-2.8 2-1.5 2-1 2.3-.3 3.4.3 1.8 6.7 28.2 5.9 28.7Z"/><path fill="#f2b60c" d="m466.8 240.2-18.3-15 .5 32.6 27.9-11.8-5.3-2.6-4.8-3.2Z"/><path fill="#f2b60c" d="m872.3 244.7 6.1 1.5 5.9 2 5.6 2.5L904 259l4.8-8.2 2-2.6 2.7-2.7 7.5-5.2 9.3-4.9 7.6-3.2 8.1-2.9 16-4.6 2.4-.9 2-1.4 1.6-1.9 1.1-2.2.6-2.4-.1-2.5-5.8-35.6-.5-1.8-1.8-3.1-2.7-2.2-3.4-1.2-3.7.2-20 5.4-17.3 6.2-8.4 3.6-7.6 3.8-6.9 4-6.2 4-6.2 4.7-5.4 4.8-4.8 4.9-4.2 5.1-3.5 5.2-6.1 10.1-4.8 9 22 4.2Z"/><path fill="#fab90a" d="m631.2 198.3-1.1-42.7 13.2-62 .2-1.8-.5-3.4-.7-1.6-2-2.6-2.9-1.9-37-8-3.6-.2-3.2 1.1-2.7 2.1-1 1.4-1.4 3.2-14.6 68.5 1 37.1 56.3 10.8Z"/><path fill="#ffd219" d="m489.6 171 51.6 10-11.1-87.3-1.1-3.3-2.1-2.7-2.8-1.9-3.4-.8-33.4 4.3-3 1.6-1.3 1.2-1.8 2.8-.8 3.4.1 1.8 9.1 70.9Z"/><path fill="#f28d00" d="M666 178.7V205l52 10v-43.7l-7.4-49.8-1.3-3.6-2.3-2.7-3.1-1.7-3.6-.6-35.8 8.2-3.2 1.3-1.4 1.1-1.6 1.9-1.1 2.2-.4 1.7.1 3.5 9.1 45.9Z"/><path fill="#f2b60c" d="m782.3 227.4 1.6-47.4 6.2-39.7-.6-3.3-1.7-2.9-2.6-2.2-3.4-1.2-33.4-5.5-1.7.2-3.2 1.2-2.6 2.2-1 1.4-1.2 3.4-6.6 40.4-2.5 43.2 52.7 10.2Z"/><path fill="#ffd219" d="m827.6 236.1 2.7-8.8 3-7.9 3-7.1 6.9-13.2 3.3-5.4 5.4-7.5 4.8-6 10.3-10.8 1-2.1.6-2.3v-2.3l-.6-2.3-1.2-2.2-18-25.9-2.7-2.6-3.2-1.5-3.5-.2-3.5 1.1-6.1 4.8-5.8 5.4-8 8.7-4.5 5.6-5.8 7.9-5.4 8.2-5 8.7-4.7 9-4.1 9.3-3.8 9.5-3.3 9.9-3 10.2 51.2 9.8Z"/><path fill="#ffd219" d="m953.7 289.4 8.3-3.5 2.2-.5 2.2-.1 30.2 3.8 3.3-.7 2.2-1.1 1.8-1.7 1-1.4 1.2-3.2 5.7-29.4.2-1.9-.6-3.5-1.8-3-2.7-2.2-3.4-1.2-29.1-3.9-11.1-.9-6.2.5-8.7 2.3-12.6 4.9-17.5 8.4-14.6 7.8 50 30.5Z"/><g clip-path="url(#b)"><path fill="#f44f2e" d="m759 924.8 285.8-66.8.7-.5.8-1.6 1.3-4.2 1.1-5.9V360.7L495.2 253.1l-4.1-.6-4.1-.1-4 .2-4.1.7-3.9 1.1-3.9 1.5-330.4 144.8v475.1l230.5 28.3L759 924.8Z"/></g><g fill="#fff" clip-path="url(#b)"><path d="m833.5 643.8-19.9-1-22.7-2.7-23.1-4.4-17.2-4.4-11.1-3.4-1.5-.8-1.1-1-1.3-2.8-.1-1.5.3-1.6.8-1.5 1-1.1 2.8-1.3 1.5-.1 1.6.3 18 5.3 8.7 2.1 22.4 4.3 22 2.6 20.6 1.2 1.4.6 2.1 2.2.8 3.1-.3 1.6-.5 1.4-1 1.2-2.6 1.5-1.6.2Z"/><path d="m833.5 646.8-20.2-1-22.9-2.8-12-2-11.3-2.4-17.4-4.4-11.2-3.5-2.2-1.1-1.7-1.6-1.2-1.9-.7-2.2-.2-2.3.5-2.4 1.1-2.2 1.6-1.7 1.9-1.2 2.2-.7 2.3-.2 2.4.5 17.8 5.2 8.7 2 22.1 4.3 21.7 2.6 18.8 1 3.5.7 2.9 2 1.9 3 .6 3.4-.4 2.4-.9 2.1-1.4 1.8-1.8 1.4-2.1.9-2.4.3Z"/></g><g clip-path="url(#b)"><path fill="#fff" d="m921 609-4-.3-3.7-.7-3.6-1.3-3.4-1.7-3-2-2.8-2.5-2.5-2.8-2-3-1.7-3.4-1.3-3.6-.7-3.7-.3-4v-22l.3-4 .7-3.7 1.3-3.6 1.7-3.4 2-3 2.5-2.8 2.8-2.5 3-2 3.4-1.7 3.6-1.3 3.7-.7 4-.3 4 .3 3.7.7 3.6 1.3 3.4 1.7 3 2 2.8 2.5 2.5 2.8 2 3 1.7 3.4 1.3 3.6.7 3.7.3 4v22l-.3 4-.7 3.7-1.3 3.6-1.7 3.4-2 3-2.5 2.8-2.8 2.5-3 2-3.4 1.7-3.6 1.3-3.7.7-4 .3Z"/></g><g clip-path="url(#b)"><path fill="#fff" d="m626.5 561-4.5-.8-2.1-.9-3.7-2.8-1.5-1.9-1.2-2.3-.7-2.3-.3-2.4.1-2.4.4-2.3.9-2.2 1.3-2.1 1.6-1.8 2-1.6 26.8-17.4-29-29.1-1.7-2-1.2-2.1-.8-2.2-.4-2.4v-2.4l.4-2.4.8-2.2 1.2-2.1 1.7-2 1.9-1.6 2.1-1.2 4.7-1.3h2.3l2.4.5 2.3.8 2.1 1.2 2 1.6 37.8 37.9 3.2 4.2 1.7 5 .3 2.6v2.7l-1.4 5.1-2.7 4.5-1.8 1.9-39.4 25.9-2.5 1.3-2.5.7-2.6.3Z"/></g><g clip-path="url(#b)"><path fill="#1d0b09" fill-opacity=".3" d="m382.9 901.8-224.6-31.7-2.7-1-.9-.8-1.1-1.6-.4-1.9.1-1.9.6-1.8 1.8-1.8 1.4-.7 311.3-113.2 5-1.6 5.2-1.2 5.2-.6 5.3-.2 5.3.2 5.2.8 532.7 97.9 2.6 1.2.9.9 1 1.6.4 1.9-.2 1.9-.8 1.8-1.9 1.8-1.4.6-29.2 8.6-265.9 65.3-354.9-24.5Z"/></g><g fill="#fff" fill-opacity=".8" fill-rule="evenodd" clip-path="url(#b)"><path d="M280 382.6v39.1l.3 1 .6.7.9.3 1-.1 29.3-11.6 1.1-1.1.2-.8v-40l-.2-1-.7-.7-.9-.3-1 .1-29.3 12.5-.7.5-.6 1.4Z"/><path d="m230.8 444.2 29.3-11.6 1-.8.3-1.1v-38.5l-.2-1-.7-.7-.9-.3-1 .2-29.3 12.5-1.1 1-.2 38.4.3 1 .6.6.9.4 1-.1Z"/><path d="m179.8 464.3 29.3-11.6 1-.7.3-1.2v-36.9l-.2-1-.7-.7-.9-.3-1 .2-29.3 12.5-1.1 1-.2 36.8.3 1 .6.7.9.3 1-.1Z"/></g><g clip-path="url(#b)"><path fill="#ffd219" d="m1072.7 408-14.8 8.8-8 4.2-8.6 3.9-11.5 4.8-12.2 4.3-12.9 4-13 3.4-13.7 2.9-14.2 2.5-14.4 2-14.6 1.5-15.1 1-15.5.5h-15.9l-15.6-.5-16-1-16.3-1.5-16.7-2-17.1-2.5-22.1-3.8-21.9-4.2-21.6-4.6-21.5-5-21.1-5.3-20.6-5.8-20.4-6.2-19.7-6.5-19.1-6.9-24.6-9.9-11.6-5.2-22.1-10.9-24.4-13.5-12.5-7.5-20.8-13.5-13.6-9.7-2-1.1-1.7-.5-1.5-.1-1.5.5-1.5 1-12.6 14.9-7.9 8.6-10.6 10.6-7.5 7.1-18.7 16.1-10.2 8.1-11.5 8.5-12.8 8.8-13.1 8.5-14.4 8.5-15.7 8.7-24.6 12.2-27.7 12-23.8 8.6-21.9 6.4-14.6 3.4-13.7 2.7-12.8 1.9-12.8 1.5-11.8.8-10.8.4h-10.9l-18.2-.9-12.3-1.3-9.5-1.4-8.4-1.7-10-2.6 20 36 18.9 3.1 21.4 1.9 12.8.6H190l20.9-1 22.9-2.5 11.9-2 12.4-2.5 12.3-3.1 12.5-3.7 12.9-4.4 32.3-13.2 28.4-13.1 13.8-7 12.9-7 12.1-7.1 11.3-7.1 11.2-7.5 10.5-7.8 9.8-7.8 9.2-8 9-8.4 8.4-8.7 7.9-8.9 9.3-11.4 1.6-1.4 1.3-.7 1.5-.2 1.7.3 2 1 23.3 14 12.7 6.9 13.4 6.8 27.3 12.8 29.7 12.4 20.3 7.6 21.1 7.3 21.9 7 22.2 6.5 22.7 6.1 23.5 5.7 23.5 5.2 24.1 4.8 24.4 4.2 16.6 2.5 16.3 2 16 1.5 16 1.2 15.7.6 15.5.2 14.8-.2 14.4-.8 14.2-1.2 13.8-1.8 13.8-2.2 13.4-2.6 13-3 12.6-3.4 12.5-3.9 12.1-4.2 11.6-4.6 11.2-4.8 11.1-5.3 10.5-5.5 10-5.8 9.5-6-22-26.4Z"/></g><g clip-path="url(#b)"><path fill="#fff" fill-opacity=".9" d="m484 698.9-1.2-.2-2-1.2-1.1-1.9-.2-1.2V284.3l.6-2.3 1.6-1.6 1.1-.5 1.2-.1 2.3.6 1.6 1.6.6 2.3v410.1l-.2 1.2-1.1 1.9-2 1.2-1.2.2Z"/></g><path fill="#ffd219" d="m378.2 290.6.8-41.3.5-9.7 1.2-11.3 3.6-24.2 4.8-25.2 5.2-24.2 9.1-37.2 1.5-3.2 1.1-1.3 2.8-2 3.3-.9 3.5.3 36.6 9.9 2.8 1.9 1.5 2 1 2.3.4 1.7-.3 3.5-9.1 40.5-4.8 23.9-4.3 23.7-3 21.5-1 9.7-.7 14.9-56.5 24.7Z"/><path fill="#f44f2e" d="m1037.5 354.4 1-.1.8-.4.5-.7-.1-1.8-.8-.7-147.7-90.1-4.8-2.7-5-2.3-5.2-1.7-5.4-1.3-484.7-93.3h-1l-1.2 1.1v1.7l.6.7 87.3 71.1 3 2.1 6.9 3.3 4.4 1.5 10.6 2.6 540.8 111Z"/><path fill="#e84a2c" d="m149.3 392.9-1 .1-1.4-.8-.4-1.6.5-.9 108.7-121.1 2.8-2.1 3.3-1.1 3.5.1 107 23.7 1.3 1 .1 1.6-.4.7-224 100.4Z"/><path fill="#f2ad0c" d="m318.5 310.9-12.8-73.3-10.2-54.9-1.2-7.9-2.2-17.3-1.8-18.2-2.5-32.9 1-3.3 2-2.7 2.8-1.9 3.5-.9 51.7-3.2 3.3 1 2.1 1.4 1.7 1.9.8 1.5.9 3.4 4.1 45.7 2.7 20.7 22.8 116.6L321 316l-2.5-5.1Z"/><path fill="#ffd219" d="M285.9 338.1 263.2 214l-17.4-38.6-.9-3.4v-1.7l1-3.3 1.9-2.8 1.4-1.1 38-17.3 3.5-.9 3.4.4 3 1.4 2.4 2.5 21.4 46.8 21.5 117.4-56.5 24.7Z"/><path fill="#fabe19" d="m232.1 356-2.1-3.9-4.1-6.6-11.4-16.4-15.2-20.4-17.7-22.8-18.6-23.3-1.7-3.1-.5-1.7.1-3.4 1.2-3.2 1-1.4 24.5-20.3 3.1-1.7 3.4-.6 3.3.7 3 1.7 1.3 1.3 21.8 27.3 26.2 34.4 17.3 24.6 8.2 13.4 2.5 5-45.6 20.4Z"/><path fill="#25b83b" d="m579.9 196.3 107.9 89.5 1.5 1.6 1.1 1.8.7 2 .2 2.2 2 147.9.3 1.5.7 1.1 1.1.9 1.3.4h1.4l1.4-.6 39.3-26 1.4-.6h1.4l1.3.4 1.1.9 37.3 41.7 1.2.9 1.4.4 1.4-.1 1.4-.7 35.4-26.8 1.3-.7 1.3-.1 1.3.2 1.2.8 48.5 42.6 1.4.9 1.5.1 1.5-.4 1.2-.8.8-1.3.2-1.6-5.4-146.1-.3-2.1-.8-2-1.1-1.8-1.6-1.5-117.6-89.4-2.6-1.6-2.8-1.3-3-.8-167.2-31.5Z"/></g></g><g clip-path="url(#a)"><path fill="#fab90a" d="m737.7 1159.9 5 50h85l-6-52Z"/><g clip-path="url(#c)"><path fill="#fff" d="m738.7 1160.9 4.5 49H272.7l.1-24.5.5-12.2 2.1-31.5 2-18.5 3.7-26 2.4-14.1 5.9-28.4 3.7-14.8 4.1-14.6 4.7-14.8 5.3-14.8 8.9-21.8 10.3-21.4 5.8-10.4 6.1-10.1 6.5-9.9 6.9-9.6 7.4-9.3 7.8-8.9 8.3-8.5 8.7-8.1 7.3-6.1 7.6-5.8 7.9-5.5 8.4-5.2 8.6-4.8 8.8-4.4 9.3-4 9.6-3.6 10.1-3.2 10.6-2.8 10.4-2.3 11-1.8 11.5-1.3 12.1-.8 12.6-.3 14.3.2 13.7.7 13.3 1.1 12.7 1.5 12.3 1.8 11.9 2.3 14.5 3.3 13.8 3.7 13.3 4.3 12.7 4.6 12.1 5.1 12 5.7 11.5 6.1 11 6.4 10.5 6.8 10 7.1 9.8 7.7 9.3 7.8 8.8 8.2 8.3 8.4 7.9 8.7 7.8 9.2 7.4 9.3 6.9 9.5 6.5 9.7 8.2 13.2 7.5 13.1 6.9 13.1 6.3 13.4 5.8 13 9.9 25.6 7.8 23.8 4.8 17.2 3.8 15 5.3 25.5 3.4 23h-133Z"/></g><g clip-path="url(#c)"><path fill="#f44f2e" d="m794.9 1165.7-3-21.5-6.6-40-6.9-34.6-3.9-17.5-9.4-36.3-5.3-18.2-5.8-18.3-6.3-18.3-6.8-18-7.3-17.8-7.9-17.5-12.1-24-5.3-9.4-8.1-13.3-6.4-9.7-6-8.3-7.6-9.4 14.4-13.9 8.5 10.3 6.4 8.8 6.8 10.2 8.5 13.9 5.6 9.8 12.7 25.1 5.7 12.4 6.3 14.5 6.7 17 6.3 17.1 6.6 19.4 6.7 21.9 9.3 34 9.1 39.6 4 20.2 3.8 21.5 3.7 23.1 3.4 24.7-19.8 2.5Z"/></g><g clip-path="url(#c)"><path fill="#f44f2e" d="m749.9 1165.6-3.6-27.3-3.9-25.6-4-23.9-4.5-23.9-9.2-42.4-9.6-38.5-11.7-40.4-6.3-19.5-6.9-19.6-11.9-30.8-9.1-20.8-5.6-11.5 17.6-9.5 6 12.3 4.5 10 10.9 26.4 6.2 16.4 7 20.1 6.4 19.9 7.3 24.3 9.6 35.5 9.6 41.3 4.7 22.5 4.6 24.3 4.1 24.4 3.9 26.1 3.7 27.8-19.8 2.4Z"/></g><g clip-path="url(#c)"><path fill="#ffd219" d="M743.2 1219.9H263.1l-.5-16.7.6-28.7 1.9-29.6 1.8-17.5 2.2-18.1 3.1-19.7 2.7-14.7 6.2-28.1 7.3-26.8 4.1-12.8 8.9-24.3 5.1-12.1 5.3-11.5 5.5-10.9 5.8-10.5 5.9-10 6.5-9.9 6.6-9.3 6.9-8.9 7-8.3 7.3-7.9 8.4-8.3 8.6-7.7 8.9-7.1 9.1-6.6 9.4-6 9.7-5.6 10-5 10.2-4.5 10.4-3.9 10.6-3.4 11-2.9 11.3-2.4 11.6-1.9 12-1.4 12.4-.8 12.8-.3 16.6.3 15.7.9 14.9 1.4 14.2 1.8 14.3 2.5 13.5 2.9 12.9 3.2 12.1 3.6 12.3 4.1 11.5 4.3 10.9 4.6 10.3 4.9 10.2 5.3 18.7 11 8.6 5.6 11.1 8.1 10.1 8 9.3 8 8.9 8.4 8 8.1 7.2 7.9 8.7 10.4 8.3 10.6 7.6 10.8 7.3 11 6.7 11 6.3 11 5.9 11.1 10.3 21.7 6.8 16 5.7 15.1 5.2 14.7 4.2 13.3 4.9 17.2 3.8 15.2 3.1 14.3 4 22 1.9 13.8-19.9 2-1.8-12.8-3.8-21.2-3.1-13.9-3.7-14.7-4.7-16.6-8.9-26.7-5.5-14.3-6.5-15.3-4.7-10.1-10.7-21-5.9-10.4-6.4-10.5-6.8-10.4-7.3-10.2-7.8-10.1-8.3-9.8-8.2-9-8.6-8.6-8.9-8.1-9.2-7.7-9.5-7.3-9.9-6.8-10.2-6.5-10.3-5.9-10.7-5.6-11-5.1-11.4-4.7-11.6-4.3-12-3.9-12.3-3.4-12.3-2.9-12.5-2.5-12.8-2.1-13.2-1.6-13.5-1.1-13.8-.8-14.3-.2-11.7.3-11.3.7-11 1.3-10.7 1.7-10.3 2.2-10 2.6-9.8 3.1-9.4 3.6-9.4 4.1-9.1 4.5-8.8 5-8.6 5.5-8.3 6-8.1 6.5-7.8 7-7.7 7.5-6.4 7-12 14.7-5.5 7.7-7 10.5-6.4 10.8-6.1 11.1-5.5 11.3-5.2 11.4-4.7 11.5-4.4 11.6-7.5 22.9-4.8 17.1-4 16.4-3.5 16.2-2.7 14.9-2.8 17.9-2.2 16.7-2.8 30.4-1.3 24.8-.3 17.6h460.6v20Z"/></g><path fill="#ffd219" d="m875 1156.8-.4-1.3-1.5-2.1-2.3-1h-1.3l-37.2 3.2-35.7 2.2-32.3.9h-15.2l-13.8-.4-10.5-.7-9.4-1-6.6-1.1-9.4-2.5-4.5-2.3-1.1-1-1.9-3.2-2.8-7.6-3.9-17.6-4.1-24.1-4-28.6-3.9-31.5-3.5-32.5-6-62-.6-1.2-2-1.6-2.5-.5-1.4.3-2 1.5-1.1 2.3-.1 1.3 6.5 68 5.9 51-5.1-6.4-8.8-13.2-3.9-6.8-6.6-13.1-4.2-9.7-6.2-17.3-2.1-7-4-16.1-.7-1-2.1-1.5-2.6-.2-2.4 1.1-1.4 2.1-.3 1.2.1 1.4 2.4 11 4.8 16.1 6.3 16.7 6.8 14.8 8.4 14.9 5 7.6 5.3 7.4 5.9 7.1 6.4 7 1.2.9 2.2 15.7 4 23.7 1.7 8.6 3.2 13.1 1.5 4.8 2.5 5.8 2.4 3.6 2.3 2.3 1.7 1.2 5.7 2.8 3.2 1.1 9.6 2.2 8.5 1.3 11.4 1 12.6.6 28.4.2 40.2-1.6 23.4-1.6 37.4-3.2 1.3-.3 2.1-1.5 1-2.3.1-1.4Z"/></g></g></svg>