<!--version="1.0" standalone="no"--><!DOCTYPE html PUBLIC "-//W3C//DTD SVG 1.1//EN" "http://www.w3.org/Graphics/SVG/1.1/DTD/svg11.dtd"><svg height="1200" node-id="1" sillyvg="true" template-height="1200" template-width="1200" version="1.1" viewBox="0 0 1200 1200" width="1200" xmlns="http://www.w3.org/2000/svg" preserveAspectRatio="xMidYMid meet" zoomAndPan="magnify" contentScriptType="application/ecmascript" contentStyleType="text/css"><defs node-id="75"><clipPath id="SVGID_2_" node-id="8"><path d="M0 0h1200v1200H0z" fill="#000000" fill-rule="nonzero" node-id="78" stroke="none" target-height="1200" target-width="1200" target-x="0" target-y="0"/></clipPath><clipPath id="SVGID_4_" node-id="16"><path d="m769 915.8 262.5-64.3 2.9-.9 2.7-1.3 2.3-1.7 2.2-2 1.7-2.3 1.5-2.5 1.1-2.7.6-2.9.3-3 1.9-460.6-.2-1.9-1.1-3.4-1.4-2.3-2-1.9-3.2-1.8-1.8-.5-543.8-105.7-4.1-.6-4.1-.1-4 .2-4.1.7-3.9 1.1-3.9 1.5-323.2 141.6-2 1.2-1.8 1.5-1.4 1.8-1.1 2-.6 2.2-.2 2.4 1.9 439.8.2 3.3.8 3.1 1.3 2.9 1.6 2.6 2.1 2.3 2.4 2.1 2.6 1.6 3 1.1 3.2.8 209.2 28.9 361.7 26 38.2-8.3z" fill="#000000" fill-rule="nonzero" node-id="82" stroke="none" target-height="670.69995" target-width="907.89996" target-x="140.8" target-y="253.4"/></clipPath><clipPath id="SVGID_6_" node-id="27"><path d="M956 651.2 814.4 625 576 595.2l3.2 7.3 5.8 9.5 7.8 9.5 4.5 4.7 5.7 5.1 6.7 5.5 11.1 7.6 6.6 3.9 14.8 7.5 8.2 3.4 19.1 6.7 9.9 2.8 10.9 2.6 11.9 2.4 13.1 2.2 15.6 1.9 15.3 1.4 15.1.8 15 .3 14.7-.2 14.2-.5 27.8-2.2 12.9-1.5 19.1-2.7 17.1-3 16.4-3.3 27.1-6.5 10.2-2.9 20.2-6.3z" fill="#000000" fill-rule="nonzero" node-id="86" stroke="none" target-height="85.099976" target-width="380" target-x="576" target-y="595.2"/></clipPath><clipPath id="SVGID_8_" node-id="69"><path d="m739.1 1164.5 3.7 41v1.2l-1 1.9-1.8 1.1-1.1.2H276.7l-1.6-.3-1.3-.9-.8-1.2-.3-1.6.3-27.4 1.9-30.6 1.8-18.4 3.4-25.9 2.3-14.2 5.7-28.7 3.5-15 4-14.9 4.6-15 5.2-15.1 4.2-11.2 9.5-22.1 5.3-10.9 5.7-10.7 6.1-10.4 6.5-10.2 6.9-9.8 7.4-9.6 7.8-9.2 8.3-8.7 8.8-8.4 7.3-6.3 7.7-6 8-5.7 8.4-5.3 8.8-5.1 8.9-4.5 9.4-4.1 9.7-3.7 10.3-3.4 10.7-2.9 10.6-2.3 11.2-1.9 11.6-1.3 12.3-.9 12.9-.3 14.3.3 13.7.6 13.3 1.1 12.8 1.5 12.3 1.8 11.8 2.3 14.5 3.3 13.9 3.7 13.2 4.3 12.7 4.6 12.1 5.1 12 5.7 11.6 6.1 10.9 6.4 10.5 6.8 10 7.1 9.8 7.7 9.3 7.8 8.8 8.2 8.3 8.4 8 8.7 7.9 9.4 7.5 9.5 7 9.7 6.6 9.9 8.4 13.4 7.6 13.5 6.9 13.4 6.4 13.6 5.8 13.3 5.1 12.9 8.9 25.4 3.6 11.7 4.8 17.3 3.7 15 3 14.1 3.7 21 .8 7.1-.3 1.1-1.5 1.6-2.2.7H692.7h42.4l1.5.2 1.2.8.8 1.2.5 1.4z" fill="#000000" fill-rule="nonzero" node-id="90" stroke="none" target-height="384.10004" target-width="598.5" target-x="272.7" target-y="825.8"/></clipPath></defs><path d="M0 0h1200v1200H0z" fill="#cec3f7" fill-rule="nonzero" node-id="94" target-height="1200" target-width="1200" target-x="0" target-y="0"/><g node-id="265"><g node-id="266"><g clip-path="url(#SVGID_2_)" group-id="1,2" id="head_2_" node-id="10"><path d="m149.3 392.9-1 .1-1.4-.8-.4-1.6.5-.9 112.6-125.4 2.9-2.3 3.5-1 3.7.3 102.6 27.9 1.3 1 .1 1.6-.4.6-224 100.5z" fill="#7743e3" fill-rule="nonzero" group-id="1,2" node-id="99" stroke="none" target-height="132" target-width="227.20001" target-x="146.5" target-y="261"/><path d="m1037.5 354.4 1-.1.8-.4.5-.7-.1-1.8-.8-.7-147.7-90.1-4.8-2.7-5-2.3-5.2-1.7-5.4-1.3-484.7-93.3h-1l-1.2 1.1v1.7l.6.7 87.3 71.1 3 2.1 6.9 3.3 4.4 1.5 10.6 2.6 540.8 111z" fill="#7f47f0" fill-rule="nonzero" group-id="1,2" node-id="101" stroke="none" target-height="195.09999" target-width="655.9" target-x="383.9" target-y="159.3"/><g clip-path="url(#SVGID_4_)" group-id="1,2,4,6" node-id="105"><path d="m759 924.8 285.8-66.8.7-.5.8-1.6 1.3-4.2 1.1-5.9V360.7L495.2 253.1l-4.1-.6-4.1-.1-4 .2-4.1.7-3.9 1.1-3.9 1.5-330.4 144.8v475.1l230.5 28.3L759 924.8z" fill="#7f47f0" fill-rule="nonzero" group-id="1,2,4,6" node-id="107" stroke="none" target-height="672.4" target-width="907.99994" target-x="140.7" target-y="252.4"/></g><g clip-path="url(#SVGID_4_)" group-id="1,2,4,7" node-id="110"><path d="m777.5 716.2-26-.8-13.1-1-13.3-1.4-1.3-.4-1.8-1.4-1-2.2v-1.3l.9-2.3 1.9-1.5 1.2-.3 25.7 2.3 23.8.8 15.8-.2 15.2-.6 14.7-1.1 28.4-3.4 13-2 19-3.5 16.4-3.6 29.2-7.5 1.2.1 2.1 1.2 1.3 2.1v2.5l-1.1 2.1-1 .7-13.5 4-15.5 3.8-16.4 3.7-19 3.5-12.9 2.1L823 714l-14.6 1.1-15.2.8-15.7.3z" fill="#5e33aa" fill-rule="nonzero" group-id="1,2,4,7,15" node-id="114" stroke="none" target-height="31.400024" target-width="209.79999" target-x="721" target-y="684.8"/><path d="m777.5 716.7-13.5-.3-13.2-.6-13.1-1-12.7-1.3-1.4-.4-2.1-1.6-1-2.5v-1.4l1-2.5 2.1-1.6 1.3-.4 25.9 2.3 23.7.8 15.8-.2 15.2-.6 14.6-1.1 28.4-3.4 13-2 18.9-3.5 16.5-3.6 29.3-7.5 1.3.1 2.3 1.3 1.4 2.4.1 2.6-.5 1.3-1.8 2-10.3 3-23.5 5.9-28.9 5.7-16.3 2.6-16.9 2.2-18 1.7-12.2.9-25.4.7z" fill="#5e33aa" fill-rule="nonzero" group-id="1,2,4,7,15" node-id="116" stroke="none" target-height="32.400024" target-width="210.79999" target-x="720.5" target-y="684.3"/><path d="M956 651.2 814.4 625 576 595.2l3.2 7.3 5.8 9.5 7.8 9.5 4.5 4.7 5.7 5.1 6.7 5.5 11.1 7.6 6.6 3.9 14.8 7.5 8.2 3.4 19.1 6.7 9.9 2.8 10.9 2.6 11.9 2.4 13.1 2.2 15.6 1.9 15.3 1.4 15.1.8 15 .3 14.7-.2 14.2-.5 27.8-2.2 12.9-1.5 19.1-2.7 17.1-3 16.4-3.3 27.1-6.5 10.2-2.9 20.2-6.3z" fill="#1bfcc6" fill-rule="evenodd" group-id="1,2,4,7" node-id="119" stroke="none" target-height="85.099976" target-width="380" target-x="576" target-y="595.2"/><g clip-path="url(#SVGID_6_)" group-id="1,2,4,7,16" node-id="123"><path d="m695.9 677.7 24.9-64.1 9.4 3.7-25 64z" fill="#3c24b3" fill-opacity="0.35" fill-rule="nonzero" group-id="1,2,4,7,16,20,21" node-id="127" stroke="none" target-height="67.70001" target-width="34.299988" target-x="695.9" target-y="613.6"/><path d="m731.2 616 9.7-2.4 17.4 70.7-9.7 2.4z" fill="#3c24b3" fill-opacity="0.35" fill-rule="nonzero" group-id="1,2,4,7,16,20,22" node-id="132" stroke="none" target-height="73.10004" target-width="27.099976" target-x="731.2" target-y="613.6"/><path d="m758.7 688.1 21.9-70.1 9.5 3-21.8 70z" fill="#3c24b3" fill-opacity="0.35" fill-rule="nonzero" group-id="1,2,4,7,16,20,23" node-id="137" stroke="none" target-height="73" target-width="31.399963" target-x="758.7" target-y="618"/><path d="m791 623 9.9-1.9 12.5 67.4-9.8 1.9z" fill="#3c24b3" fill-opacity="0.35" fill-rule="nonzero" group-id="1,2,4,7,16,20,24" node-id="142" stroke="none" target-height="69.30005" target-width="22.400024" target-x="791" target-y="621.1"/><path d="m813.9 683.7 23-59 9.3 3.6-23 59z" fill="#3c24b3" fill-opacity="0.35" fill-rule="nonzero" group-id="1,2,4,7,16,20,25" node-id="147" stroke="none" target-height="62.599976" target-width="32.299988" target-x="813.9" target-y="624.7"/><path d="m847.2 631.7 9.8-2 10.4 50.8-9.8 2z" fill="#3c24b3" fill-opacity="0.35" fill-rule="nonzero" group-id="1,2,4,7,16,20,26" node-id="152" stroke="none" target-height="52.799988" target-width="20.200012" target-x="847.2" target-y="629.7"/><path d="m865.8 683.7 18.2-47.4 9.3 3.6-18.2 47.4z" fill="#3c24b3" fill-opacity="0.35" fill-rule="nonzero" group-id="1,2,4,7,16,20,27" node-id="157" stroke="none" target-height="51" target-width="27.5" target-x="865.8" target-y="636.3"/><path d="m895.4 641.1 9.8-2.1 7.2 33.5-9.8 2.1z" fill="#3c24b3" fill-opacity="0.35" fill-rule="nonzero" group-id="1,2,4,7,16,20,28" node-id="162" stroke="none" target-height="35.599976" target-width="17" target-x="895.4" target-y="639"/><path d="m913.7 664.9 6.8-20.5 9.5 3.2-6.8 20.4z" fill="#3c24b3" fill-opacity="0.35" fill-rule="nonzero" group-id="1,2,4,7,16,20,29" node-id="167" stroke="none" target-height="23.599976" target-width="16.299988" target-x="913.7" target-y="644.4"/><path d="m668.7 609.1 9.8-2 14.4 70.9-9.8 2z" fill="#3c24b3" fill-opacity="0.35" fill-rule="nonzero" group-id="1,2,4,7,16,20,30" node-id="172" stroke="none" target-height="72.900024" target-width="24.200012" target-x="668.7" target-y="607.1"/><path d="m592.2 637.3 14.6-40.9 9.5 3.4-14.6 40.9z" fill="#3c24b3" fill-opacity="0.35" fill-rule="nonzero" group-id="1,2,4,7,16,20,31" node-id="177" stroke="none" target-height="44.299988" target-width="24.099976" target-x="592.2" target-y="596.4"/></g><path d="m639.7 675.8-1.8-.3-1.3-.8-1.1-1.2-.6-1.4-17.7-68.9 9.7-2.4 13.6 53 17.8-49.5 9.4 3.4-23.3 64.8-.7 1.4-1.1 1-1.4.7-1.5.2z" fill="#2fb2c1" fill-rule="nonzero" group-id="1,2,4,7" node-id="182" stroke="none" target-height="75" target-width="50.5" target-x="617.2" target-y="600.8"/><path d="m978 660.8-25.5-6.1-36.1-7.5-46.7-8.3-26.4-4.2-29.7-4.3-30.6-3.9-95.4-10.8-45.7-6.4-31.8-5.4-20.1-4.1-10.6-2.8-3.4-1.1-1.3-.7-1-1-1.1-2.6.3-2.8 1.7-2.3 2.6-1.2h1.3l6.3 1.9 10.6 2.6 12.7 2.6 19.4 3.5 21.8 3.4 29.3 4.1 31.9 4 66.6 7.3 24.2 3 54.9 7.8 27.7 4.6 25.9 4.7 20.6 4 31.8 6.9-15.4-17.5-.4-1.4.1-2.8 1.6-2.3 2.6-1.3 2.8.1 2.4 1.6 26.2 29.5 1 1.5.4 1.7-.1 1.7-.7 1.7-2 1.9-2.7.7z" fill="#5e33aa" fill-rule="nonzero" group-id="1,2,4,7,17" node-id="186" stroke="none" target-height="75.5" target-width="410.90002" target-x="572.6" target-y="585.3"/><path d="m978 661.3-25.6-6.1-36.1-7.5-46.7-8.3-26.4-4.2-29.6-4.3-30.7-3.9-95.4-10.9-45.8-6.3-31.8-5.4-20-4.1-10.7-2.8-3.4-1.1-1.4-.8-1.1-1.1-.8-1.3-.5-3.1.4-1.5.8-1.5 1.1-1 2.8-1.3h1.5l6.4 1.9 10.6 2.6 12.7 2.6 19.3 3.5 21.8 3.4 29.3 4.1 31.9 3.9 77.7 8.8 33.4 4.3 31.7 4.7 27.4 4.4 25.7 4.6 20.9 4.1 33.3 7.2-13.4-15.2-.9-1.3-.5-1.4-.1-1.6.9-2.9 1.1-1.2 1.3-.9 3-.6 1.6.3 1.3.6 1.2 1.1 26.3 29.5 1 1.6.5 1.8-.2 1.9-.7 1.8-2.2 2.1-2.9.8z" fill="#5e33aa" fill-rule="nonzero" group-id="1,2,4,7,17" node-id="188" stroke="none" target-height="76.5" target-width="412" target-x="572" target-y="584.8"/></g><g clip-path="url(#SVGID_4_)" group-id="1,2,4,8" node-id="192"><path d="m643.3 552.7-7.6-.7-6.9-2.2-4.3-2.1-3.9-2.7-3.6-3.1-3.1-3.6-2.6-3.9-2.2-4.3-2.1-6.9-.8-7.5.2-25.8 1.5-7.2 1.2-3.3 2.2-4.3 2.6-4 3.1-3.5 3.6-3.2 3.9-2.6 4.3-2.2 3.4-1.2 7.2-1.5 3.9-.2 3.8.2 7.2 1.5 3.4 1.2 4.3 2.2 3.9 2.6 3.6 3.2 3.1 3.5 2.6 4 2.2 4.3 2.1 6.9.8 7.5-.2 25.7-1.5 7.2-1.2 3.4-2.2 4.3-2.6 3.9-3.1 3.6-3.6 3.1-3.9 2.7-4.3 2.1-3.4 1.3-7.2 1.4-3.8.2z" fill="#1d0b09" fill-opacity="0.3" fill-rule="nonzero" group-id="1,2,4,8,18" node-id="196" stroke="none" target-height="96" target-width="74.099976" target-x="606.2" target-y="456.7"/><path d="m643.3 536.1-3.2-.2-5.6-1.5-2.6-1.4-4.6-3.5-3.5-4.5-1.3-2.6-1.5-5.7-.2-3.1v-16.5l.2-3.1 1.5-5.6 3-5.1 4-4 5-2.9 5.6-1.6 3.2-.2 6 .8 2.7 1 5 2.9 4 4 3 5.1 1.5 5.6.3 3.1-.3 19.6-.6 2.9-2.2 5.4-3.5 4.5-4.6 3.5-5.3 2.3-6 .8z" fill="#ffd219" fill-rule="nonzero" group-id="1,2,4,8" node-id="199" stroke="none" target-height="61.49997" target-width="45" target-x="620.8" target-y="474.6"/><path d="m643.3 521.4-3.7-.8-1.7-.8-2.7-2.6-1.8-3.4-.7-4.1.2-10.8 1.2-3.7 1.1-1.7 2.7-2.5 3.4-1.4 2-.2 3.6.7 1.7.9 2.7 2.5 1.8 3.5.7 4.1-.2 10.7-1.2 3.8-1.1 1.6-2.7 2.6-3.4 1.4-1.9.2z" fill="#112033" fill-rule="nonzero" group-id="1,2,4,8" node-id="201" stroke="none" target-height="32.00003" target-width="21.099976" target-x="632.7" target-y="489.4"/></g><g clip-path="url(#SVGID_4_)" group-id="1,2,4,9" node-id="204"><path d="m925.4 604.2-7.3-.8-6.8-2.1-4.2-2.1-3.9-2.6-3.5-3.1-3.1-3.5-2.6-3.8-2.1-4.3-2.1-6.7-.7-7.4.2-25.7 1.4-7.1 1.2-3.3 2.1-4.2 2.6-3.9 3.1-3.5 3.5-3.1 3.9-2.5 4.2-2.2 3.3-1.2 7.1-1.4 3.7-.2 7.4.7 6.8 2.1 4.2 2.2 3.9 2.5 3.5 3.1 3 3.5 2.6 3.9 2.2 4.2 2.1 6.8.7 7.4-.2 25.6-1.4 7.1-1.2 3.3-2.2 4.3-2.6 3.8-3 3.5-3.5 3.1-3.9 2.6-4.2 2.1-3.3 1.2-7.1 1.4-3.8.3z" fill="#1d0b09" fill-opacity="0.3" fill-rule="nonzero" group-id="1,2,4,9,19" node-id="208" stroke="none" target-height="94.70001" target-width="72.70001" target-x="889.1" target-y="509.5"/><path d="m925.4 587.6-3-.2-5.4-1.5-2.5-1.2-3.1-2.2-2.6-2.6-2.1-3-1.3-2.5-1.5-5.5-.2-3 .2-19.5.6-2.8 2.2-5.2 2.1-3 2.6-2.6 3.1-2.2 5.1-2.2 5.8-.8 3.1.2 5.4 1.5 2.5 1.3 3.1 2.2 2.6 2.6 2.1 3 1.3 2.5 1.5 5.5.2 3-.2 19.5-.6 2.8-2.2 5.2-2.1 3-2.6 2.6-3.1 2.2-5.1 2.1-5.9.8z" fill="#ffd219" fill-rule="nonzero" group-id="1,2,4,9" node-id="211" stroke="none" target-height="60" target-width="43.5" target-x="903.7" target-y="527.6"/><path d="m925.4 573-3.2-.6-1.5-.8-1.9-1.6-1.4-2.1-.7-1.6-.6-3.7v-9.9l.6-3.7.7-1.6 1.4-2.1 1.9-1.6 3-1.3 1.7-.1 3.3.6 1.5.8 1.8 1.6 1.5 2.1.7 1.6.6 3.7v9.9l-.2 1.9-1.1 3.4-1.5 2.1-1.8 1.6-3.1 1.2-1.7.2z" fill="#112033" fill-rule="nonzero" group-id="1,2,4,9" node-id="213" stroke="none" target-height="30.700012" target-width="18.700012" target-x="916.1" target-y="542.3"/></g><g clip-path="url(#SVGID_4_)" group-id="1,2,4,10" node-id="216"><path d="m382.9 901.8-224.6-31.7-2.7-1-.9-.8-1.1-1.6-.4-1.9.1-1.9.6-1.8 1.8-1.8 1.4-.7 311.3-113.2 5-1.6 5.2-1.2 5.2-.6 5.3-.2 5.3.2 5.2.8 532.7 97.9 2.6 1.2.9.9 1 1.6.4 1.9-.2 1.9-.8 1.8-1.9 1.8-1.4.6-29.2 8.6-265.9 65.3-354.9-24.5z" fill="#1d0b09" fill-opacity="0.3" fill-rule="nonzero" group-id="1,2,4,10" node-id="218" stroke="none" target-height="184.5" target-width="883.99994" target-x="153.2" target-y="741.8"/></g><g clip-path="url(#SVGID_4_)" group-id="1,2,4,11" node-id="221"><path d="M280 382.6v39.1l.3 1 .6.7.9.3 1-.1 29.3-11.6 1.1-1.1.2-.8v-40l-.2-1-.7-.7-.9-.3-1 .1-29.3 12.5-.7.5-.6 1.4z" fill="#ffffff" fill-opacity="0.3" fill-rule="evenodd" group-id="1,2,4,11" node-id="223" stroke="none" target-height="55.600006" target-width="33.399994" target-x="280" target-y="368.1"/><path d="m230.8 444.2 29.3-11.6 1-.8.3-1.1v-38.5l-.2-1-.7-.7-.9-.3-1 .2-29.3 12.5-1.1 1-.2 38.4.3 1 .6.6.9.4 1-.1z" fill="#ffffff" fill-opacity="0.3" fill-rule="evenodd" group-id="1,2,4,11" node-id="225" stroke="none" target-height="54.099976" target-width="33.399994" target-x="228" target-y="390.2"/><path d="m179.8 464.3 29.3-11.6 1-.7.3-1.2v-36.9l-.2-1-.7-.7-.9-.3-1 .2-29.3 12.5-1.1 1-.2 36.8.3 1 .6.7.9.3 1-.1z" fill="#ffffff" fill-opacity="0.3" fill-rule="evenodd" group-id="1,2,4,11" node-id="227" stroke="none" target-height="52.5" target-width="33.399994" target-x="177" target-y="411.9"/></g><g clip-path="url(#SVGID_4_)" group-id="1,2,4,12" node-id="230"><path d="m484 698.9-1.2-.2-2-1.2-1.1-1.9-.2-1.2V284.3l.6-2.3 1.6-1.6 1.1-.5 1.2-.1 2.3.6 1.6 1.6.6 2.3v410.1l-.2 1.2-1.1 1.9-2 1.2-1.2.2z" fill="#ffffff" fill-opacity="0.8" fill-rule="nonzero" group-id="1,2,4,12" node-id="232" stroke="none" target-height="419.10004" target-width="9" target-x="479.5" target-y="279.8"/></g><path d="m579.9 196.3 107.9 89.5 1.5 1.6 1.1 1.8.7 2 .2 2.2 2 147.9.3 1.5.7 1.1 1.1.9 1.3.4h1.4l1.4-.6 39.3-26 1.4-.6h1.4l1.3.4 1.1.9 37.3 41.7 1.2.9 1.4.4 1.4-.1 1.4-.7 35.4-26.8 1.3-.7 1.3-.1 1.3.2 1.2.8 48.5 42.6 1.4.9 1.5.1 1.5-.4 1.2-.8.8-1.3.2-1.6-5.4-146.1-.3-2.1-.8-2-1.1-1.8-1.6-1.5-117.6-89.4-2.6-1.6-2.8-1.3-3-.8-167.2-31.5z" fill="#fcd514" fill-rule="nonzero" group-id="1,2" node-id="236" stroke="none" target-height="282.2" target-width="302.39996" target-x="579.9" target-y="196.3"/><path d="m433.5 140.6-11.9-81.7.1-1.6.6-1.3 1-.9 1.3-.5h1.4l1.5.6 51.4 35.6 1.3.6h1.3l1.3-.4 1.1-.9 38.3-46.5 1.9-1.3h2.1l1.9 1.4 40 52.5 1.2 1 1.4.5 1.5-.1 1.4-.8 51.7-43.7 1.4-.8 1.4-.1 1.3.3 1.2.9.7 1.2.2 1.5-5.6 109.4-.3 1.9-1.4 3.1-1.1 1.3-2.8 1.9-3.4.8-1.8-.1-173.7-25.8-2-.5-1.7-.9-1.6-1.3-1.2-1.5-.9-1.8-.5-2z" fill="#fcd514" fill-rule="nonzero" group-id="1,2" node-id="238" stroke="none" target-height="132.2" target-width="209.9" target-x="421.6" target-y="42.3"/><path d="m256.2 677.5-6.5-1.7-5-1.9-4.5-2-8.1-4.8-7.9-6.4-6.5-6.8-3.6-5.1-.5-1.2-.2-1.1.6-2.2 1.6-1.7 1.2-.5h2.3l1.9 1.1 3.8 5.1 5.6 5.9 4 3.4 4.5 3.1 5.4 3.1 3.9 1.8 9.1 3 2 1.1 1.2 1.9.1 2.4-.6 1.4-1 1.1-1.3.7-1.5.3z" fill="#ffffff" fill-rule="nonzero" group-id="1,2" node-id="240" stroke="none" target-height="35.400024" target-width="47.200012" target-x="213.4" target-y="642.1"/><path d="m277.8 656.8-6.5-1.4-5.2-1.6-9-3.9-5.7-3.2-4.9-3.3-4.4-3.5-4.2-3.9-6.6-7.5-4-5.8-5.4-9.8-2.9-7.2-.2-1.2.2-1.1 1.1-2.1 2-1.2 2.3-.1 2 1.1.7.9 3.1 7.4 4.8 8.6 6.2 8.4 6.8 6.7 3.9 3.1 4.4 2.9 4.9 2.8 5.2 2.4 5.8 2 6.5 1.6 2.1 1 1.2 2 .2 2.3-.6 1.5-1 1.1-1.3.7-1.5.3z" fill="#ffffff" fill-rule="nonzero" group-id="1,2" node-id="242" stroke="none" target-height="56.799988" target-width="63.40001" target-x="218.8" target-y="600"/><path d="m450.1 255.1-12.1-2.4-23-6-19.9-6.7-10.1-3.9-10.1-4.5-10.4-5-10.1-5.5-10-6.1-9.8-6.8-7.2-5.4-6.9-5.8-6.7-6.2-6.6-6.6-6.2-6.9-5.8-7.4-5.6-7.8-5.3-8.4-4.7-8.6-4.3-9.1-3.8-9.7L268 116l-1.1-4.2-1.1-7.3-.2-5.2.2-12.4-.4-3.4-.9-2.9-1-1.7-1.4-1.5-1.9-1.5-4.1-2.2-4.4-1.7-4.7-1.2-5-.7-5-.3-5.3.2-5.5.6-5.9 1-7.6 1.9-7.9 2.5-8.3 3.2-16.4 7.6-8.4 4.6-16.4 10.1-15.9 11.2-14.7 11.9-7.4 6.5-13 12.6-8.8 9.5-7.4 8.7-6.6 8.4-5.1 6.9-6.9 10.7-.2.8.3 1.4 1.3.7h.8l12.3-2.7 17.7-3.4 21.1-2.8 11.1-1 11.2-.5 14.7.4 6.9.7 6.8 1.1 6.2 1.5 5.6 1.9 4.1 1.8 3.6 2.2 3.2 2.3 2.8 2.7 2.2 2.9 1.8 3 1.4 3.2.9 3.4.6 4.7.1 4.9-.6 5.3-2.6 10.6-1.9 5.6-3.5 8.2-4.1 8.2-4.5 7.9-9.4 14.5-12.1 16.2-.4.8v.9l1 1.3.8.2 1-.1 13.7-5.7 18.5-6.9 21.4-7 11.2-3.2 11.2-2.7 7.5-1.5 14-1.9 6.9-.5 6.2.1 5.6.5 4.2.8 3.8 1.2 3.2 1.4 2.9 1.7 3.6 3 2.9 3.1 2.2 3.3 1.7 3.6 1.3 3.7.7 3.9.4 8-.4 4.1-1.1 6.1-1.5 6-5.8 10.9-2.7 6.3-2.2 6.5-1.9 6.6-1.4 6.9-1 7.1-.6 7-.2 7.3.2 7.5.6 7.7 1 8 1.5 8.2 2 8.6 2.5 8.8 3.1 9.2 3.6 9.5 4.9 11.4 5.6 11.8 6.6 12.3 13 22.3 4.8 9 7.3 16.1 3 8.3 2.2 7.4 1.5 6.6.8 5.9.2 5-.2 4.4-.7 3.8-1.1 3.4-1.5 2.9-2 2.6-2.2 2.2-2.7 2-5.7 3-7.5 2.2-7.8 1-6.2-.6-3.4-.9-3.1-1.4-2.9-1.7-2.7-2.2-2.6-2.8-.1-1.1 1-.5 9-.3 4.7-.8 3.5-1.1 3.1-1.4 2.4-1.6 5.8-4.5 1.5-.8 4.4-.9.2-.8-.2-.7-2.1-2.9-4.3-4.3-2.7-1.8-7.4-3.5-5.6-1.7-6.9-1.6-8.6-1.2-8.6-.6-10.2-.2-12 .4-7.6-.3-5.8-.6-5.2-1.1-3.8-1.1-6.2-2.6-.9.2-.7.6-.4.9-.5 3-.4 9.6 1 10.5 2.4 9.6 1.7 4.8 2.3 5.2 2.9 5.4 3.3 5.1 4 5.3 4.9 5.5 6 5.9 5.6 4.8 5 3.9 5.4 3.5 8.9 4.9 4.4 1.9 7 2.1 4.7.9 3.1.2 1.2-.3.7-.7.2-1.1-.4-1-3.7-5.6-1.1-3.8-1.1-15.6.4-.8 1-.2 7.6 1.9 4.1.5 8.6-.2 6.1-.9 8.3-2.2 8.5-3.5 4-2.3 3.8-2.7 3.6-3.1 3.2-3.5 2.8-4 2.4-4.5 1.8-4.7 1.3-5.3.8-5.6.2-6.3-.3-5.9-.8-6.4-1.5-6.8-2-7.5-2.7-8-3.8-9.4-4.6-10.1-5.8-10.9-13.8-23.8-6-11.4-5.3-10.9-4.5-10.5-3.4-8.8-5.1-16.5-3.2-15.2-1.1-8.5-.5-8 .1-7.8.5-7.4 1.1-7.4 1.6-7.1 2.2-6.8 2.6-6.5 2.8-5.5 3-5 6.6-8.8 7.1-7.3 7.5-5.7 8.2-4.4 93.3-41.4.7-.5.4-1.5-.8-1.4-.8-.4z" fill="#211a33" fill-rule="nonzero" group-id="1,2" node-id="244" stroke="none" target-height="564.3" target-width="382.40002" target-x="69.3" target-y="69.8"/></g></g><g clip-path="url(#SVGID_2_)" group-id="1,3" id="body_2_" node-id="64"><path d="m737.7 1159.9 5 50h85l-6-52z" fill="#7f47f0" fill-rule="nonzero" group-id="1,3" node-id="248" stroke="none" target-height="52" target-width="90" target-x="737.7" target-y="1157.9"/><g clip-path="url(#SVGID_8_)" group-id="1,3,5,13" node-id="252"><path d="m739.1 1164.5 3.7 41v1.2l-1 1.9-1.8 1.1-1.1.2H276.7l-1.6-.3-1.3-.9-.8-1.2-.3-1.6.3-27.4 1.9-30.6 1.8-18.4 3.4-25.9 2.3-14.2 5.7-28.7 3.5-15 4-14.9 4.6-15 5.2-15.1 4.2-11.2 9.5-22.1 5.3-10.9 5.7-10.7 6.1-10.4 6.5-10.2 6.9-9.8 7.4-9.6 7.8-9.2 8.3-8.7 8.8-8.4 7.3-6.3 7.7-6 8-5.7 8.4-5.3 8.8-5.1 8.9-4.5 9.4-4.1 9.7-3.7 10.3-3.4 10.7-2.9 10.6-2.3 11.2-1.9 11.6-1.3 12.3-.9 12.9-.3 14.3.3 13.7.6 13.3 1.1 12.8 1.5 12.3 1.8 11.8 2.3 14.5 3.3 13.9 3.7 13.2 4.3 12.7 4.6 12.1 5.1 12 5.7 11.6 6.1 10.9 6.4 10.5 6.8 10 7.1 9.8 7.7 9.3 7.8 8.8 8.2 8.3 8.4 8 8.7 7.9 9.4 7.5 9.5 7 9.7 6.6 9.9 8.4 13.4 7.6 13.5 6.9 13.4 6.4 13.6 5.8 13.3 5.1 12.9 8.9 25.4 3.6 11.7 4.8 17.3 3.7 15 3 14.1 3.7 21 .8 7.1-.3 1.1-1.5 1.6-2.2.7H692.7h42.4l1.5.2 1.2.8.8 1.2.5 1.4z" fill="#211a33" fill-rule="nonzero" group-id="1,3,5,13" node-id="254" stroke="none" target-height="384.10004" target-width="598.5" target-x="272.7" target-y="825.8"/></g><g clip-path="url(#SVGID_8_)" group-id="1,3,5,14" node-id="257"><path d="m505.1 1078.5-24.9-41.4-.3-1.1.3-1.1 6.3-8.9 20.8-27.5.7-1.7.6-3.5-.8-3.4-.9-1.7-1.1-1.3-2.9-2-3.8-1-24.7-1.6-24.7-1-1-.3-.7-.8-9.7-18.1L428 942l-1.3-1.5-3.6-2-4.3-.6-2.5.5-2.4 1-2.1 1.5-1.8 1.9-13.8 19.1-13.7 20.2-28.9 2.6-13.9 1.7-3.5 1-1.6.9-2.1 1.8-1.7 2.3-1.3 3.5-.1 3.4.4 1.6 21 36.3.3 1-.2.9-21.3 44-1 3.6.3 3.4.5 1.6.9 1.5 2.4 2.3 3.1 1.2 1.7.3 33.5-4.1 10.6-1.1 1 .2.9.8L405 1130l2.9 2.6 1.8.9 3.7.8 3.8-.6 1.8-.9 3-2.5 11.4-20.3 10.9-18.4.7-.7 1.1-.3 50.4 2.9 3.7-.4 3-1.6 1.3-1.1 1.7-3.1.4-1.7-.1-3.6-1.4-3.5zm-10-81.4-20 25.8-.8.7-.9.1-.9-.2-.7-.8-15.8-28-.3-1.1.3-.9.7-.7 1.1-.2 36 2.1 1 .3.6.8.2 1-.5 1.1zm-53.7-4.9 12.8 22.4 11.6 19.5.3 1-.4 1.1-27.4 42.9-.7.7-1 .3-23.4-.1-23.5 1-1-.2-.8-.8-12.3-20.9-12.1-21-.3-.9.2-.9 5.3-10.3 12.3-21.9 6.7-11.1.6-.6.9-.3 22.9-.9 13.8-.2 13.8.2 1.7 1zM420 951.1l6.6 13.6 7 13.3.2 1-.3 1-.7.7-1 .2-19.6.2-13.5.4-1.1-.2-.7-.8-.2-1 .3-1 9.6-14.1 10-13.7.8-.6 1-.2.9.4.7.8zm-77.3 45.1 29.7-3 1 .2.8.7.3 1-.3 1.1-15.5 27.6-.7.8-1 .2-.9-.2-.8-.8-14.1-24.7-.2-1 .2-.9.6-.7.9-.3zm-2.9 87.8 16.7-34.9.8-.6.9.5 18.2 31.2-.4.8-.4.2-34.8 4.2-.9-.4-.1-1zm71.3 35.8-15.2-26.2-.2-1 .2-.9.6-.7 1-.4 15.3-.5h15.3l1.1.3.6.7.3.9-.3 1.1-15.3 26.6-.7.8-1 .2-.9-.2-.8-.7zm43.3-39.1-1-.4-.7-.7-.2-.9.3-1 18.6-29.3.8-.7.9-.2.9.2.7.7 19.2 31.3.3 1-.3 1-.7.7-1.1.3-37.7-2z" fill="#ffffff" fill-rule="nonzero" group-id="1,3,5,14" node-id="259" stroke="none" target-height="196.40002" target-width="180" target-x="328.6" target-y="937.9"/></g><path d="m876.5 1156.9-.3-1.2-1.4-1.9-2.1-.9h-1.2l-37.6 3.2-36.2 2.2-31.8.9H750l-15-.5-12.1-.8-15.1-2.2-9-2.4-4.3-2.4-1.1-1-2.5-4.3-2.2-6.9-1.3-5-3.3-15.5-3.9-23.5-4.5-32.9-2.6-21.3-3.2-28.8-6.7-69-.5-1-1.8-1.5-2.3-.4-1.2.3-1.9 1.3-1 2.1v1.2l6.5 68 6.1 52.7-5.2-6.5-4.8-6.6-4.3-6.7-4-6.9-6.8-13.4-4.3-9.9-6.4-17.7-2.2-7.1-4.1-16.2-.6-1-1.9-1.3-2.3-.2-2.2 1-1.3 1.9-.2 1.1v1.2l2.5 11 4.8 16 6.2 16.7 6.8 14.8 8.4 14.9 4.9 7.6 5.4 7.3 5.8 7.1 6.5 7 1.2.9 4.7 30.9 2.2 12 3.6 16.1 2.9 9.1 2.1 4.3 1.8 2.8 4 3.4 6.7 3.1 4.4 1.4 12.3 2.4 8.3.9 22.2 1.3 26.8.1 39.9-1.6 23.7-1.5 37.8-3.3 1.2-.3 1.9-1.3.9-2.1.1-1.2z" fill="#ffffff" fill-rule="nonzero" group-id="1,3" node-id="263" stroke="none" target-height="228.39996" target-width="260" target-x="616.5" target-y="939.8"/></g></g></svg>