<!--version="1.0" standalone="no"--><!DOCTYPE html PUBLIC "-//W3C//DTD SVG 1.1//EN" "http://www.w3.org/Graphics/SVG/1.1/DTD/svg11.dtd"><svg height="1200" node-id="1" sillyvg="true" template-height="1200" template-width="1200" version="1.1" viewBox="0 0 1200 1200" width="1200" xmlns="http://www.w3.org/2000/svg" preserveAspectRatio="xMidYMid meet" zoomAndPan="magnify" contentScriptType="application/ecmascript" contentStyleType="text/css"><defs node-id="58"><clipPath id="SVGID_2_" node-id="8"><path d="M0 0h1200v1200H0z" fill="#000000" fill-rule="nonzero" node-id="61" stroke="none" target-height="1200" target-width="1200" target-x="0" target-y="0"/></clipPath><clipPath id="SVGID_4_" node-id="16"><path d="M336 318.4 214.9 100.3l-1.4-3.4-.9-3.4-.2-3.4.4-3.4.9-3.3 1.5-3.1 2-2.8 2.5-2.4 3-2 17.5-9.8 3.4-1.4 3.3-.9 3.5-.2 3.4.4 3.2.9 3.1 1.5 2.8 2 2.4 2.5 2.1 3 116.2 209.4-47.6 37.9z" fill="#000000" fill-rule="nonzero" node-id="65" stroke="none" target-height="257.6" target-width="171.20001" target-x="212.4" target-y="60.8"/></clipPath><clipPath id="SVGID_6_" node-id="22"><path d="m769 915.8 262.5-64.3 2.9-.9 2.7-1.3 2.3-1.7 2.2-2 1.7-2.3 1.5-2.5 1.1-2.7.6-2.9.3-3 1.9-460.6-.2-1.9-1.1-3.4-1.4-2.3-2-1.9-3.2-1.8-1.8-.5-543.8-105.7-4.1-.6-4.1-.1-4 .2-4.1.7-3.9 1.1-3.9 1.5-323.2 141.6-2 1.2-1.8 1.5-1.4 1.8-1.1 2-.6 2.2-.2 2.4 1.9 439.8.2 3.3.8 3.1 1.3 2.9 1.6 2.6 2.1 2.3 2.4 2.1 2.6 1.6 3 1.1 3.2.8 209.2 28.9 361.7 26 38.2-8.3z" fill="#000000" fill-rule="nonzero" node-id="69" stroke="none" target-height="670.69995" target-width="907.89996" target-x="140.8" target-y="253.4"/></clipPath></defs><path d="M0 0h1200v1200H0z" fill="#ededed" fill-rule="nonzero" node-id="73" target-height="1200" target-width="1200" target-x="0" target-y="0"/><g node-id="184"><g node-id="185"><g clip-path="url(#SVGID_2_)" group-id="1,2" id="head_3_" node-id="10"><path d="m149.3 392.9-1 .1-1.4-.8-.4-1.6.5-.9 108.7-121.1 2.8-2.1 3.3-1.1 3.5.1 107 23.7 1.3 1 .1 1.6-.4.7-224 100.4z" fill="#e84a2c" fill-rule="nonzero" group-id="1,2" node-id="78" stroke="none" target-height="127.600006" target-width="227.20001" target-x="146.5" target-y="265.4"/><path d="m1037.5 354.4 1-.1.8-.4.5-.7-.1-1.8-.8-.7-147.7-90.1-4.8-2.7-5-2.3-5.2-1.7-5.4-1.3-484.7-93.3h-1l-1.2 1.1v1.7l.6.7 87.3 71.1 3 2.1 6.9 3.3 4.4 1.5 10.6 2.6 540.8 111z" fill="#f44f2e" fill-rule="nonzero" group-id="1,2" node-id="80" stroke="none" target-height="195.09999" target-width="655.9" target-x="383.9" target-y="159.3"/><g clip-path="url(#SVGID_4_)" group-id="1,2,4" node-id="84"><path d="m253 55.5 58.1-15 107.9 417-58 15z" fill="#2e2725" fill-rule="nonzero" group-id="1,2,4,7" node-id="86" stroke="none" target-height="432" target-width="166" target-x="253" target-y="40.5"/></g><g clip-path="url(#SVGID_6_)" group-id="1,2,5,8" node-id="92"><path d="m759 924.8 285.8-66.8.7-.5.8-1.6 1.3-4.2 1.1-5.9V360.7L495.2 253.1l-4.1-.6-4.1-.1-4 .2-4.1.7-3.9 1.1-3.9 1.5-330.4 144.8v475.1l230.5 28.3L759 924.8z" fill="#f44f2e" fill-rule="nonzero" group-id="1,2,5,8" node-id="94" stroke="none" target-height="672.4" target-width="907.99994" target-x="140.7" target-y="252.4"/></g><g clip-path="url(#SVGID_6_)" group-id="1,2,5,9" node-id="97"><path d="M339.7 519.1v110.1l-.6 3.9-.9 1.7-1.4 1.5-2.5 1.7-8.7 4.4-11.4 4.6-6.3 2-6.5 1.4-4.4.7-8.5.1-4.2-.6-3.9-1.1-3.7-1.6-4.2-2.6-7.9-5.9-3.6-3.5-4.4-4.9-4-5.4-3.6-5.8-3-6.1-2.6-6.3-2-6.7-1.5-6.8-.9-6.9-.3-7.1.3-11.1.7-9.9 1.1-8.9 1.3-6.7 1.6-6.2 1.9-5.5 2.2-5.1 2.7-4.8 3-4.4 3.4-3.9 3.8-3.5 3.8-2.7 3.9-2.1 4.2-1.7 8.9-2.2 4.7-.5 7-.2 7.1.4 6.9.8 12.8 2.7 5.4 1.5 10.6 3.6 2 1.6.9 1.5.5 1.9.3 4.6z" fill="#fcde65" fill-rule="evenodd" group-id="1,2,5,9" node-id="99" stroke="none" target-height="150.70001" target-width="101.000015" target-x="238.7" target-y="500.5"/></g><g clip-path="url(#SVGID_6_)" group-id="1,2,5,10" node-id="102"><path d="m323.6 563.4-4.3-3.6-4.2-2.9-4.2-2.3-4.5-1.9-8.5-2.4-6.3-1-5.8-.2-5.5.2-8.8 1.2-6 1.6-1.1.5-.8.8-1 2.1.1 2.3 1.3 1.9 2.1 1 1.1.1 8.6-1.9 3.6-.4 8.7-.3 5 .5-3.1 1.9-5.1 4.4-3.2 3.6-2.5 3.6-3.6 7-1.9 5.3-.7 3.7.7 2.1 1.7 1.5 1.2.4 2.4-.1 1.3-.8 1-1.1 2.2-6.6 3.3-6.7 4.7-5.8 5.2-4 3-1.6 3.5-1.3 4.5-1 3.2 1.8 8 5.9 1.6.3 1.2-.2 2.1-1.3 1.1-2.1-.1-2.2-1.2-2z" fill="#cca033" fill-rule="nonzero" group-id="1,2,5,10" node-id="104" stroke="none" target-height="43.100037" target-width="62.299988" target-x="262.6" target-y="549.1"/></g><g clip-path="url(#SVGID_6_)" group-id="1,2,5,11" node-id="107"><path d="m947.2 464.7-302.4-56.9-6.6-1-6.4-.3-6.3.3-6.2.8-6.1 1.4-5.8 1.8-5.6 2.3-5.4 2.8-5.2 3.3-4.8 3.7-4.5 4-4.2 4.5-3.7 4.8-3.4 5-2.9 5.4-2.4 5.8-2 5.9-1.4 6.1-.9 6.4-.3 6.7.2 72 .6 5.7 2.4 11 1.8 5.4 4.5 10.1 5.8 9.4 7 8.5 4 3.8 8.6 6.9 9.6 5.8 5.1 2.3 5.3 2 5.5 1.7 53.2 10.2 2.2.7 2 1.2 1.6 1.6 1.2 1.9.8 2.1.3 2.3v29.8l.3 5.5.7 5.3 1.1 5.2 1.6 4.9 2 4.9 2.4 4.6 2.8 4.3 3.2 4.2 3.4 3.8 3.8 3.5 4.1 3.2 4.4 2.9 4.6 2.5 4.9 2.1 5.1 1.6 5.3 1.3 105.7 19.6 8.9.8 4.3-.1 8.4-1.6 7.9-2.8 3.7-2 4.6-3 4.2-3.5 3.9-4 4.8-6.8 3.7-7.6 2.3-8.3.8-8.9.2-19.6.6-1.8.9-1.7 2.7-2.7 3.5-1.5 1.9-.2 19.5 3.5 5.7.8 5.5.2 5.4-.2 5.3-.7 5.2-1.2 5-1.5 4.9-2 4.6-2.4 4.4-2.9 4.1-3.1 3.9-3.5 3.5-3.8 3.3-4.1 2.8-4.3 2.5-4.7 2.1-4.9 1.7-5 1.2-5.3.8-5.5.2-5.7v-95.2l-.2-5.5-.7-5.3-1.2-5.2-1.6-4.9-2-4.9-2.4-4.6-2.7-4.3-3.2-4.1-3.5-3.9-3.7-3.5-4.1-3.2-4.4-2.9-4.6-2.5-4.8-2-5.1-1.7-5.3-1.3z" fill="#fffae6" fill-rule="evenodd" group-id="1,2,5,11" node-id="109" stroke="none" target-height="345.59998" target-width="436" target-x="560.7" target-y="406.5"/><path d="m757 652.6-1.7-.3-1.5-.7-1.3-1-.9-1.5-.5-1.6-.1-1.5 1.1-2.9 2.4-2 11.7-4.7 11.7-3.6 14.1-3.1 7.4-.9 7.6-.4 1.6.3 2.7 1.5.9 1.2.6 1.4.2 1.6-.8 3.1-2.2 2.1-1.4.6-8.4.6-6.7.8-6.7 1.3-12 3.3-15.3 5.8-2.5.6z" fill="#e84a2c" fill-rule="nonzero" group-id="1,2,5,11,17" node-id="113" stroke="none" target-height="24.199951" target-width="62" target-x="751" target-y="628.4"/><path d="m757 655.6-1.7-.2-3.1-1.3-2.5-2.2-.8-1.5-.8-2.4-.1-2.3.5-2.2 1.1-2.1 1.5-1.7 2.1-1.3 3.5-1.6 8.4-3.2 12.1-3.7 14.4-3.2 7.6-.9 7.8-.3 2.4.3 2.1.9 1.9 1.4 1.4 1.8.9 2.1.3 2.5-.3 2.4-.9 2.1-1.4 1.8-1.9 1.4-2.1.9-9 .7-6.6.8-6.4 1.3-11.7 3.2-14.9 5.6-1.8.6-2 .3z" fill="#e84a2c" fill-rule="nonzero" group-id="1,2,5,11,17" node-id="115" stroke="none" target-height="30.099976" target-width="68" target-x="748" target-y="625.5"/><path d="m797.5 603.9 23.6-28.5.7-1.2.4-2.3-.4-1.7-1.1-1.5-2.1-1.3-1.4-.4-47.3-7.7-3.1.2-2.4 1.5-1.3 2.2-.2 1.3.9 2.7 23.6 36.3 1.3 1.4 1.7.9 1.9.4 1.9-.2 1.8-.8 1.5-1.3z" fill="#2e2725" fill-rule="nonzero" group-id="1,2,5,11" node-id="118" stroke="none" target-height="46.900024" target-width="59.299988" target-x="762.9" target-y="559.3"/><path d="m646 556-4.1-.3-3.9-.8-3.7-1.3-3.5-1.7-3.1-2.1-2.9-2.6-2.6-2.9-2.1-3.1-1.7-3.5-1.3-3.7-.8-3.9-.3-4.1v-22l.3-4.1.8-3.9 1.3-3.7 1.7-3.5 2.1-3.1 2.6-2.9 2.9-2.6 3.1-2.1 3.5-1.7 3.7-1.3 3.9-.8 4.1-.3 4.1.3 3.9.8 3.7 1.3 3.5 1.7 3.1 2.1 2.9 2.6 2.6 2.9 2.1 3.1 1.7 3.5 1.3 3.7.8 3.9.3 4.1v22l-.3 4.1-.8 3.9-1.3 3.7-1.7 3.5-2.1 3.1-2.6 2.9-2.9 2.6-3.1 2.1-3.5 1.7-3.7 1.3-3.9.8-4.1.3z" fill="#2e2725" fill-rule="nonzero" group-id="1,2,5,11" node-id="120" stroke="none" target-height="82" target-width="60" target-x="616" target-y="474"/><path d="m921 608-4-.3-3.7-.7-3.6-1.3-3.4-1.7-3-2-2.8-2.5-2.5-2.8-2-3-1.7-3.4-1.3-3.6-.7-3.7-.3-4v-22l.3-4 .7-3.7 1.3-3.6 1.7-3.4 2-3 2.5-2.8 2.8-2.5 3-2 3.4-1.7 3.6-1.3 3.7-.7 4-.3 4 .3 3.7.7 3.6 1.3 3.4 1.7 3 2 2.8 2.5 2.5 2.8 2 3 1.7 3.4 1.3 3.6.7 3.7.3 4v22l-.3 4-.7 3.7-1.3 3.6-1.7 3.4-2 3-2.5 2.8-2.8 2.5-3 2-3.4 1.7-3.6 1.3-3.7.7-4 .3z" fill="#2e2725" fill-rule="nonzero" group-id="1,2,5,11" node-id="122" stroke="none" target-height="80" target-width="58" target-x="892" target-y="528"/></g><g clip-path="url(#SVGID_6_)" group-id="1,2,5,12" node-id="125"><path d="M280 382.6v39.1l.3 1 .6.7.9.3 1-.1 29.3-11.6 1.1-1.1.2-.8v-40l-.2-1-.7-.7-.9-.3-1 .1-29.3 12.5-.7.5-.6 1.4z" fill="#ffffff" fill-opacity="0.8" fill-rule="evenodd" group-id="1,2,5,12" node-id="127" stroke="none" target-height="55.600006" target-width="33.399994" target-x="280" target-y="368.1"/><path d="m230.8 444.2 29.3-11.6 1-.8.3-1.1v-38.5l-.2-1-.7-.7-.9-.3-1 .2-29.3 12.5-1.1 1-.2 38.4.3 1 .6.6.9.4 1-.1z" fill="#ffffff" fill-opacity="0.8" fill-rule="evenodd" group-id="1,2,5,12" node-id="129" stroke="none" target-height="54.099976" target-width="33.399994" target-x="228" target-y="390.2"/><path d="m179.8 464.3 29.3-11.6 1-.7.3-1.2v-36.9l-.2-1-.7-.7-.9-.3-1 .2-29.3 12.5-1.1 1-.2 36.8.3 1 .6.7.9.3 1-.1z" fill="#ffffff" fill-opacity="0.8" fill-rule="evenodd" group-id="1,2,5,12" node-id="131" stroke="none" target-height="52.5" target-width="33.399994" target-x="177" target-y="411.9"/></g><g clip-path="url(#SVGID_6_)" group-id="1,2,5,13" node-id="134"><path d="m247.5 707.9-6.7-1.9-4.9-2-4.4-2.2-8-5.1-7.6-6.6-6.3-7.1-3.5-5.2-.4-1.2-.1-1.1.6-2.2 1.7-1.6 1.2-.4h2.3l1.9 1.2 3.6 5.2 5.4 6.1 3.9 3.5 4.3 3.3 5.4 3.3 3.8 1.9 9 3.3 2 1.2 1.1 2v2.3l-.6 1.4-1 1-1.3.7-1.4.2z" fill="#ffffff" fill-rule="nonzero" group-id="1,2,5,13" node-id="136" stroke="none" target-height="36.600037" target-width="46.199997" target-x="205.6" target-y="671.3"/></g><g clip-path="url(#SVGID_6_)" group-id="1,2,5,14" node-id="139"><path d="m269.7 688.1-6.6-1.7-5.1-1.8-8.9-4.1-5.5-3.4-4.9-3.5-4.3-3.7-3.9-4-6.4-7.8-3.8-5.9-5.1-10-2.6-7.3-.1-1.2.1-1.1 1.2-2 2-1.2 2.4.1 2 1.1.7.9 2.7 7.5 4.5 8.8 6 8.6 6.5 6.9 3.8 3.2 4.3 3.1 4.8 3 5.1 2.5 5.7 2.2 6.4 1.9 2.1 1.1 1.2 2 .1 2.3-.6 1.4-1 1.1-1.3.7-1.5.3z" fill="#ffffff" fill-rule="nonzero" group-id="1,2,5,14" node-id="141" stroke="none" target-height="58.69995" target-width="61.600006" target-x="212.5" target-y="629.4"/></g><g clip-path="url(#SVGID_6_)" group-id="1,2,5,15" node-id="144"><path d="m484 698.9-1.2-.2-2-1.2-1.1-1.9-.2-1.2V284.3l.6-2.3 1.6-1.6 1.1-.5 1.2-.1 2.3.6 1.6 1.6.6 2.3v410.1l-.2 1.2-1.1 1.9-2 1.2-1.2.2z" fill="#ffffff" fill-opacity="0.9" fill-rule="nonzero" group-id="1,2,5,15" node-id="146" stroke="none" target-height="419.10004" target-width="9" target-x="479.5" target-y="279.8"/></g><g clip-path="url(#SVGID_6_)" group-id="1,2,5,16" node-id="149"><path d="m382.9 901.8-224.6-31.7-2.7-1-.9-.8-1.1-1.6-.4-1.9.1-1.9.6-1.8 1.8-1.8 1.4-.7 311.3-113.2 5-1.6 5.2-1.2 5.2-.6 5.3-.2 5.3.2 5.2.8 532.7 97.9 2.6 1.2.9.9 1 1.6.4 1.9-.2 1.9-.8 1.8-1.9 1.8-1.4.6-29.2 8.6-265.9 65.3-354.9-24.5z" fill="#1d0b09" fill-opacity="0.25" fill-rule="nonzero" group-id="1,2,5,16" node-id="151" stroke="none" target-height="184.5" target-width="883.99994" target-x="153.2" target-y="741.8"/></g><path d="m579.9 196.3 107.9 89.5 1.5 1.6 1.1 1.8.7 2 .2 2.2 2 147.9.3 1.5.7 1.1 1.1.9 1.3.4h1.4l1.4-.6 39.3-26 1.4-.6h1.4l1.3.4 1.1.9 37.3 41.7 1.2.9 1.4.4 1.4-.1 1.4-.7 35.4-26.8 1.3-.7 1.3-.1 1.3.2 1.2.8 48.5 42.6 1.4.9 1.5.1 1.5-.4 1.2-.8.8-1.3.2-1.6-5.4-146.1-.3-2.1-.8-2-1.1-1.8-1.6-1.5-117.6-89.4-2.6-1.6-2.8-1.3-3-.8-167.2-31.5z" fill="#fcde65" fill-rule="nonzero" group-id="1,2" node-id="155" stroke="none" target-height="282.2" target-width="302.39996" target-x="579.9" target-y="196.3"/><path d="m1053.7 457.4-198.4-34.7-4.4-1.1-4.3-1.5-4-2-3.8-2.5-3.4-2.9-3.1-3.3-2.7-3.7-2.3-3.9-1.7-4.1-1.3-4.3-.8-4.4-.2-4.5.1-74.5.2-4.1.7-3.9 1.1-3.7 1.5-3.7 1.9-3.5 2.2-3.2 2.6-2.9 3-2.8 3.3-2.4 3.4-1.9 3.6-1.6 3.8-1.1 3.9-.8 3.9-.3 4 .2 4 .5 47.2 9.6 4.3 1.1 4.2 1.7 3.9 2 3.7 2.5 3.3 2.9 3.1 3.4 2.6 3.6 2.2 3.8 1.7 4.1 1.2 4.3.8 4.4.3 4.5v30.5l-.4 2.5-.9 2.3-1.4 2-1.9 1.6-2.2 1-2.6.6-32.5 2.2-1.5-.6-.6-1.4V330l-.3-1.4-.6-1.1-1.1-.9-1.2-.5-25.6-5.2-1.3-.1-2.1.9-1.2 1.9-.2 1.2-.1 52.1.2 1.4.7 1.2 1.1.8 1.3.5 185.2 33.5 1.4.5 1 .9.7 1.2.2 1.4-.7 35.2-.2 1.2-1.2 1.8-2 .9h-1.3z" fill="#2e2725" fill-rule="nonzero" group-id="1,2" node-id="157" stroke="none" target-height="183.29999" target-width="235.79999" target-x="823.3" target-y="274.1"/><path d="m135.4 499-.4-32.1.5-1.9 2.1-3.3 3.3-2.2L475 317.9l3.9-1.4 4-1.1 8.2-.9 8 .7L705 352.4l2.3-.3 1.8-1.4.6-2.2.3-58.1-.2-1.4-.7-1.2-1-.9-1.3-.5-25.8-5.1-2.4.2-1.7 1.4-.7 2.3V323l-.3 1-.6.7-.9.3-1-.1-31.3-12.8-2.8-1.6-2.4-1.9-2-2.4-1.5-2.8-.9-2.9-.3-3.3v-26.7l.2-4.1.7-3.9 1.1-3.8 1.4-3.6 1.9-3.5 2.3-3.2 2.6-3 3-2.7 3.2-2.4 3.5-2 3.6-1.6 3.7-1.1 3.9-.8 3.9-.3 4 .2 4 .5 47.5 9.6 4.4 1.1 4.1 1.6 4 2.1 3.6 2.5 3.4 2.9 3.1 3.3 2.6 3.7 2.2 3.9 1.7 4.1 1.2 4.3.8 4.3.2 4.6-.3 79.6-.3 4-.6 3.9-1.1 3.7-1.5 3.7-1.8 3.4-2.2 3.2-2.6 3-2.9 2.7-3.3 2.4-3.4 2-3.5 1.6-3.7 1.2-3.9.8-3.9.4-3.9-.1-4-.5-213.7-38.6-2.8-.3-2.9.1-2.8.5-2.7.9-345.3 141.8-1.3.3-2.4-.7-1.6-1.9-.2-1.3z" fill="#2e2725" fill-rule="nonzero" group-id="1,2" node-id="159" stroke="none" target-height="268.4" target-width="619" target-x="135" target-y="234.5"/><path d="m212.3 499.9-2-.2-2-.7-1.9-1-28.6-21.1-2.4-2.5-.9-1.6-.8-3.3.4-3.4.6-1.6 1-1.5 2.5-2.5 1.6-.8 3.3-.8 3.4.4 3.2 1.5 28.5 21 2.5 2.6.8 1.5.8 3.3-.4 3.4-.6 1.6-.9 1.6-1.7 1.8-1.9 1.3-2.2.7-2.3.3z" fill="#fcd514" fill-rule="nonzero" group-id="1,2,6" node-id="163" stroke="none" target-height="41" target-width="48.600006" target-x="173.7" target-y="458.9"/><path d="m186.4 536.9-3.5-.6-65.7-24.7-2.6-2.3-1.7-2.9-.6-3.4.2-1.7.5-1.8 1.8-3 2.6-2.2 3.2-1.1h3.4l1.8.4 65.7 24.7 2.6 2.3 1.7 2.9.6 3.4-.7 3.5-.9 1.9-1.3 1.6-1.5 1.2-3.6 1.6-2 .2z" fill="#fcd514" fill-rule="nonzero" group-id="1,2,6" node-id="165" stroke="none" target-height="43.700012" target-width="84.09999" target-x="112.3" target-y="493.2"/><path d="m128 589.3-2.3-.3-2.2-.8-1.9-1.2-1.6-1.7-1.1-2-.7-2.3-.1-1.9.6-3.3 1.7-3 2.6-2.2 3.4-1.1 55.2-9.3h3.5l3.2 1.2 2.6 2.2 1.7 3 .6 3.6-.6 3.4-1.7 2.9-2.6 2.2-3.4 1.2-56.9 9.4z" fill="#fcd514" fill-rule="nonzero" group-id="1,2,6" node-id="167" stroke="none" target-height="29.099976" target-width="75.1" target-x="118.1" target-y="560.2"/></g></g><g clip-path="url(#SVGID_2_)" group-id="1,3" id="body_3_" node-id="50"><path d="m785.7 942.9 4.4-3.7 4.1-2.6 4.9-2.6 7-2.9 5-1.6 13.1-3.2 7.2-1.1 8.4-.9 9.7-.6 9.7-.1 11 .3 33.9 2.9 32.8 2.1 22.4.7 17.2-.4 1.1.2.7.6.3.9-.1 1.1-3.9 7.5-3 4.6-7.4 9.2-8.1 7.7-4.6 3.6-5.3 3.6-6 3.6-6.3 3-7 2.9-8 2.6-12.4 2.8-14.8 1.8-11.9.5-11.1-.1-10.3-.6-10.2-1.1-9.4-1.3-8.4-1.7-15.9-4.2-16-5.8-13.4-6.3-7.4-4.4 8-17z" fill="#2e72fa" fill-rule="evenodd" group-id="1,3" node-id="172" stroke="none" target-height="61.80005" target-width="200.89996" target-x="777.7" target-y="923.6"/><path d="m748.7 925.9 13.3-.6 14.1.6 8.1.8 15 2.6 12.3 3.5 6.1 2.2 6 2.7 5.9 3.1 5.6 3.5 5.4 4 5.1 4.6 9.5 10.5 11.8 15.7 6.9 10.3 12.8 21.2 28.8 52 3.1 5 2.5 3v.6l-1.6 1.2-4.6.9-8 .1-4.9-.5-11.6-2.1-13.7-4.1-7.1-2.7-7.7-3.4-8.2-4.2-8-4.6-8.3-5.5-8.8-6.5-6.2-5-13-12-6.7-6.9-9.8-11.1-15.1-18.3L766 970l-8-13.3-4.9-10.4-2.5-6.9-1.3-4.8-.7-4.2.1-4.5z" fill="#2697fa" fill-rule="evenodd" group-id="1,3" node-id="174" stroke="none" target-height="148.10004" target-width="172.40002" target-x="748.6" target-y="925.3"/><path d="m737.7 1159.9 5 50h85l-6-52z" fill="#feda84" fill-rule="nonzero" group-id="1,3" node-id="176" stroke="none" target-height="52" target-width="90" target-x="737.7" target-y="1157.9"/><path d="m738.7 1160.9 4.5 49H272.7l.1-24.5.5-12.2 2.1-31.5 2-18.5 3.7-26 2.4-14.1 5.9-28.4 3.7-14.8 4.1-14.6 4.7-14.8 5.3-14.8 8.9-21.8 10.3-21.4 5.8-10.4 6.1-10.1 6.5-9.9 6.9-9.6 7.4-9.3 7.8-8.9 8.3-8.5 8.7-8.1 7.3-6.1 7.6-5.8 7.9-5.5 8.4-5.2 8.6-4.8 8.8-4.4 9.3-4 9.6-3.6 10.1-3.2 10.6-2.8 10.4-2.3 11-1.8 11.5-1.3 12.1-.8 12.6-.3 14.3.2 13.7.7 13.3 1.1 12.7 1.5 12.3 1.8 11.9 2.3 14.5 3.3 13.8 3.7 13.3 4.3 12.7 4.6 12.1 5.1 12 5.7 11.5 6.1 11 6.4 10.5 6.8 10 7.1 9.8 7.7 9.3 7.8 8.8 8.2 8.3 8.4 7.9 8.7 7.8 9.2 7.4 9.3 6.9 9.5 6.5 9.7 8.2 13.2 7.5 13.1 6.9 13.1 6.3 13.4 5.8 13 9.9 25.6 7.8 23.8 4.8 17.2 3.8 15 5.3 25.5 3.4 23h-133z" fill="#1f1e1b" fill-rule="nonzero" group-id="1,3" node-id="178" stroke="none" target-height="384.10004" target-width="599" target-x="272.7" target-y="825.8"/><path d="m876.5 1156.9-.3-1.2-1.4-1.9-2.1-.9h-1.2l-37.6 3.2-36.2 2.2-31.8.9H750l-15-.5-12.1-.8-15.1-2.2-9-2.4-4.3-2.4-1.1-1-2.5-4.3-2.2-6.9-1.3-5-3.3-15.5-3.9-23.5-4.5-32.9-2.6-21.3-3.2-28.8-6.7-69-.6-1-1.7-1.5-2.3-.4-1.2.3-1.9 1.3-1 2.1v1.2l6.5 68 6.1 52.7-5.2-6.5-4.8-6.6-4.3-6.7-4-6.9-6.8-13.4-4.3-9.9-6.4-17.7-2.2-7.1-4.1-16.2-.6-1-1.9-1.3-2.3-.2-2.2 1-1.3 1.9-.2 1.1v1.2l2.5 11 4.8 16 6.2 16.7 6.8 14.8 8.4 14.9 4.9 7.6 5.4 7.3 5.8 7.1 6.5 7 1.2.9 4.7 30.9 2.2 12 3.6 16.1 2.9 9.1 2.1 4.3 1.8 2.8 4 3.4 6.7 3.1 4.4 1.4 12.3 2.4 8.3.9 22.2 1.3 26.8.1 39.9-1.6 23.7-1.5 37.8-3.3 1.2-.3 1.9-1.3.9-2.1.1-1.2z" fill="#ffffff" fill-rule="nonzero" group-id="1,3" node-id="180" stroke="none" target-height="228.39996" target-width="260" target-x="616.5" target-y="939.8"/><path d="m692.4 858.1 1.6 1.8.2 1.9-.9 1.7-1.9.9-21.7-.6-12.7.2-15 .7-21.3 1.9-23.4 3.5-12 2.5-12.4 2.9-12.3 3.5-12.3 4.1-12.4 4.8-9.1 3.9-9 4.4-8.9 4.8-8.8 5.3-31.8 20.5-21.5 13.3-22.9 13.4-22.2 11.7-13.8 6.2-12.1 4.2-5.2 1.2-4.2.5h-3.2l-2.6-.5-2-1-1.5-1.2-.9-1.3-.9-3.7.1-2.6 1.1-7.6.2-4.4-.2-4.6-1-7-4.8-22.6-1.3-7.8-.7-8.2.1-4.5.4-4.3.9-4.3 1.2-4.2 3-7.4 3.7-6.2 6.1-6.9 5-4.6 5.8-4.7 6.4-4.6 13.7-8.4 7.8-4 16.9-7.3 8.9-3.3 19.5-5.7 10-2.3 10.4-2 10.8-1.6 11.3-1.3 11.3-.7 11.5-.4 11.9.2 12.2.6 17.7 1.5 16 1.9 14.4 2.1 14.5 2.6 12.9 2.7 22.9 6.1 18.9 6.2 16.1 6.6 15.1 7.7 6.4 3.8z" fill="#2697fa" fill-rule="evenodd" group-id="1,3" node-id="182" stroke="none" target-height="161.20001" target-width="345.5" target-x="348.7" target-y="816.1"/></g></g></svg>