<?xml version="1.0" standalone="no"?><svg xmlns="http://www.w3.org/2000/svg" width="1200" height="1200" viewBox="0 0 1200 1200"><defs><clipPath id="a"><path d="M0 0h1200v1200H0Z"/></clipPath><clipPath id="b"><path d="m769 915.8 262.5-64.3 2.9-.9 2.7-1.3 2.3-1.7 2.2-2 1.7-2.3 1.5-2.5 1.1-2.7.6-2.9.3-3 1.9-460.6-.2-1.9-1.1-3.4-1.4-2.3-2-1.9-3.2-1.8-1.8-.5-543.8-105.7-4.1-.6-4.1-.1-4 .2-4.1.7-3.9 1.1-3.9 1.5-323.2 141.6-2 1.2-1.8 1.5-1.4 1.8-1.1 2-.6 2.2-.2 2.4 1.9 439.8.2 3.3.8 3.1 1.3 2.9 1.6 2.6 2.1 2.3 2.4 2.1 2.6 1.6 3 1.1 3.2.8 209.2 28.9 361.7 26 38.2-8.3Z"/></clipPath><clipPath id="c"><path d="m1037.5 354.4 1-.1.8-.4.5-.7-.1-1.8-.8-.7-147.7-90.1-4.8-2.7-5-2.3-5.2-1.7-5.4-1.3-484.7-93.3h-1l-1.2 1.1v1.7l.6.7 87.3 71.1 3 2.1 6.9 3.3 4.4 1.5 10.6 2.6 540.8 111Z"/></clipPath><clipPath id="d"><path d="m738.7 1160.9 4.5 49H272.7l.1-24.5.5-12.2 2.1-31.5 2-18.5 3.7-26 2.4-14.1 5.9-28.4 3.7-14.8 4.1-14.6 4.7-14.8 5.3-14.8 8.9-21.8 10.3-21.4 5.8-10.4 6.1-10.1 6.5-9.9 6.9-9.6 7.4-9.3 7.8-8.9 8.3-8.5 8.7-8.1 7.3-6.1 7.6-5.8 7.9-5.5 8.4-5.2 8.6-4.8 8.8-4.4 9.3-4 9.6-3.6 10.1-3.2 10.6-2.8 10.4-2.3 11-1.8 11.5-1.3 12.1-.8 12.6-.3 14.3.2 13.7.7 13.3 1.1 12.7 1.5 12.3 1.8 11.9 2.3 14.5 3.3 13.8 3.7 13.3 4.3 12.7 4.6 12.1 5.1 12 5.7 11.5 6.1 11 6.4 10.5 6.8 10 7.1 9.8 7.7 9.3 7.8 8.8 8.2 8.3 8.4 7.9 8.7 7.8 9.2 7.4 9.3 6.9 9.5 6.5 9.7 8.2 13.2 7.5 13.1 6.9 13.1 6.3 13.4 5.8 13 9.9 25.6 7.8 23.8 4.8 17.2 3.8 15 5.3 25.5 3.4 23h-133Z"/></clipPath></defs><path fill="#faefbe" d="M0 0h1200v1200H0Z"/><g><g><g clip-path="url(#a)"><g clip-path="url(#b)"><path fill="#f7c20a" d="m757.6 924.7 2.8-.3 284.4-66.4 1.3-1.5 1.9-7 .7-4.5V368.9l-.3-2.3-.7-2.1-1.3-1.9-1.6-1.6-1.9-1.1-2.3-.8-545.4-106-4.1-.6-4.1-.1-4 .2-4.1.7-3.9 1.1-3.9 1.5-324.4 142.2-1.7 1-2.6 2.7-1.5 3.5-.2 1.9V867l.3 2.4.9 2.2 1.3 2 1.8 1.6 2.1 1.1 2.4.6 222 27.2 386.1 20.6Z"/></g><g clip-path="url(#b)"><path fill="#fffae6" d="M1048.2 968.8V655.7L494.6 546.1l-4.1-.6-4-.1-4.1.2-4 .7-4 1.1L91.2 691.2l6.6 270.7 950.4 6.9Z"/></g><g fill="#e84a2c" clip-path="url(#b)"><path d="m751 664-1.7-.2-1.5-.7-1.3-1.1-.9-1.5-.5-1.5-.1-1.5 1.1-2.9 1-1.1 1.4-.9 14.3-5.8 14.5-4.5 8.2-2 15.1-2.6 12.4-.7 1.6.2 1.4.6 2.2 2.2.8 3-.8 3-2.2 2.2-1.4.6-1.6.2-11.4.7-13.9 2.4-15.1 4.1-6.1 2.1-13 5.1-2.5.6Z"/><path d="m751 667-1.7-.2-3.1-1.2-2.5-2.3-.8-1.5-.8-2.3-.1-2.3.5-2.3 1.1-2 1.5-1.7 2.1-1.3 4.3-1.9 17-6.3 16.5-4.4 15.4-2.6 12.6-.7 2.4.3 2.1.9 1.9 1.4 1.4 1.9.9 2.1.3 2.4-.3 2.4-.9 2.1-1.4 1.9-1.9 1.4-2.1.9-13.5 1-13.6 2.3-14.8 4.1-6 2-12.7 5.1-1.8.6-2 .2Z"/></g><g clip-path="url(#b)"><path fill="#2e2725" d="m797.5 603.4 23.6-28.5.7-1.2.4-2.3-.4-1.7-1.1-1.5-2.1-1.3-1.4-.4-47.3-7.7-3.1.2-2.4 1.5-1.3 2.2-.2 1.3.9 2.7 23.6 36.3 1.3 1.4 1.7.9 1.9.4 1.9-.2 1.8-.8 1.5-1.3Z"/></g><g clip-path="url(#b)"><path fill="#2e2725" d="m648.6 473-42.8-6.9-2.2-.1-1.9.4-1.9.7-1.7 1.1-1.4 1.4-1.2 1.8-.8 2-.3 1.9.5 4 .9 1.8 1.3 1.7 19.9 22.4V525l.3 4.1.8 3.9 1.3 3.7 1.7 3.5 2.1 3.1 2.6 2.9 2.9 2.6 3.1 2.1 3.5 1.7 3.7 1.3 3.9.8 4.1.3 4.1-.3 3.9-.8 3.7-1.3 3.5-1.7 3.1-2.1 2.9-2.6 2.6-2.9 2.1-3.1 1.7-3.5 1.3-3.7.8-3.9.3-4.1v-22l-.2-4-.7-3.7-1.1-3.5-1.4-3.1-1.9-3-2.3-2.7-2.6-2.4-3-2.2-3.2-1.8-3.6-1.5-4-1.2-4.4-.9Z"/></g><g clip-path="url(#b)"><path fill="#2e2725" d="m971.7 542.8-.6-1.9-2.2-3.1-3.2-2-1.9-.5-40-7.1-3.8-.2-4 .3-3.7.7-3.6 1.3-3.4 1.7-3 2-2.8 2.5-2.5 2.8-2 3-1.7 3.4-1.3 3.6-.7 3.7-.3 4v22l.3 4 .7 3.7 1.3 3.6 1.7 3.4 2 3 2.5 2.8 2.8 2.5 3 2 3.4 1.7 3.6 1.3 3.7.7 4 .3 4-.3 3.7-.7 3.6-1.3 3.4-1.7 3-2 2.8-2.5 2.5-2.8 2-3 1.7-3.4 1.3-3.6.7-3.7.3-4v-11.9l20.4-15.3 1.2-1.5 1.3-3.6-.2-3.9Z"/></g><g clip-path="url(#b)"><path fill="#301a0f" fill-opacity=".3" d="m382.9 901.8-224.6-31.7-2.7-1-.9-.8-1.1-1.6-.4-1.9.1-1.9.6-1.8 1.8-1.8 1.4-.7 311.3-113.2 5-1.6 5.2-1.2 5.2-.6 5.3-.2 5.3.2 5.2.8 532.7 97.9 2.6 1.2.9.9 1 1.6.4 1.9-.2 1.9-.8 1.8-1.9 1.8-1.4.6-29.2 8.6-265.9 65.3-354.9-24.5Z"/></g><g clip-path="url(#b)"><path fill="#302c27" d="m637.5 433.5-4.1-.4-60.5-11.5-3-.8-2.6-1.1-4.7-3.1-2.7-2.7-2.1-3.1-1.5-3.4-1.2-5.6.3-5.9.8-3 1.2-2.8 1.5-2.5 3.9-4.4 4.8-3.1 5.6-1.8-10.4-10.4-3.6-4.7-2.1-5.3-.7-3.7v-3.7l.7-3.7 2.1-5.3 1.6-2.4 2-2.3 2.3-2 5-2.9 2.7-.8 3.7-.7h3.7l3.7.7 2.7.8 5 2.9 2.3 2 59.2 59.2 2.1 2.4 1.6 2.6 1.3 2.8.9 2.9.4 3 .1 3.1-.4 3.1-.8 2.9-1.3 3-3.1 4.4-4 3.5-4.6 2.4-2.5.8-5.3.6Z"/></g><g clip-path="url(#b)"><path fill="#302c27" d="m984.6 500-3.9-.4-56.1-10.2-3-.7-2.8-1.2-2.6-1.4-2.3-1.9-3.8-4.4-1.5-2.6-1.1-2.8-.7-3-.3-3.1.1-2.9 1.5-5.8 2.9-5.1 1.9-2.2 2.3-2 2.6-1.7 55.9-31.3 2.7-1.3 5.6-1.4 2.8-.2 3.8.4 3.6 1.1 3.4 1.6 4.4 3.4 3.6 4.8 1.3 2.8.9 2.7.6 5.6-.4 3.8-1 3.6-1.6 3.4-1.6 2.3-4.1 4.1-5.5 3.3 3.1 1.5 2.9 1.9 2.4 2.2 2.1 2.7 1.7 2.8 1.3 3.2.7 3.3.2 3.4-.4 3.6-.9 3.5-1.4 3.1-1.8 2.8-2.3 2.6-2.5 2.1-2.9 1.7-3.1 1.2-3.2.8-3.5.3Z"/></g><g clip-path="url(#b)"><path fill="#302c27" d="m1100.1 703.9-4.1-.4-100.7-19.1-3-.8-5.1-2.5-2.3-1.7-2.6-2.7-2.1-3.1-1.6-3.4-1.2-5.6.4-5.9.7-2.9 2.5-5.2 1.8-2.2 2.7-2.7 3.1-2.1 3.4-1.5 5.5-1.2 6 .3 100.7 19.1 3 .7 5.1 2.5 2.3 1.8 2.6 2.7 2.1 3.1 1.5 3.4 1.2 5.5.1 2.9-.4 3.1-.9 3.4-1.4 3.1-1.9 2.8-2.2 2.5-2.6 2.1-2.8 1.7-3.1 1.2-3.2.8-3.5.3Z"/></g><g clip-path="url(#b)"><path fill="#302c27" d="m1100.1 785.9-4.1-.4-100.7-19.1-3-.8-5.1-2.5-2.3-1.7-2.6-2.7-2.1-3.1-1.6-3.4-1.2-5.6.4-5.9.7-2.9 2.5-5.2 1.8-2.2 2.7-2.7 3.1-2.1 3.4-1.5 5.5-1.2 6 .3 100.7 19.1 3 .7 5.1 2.5 2.3 1.8 2.6 2.7 2.1 3.1 1.5 3.4 1.2 5.5.1 2.9-.4 3.1-.9 3.4-1.4 3.1-1.9 2.8-2.2 2.5-2.6 2.1-2.8 1.7-3.1 1.2-3.2.8-3.5.3Z"/></g><g clip-path="url(#b)"><path fill="#302c27" d="M288.6 638.5V509.2l.3-3.8.9-3.5 1.5-3.3 2-3 2.4-2.6 2.8-2.1 2.3-1.3 5.2-1.6 2.8-.3 3 .1 2.8.5 5.2 2 3 2.1 2.6 2.5 2.2 2.9 2.2 5.1.8 5.8v83.7L458 544.9l10.6-3.2 10.8-1.7 11-.2 11 1.4 66.9 12.6 2.8.8 4.9 2.4 2.2 1.6 2.5 2.6 2 2.9 1.5 3.3 1.1 5.3-.3 5.7-.7 2.8-2.4 4.9-1.7 2.1-2.6 2.5-2.9 2-3.3 1.5-2.6.8-5.4.4-2.9-.3-70.5-13.2-3.5-.2-7 .6-6.8 1.9-170.6 63.7-2.3.5-2.1.1-2-.4-2-.8-1.6-1.2-1.5-1.5-1.1-1.8-.7-2-.2-2.3Z"/></g><g clip-path="url(#b)"><path fill="#302c27" d="M362.2 517.3v-33.4l.4-3.5.8-3.3 1.4-3 1.9-2.7 2.2-2.4 2.7-1.9 2.9-1.5 3.2-.9 3.5-.3 2.7.1 5 1.5 2.3 1.2 3.9 3.2 2.9 4.1 1.1 2.4 15.3-6 3.4-.9 3.3-.4 3.4.3 3.2.9 3 1.3 2.7 1.9 2.4 2.4 1.9 2.7 1.5 3.3.8 3.3.2 3.3-.3 3.2-.9 3.1-1.4 2.8-1.9 2.7-2.3 2.3-2.6 1.9-3.1 1.5-51.8 20.1-2.3.6-2.1.1-2.1-.4-1.9-.8-1.7-1.2-1.5-1.5-1.1-1.8-.7-2-.3-2.3Z"/></g><g clip-path="url(#b)"><path fill="#302c27" d="M206 756V542.6l.2-3 1.4-5.5 1.2-2.6 2.1-3.1 2.5-2.7 3-2.2 5.1-2.4 5.7-1 3.1.1 3 .5 5.4 2.1 4.6 3.5 3.6 4.4 2.3 5.4.6 2.9.2 3.1v168.1l207.8-76.4 5.3-1.8 10.8-2.4 11-.9 11 .6 72.1 13.5 2.9.7 5.1 2.4 2.3 1.7 2.7 2.6 2.1 3 1.7 3.3 1.4 5.4-.1 5.9-.7 3-1 2.8-1.4 2.6-1.7 2.3-4.2 3.9-5.1 2.7-2.8.8-5.8.5-3.1-.3-70.5-13.2-3.4-.2-6.8.6-6.6 1.8-250.8 92.2-2.7.6-2.6.1-2.4-.5-2.3-1-2-1.4-1.8-1.8-1.3-2.2-.8-2.4-.3-2.7Z"/></g><g clip-path="url(#b)"><path fill="#fff" fill-opacity=".9" d="m484 698.9-1.2-.2-2-1.2-1.1-1.9-.2-1.2V284.3l.6-2.3 1.6-1.6 1.1-.5 1.2-.1 2.3.6 1.6 1.6.6 2.3v410.1l-.2 1.2-1.1 1.9-2 1.2-1.2.2Z"/></g><g fill="#fff" fill-opacity=".4" fill-rule="evenodd" clip-path="url(#b)"><path d="M280 382.6v39.1l.3 1 .6.7.9.3 1-.1 29.3-11.6 1.1-1.1.2-.8v-40l-.2-1-.7-.7-.9-.3-1 .1-29.3 12.5-.7.5-.6 1.4Z"/><path d="m230.8 444.2 29.3-11.6 1-.8.3-1.1v-38.5l-.2-1-.7-.7-.9-.3-1 .2-29.3 12.5-1.1 1-.2 38.4.3 1 .6.6.9.4 1-.1Z"/><path d="m179.8 464.3 29.3-11.6 1-.7.3-1.2v-36.9l-.2-1-.7-.7-.9-.3-1 .2-29.3 12.5-1.1 1-.2 36.8.3 1 .6.7.9.3 1-.1Z"/></g><path fill="#e8b109" d="m149.3 392.9-1 .1-1.4-.8-.4-1.6.5-.9 108.7-121.1 2.8-2.1 3.3-1.1 3.5.1 107 23.7 1.3 1 .1 1.6-.4.7-224 100.4Z"/><g clip-path="url(#c)"><path fill="#f7c20a" d="m1037.5 354.4 1-.1.8-.4.5-.7-.1-1.8-.8-.7-147.7-90.1-4.8-2.7-5-2.3-5.2-1.7-5.4-1.3-484.7-93.3h-1l-1.2 1.1v1.7l.6.7 87.3 71.1 3 2.1 6.9 3.3 4.4 1.5 10.6 2.6 540.8 111Z"/></g><path fill="#fffae6" d="m579.9 196.3 107.9 89.5 1.5 1.6 1.1 1.8.7 2 .2 2.2 2 147.9.3 1.5.7 1.1 1.1.9 1.3.4h1.4l1.4-.6 39.3-26 1.4-.6h1.4l1.3.4 1.1.9 37.3 41.7 1.2.9 1.4.4 1.4-.1 1.4-.7 35.4-26.8 1.3-.7 1.3-.1 1.3.2 1.2.8 48.5 42.6 1.4.9 1.5.1 1.5-.4 1.2-.8.8-1.3.2-1.6-5.4-146.1-.3-2.1-.8-2-1.1-1.8-1.6-1.5-117.6-89.4-2.6-1.6-2.8-1.3-3-.8-167.2-31.5Z"/><path fill="#302c27" d="m747.9 389.7-3.7-.3-3.3-1-3.1-1.4-2.8-2-2.4-2.4-2-2.8-1.5-3.1-.9-3.3-.3-3.7v-30l.3-3.7.9-3.3 1.5-3.1 2-2.8 2.4-2.4 2.8-2 3.1-1.4 3.3-1 3.7-.3 3.6.3 3.4 1 3.1 1.4 2.8 2 2.4 2.4 2 2.8 1.4 3.1.9 3.3.4 3.7v30l-.4 3.6-.9 3.4-1.5 3.1-1.9 2.8-2.4 2.4-2.8 2-3.1 1.4-3.4 1-3.6.3Z"/><path fill="#302c27" d="m829.9 404.7-3.7-.3-3.3-1-3.1-1.4-2.8-2-2.4-2.4-2-2.8-1.5-3.1-.9-3.3-.3-3.7v-30l.3-3.7.9-3.3 1.5-3.1 2-2.8 2.4-2.4 2.8-2 3.1-1.4 3.3-1 3.7-.3 3.6.3 3.4 1 3.1 1.4 2.8 2 2.4 2.4 2 2.8 1.4 3.1.9 3.3.4 3.7v30l-.4 3.6-.9 3.4-1.5 3.1-1.9 2.8-2.4 2.4-2.8 2-3.1 1.4-3.4 1-3.6.3Z"/></g></g><g clip-path="url(#a)"><path fill="#d63715" fill-rule="evenodd" d="m780.4 941 4.2-3.7 4-2.7 4.8-2.7 6.9-3 4.9-1.8 13.1-3.5 7.1-1.4 8.4-1.2 9.6-.9 9.7-.4 11-.1 41.1 1.9 21.7.6 32.5-.3 16.2-1 1 .2.8.6.4.9-.2 1-4 7.4-3.2 4.6-8 9.2-8.7 7.8-4.8 3.7-5.6 3.7-6.3 3.6-6.5 3.2-7.3 3.1-8.1 2.7-12.7 3.2-14.7 2.3-11.9.9-11.1.3-10.3-.2-10.3-.7-9.3-1-8.6-1.3-16-3.5-16.1-5.1-13.7-5.7-7.5-4 7.5-16.7Z"/><path fill="#f54431" fill-rule="evenodd" d="m743.7 925.9 13.3.4 14.1 1.5 8.1 1.4 9 1.9 9 2.5 9.3 3.2 12.1 5.4 5.9 3.3 5.7 3.7 5.3 4.1 5.1 4.6 11.1 12 13.7 17 15.3 21.3 28.6 43.7 3.9 5.3 2.3 2.7.4.7.1.7-.5.7-1.1 1-4.6 1.7-8 1.3-4.9.1-11.6-.7-6.5-1-7.2-1.6-7.1-2.1-7.7-2.7-8.2-3.6-5.9-3-12.5-7.5-12.9-9.4-6.4-5.5-6.5-6.2-6.8-6.9-9.8-11.1-15.1-18.3L761 970l-8-13.3-4.9-10.4-2.5-6.9-1.3-4.8-.7-4.2.1-4.5Z"/><path fill="#f7ca31" d="m737.7 1159.9 5 50h85l-6-52Z"/><g clip-path="url(#d)"><path fill="#216ec7" d="m738.7 1160.9 4.5 49H272.7l.1-24.5.5-12.2 2.1-31.5 2-18.5 3.7-26 2.4-14.1 5.9-28.4 3.7-14.8 4.1-14.6 4.7-14.8 5.3-14.8 8.9-21.8 10.3-21.4 5.8-10.4 6.1-10.1 6.5-9.9 6.9-9.6 7.4-9.3 7.8-8.9 8.3-8.5 8.7-8.1 7.3-6.1 7.6-5.8 7.9-5.5 8.4-5.2 8.6-4.8 8.8-4.4 9.3-4 9.6-3.6 10.1-3.2 10.6-2.8 10.4-2.3 11-1.8 11.5-1.3 12.1-.8 12.6-.3 14.3.2 13.7.7 13.3 1.1 12.7 1.5 12.3 1.8 11.9 2.3 14.5 3.3 13.8 3.7 13.3 4.3 12.7 4.6 12.1 5.1 12 5.7 11.5 6.1 11 6.4 10.5 6.8 10 7.1 9.8 7.7 9.3 7.8 8.8 8.2 8.3 8.4 7.9 8.7 7.8 9.2 7.4 9.3 6.9 9.5 6.5 9.7 8.2 13.2 7.5 13.1 6.9 13.1 6.3 13.4 5.8 13 9.9 25.6 7.8 23.8 4.8 17.2 3.8 15 5.3 25.5 3.4 23h-133Z"/></g><g clip-path="url(#d)"><path fill="#2e2725" d="m291.8 938.7-3.5-.3-3.3-.9-3.2-1.5-4.2-3.3-3.3-4.5-1.5-3.3-.8-3.4-.2-3.4.4-3.5 1-3.2 1.5-3.1 2-2.8 2.5-2.4 3.1-2 6.5-2.6 5.1-1.3 15-2.5 23-1.9 19.5-.8 23.8-.3 50.2.4 36.4 1 24.2 1.2 18.4 1.5 3.5.8 3.2 1.4 2.9 1.8 2.5 2.4 2.1 2.6 1.6 3.1 1.1 3.3.4 3.4-.1 3.6-.8 3.6-1.3 3.2-1.9 2.9-2.3 2.5-2.7 2.1-3 1.6-3.3 1.1-3.4.4-21.1-1.5-38.6-1.6-41.3-.7h-43.2l-25 .9-17.1 1.4-13.5 2-5.9 1.8-5.4.8Zm9.6-2.5-.1.1Z"/></g><g clip-path="url(#d)"><path fill="#2e2725" d="m289.8 1014.7-3.5-.3-3.3-.9-3.2-1.5-4.2-3.3-3.3-4.5-1.5-3.3-.8-3.4-.2-3.4.4-3.5 1-3.2 1.5-3.1 2-2.8 2.5-2.4 3.1-2 6.5-2.6 5.1-1.3 15-2.5 23-1.9 19.5-.8 23.8-.3 50.2.4 36.4 1 24.2 1.2 18.4 1.5 3.5.8 3.2 1.4 2.9 1.8 2.5 2.4 2.1 2.6 1.6 3.1 1.1 3.3.4 3.4-.1 3.7-.8 3.5-1.3 3.2-1.9 2.9-2.3 2.5-2.7 2.1-3 1.6-3.3 1.1-3.4.4-21.1-1.5-38.6-1.6-41.3-.7h-43.2l-25 .9-17.1 1.4-13.5 2-5.9 1.8-5.4.8Zm9.6-2.5-.1.1Z"/></g><g clip-path="url(#d)"><path fill="#2e2725" d="m279.8 1092.7-3.5-.3-3.3-.9-3.2-1.5-4.2-3.3-3.3-4.4-1.5-3.4-.8-3.4-.2-3.4.4-3.4 1-3.3 1.5-3 2-2.8 2.5-2.4 3.1-2.1 6.6-2.6 5.1-1.3 15.1-2.5 23.2-2 19.7-.8 24-.3 50.7.4 36.8 1.1 24.4 1.2 18.5 1.5 3.6.8 3.2 1.4 2.9 1.8 2.5 2.4 2 2.6 1.6 3.1 1.1 3.3.5 3.4-.1 3.7-.9 3.5-1.3 3.2-1.9 2.9-2.3 2.5-2.6 2.1-3.1 1.6-3.2 1-3.5.5-20.9-1.5-39-1.6-41.9-.8-43.7.1-25.3.9-17.4 1.4-13.6 2.1-5.8 1.7-5.5.8Zm9.6-2.4Z"/></g><g clip-path="url(#d)"><path fill="#2e2725" d="m269.8 1175.8-3.5-.3-3.3-.9-3.2-1.5-4.2-3.2-3.3-4.5-1.5-3.4-.8-3.3-.2-3.5.4-3.4 1-3.2 1.5-3.1 2-2.8 2.5-2.4 3.1-2 6.8-2.7 5.2-1.3 15.7-2.6 24-2.1 20.4-.8 24.8-.3 52.6.4 38.1 1.1 25.3 1.2 19.2 1.7 3.6.8 3.2 1.3 2.9 1.9 2.5 2.3 2 2.7 1.6 3 1.1 3.3.5 3.4-.1 3.7-.9 3.6-1.3 3.1-1.9 2.9-2.3 2.5-2.7 2.1-3 1.6-3.3 1.1-3.4.5-21.8-1.6-40.5-1.7-43.4-.8h-45.4l-26.4 1-18 1.5-14.2 2.2-5.9 1.8-5.5.7Zm9.6-2.4Z"/></g><g clip-path="url(#d)"><path fill-opacity=".2" d="m720.1 995.9.2-2.5.8-2.2 1.3-2 1.7-1.6 2.1-1.2 2.4-.7 43.2-6.1 29.3-3.2 9-.3 1.7.5 1.9 1.2 2.5 2.3 3.5 4.2 4.1 6.2 8.6 14.9 8.9 17.7 24.4 52.2 5.4 11.1 3.6 5.7-.5.7-2.1 1.3-3.9 1.8-13.3 4.7-27.6 8-20 5.1-18.6 4.2-15.1 2.9-5.4.1-2.3-.4-4.1-1.5-3.9-3.1-1.6-2.3-3.5-6.4-4.1-8.5-3.8-9.3-8-21.7-7.1-23.3-5.7-22.3-2-9.8-1.4-9.3-.6-7.1Z"/></g><path fill="#fff" d="m877 1156.8-.4-1.3-1.5-2.1-2.3-1h-1.3l-37.6 3.2-36.2 2.2-32.6.9h-15.4l-14-.4-10.6-.7-9.5-1-6.6-1.1-9.5-2.5-4.6-2.3-1.1-1-1.9-3.2-2.8-7.6-3.9-17.6-4.1-24.1-4-28.6-3.9-31.5-3.5-32.4-6.1-62.1-.5-1.1-2-1.7-2.5-.5-1.4.3-2.1 1.5-1 2.3-.1 1.3 6.5 68 5.8 51-5-6.4-8.8-13.1-3.9-6.8-6.6-13.2-4.2-9.7-6.2-17.3-2.1-6.9-4-16.2-.7-1-2.1-1.5-2.6-.2-2.4 1.1-1.4 2.1-.3 1.2v1.4l2.5 11 4.8 16.1 6.3 16.7 6.8 14.8 8.4 14.9 4.9 7.6 5.4 7.4 5.9 7.2 6.4 6.9 1.2.9 2.2 15.7 4 23.7 1.7 8.6 3.2 13.1 1.5 4.8 2.5 5.8 2.4 3.6 2.3 2.3 1.8 1.2 5.6 2.8 3.3 1.1 9.7 2.2 8.6 1.3 11.5 1 12.7.6 28.8.2 40.5-1.6 23.8-1.5 37.8-3.3 1.3-.3 2.1-1.5 1-2.3.1-1.4Z"/><path fill="#f54431" fill-rule="evenodd" d="m692.4 858.1 1.6 1.8.2 1.9-.9 1.7-1.9.9-21.7-.6-12.7.2-15 .7-21.3 1.9-23.4 3.5-12 2.5-12.4 2.9-12.3 3.5-12.3 4.1-12.4 4.8-9.1 3.9-9 4.4-8.9 4.8-8.8 5.3-31.8 20.5-21.5 13.3-22.9 13.4-22.2 11.7-13.8 6.2-12.1 4.2-5.2 1.2-4.2.5h-3.2l-2.6-.5-2-1-1.5-1.2-.9-1.3-.9-3.7.1-2.6 1.1-7.6.2-4.4-.2-4.6-1-7-4.8-22.6-1.3-7.8-.7-8.2.1-4.5.4-4.3.9-4.3 1.2-4.2 3-7.4 3.7-6.2 6.1-6.9 5-4.6 5.8-4.7 6.4-4.6 13.7-8.4 7.8-4 16.9-7.3 8.9-3.3 19.5-5.7 10-2.3 10.4-2 10.8-1.6 11.3-1.3 11.3-.7 11.5-.4 11.9.2 12.2.6 17.7 1.5 16 1.9 14.4 2.1 14.5 2.6 12.9 2.7 22.9 6.1 18.9 6.2 16.1 6.6 15.1 7.7 6.4 3.8Z"/><path fill="#fff" d="m722.3 982.9.1-2.5.7-2.3 1.3-2 1.6-1.7 2.1-1.2 2.3-.8 26.7-4.8 32.1-5.3 18.9-2.2 3.5-.1 1.6.2 2.2 1 2.1 1.4 2.3 2.1 3.6 4.4 4.3 6.1 8.9 14.8 9.3 17.2 25 50.3 5.7 10.7 2.2 3.6 1.4 1.6-.8 1.2-5.7 3.2-13.3 5.3-27.7 9.3-19.9 6-18.5 5.1-17.7 3.9-4.4-.1-3.8-1.3-3.4-2.6-1.5-1.9-3.2-5.1-3.7-6.8-7.4-16.3-7.6-18.9-7-20.1-5.9-19.7-4.3-17.7-1.4-7.9-.7-6.1Z"/><path fill="#de4526" d="m759 1021-2.3-.3-2.1-.7-1.9-1.2-1.5-1.6-1.2-1.9-.8-2.2-.2-1.8.5-3.4 1.6-3 2.5-2.3 3.3-1.4 53.8-11.2 3.4.5 3 1.6 2.3 2.5 1.4 3.3.2 1.8-.5 3.4-1.6 3-2.5 2.3-3.3 1.4-52 11-2.1.2Z"/><path fill="#de4526" d="m778 1065-2.2-.3-2-.6-1.9-1.2-1.6-1.5-1.2-1.8-.8-2.1-.3-1.8.4-3.5 1.5-3 2.4-2.4 3.2-1.5 52.8-13.3 3.5.4 3 1.5 2.4 2.4 1.5 3.2.3 1.8-.4 3.5-1.5 3-2.4 2.4-3.2 1.5-51 13-2.5.3Z"/></g></g></svg>