<!--version="1.0" standalone="no"--><!DOCTYPE html PUBLIC "-//W3C//DTD SVG 1.1//EN" "http://www.w3.org/Graphics/SVG/1.1/DTD/svg11.dtd"><svg height="1200" node-id="1" sillyvg="true" template-height="1200" template-width="1200" version="1.1" viewBox="0 0 1200 1200" width="1200" xmlns="http://www.w3.org/2000/svg" preserveAspectRatio="xMidYMid meet" zoomAndPan="magnify" contentScriptType="application/ecmascript" contentStyleType="text/css"><defs node-id="60"><clipPath id="SVGID_2_" node-id="8"><path d="M0 0h1200v1200H0z" fill="#000000" fill-rule="nonzero" node-id="63" stroke="none" target-height="1200" target-width="1200" target-x="0" target-y="0"/></clipPath><clipPath id="SVGID_4_" node-id="16"><path d="m768.8 915.8 262.6-64.3 2.9-.9 2.6-1.3 2.4-1.7 2.1-2 1.8-2.3 1.4-2.5 1.1-2.7.7-2.9.2-3 1.9-460.6-.1-1.9-1.1-3.4-1.5-2.3-2-1.9-3.2-1.8-1.8-.5L495 254.1l-4.1-.6-4-.1-4.1.2-4 .7-4 1.1-3.8 1.5-323.2 141.6-2.1 1.2-1.7 1.5-1.5 1.8-1 2-.7 2.2-.2 2.4 1.9 439.8.3 3.3.7 3.1 1.3 2.9 1.7 2.6 2 2.3 2.4 2.1 2.7 1.6 2.9 1.1 3.3.8L369 898.1l361.7 26 38.1-8.3z" fill="#000000" fill-rule="nonzero" node-id="67" stroke="none" target-height="670.69995" target-width="907.9" target-x="140.6" target-y="253.4"/></clipPath><clipPath id="SVGID_6_" node-id="45"><path d="m738.6 1160.9 4.5 49H272.6v-24.5l.5-12.2 2.2-31.5 2-18.5 3.6-26 2.4-14.1 6-28.4 3.7-14.8 4.1-14.6 4.7-14.8 5.2-14.8 8.9-21.8 10.4-21.4 5.7-10.4 6.1-10.1 6.5-9.9 7-9.6 7.3-9.3 7.8-8.9 8.3-8.5 8.7-8.1 7.3-6.1 7.6-5.8 8-5.5 8.3-5.2 8.7-4.8 8.8-4.4 9.2-4 9.6-3.6 10.1-3.2 10.6-2.8 10.5-2.3 10.9-1.8 11.5-1.3 12.1-.8 12.7-.3 14.2.2 13.8.7 13.2 1.1 12.8 1.5 12.3 1.8 11.8 2.3 14.5 3.3 13.9 3.7 13.2 4.3 12.7 4.6 12.1 5.1 12.1 5.7 11.5 6.1 11 6.4 10.4 6.8 10 7.1 9.8 7.7 9.3 7.8 8.8 8.2 8.4 8.4 7.9 8.7 7.8 9.2 7.3 9.3 6.9 9.5 6.5 9.7 8.3 13.2 7.5 13.1 6.8 13.1 6.4 13.4 5.7 13 9.9 25.6 7.8 23.8 4.9 17.2 3.7 15 5.3 25.5 3.5 23h-133z" fill="#000000" fill-rule="nonzero" node-id="71" stroke="none" target-height="384.10004" target-width="599" target-x="272.6" target-y="825.8"/></clipPath></defs><path d="M0 0h1200v1200H0z" fill="#ffe5d7" fill-rule="nonzero" node-id="75" target-height="1200" target-width="1200" target-x="0" target-y="0"/><g node-id="200"><g node-id="201"><g clip-path="url(#SVGID_2_)" group-id="1,2" id="head_10_" node-id="10"><g clip-path="url(#SVGID_4_)" group-id="1,2,5,11" node-id="84"><path d="m758.8 924.8 285.8-66.8.7-.5.8-1.6 1.3-4.2 1.2-5.9V360.7L495 253.1l-4.1-.6-4-.1-4.1.2-4 .7-4 1.1-3.8 1.5-330.4 144.8v475.1L371 904.1l387.8 20.7z" fill="#ffb3b5" fill-rule="nonzero" group-id="1,2,5,11" node-id="86" stroke="none" target-height="672.4" target-width="908" target-x="140.6" target-y="252.4"/></g><g clip-path="url(#SVGID_4_)" group-id="1,2,5,12" node-id="89"><path d="m920.8 601-4-.3-3.7-.7-3.6-1.3-3.3-1.7-3.1-2-2.8-2.5-2.4-2.8-2.1-3-1.7-3.4-1.2-3.6-.8-3.7-.3-4v-14l.3-4 .8-3.7 1.2-3.6 1.7-3.4 2.1-3 2.4-2.8 2.8-2.5 3.1-2 3.3-1.7 3.6-1.3 3.7-.7 4-.3 4 .3 3.8.7 3.5 1.3 3.4 1.7 3 2 2.8 2.5 2.5 2.8 2.1 3 1.7 3.4 1.2 3.6.8 3.7.2 4v14l-.2 4-.8 3.7-1.2 3.6-1.7 3.4-2.1 3-2.5 2.8-2.8 2.5-3 2-3.4 1.7-3.5 1.3-3.8.7-4 .3z" fill="#2e2725" fill-rule="nonzero" group-id="1,2,5,12" node-id="91" stroke="none" target-height="72" target-width="58" target-x="891.8" target-y="529"/></g><g clip-path="url(#SVGID_4_)" group-id="1,2,5,13" node-id="94"><path d="m643.8 549-4.1-.3-3.9-.8-3.6-1.3-3.5-1.7-3.2-2.1-2.9-2.6-2.5-2.9-2.2-3.1-1.7-3.5-1.3-3.7-.8-3.9-.3-4.1v-14.8l.3-4.1.8-3.9 1.3-3.6 1.7-3.5 2.2-3.2 2.5-2.9 2.9-2.5 3.2-2.2 3.5-1.7 3.6-1.3 3.9-.8 4.1-.3 4.2.3 3.8.8 3.7 1.3 3.5 1.7 3.2 2.2 2.8 2.5 2.6 2.9 2.1 3.2 1.8 3.5 1.3 3.6.7 3.9.3 4.1V519l-.3 4.1-.7 3.9-1.3 3.7-1.8 3.5-2.1 3.1-2.6 2.9-2.8 2.6-3.2 2.1-3.5 1.7-3.7 1.3-3.8.8-4.2.3z" fill="#2e2725" fill-rule="nonzero" group-id="1,2,5,13" node-id="96" stroke="none" target-height="74.79999" target-width="60" target-x="613.8" target-y="474.2"/></g><g clip-path="url(#SVGID_4_)" group-id="1,2,5,14" node-id="99"><path d="m653.1 588.2-1.8-.4-1-.5-1.4-1.9-.3-1.1.4-5.6-.3-4.3-.9-4.3-1.5-4.1-2.1-4.1-2.7-4.1-2.9-3.5-3.3-3.2-3.6-2.9-3.9-2.7-4.3-2.3-4.5-2-4.7-1.6-4.9-1.3-5.1-.9-2.2-.9-1.4-1.9-.3-2.3.9-2.1 1.9-1.4 1.1-.3 7.1 1 5.7 1.5 5.4 1.9 5.2 2.4 4.9 2.7 4.6 3.1 4.3 3.4 3.8 3.8 3.4 4.1 2.6 3.8 2.1 3.8 1.7 3.9 1.4 4 .9 4.1.5 4.1v4.1l-.4 4.2-.5 1.5-1 1.3-1.3.7-1.6.3z" fill="#ffd8d6" fill-rule="nonzero" group-id="1,2,5,14" node-id="101" stroke="none" target-height="59.700012" target-width="57.5" target-x="600.4" target-y="528.5"/></g><g clip-path="url(#SVGID_4_)" group-id="1,2,5,15" node-id="104"><path d="m909.8 628.9-1.7-.3-1.8-1.4-1-2v-1.3l.6-4.1 1-3.9 1.5-3.8 1.8-3.7 2.2-3.6 2.5-3.3 3-3.1 3.3-2.9 3.9-2.9 4.2-2.5 4.5-2.2 4.7-1.7 4.9-1.3 5-1 5.2-.5h5.2l5.4.3 2.1.9 1.5 1.8.3 2.3-.8 2.2-1.8 1.4-1.1.3-10.2-.2-8.7 1.2-8 2.6-7.4 3.8-3.3 2.4-3.4 3.2-2.9 3.4-2.4 3.6-1.9 3.9-1.2 4.1-1.2 5.8-1 1.3-1.4.9-1.6.3z" fill="#ffd8d6" fill-rule="nonzero" group-id="1,2,5,15" node-id="106" stroke="none" target-height="45.5" target-width="62.799988" target-x="905.3" target-y="583.4"/></g><g clip-path="url(#SVGID_4_)" group-id="1,2,5,16" node-id="109"><path d="m788.3 660.9-2.2-.3-2.2-.7-2-1.2-15-16.1-11.4-10.6-6.1-5-10.9-8.1L723 609l-1.3-1.7-.8-1.8-.3-2 .2-2.1.7-2 1.3-1.8 1.6-1.2 1.9-.9 2-.3 2.1.2 2 .8 3 1.7 12.1 7.8 11.8 8.7 14.3 12.4 6.3 6 9.4 10.2 21.4-12.8 10.6-5.7 15.6-7.3 9.4-3.5 2.1-.3 2 .2 2 .8 1.6 1.1 1.3 1.6.9 2 .4 2.1-.3 2.1-.7 1.9-1.2 1.7-1.6 1.3-10.2 4-14.3 6.7-19.6 11-16.3 10.2-2 .6-2.1.2z" fill="#f56262" fill-rule="nonzero" group-id="1,2,5,16" node-id="111" stroke="none" target-height="65.70001" target-width="136" target-x="720.6" target-y="595.2"/></g><g clip-path="url(#SVGID_4_)" group-id="1,2,5,17" node-id="114"><path d="m382.7 901.8-224.6-31.7-2.6-1-1-.8-1-1.6-.5-1.9.1-1.9.7-1.8 1.8-1.8 1.3-.7 311.3-113.2 5.1-1.6 5.1-1.2 5.2-.6 5.3-.2 5.3.2 5.3.8 532.6 97.9 2.6 1.2 1 .9.9 1.6.4 1.9-.2 1.9-.8 1.8-1.9 1.8-1.4.6-29.2 8.6-265.8 65.3-355-24.5z" fill="#b31111" fill-opacity="0.27" fill-rule="nonzero" group-id="1,2,5,17" node-id="116" stroke="none" target-height="184.5" target-width="884" target-x="153" target-y="741.8"/></g><g clip-path="url(#SVGID_4_)" group-id="1,2,5,18" node-id="119"><path d="M279.9 382.6v39.1l.2 1 .7.7.8.3 1.1-.1L312 412l1.1-1.1.2-.8v-40l-.3-1-.7-.7-.9-.3-1 .1-29.3 12.5-.7.5-.5 1.4z" fill="#ffffff" fill-opacity="0.9" fill-rule="evenodd" group-id="1,2,5,18" node-id="121" stroke="none" target-height="55.600006" target-width="33.399994" target-x="279.9" target-y="368.1"/><path d="m230.6 444.2 29.4-11.6.9-.8.4-1.1v-38.5l-.3-1-.7-.7-.8-.3-1.1.2-29.3 12.5-1.1 1-.1 38.4.2 1 .7.6.8.4 1-.1z" fill="#ffffff" fill-opacity="0.9" fill-rule="evenodd" group-id="1,2,5,18" node-id="123" stroke="none" target-height="54.099976" target-width="33.399994" target-x="227.9" target-y="390.2"/><path d="m179.6 464.3 29.4-11.6.9-.7.3-1.2v-36.9l-.2-1-.7-.7-.8-.3-1.1.2-29.3 12.5-1.1 1-.1 36.8.2 1 .7.7.8.3 1-.1z" fill="#ffffff" fill-opacity="0.9" fill-rule="evenodd" group-id="1,2,5,18" node-id="125" stroke="none" target-height="52.5" target-width="33.300003" target-x="176.9" target-y="411.9"/></g><g clip-path="url(#SVGID_4_)" group-id="1,2,5,19" node-id="128"><path d="m483.8 698.9-1.2-.2-2-1.2-1.1-1.9-.2-1.2V284.3l.6-2.3 1.6-1.6 1.1-.5 1.2-.1 2.3.6 1.6 1.6.6 2.3v410.1l-.2 1.2-1.1 1.9-2 1.2-1.2.2z" fill="#ffffff" fill-opacity="0.9" fill-rule="nonzero" group-id="1,2,5,19" node-id="130" stroke="none" target-height="419.10004" target-width="9" target-x="479.3" target-y="279.8"/></g><path d="m1037.3 354.4 1.1-.1 1.2-1.1.1-.9-.2-.9-.7-.7L891 260.6l-4.8-2.7-5-2.3-5.2-1.7-5.4-1.3L386 159.3h-1l-1.3 1.1v1.7l.7.7 87.2 71.1 3 2.1 7 3.3 4.3 1.5 10.6 2.6 540.8 111z" fill="#ffb3b5" fill-rule="nonzero" group-id="1,2" node-id="134" stroke="none" target-height="195.09999" target-width="655.99994" target-x="383.7" target-y="159.3"/><path d="m378 165.4-3.2-1.9-14.5-5.6-9-4.4-3.2-2.1-1.8-1.6-1-1.3-.3-1.1.3-1.7.8-1.6 1.3-1.7 2.1-1.9 3-1.9 3.7-1.9 4.6-1.9 12.9-4.1 20.1-4.4 25.5-3.9 29.7-3.2 23.9-1.8 26.3-1.4 27-.8 28.8-.3 28.8.3 27.1.8 26.3 1.4 23.8 1.8 15.6 1.5 26.9 3.5 23.6 4.3 16.4 4.3 10.4 3.9 3.6 1.9 3.1 1.9 2.1 1.9 1.3 1.7.8 1.6.2 1.7-.2 1.6-.8 1.7-1.3 1.7-2.1 1.8-6.7 3.9-4.7 1.9-12.8 4-20.1 4.4-25.5 3.9-29.8 3.2-23.8 1.9-26.3 1.3-27.1.9-38.3.2-.7.3-.3.6.1.7.7.4 32.3 6.8 6.2 1.1 6.1.6 6.3.1 24.4-.8 23.3-1.1 44.4-3.2 40-4.2 19.2-2.6 17.4-2.9 15.5-2.9 15.6-3.4 13.2-3.5 11.2-3.5 8.6-3.2 6.9-3 5.7-3 4.4-2.9 3.6-2.9 2.5-2.7 1.7-2.6.9-2.6.3-2.5-.3-2.5-.8-2.4-1.5-2.5-2.2-2.5-3.1-2.8-3.9-2.7-5-2.8-6.1-3-7.6-3-9.9-3.4-11.7-3.4-13.8-3.5-13.8-2.9-15.4-2.8-17.2-2.8-35.8-4.5-19.9-2-41-3-22.2-1.1-45-1.3-23.8-.1-23.7.1-45 1.3-22.2 1.1-41 3-20 2-35.7 4.5-17.2 2.8-15.4 2.8-13.9 2.9-13.7 3.5-11.8 3.4-9.9 3.4-7.5 3-6.1 3-5 2.8-3.9 2.7-3.1 2.8-2.2 2.5-1.5 2.5-.9 2.4-.3 2.5.3 2.1.7 2.2 1.2 2.2 1.7 2.3 2.5 2.4 3.1 2.5 4 2.5 5 2.6 6 2.8 8 3 9.5 3.1 11.1 3.2 23.9 5.4 14 2.6 29.4 4.5 16.5 2 .9-.1 1.2-1.1v-1.5l-.6-.8-15.4-13.4z" fill="#fcde65" fill-rule="nonzero" group-id="1,2" node-id="136" stroke="none" target-height="108.49999" target-width="600" target-x="255" target-y="81.9"/><path d="m149.2 392.9-1 .1-1.5-.8-.3-1.6.4-.9 108.7-121.1 2.8-2.1 3.3-1.1 3.5.1 107.1 23.7 1.2 1 .1 1.6-.3.7-224 100.4z" fill="#f09a9d" fill-rule="nonzero" group-id="1,2" node-id="138" stroke="none" target-height="127.600006" target-width="227.1" target-x="146.4" target-y="265.4"/><path d="m579.7 196.3 107.9 89.5 1.5 1.6 1.1 1.8.7 2 .2 2.2 2 147.9.3 1.5.8 1.1 1 .9 1.4.4h1.3l1.5-.6 39.3-26 1.3-.6h1.4l1.3.4 1.2.9 37.2 41.7 1.2.9 1.4.4 1.4-.1 1.4-.7 35.5-26.8 1.2-.7 1.3-.1 1.3.2 1.2.8 48.5 42.6 1.5.9 1.5.1 1.4-.4 1.2-.8.8-1.3.3-1.6-5.4-146.1-.4-2.1-.7-2-1.2-1.8-1.6-1.5-117.6-89.4-2.6-1.6-2.8-1.3-3-.8-167.2-31.5z" fill="#5cb8e6" fill-rule="nonzero" group-id="1,2" node-id="140" stroke="none" target-height="282.2" target-width="302.5" target-x="579.7" target-y="196.3"/><path d="m280.3 679.5-4.7-.3-4.5-.7-4.4-1.3-4.3-1.7-4-2.1-3.8-2.6-3.5-2.9-3.3-3.3-2.9-3.8-9.2-13.7-.5-1.8-.1-1.9.3-1.9 1.6-3 2.7-2.1-15 6.1-4.8 1.5-4.8 1-4.9.3-4.2-.3-4.1-.6-4-1.2-3.8-1.5-3.6-2-3.5-2.3-3.2-2.7-2.9-3.1-5.9-8.2-.9-1.7-.5-1.8-.1-1.9.4-1.9.7-1.8 1.1-1.5 1.4-1.2 1.7-.9L280 569.5l-121.6 49.3-7.8 2.3-8.2.8-4.5-.2-4.4-.7-4.3-1.2-4.1-1.6-4-2-3.8-2.5-3.5-2.8-3.2-3.2-2.9-3.5-11.3-15.5-1.4-2.5-.8-2.5-.2-2.7.4-2.6 1-2.5 1.6-2.2 2.1-1.8 2.6-1.3 241.9-96.3 7.9-2.3 8.1-.8 4.5.2 4.3.7 4.1 1.1 3.9 1.5 3.9 1.9 3.5 2.2 3.3 2.5 3.1 2.9 2.8 3.2 2.5 3.4 2.2 3.7 1.8 3.9 1.5 4.1 1 4.2.7 4.4.2 4.6v73.4l-.3 6.7-.9 6.4-1.6 6.2-2.1 6-2.7 5.7-3.2 5.3-3.7 5.1-4.1 4.6-4.7 4.3-7.7 5.4-8.7 4.3-67 27.2-7.8 2.4-8.1.8z" fill="#ffffff" fill-rule="nonzero" group-id="1,2,6" node-id="144" stroke="none" target-height="208.29999" target-width="308.9" target-x="94" target-y="471.2"/><path d="m359.6 475.7 3.9.2 7.3 1.5 3.5 1.3 4.5 2.3 4.1 2.8 3.8 3.3 4.9 5.8 3.7 6.9 1.3 3.7 1 3.8.6 4.1.3 4.3v73.5l-.4 6.1-.8 5.9-1.5 5.8-2 5.6-2.5 5.3-3 5-3.4 4.7-3.9 4.3-4.3 4-4.7 3.5-5 3-5.5 2.6-67 27.2-4.7 1.5-4.8 1-4.7.3-4.1-.3-4-.6-3.9-1.1-3.8-1.5-3.6-1.8-3.5-2.3-3.2-2.7-2.9-3-2.7-3.4-8.3-12-.6-1.2v-2.3l1.3-1.9 1-.7 61.6-25 1.8-1.4.9-2.1-.3-2.3-.7-1.2-.9-.9-2.4-.7-1.6.3-77.4 31.4-4.3 1.4-4.2.8-4.3.3-7.2-.8-6.8-2.3-3.3-1.7-5.9-4.5-2.6-2.7-5.7-7.9-.5-1.2v-2.3l1.2-1.9 1.1-.6 118.2-48 1.9-1.4.8-2.2-.2-2.3-.7-1.2-1-.9-2.4-.7-1.6.3-138.8 56.2-4.7 1.5-4.8 1-4.7.3-4-.2-3.9-.7-3.8-1-3.7-1.4-3.6-1.8-3.4-2.2-3.1-2.5-2.9-2.9L100 586l-1.4-2.9-.2-1.5.6-2.7 1.6-2.4 2.8-1.8 241.9-96.2 4.8-1.6 4.8-.9 4.7-.3m0-9-4.5.2-4.5.7-4.3 1-4.4 1.6L100 566.4l-2.4 1.2-3.9 3.1-2.8 4.1-.9 2.4-.4 2.4.1 4.9 1.7 4.6 1.4 2.2 11.3 15.5 3.2 4 3.6 3.5 3.8 3.1 4.2 2.7 4.3 2.2 4.6 1.8 4.8 1.3 4.8.8 5 .2 4.6-.2 4.4-.6 4.4-1.1 13.2-5.1.4 2.3.7 2.2 4.5 6.9 2.9 3.8 3.2 3.4 3.6 3 3.8 2.6 4.1 2.2 4.3 1.7 4.4 1.3 4.6.7 4.7.3 8.2-.8 4-1 8.2-3.1.3 2.3.8 2.2 1.2 2 8.3 12 3.2 4.1 3.6 3.7 3.9 3.3 4.2 2.8 4.4 2.3 4.7 1.9 4.9 1.4 5 .8 5.1.3 4.6-.2 4.4-.7 4.4-1.1 4.3-1.5 67-27.2 9.1-4.5 8.2-5.8 7.3-7 6.3-8.1 2.7-4.4 4.3-9.3 1.7-4.8 2.2-9.9.7-10.3v-73.5l-.2-5-.8-4.9-1.1-4.7-1.6-4.4-2.1-4.4-2.4-4-2.7-3.7-3.1-3.5-3.4-3.2-3.7-2.8-3.9-2.5-4.2-2.1-4.4-1.6-4.5-1.2-4.8-.7-4.9-.3z" fill="#ffb3b5" fill-rule="nonzero" group-id="1,2,6" node-id="146" stroke="none" target-height="217.29999" target-width="317.8" target-x="89.6" target-y="466.7"/></g></g><g clip-path="url(#SVGID_2_)" group-id="1,3" id="body_9_" node-id="37"><path d="m1006.4 1005.7-2.5-1.2-2 .2-136.2 51.6-1.7 1-1.4 1.2-1 1.6-.6 1.7-.2 1.8.3 2 .9 2 1.4 1.6 1.8 1.2 2 .6 2.1.1 2.2-.6 134.1-57.6 1.7-1.3.8-1.9-.3-2.3-1.4-1.7z" fill="#5cb8e6" fill-rule="nonzero" group-id="1,3,7" node-id="153" stroke="none" target-height="66.599976" target-width="147.29999" target-x="860.8" target-y="1004.5"/><path d="m1051.9 916.7 19.2 36.9 1.8 2 1.3.5 1.4.2 41.6-.3 2.6.7 1 .8 1.3 2.1.1 2.6-.5 1.2-.9 1.2-29.1 29.6-.8 1.2-.5 1.2-.1 1.4.2 1.4 13.2 39.4.1 2.8-1.2 2.2-2 1.4-2.6.2-1.4-.4-37.2-18.6-2.7-.5-1.3.3-1.3.7-33.4 24.7-1.3.7-1.3.3-1.2-.1-2.3-1-.9-.9-1-2.4v-1.4l6.1-41.1v-1.5l-.3-1.3-1.7-2.1-33.9-24.2-1.7-2.1-.4-1.2.3-2.5 1.4-2.1 2.5-1.2 41-6.9 2.5-1.2 1.5-2.2 13.2-41 1.9-1.7 2.4-.5 2.5.7 1.9 2z" fill="#fcd514" fill-rule="nonzero" group-id="1,3,7" node-id="155" stroke="none" target-height="138.59998" target-width="141.39996" target-x="980.8" target-y="914"/><path d="m737.6 1159.9 5 50h85l-6-52z" fill="#ffb3b5" fill-rule="nonzero" group-id="1,3" node-id="158" stroke="none" target-height="52" target-width="90" target-x="737.6" target-y="1157.9"/><g clip-path="url(#SVGID_6_)" group-id="1,3,8,20" node-id="162"><path d="m738.6 1160.9 4.5 49H272.6v-24.5l.5-12.2 2.2-31.5 2-18.5 3.6-26 2.4-14.1 6-28.4 3.7-14.8 4.1-14.6 4.7-14.8 5.2-14.8 8.9-21.8 10.4-21.4 5.7-10.4 6.1-10.1 6.5-9.9 7-9.6 7.3-9.3 7.8-8.9 8.3-8.5 8.7-8.1 7.3-6.1 7.6-5.8 8-5.5 8.3-5.2 8.7-4.8 8.8-4.4 9.2-4 9.6-3.6 10.1-3.2 10.6-2.8 10.5-2.3 10.9-1.8 11.5-1.3 12.1-.8 12.7-.3 14.2.2 13.8.7 13.2 1.1 12.8 1.5 12.3 1.8 11.8 2.3 14.5 3.3 13.9 3.7 13.2 4.3 12.7 4.6 12.1 5.1 12.1 5.7 11.5 6.1 11 6.4 10.4 6.8 10 7.1 9.8 7.7 9.3 7.8 8.8 8.2 8.4 8.4 7.9 8.7 7.8 9.2 7.3 9.3 6.9 9.5 6.5 9.7 8.3 13.2 7.5 13.1 6.8 13.1 6.4 13.4 5.7 13 9.9 25.6 7.8 23.8 4.9 17.2 3.7 15 5.3 25.5 3.5 23h-133z" fill="#ffffff" fill-rule="nonzero" group-id="1,3,8,20" node-id="164" stroke="none" target-height="384.10004" target-width="599" target-x="272.6" target-y="825.8"/></g><g clip-path="url(#SVGID_6_)" group-id="1,3,8,21" node-id="167"><path d="M774.9 1141.9h-18.2l-14.3-.4-13-.8-9.6-1-2.9-.6-2.2-.9-1.8-1-1.5-1.4-1.1-1.5-1.1-3.2.3-3.2 1.4-2.6 2.6-1.8 1.6-.3 26.1 1.8 22.7.4 30-.8 38-2.6 2.1.1 1.9.6 1.8 1 1.4 1.4 1.1 1.7.6 2.1.2 1.6-.6 3-1.2 1.9-1.6 1.6-2.7 1.4-18.3 1.6-14.9.9-26.8 1z" fill="#fcde65" fill-rule="nonzero" group-id="1,3,8,21" node-id="169" stroke="none" target-height="19.900024" target-width="131.79999" target-x="709.2" target-y="1122"/></g><g clip-path="url(#SVGID_6_)" group-id="1,3,8,22" node-id="172"><path d="m861.6 1161.8-3.5-22.8-5.2-25-3.7-14.7-4.7-16.6-8.9-26.7-5.5-14.3-6.4-15.3-9.8-20.5-11.5-21.1-6.4-10.4-6.9-10.5-7.3-10.1-7.7-10.1-8.3-9.8-8.3-9-8.6-8.6-8.9-8.1-9.2-7.7-9.5-7.3-9.8-6.8-10.2-6.5-10.4-5.9-10.7-5.6-11-5.1-11.3-4.7-11.7-4.3-12-3.9-12.3-3.4-12.2-2.9-12.5-2.5-12.9-2.1-13.1-1.6-13.5-1.2-13.9-.7-14.2-.2-12.4.3-11.9.8-11.6 1.4-11.1 1.9-10.9 2.4-10.4 3-10.2 3.4-10.1 4.1-9.8 4.5-9.5 5.1-9.1 5.6-8.9 6.2-8.6 6.7-8.4 7.3-7.5 7.3-7.3 7.7-7.1 8.3-6.8 8.9-6.7 9.4-6.5 10-5.8 10-5.7 10.5-5.4 11.1-5.2 11.6-5 12.3-4.7 12.9-18.9-6.6 5-13.7 5.3-13 5.6-12.4 5.8-11.8 6-11.2 6.3-10.7 6.9-10.7 7.2-10 7.4-9.5 7.6-8.9 7.8-8.4 8.1-7.8 8.1-7.1 8.2-6.5 8.5-6.1 8.7-5.7 8.9-5.1 9.2-4.8 9.4-4.3 9.7-3.8 9.7-3.4 10-2.9 10.3-2.5 10.5-2.1 10.8-1.6 11.2-1.2 11.4-.7 11.9-.2 16.5.3 15.7.9 14.9 1.4 14.2 1.8 14.3 2.5 13.6 2.8 12.8 3.3 12.2 3.5 12.2 4.2 11.5 4.3 10.9 4.6 10.3 4.9 10.2 5.3 18.8 10.9 8.5 5.7 11.1 8 10.2 8.1 9.2 8 8.9 8.4 8 8.1 7.2 7.9 8.8 10.4 8.2 10.6 7.6 10.7 7.3 11.1 6.8 11 6.2 11 11.3 22.1 4.9 10.6 6.8 16.1 5.8 15.1 5.1 14.7 4.2 13.2 4.9 17.3 3.8 15.2 5.4 25.8 1.7 10.4 1.9 13.9-19.9 1.9z" fill="#5cb9e6" fill-rule="nonzero" group-id="1,3,8,22" node-id="174" stroke="none" target-height="346.00006" target-width="587.4" target-x="294.1" target-y="815.8"/></g><g clip-path="url(#SVGID_6_)" group-id="1,3,8,23" node-id="177"><path d="M743.1 1219.9H262.9l-.4-15.3.3-24.1 1.3-25.2 1.3-15 19.9 1.9-1.8 23.8-.9 19.6-.2 14.3H743v20z" fill="#5cb9e6" fill-rule="nonzero" group-id="1,3,8,23" node-id="179" stroke="none" target-height="79.599976" target-width="480.59998" target-x="262.5" target-y="1140.3"/></g><path d="m874.8 1156.8-.4-1.3-1.4-2.1-2.3-1h-1.4l-37.1 3.2-35.8 2.2-32.2.9H749l-13.9-.4-10.5-.7-9.3-1-6.6-1.1-9.4-2.5-4.5-2.3-1.1-1-2-3.2-2.7-7.6-4-17.6-4.1-24.1-4-28.6-3.8-31.5-3.6-32.5-6-62-.6-1.2-1.9-1.6-2.6-.5-1.3.3-2.1 1.5-1.1 2.3-.1 1.3 6.5 68 5.9 51-5-6.4-8.8-13.2-3.9-6.8-6.6-13.1-4.2-9.7-6.3-17.3-2.1-7-4-16.1-.7-1-2.1-1.5-2.6-.2-2.3 1.1-1.5 2.1-.3 1.2.1 1.4 2.5 11 4.7 16.1 6.3 16.7 6.8 14.8 8.4 14.9 5 7.6 5.3 7.4 5.9 7.1 6.5 7 1.1.9 2.3 15.7 3.9 23.7 1.7 8.6 3.2 13.1 1.5 4.8 2.5 5.8 2.4 3.6 4.1 3.5 5.6 2.8 3.3 1.1 9.5 2.2 8.5 1.3 11.5 1 12.5.6 28.5.2 40.1-1.6 23.4-1.6 37.4-3.2 1.4-.3 2-1.5 1-2.3.1-1.4z" fill="#5cb8e6" fill-rule="nonzero" group-id="1,3" node-id="183" stroke="none" target-height="229.39996" target-width="259" target-x="615.8" target-y="939.3"/><path d="m493 1128.5-10.5-.6-11.5-1.8-12.3-3.4-6.3-2.3-6.5-2.9-6.8-3.5-6.6-3.9-7-4.7-9.1-7.3-8.6-8.7-3.8-4.8-3.6-5.1-2.3-4.1-3.7-8.8-1.4-4.7-1.2-5.6-.5-5.2-.1-4.9 1.1-9.4 2.5-7.9 3.1-6.1 2.3-3.1 2.9-2.8 3.5-2.5 4.3-2.4 5.1-2.1 6.3-1.9 7.5-1.7 8.8-1.5 10.5-1.2 13.6-.9 16-.7 28.5-.7 16.8-1.2 11.6-1.5 9.7-1.6 28-5.7 6.1-.5 4.5.6 2 .8 1.7 1.3 1.6 1.7 1.2 2 .8 2.3.4 2.8-.2 5.6-1.9 6.9-3.5 7.3-2.3 3.6-5.4 6.9-3.2 3.4-7 6.1-3.9 2.8-5.7 3.5-6 3.1-6.4 2.7-6.8 2.3-6.9 1.7-7.1 1.3-7.4.8-7.7.3-27.8-.2-20.5-1.2-2.4-1-1.6-1.9-.4-2.6.9-2.5 2-1.6 2.6-.4 19.8 1.2 27.3.2 7.2-.3 6.7-.8 6.3-1.1 5.8-1.5 11.2-4.1 4.9-2.4 8.9-5.6 4-3.1 6.5-6.4 5.2-7.1 3.3-6.9 1.5-5.5-.2-4-.4-.8-1.2-.3-2.5.1-6.3 1.1-24.1 5-9.9 1.6-12 1.5-17.3 1.3-41.5 1.2-12.7.8-18.1 2.1-7 1.3-5.9 1.5-4.9 1.7-4 1.9-3.1 2-2.4 2.1-1.8 2.3-2.4 4.7-1.1 3.2-1.3 6.7-.3 3.9.5 8.2 1 4.5 1.4 4.7 2.3 5.4 4.3 7.4 3.1 4.1 7.3 7.9 4.8 4.3 5.1 3.9 6 4 7 4.2 12.6 6 11.6 3.9 7.8 1.7 7.3 1.1 6.8.5 6.8-.1 6.3-.4 11.4-2.1 9.2-2.8 6-2.5 4.3-2.2 3.4-2.2 2.3-2.2 1.1-.6 2.5-.3 1.2.3 2.2 1.6.7 1.1.3 2.5-1 2.5-3 2.7-3 2.1-7.1 3.8-9.9 3.9-12.1 3.1-8.7 1.3-10 .5z" fill="#f59397" fill-rule="nonzero" group-id="1,3,9" node-id="187" stroke="none" target-height="137.70001" target-width="200.39996" target-x="391.2" target-y="990.8"/><path d="m499.1 1097.6-12.2-.5-8.2-1.1-2-1.6-.9-2.3.3-2.7 1.6-2 2.3-1 17.1 1.2 7.2-.1 6.9-.5 6.5-.9 6.6-1.5 6.2-1.9 5.7-2.2 5.4-2.7 5-3.1 4-3 5.8-5.3 3.5-4 4.4-6.8 1-.8 2.4-.9 2.5.5 1.2.7 1.4 2.1.2 2.5-1.6 3.5-3.4 5-6.1 6.9-4.1 3.6-8.6 6.2-9.3 4.8-5.1 2.1-5.9 1.9-6.7 1.7-6.8 1.2-7.7.7-8.6.3z" fill="#f59397" fill-rule="nonzero" group-id="1,3,9" node-id="189" stroke="none" target-height="43.69995" target-width="97.20001" target-x="475.8" target-y="1053.9"/><path d="m274.2 1116.3 7.8-.8 7.3-1.3 6.8-1.8 6.5-2.1 6.3-2.7 5.9-2.9 5.6-3.3 5.2-3.6 5-4 9-8.5 7.8-9.3 3.8-5.6 3.7-6 3.4-6.4 3-6.6 2.4-6.6 2.1-8.8.5-4 .1-4.1-.5-3.7-.9-3.3-1.1-2.4-1.4-2.1-1.8-2-2.1-1.7-3.9-2.3-4.3-1.8-4.7-1.3-10-1.7-5.5-.3-8.3-.2-25.1.5-8-.1-7.3-.5-7-1.2-6.8-1.5-24.9-7.3-3.7-.8-6.5-.7-3.1.2-2.8.7-2.5 1.1-1.7 1.2-2.6 3.2-1 2-.7 2.8-.2 3.2.4 3.6 1 3.5 1.7 3.7 2.5 4 2.2 2.7 5.9 5.5 7.9 5.1 4.5 2.3 11.4 4.3 7.5 2 6.6 1.5 11.3 1.5 7.4.3 6.2-.3 5.2-.7-12.2-5.6-19.9-7.9-15.1-4.6-7.4-1.7-9.4-1.2h-4.1l-4 .4-3.4.8-2.8 1.3-1.9 1.4-1.5 1.7-1.1 2-.8 2.5-.7 4.8-.2 4.1.3 3.6.8 3.5 1.1 3.1 1.4 2.8 3.5 4.8 5.1 4.4 5.6 3.3 3.9 1.6-5.5-4.5-3.8-1.4h-1.8l-1.1.3-1.9 2-.6 1.3-.6 4.8.1 2.8 1.2 7 2.7 7.4 2.2 3.9 2.5 3.6 3.1 3.5 3.8 3.4 6.6 4.2 4 1.8 4.5 1.6 4.5 1.2 5.1.8 5.8.5 6.5.1z" fill="#ffffff" fill-rule="nonzero" group-id="1,3,10" node-id="194" stroke="none" target-height="122.80005" target-width="151.2" target-x="215.2" target-y="993.5"/><path d="m270.6 1121.4-9.9-.8-9.9-2.3-9-3.6-4.3-2.3-3.8-2.5-3.4-2.8-2.8-2.9-2.3-3-1.8-3-1.4-3.2-.8-3.2-.4-3.2.2-1.4 1.2-2.2 2.1-1.4 1.4-.2 2.5.7 1.9 1.7.5 1.1.5 3.7 1.8 4.3 1.3 1.8 2.9 3 3 2.4 3.4 2.2 3.9 2 8.4 3.1 9.1 1.7 9 .2 7.9-.8 7.5-1.4 7.3-2 6.9-2.5 6.7-3.1 6.4-3.6 6.2-4.2 5.9-4.8 5.7-5.4 5.4-6 3.8-5 3.7-5.9 3.4-6.3 2.9-6.6 3-9.1 1.6-8.8.2-4-.3-3.7-.6-3.1-1-2.6-1.3-2.2-1.5-1.9-1.9-1.5-3.9-2.2-4.2-1.7-4.7-1.2-9.8-1.3-5.4-.2-29.8.4-13.1-.6-7.2-1.2-7-1.6-24-7-5-1.1-4.2-.5h-2.7l-2.2.5-1.9.8-1.3.9-1 1.2-1.2 3.1-.1 4 .6 3 1.3 3.3 2.1 3.6 4.3 5 6.6 5.2 3.6 2.3 9.5 4.3 5.9 2.1 8.1 2.1 7.5 1.6 7 .9 7 .4 6.4-.1 7.2-.8 2.4.9 1.6 1.9.4 1.3-.2 2.6-1.5 2.1-1 .7-6.3 1.1-5.2.3-11.4-.4-7.8-1-8.2-1.7-8.9-2.4-7-2.4-5.9-2.5-4.9-2.5-4.7-3-3.9-2.8-3.1-2.8-5.2-6-3.9-6.7-2.1-6.5-.4-5.1.2-2.9 1.6-5.2 1.3-2.4 1.5-2.1 1.9-1.8 2.2-1.5 3.2-1.5 3.4-.8 3.5-.3 7.5.6 4.2.9 25.6 7.4 6.4 1.5 6.6 1 12 .6 26.6-.5 6.7.2 6.5.5 6.4.9 6 1.6 3.9 1.4 3.7 1.7 3.5 2.1 2.7 2.2 2.4 2.5 2 2.9 1.5 3.2 1.2 3.5.8 3.9.3 4.6-.1 4.9-.7 5.2-1.1 5.1-3.3 10.4-4.5 10-5.4 9.3-5.7 7.7-5 5.6-5.2 5.1-5.4 4.7-5.5 4.1-5.7 3.7-5.9 3.3-6.2 2.9-6.3 2.5-6.6 2-6.8 1.6-7.1 1.1-11.2.9z" fill="#f59397" fill-rule="nonzero" group-id="1,3,10" node-id="196" stroke="none" target-height="132.80005" target-width="155.29999" target-x="213" target-y="988.6"/><path d="m272.7 1083.2-7.4-.6-6.4-.9-5.6-1.2-5.5-1.7-8.9-3.7-7.4-4.5-6.7-5.7-2.8-3.1-2.3-3-2.6-4.5-.3-2.6.9-2.4 2.1-1.6 1.3-.3h1.3l2.3.9.9.9 3.9 6 2.8 3.2 5 4.1 7.1 4.2 4.4 1.9 5.2 1.7 5.3 1.3 6.3 1 7.3.6 2.5.8 1.8 1.9.4 1.2-.1 2.6-.5 1.1-1.8 1.8-2.5.6z" fill="#f59397" fill-rule="nonzero" group-id="1,3,10" node-id="198" stroke="none" target-height="35.799927" target-width="60.800003" target-x="216.8" target-y="1047.4"/></g></g></svg>